<?xml version="1.0" encoding="utf-8"?>
<!-- Generator: Adobe Illustrator 25.2.0, SVG Export Plug-In . SVG Version: 6.00 Build 0)  -->
<svg version="1.1" id="a8897f4c-2937-4134-8b3a-fee1040aeff6"
	 xmlns="http://www.w3.org/2000/svg" xmlns:xlink="http://www.w3.org/1999/xlink" x="0px" y="0px" viewBox="0 0 1066.1 824.2"
	 style="enable-background:new 0 0 1066.1 824.2;" xml:space="preserve">
<style type="text/css">
	.st0{fill:#E7E7E7;}
	.st1{fill:#F5F5F5;}
</style>
<g>
	<g>
		<polygon class="st0" points="406.3,732.9 368.9,732.9 368.9,171.9 389.8,171.9 		"/>
		<path class="st0" d="M386.5,191.3h-35.1c-10.7,0-19.4-8.7-19.4-19.4l0,0c0-10.7,8.7-19.4,19.4-19.4h35.1
			c10.7,0,19.4,8.7,19.4,19.4l0,0C405.8,182.6,397.1,191.3,386.5,191.3z"/>
		<ellipse class="st1" cx="347.8" cy="172.2" rx="18.6" ry="20.8"/>
		<polygon class="st1" points="347.8,172.2 190.3,11.7 282.7,151.6 		"/>
		<polygon class="st1" points="347.8,172.2 287.5,388.9 362.4,238.9 		"/>
		<polygon class="st1" points="347.8,172.2 565.5,116.1 398.2,126.2 		"/>
	</g>
	<g>
		<polygon class="st0" points="733.1,732.9 701.6,732.9 701.6,213.5 719.2,213.5 		"/>
		<path class="st0" d="M716.4,229.8h-29.5c-9,0-16.3-7.3-16.3-16.3l0,0c0-9,7.3-16.3,16.3-16.3h29.5c9,0,16.3,7.3,16.3,16.3l0,0
			C732.7,222.5,725.3,229.8,716.4,229.8z"/>
		<ellipse class="st1" cx="683.8" cy="213.8" rx="15.7" ry="17.5"/>
		<polygon class="st1" points="683.8,213.8 762.7,41.7 680.5,156.4 		"/>
		<polygon class="st1" points="683.8,213.8 495.4,231.5 635.8,245.3 		"/>
		<polygon class="st1" points="683.8,213.8 793.4,368.1 735.1,239.6 		"/>
	</g>
	<g>
		<path class="st0" d="M241,188.6c-6.3-12.7-18.6-21.8-31.2-21.8c-7.9,0-14.5,3.6-18.8,9.4c-4.1-3.3-8.9-5.3-13.8-5.3
			c-8.6,0-14.9,6.1-16.4,14.8c-4-1.9-8.3-3.1-12.7-3.3c-8.6-0.4-15.4,3.1-18.8,8.9c-1.6-1-3.4-1.6-5.3-1.6c-4.9-0.2-8.1,3.3-7.2,7.9
			c0.1,0.3,0.1,0.6,0.2,0.8h139.1C256.5,193.8,247.1,188.8,241,188.6z"/>
		<path class="st1" d="M967,145.7c-6.3-12.7-18.6-21.8-31.2-21.8c-7.9,0-14.5,3.6-18.8,9.4c-4.1-3.3-8.9-5.3-13.8-5.3
			c-8.6,0-14.9,6.1-16.4,14.8c-4-1.9-8.3-3.1-12.7-3.3c-8.6-0.4-15.4,3.1-18.8,8.9c-1.6-1-3.4-1.6-5.3-1.6c-4.9-0.2-8.1,3.3-7.2,7.9
			c0.1,0.3,0.1,0.6,0.2,0.8h139.1C982.5,151,973.1,145.9,967,145.7z"/>
		<path class="st1" d="M625.7,324.1c-0.7-0.1-1.4-0.1-2-0.1c-6.2-7.5-13.9-12.3-21.2-12.3c-5.3,0-9.4,2.5-12.2,6.7
			c-11.3-14.6-25.8-24.1-39.5-24.1c-11,0-19.3,6.2-24,16.2c-6.4-5.7-13.5-9.2-20.3-9.2c-12,0-19.4,10.6-19.5,25.6c0,0,0,0,0,0
			c-5.9-3.3-12.2-5.4-18.3-5.7c-12-0.7-20.6,5.4-24.2,15.3c-2.5-1.7-5.1-2.7-7.7-2.9c-6.6-0.4-10.2,5.1-8.6,12.4h227.5
			C650.9,335,637.9,325.3,625.7,324.1z"/>
		<path class="st0" d="M689.5,20.4c-0.3,0-0.7-0.1-1-0.1c-3.1-3.8-7-6.2-10.6-6.2c-2.6,0-4.7,1.3-6.1,3.4c-5.6-7.3-12.9-12-19.7-12
			c-5.5,0-9.7,3.1-12,8.1c-3.2-2.9-6.8-4.6-10.2-4.6c-6,0-9.7,5.3-9.8,12.8c0,0,0,0,0,0c-3-1.7-6.1-2.7-9.2-2.9
			c-6-0.3-10.3,2.7-12.1,7.7c-1.2-0.8-2.6-1.4-3.9-1.4c-3.3-0.2-5.1,2.6-4.3,6.2h113.8C702.1,25.9,695.6,21,689.5,20.4z"/>
	</g>
</g>
</svg>
