<?xml version="1.0" encoding="utf-8"?>
<!-- Generator: Adobe Illustrator 25.2.0, SVG Export Plug-In . SVG Version: 6.00 Build 0)  -->
<svg version="1.1" id="a8897f4c-2937-4134-8b3a-fee1040aeff6"
	 xmlns="http://www.w3.org/2000/svg" xmlns:xlink="http://www.w3.org/1999/xlink" x="0px" y="0px" viewBox="0 0 1066.1 824.2"
	 style="enable-background:new 0 0 1066.1 824.2;" xml:space="preserve">
<style type="text/css">
	.st0{fill:#007CFF;}
	.st1{opacity:0.2;}
	.st2{opacity:0.5;fill:#FFFFFF;}
	.st3{opacity:0.3;fill:#007CFF;}
	.st4{opacity:0.7;fill:#007CFF;}
	.st5{opacity:0.2;fill:#007CFF;}
	.st6{fill:#1A2E35;}
	.st7{opacity:0.4;}
	.st8{fill:#FFFFFF;}
	.st9{opacity:0.5;fill:#007CFF;}
	.st10{opacity:0.4;fill:#FFFFFF;}
	.st11{opacity:0.4;fill:#1A2E35;}
</style>
<g>
	<g>
		<g>
			<path class="st0" d="M540.7,622.7c-0.1,0-0.1,0-0.2,0v0H486c-23.4,0-42.5,30.8-42.5,68.7c0,37.9,19,68.7,42.5,68.7h54.5v0
				c0.1,0,0.1,0,0.2,0c23.4,0,42.5-30.8,42.5-68.7C583.1,653.4,564.1,622.7,540.7,622.7z"/>
			<path class="st1" d="M540.7,622.7c-0.1,0-0.1,0-0.2,0v0H486c-23.4,0-42.5,30.8-42.5,68.7c0,37.9,19,68.7,42.5,68.7h54.5v0
				c0.1,0,0.1,0,0.2,0c23.4,0,42.5-30.8,42.5-68.7C583.1,653.4,564.1,622.7,540.7,622.7z"/>
		</g>
		<g>
			<path class="st0" d="M293.9,622.7c-0.1,0-0.1,0-0.2,0v0h-54.5c-23.4,0-42.5,30.8-42.5,68.7c0,37.9,19,68.7,42.5,68.7h54.5v0
				c0.1,0,0.1,0,0.2,0c23.4,0,42.5-30.8,42.5-68.7C336.3,653.4,317.3,622.7,293.9,622.7z"/>
			<path class="st1" d="M293.9,622.7c-0.1,0-0.1,0-0.2,0v0h-54.5c-23.4,0-42.5,30.8-42.5,68.7c0,37.9,19,68.7,42.5,68.7h54.5v0
				c0.1,0,0.1,0,0.2,0c23.4,0,42.5-30.8,42.5-68.7C336.3,653.4,317.3,622.7,293.9,622.7z"/>
		</g>
	</g>
	<path class="st0" d="M815.7,570.5l12.5,10.7c5.9,5.1,8.5,13,6.7,20.6l-2.8,12L815.7,570.5z"/>
	<g>
		<path class="st0" d="M838.3,640.2L838.3,640.2c-2.2-23.4-8.3-46.3-18.1-67.7l-4.2-9.2l-103.5,0L766,717.7l0,0
			c18.9-4.7,36.4-13.8,51-26.6l1.2-1.1C832.6,677.6,840,659.1,838.3,640.2z"/>
		<path class="st2" d="M838.3,640.2L838.3,640.2c-2.2-23.4-8.3-46.3-18.1-67.7l-4.2-9.2l-103.5,0L766,717.7l0,0
			c18.9-4.7,36.4-13.8,51-26.6l1.2-1.1C832.6,677.6,840,659.1,838.3,640.2z"/>
	</g>
	<g>
		<path class="st0" d="M700.9,760.1c-23.4,0-42.5-30.8-42.5-68.7c0-37.9,19-68.7,42.5-68.7h54.5v137.4H700.9z"/>
		<ellipse class="st0" cx="755.6" cy="691.4" rx="42.5" ry="68.7"/>
		<ellipse class="st1" cx="755.6" cy="691.4" rx="29.8" ry="43.4"/>
	</g>
	<g>
		<path class="st0" d="M391,717.7L288.9,553.9c0,0,80.8-81.7,257.2-81.7c152.7,0,244.2,50.4,269.8,91.1l-60.5,59.4
			c-58.6,0-58.3,62.2-66.3,88.3c-1.2,4.1-4.9,6.8-9.2,6.8H391"/>
		<path class="st2" d="M391,717.7L288.9,553.9c0,0,80.8-81.7,257.2-81.7c152.7,0,244.2,50.4,269.8,91.1l-60.5,59.4
			c-58.6,0-58.3,62.2-66.3,88.3c-1.2,4.1-4.9,6.8-9.2,6.8H391"/>
	</g>
	<g>
		<path class="st0" d="M454.1,760.1c-23.4,0-42.5-30.8-42.5-68.7c0-37.9,19-68.7,42.5-68.7h54.5v137.4H454.1z"/>
		<ellipse class="st0" cx="508.8" cy="691.4" rx="42.5" ry="68.7"/>
		<ellipse class="st1" cx="508.8" cy="691.4" rx="29.8" ry="43.4"/>
	</g>
	<g>
		<path class="st0" d="M434,704.2c5.2-30.7,35.8-81.5,74.5-81.5l37.5-68.8c0,0-226,0-257.2,0c-16.4,0-93.1,27.7-121,55.6
			c-19.5,19.5-21.6,39.2-23.9,89.3c-0.5,10.2,8.9,19,20.2,19c94.9,0,209.7,0.4,251.5,0.5C425,718.3,432.6,712.4,434,704.2z"/>
		<path class="st2" d="M434,704.2c5.2-30.7,35.8-81.5,74.5-81.5l37.5-68.8c0,0-226,0-257.2,0c-16.4,0-93.1,27.7-121,55.6
			c-19.5,19.5-21.6,39.2-23.9,89.3c-0.5,10.2,8.9,19,20.2,19c94.9,0,209.7,0.4,251.5,0.5C425,718.3,432.6,712.4,434,704.2z"/>
	</g>
	<path class="st3" d="M546.1,472.2c-175.4,0-255.4,80.4-257.2,81.6c0,0,0,0,0,0h177.4c0,0,76.3-65.9,126.8-80
		C578.2,472.8,562.5,472.2,546.1,472.2z"/>
	<path class="st4" d="M326.7,624.1c24.3-9.2,97.8-35.1,117.9-28.4c20,6.7-28.5,30.8-40.7,34c-12.2,3.2-20.3-3.2-38.6,5.6
		C347,644.1,297.2,635.2,326.7,624.1z"/>
	<path class="st5" d="M628.2,718.7c-0.2,0-0.4-0.1-0.5-0.2c-0.4-0.3-0.5-0.9-0.2-1.3c0.4-0.5,36.3-54.7,36.3-163.3
		c0-0.5,0.4-0.9,0.9-0.9s0.9,0.4,0.9,0.9c0,109.3-36.3,163.8-36.7,164.4C628.8,718.5,628.5,718.7,628.2,718.7z"/>
	<path class="st5" d="M238.5,634.8c-0.1,0-0.1,0-0.2,0l-48.9-11.2c-0.5-0.1-0.8-0.6-0.7-1.1c0.1-0.5,0.6-0.8,1.1-0.7l48.7,11.2
		l80.5-9.2c0.5,0,1,0.3,1,0.8c0.1,0.5-0.3,1-0.8,1l-80.7,9.2C238.6,634.8,238.6,634.8,238.5,634.8z"/>
	<path class="st5" d="M755.4,623.6c-0.2,0-0.5-0.1-0.7-0.3c-0.4-0.4-0.4-1,0-1.3c17.1-16.7,26.2-55.8,26.2-77.6
		c0-0.5,0.4-0.9,0.9-0.9c0.5,0,0.9,0.4,0.9,0.9c0,22.1-9.3,61.9-26.7,79C755.8,623.5,755.6,623.6,755.4,623.6z"/>
	<path class="st0" d="M617.9,572.6h24.3c1.9,0,3.4-1.5,3.4-3.4l0,0c0-1.9-1.5-3.4-3.4-3.4h-24.3c-1.9,0-3.4,1.5-3.4,3.4l0,0
		C614.4,571,616,572.6,617.9,572.6z"/>
	<path class="st0" d="M724.6,572.6H749c1.9,0,3.4-1.5,3.4-3.4l0,0c0-1.9-1.5-3.4-3.4-3.4h-24.3c-1.9,0-3.4,1.5-3.4,3.4l0,0
		C721.2,571,722.7,572.6,724.6,572.6z"/>
	<path class="st4" d="M187.9,625c-5-3.1-13.2-7.9-22.5-12.8c-5.3,5.8-9.2,11.7-12,18.5c2.8,0.6,6,1.9,10,5
		C175.2,644.7,207,636.6,187.9,625z"/>
	<path class="st3" d="M497.7,553.9h247.9c12.7,0,25.1-3.3,36.2-9.5l0,0c0,0-40.1-36.5-120.9-52.2c-33.2-6.5-64.7-9-74.3-8.3
		C563.5,496.1,528.1,521.6,497.7,553.9z"/>
	<path class="st0" d="M349,706.4H172.7c-4.2,0-6.5-5-3.7-8.2l4.6-5.1c0.9-1.1,2.3-1.7,3.7-1.7h167.2c1.4,0,2.7,0.6,3.7,1.7l4.6,5.1
		C355.5,701.4,353.2,706.4,349,706.4z"/>
	<path class="st0" d="M811.4,624.4l-11.1,2.1v-30.1l11.1,2.1c1.5,0.3,2.6,2.3,2.6,4.7v16.4C814.1,622,812.9,624.1,811.4,624.4z"/>
</g>
<g>
	<g>
		<rect x="737.1" y="60.3" class="st6" width="116.6" height="701.1"/>
		<rect x="747.1" y="51.6" class="st6" width="138.6" height="8.6"/>
		<rect x="853.8" y="51.6" class="st7" width="32" height="8.6"/>
		<polygon class="st8" points="814.7,122.4 795,122.4 812.2,95.2 790.6,95.2 776.2,133.6 794.1,133.6 783.2,168.3 		"/>
		
			<ellipse transform="matrix(0.7071 -0.7071 0.7071 0.7071 -122.8899 709.8732)" class="st9" cx="795.4" cy="503.3" rx="24.5" ry="24.5"/>
		<path class="st0" d="M690.8,769.5c-2.4,0-4.4-2-4.4-4.4c0-2.4,2-4.4,4.4-4.4c14.1,0,23.9-3.5,29.8-10.7c13.6-16.5,6.8-52-0.3-89.7
			c-4.8-25-9.7-50.8-9.7-74.8c0-55.9,30.1-86.7,84.9-86.7c2.4,0,4.4,2,4.4,4.4c0,2.4-2,4.4-4.4,4.4c-34.7,0-76.1,13.5-76.1,77.9
			c0,23.2,4.9,48.6,9.6,73.2c7.6,39.7,14.8,77.2-1.5,96.9C719.7,765,707.7,769.5,690.8,769.5z"/>
		<rect x="751.7" y="282.6" class="st9" width="87.5" height="176.9"/>
		<polygon class="st9" points="751.7,282.6 751.7,459.5 783,307.2 		"/>
		<polygon class="st0" points="822.6,342.3 824.4,333.6 800.5,333.6 798.7,342.3 789.5,342.3 772.5,424.5 815.1,424.5 832.1,342.3 
					"/>
		<path class="st10" d="M820.4,371.4l-8.7,42.3c-0.6,3-3.2,5.1-6.3,5.1h-21.3c-2.5,0-4.3-2.3-3.8-4.7l8.7-42.3
			c0.6-3,3.2-5.1,6.3-5.1h21.3C819,366.8,820.9,369,820.4,371.4z"/>
		<polygon class="st11" points="751.7,282.6 839.2,282.6 839.2,307.2 783,307.2 		"/>
		<g>
			
				<rect x="853.8" y="60.3" transform="matrix(-1 -1.224647e-16 1.224647e-16 -1 1749.4865 821.6066)" class="st6" width="42" height="701.1"/>
			
				<rect x="853.8" y="60.3" transform="matrix(-1 -1.224647e-16 1.224647e-16 -1 1749.4865 821.6066)" class="st7" width="42" height="701.1"/>
		</g>
	</g>
</g>
</svg>
