<?xml version="1.0" encoding="utf-8"?>
<!-- Generator: Adobe Illustrator 25.2.0, SVG Export Plug-In . SVG Version: 6.00 Build 0)  -->
<svg version="1.1" id="a8897f4c-2937-4134-8b3a-fee1040aeff6"
	 xmlns="http://www.w3.org/2000/svg" xmlns:xlink="http://www.w3.org/1999/xlink" x="0px" y="0px" viewBox="0 0 1066.1 824.2"
	 style="enable-background:new 0 0 1066.1 824.2;" xml:space="preserve">
<style type="text/css">
	.st0{fill:#EBB376;}
	.st1{fill:#1A2E35;}
	.st2{opacity:5.000000e-02;fill:#FFFFFF;enable-background:new    ;}
	.st3{fill:#007CFF;}
	.st4{opacity:0.2;enable-background:new    ;}
	.st5{opacity:0.3;fill:#FFFFFF;enable-background:new    ;}
	.st6{fill:#FFFFFF;}
	.st7{fill:#D58745;}
	.st8{fill:#DE5753;}
	.st9{opacity:0.3;enable-background:new    ;}
	.st10{opacity:0.6;fill:#FFFFFF;enable-background:new    ;}
</style>
<g>
	<path class="st0" d="M637.5,212.2c0,0,24.1-24.1,31.9-41.3c0,0-2.9-9.6-0.2-14.6c2.8-5,18.8-19.2,23.1-16.2c4.3,3,10.5,15,7.9,20
		c-2.6,5-18.3,15.3-18.3,15.3s-19.5,39.2-31.6,48C638.2,232.3,637.5,212.2,637.5,212.2z"/>
	<path class="st1" d="M576.5,139.7c14,1.8,30.1,69.9,41.3,76.3c11.2,6.4,40.3-31.2,40.3-31.2l13.4,15.2c0,0-38.5,53.6-53.7,48.8
		c-15.2-4.8-43.9-57.6-43.9-57.6L576.5,139.7z"/>
	<path class="st2" d="M576.5,139.7c14,1.8,30.1,69.9,41.3,76.3c11.2,6.4,40.3-31.2,40.3-31.2l13.4,15.2c0,0-38.5,53.6-53.7,48.8
		c-15.2-4.8-43.9-57.6-43.9-57.6L576.5,139.7z"/>
	<polygon class="st0" points="661.8,767.9 643.3,771.2 635.8,746 628.9,722.9 650.1,715.5 656.3,743.2 	"/>
	<path class="st1" d="M639.2,770.7c-0.3-2,25-4.9,25-4.9s18.1,12.9,33.7,13.8c15.6,0.9,8.8,11.3-7.9,14.3
		c-16.7,2.9-29.4,5.2-41.3,7.3C636.8,803.3,642.4,791.9,639.2,770.7z"/>
	<g>
		<path class="st3" d="M676.5,770c-3.5,0-7.9-1.1-9.1-1.5c-0.1,0-0.2-0.1-0.2-0.1l0,0l0,0c-0.1,0-0.1-0.1-0.2-0.2l0,0c0,0,0,0,0,0
			c0,0-0.1-0.1-0.1-0.2c0,0,0,0,0,0h0c0-0.1,0-0.2,0-0.3c0-0.3,1.1-6.5,4.3-8.5c1-0.6,2.1-0.8,3.2-0.5c1.2,0.3,1.9,0.9,2,1.8
			c0.2,1.3-1.4,3-3.2,4.4c2.1-0.6,4.2-0.9,5.7-0.4c0.8,0.3,1.3,0.8,1.6,1.5c0.6,1.4,0.3,2.3-0.1,2.8
			C679.8,769.7,678.3,770,676.5,770z M669.7,767.7c4,0.9,8.8,1.5,9.8,0.3c0.1-0.1,0.4-0.4-0.1-1.3c-0.2-0.3-0.4-0.6-0.9-0.7
			C676.6,765.2,672.4,766.6,669.7,767.7z M673.4,760c-0.5,0-1,0.1-1.4,0.4c-1.7,1.1-2.8,4.1-3.3,6.1c3.5-2.1,6.7-4.6,6.6-5.8
			c0-0.4-0.7-0.6-1-0.7C673.9,760.1,673.6,760,673.4,760z"/>
	</g>
	<polygon class="st4" points="656.4,743.8 635.9,746.5 628.9,723.2 650.2,715.6 	"/>
	<polygon class="st0" points="538.6,775.8 519.9,775.8 516.8,749.7 514,725.8 536.2,722.2 537.5,750.6 	"/>
	<path class="st1" d="M515.8,774.6c0-2.1,25.4-0.4,25.4-0.4s15.6,15.9,30.8,19.4c15.2,3.6,6.7,12.7-10.3,12.7c-17,0-29.9,0-41.9,0
		C507.8,806.3,515.3,796,515.8,774.6z"/>
	<g>
		<path class="st3" d="M554.6,780.7c-3.5,0-9.2-2.6-10.5-3.2c-0.1,0-0.2-0.1-0.2-0.2l0,0h0c0,0-0.1-0.1-0.1-0.1
			c-0.1-0.2-0.1-0.3,0-0.5c0.1-0.3,2.2-6.2,5.7-7.6c1.1-0.5,2.2-0.4,3.3,0.1c1.2,0.5,1.7,1.3,1.7,2.1c-0.1,1.3-1.9,2.7-3.9,3.8
			c2.1-0.2,4.3-0.2,5.7,0.6c0.7,0.4,1.2,1,1.4,1.7c0.4,1.5-0.1,2.3-0.6,2.7C556.3,780.5,555.6,780.7,554.6,780.7z M546.4,777
			c3.7,1.6,8.4,3,9.6,2c0.1-0.1,0.4-0.3,0.2-1.3c-0.1-0.4-0.3-0.7-0.7-0.9C553.6,775.7,549.3,776.4,546.4,777z M551,770
			c-0.3,0-0.7,0.1-1,0.2c-1.9,0.8-3.5,3.5-4.4,5.5c3.8-1.4,7.4-3.4,7.5-4.5c0-0.4-0.6-0.7-0.9-0.8C551.7,770.1,551.4,770,551,770z"
			/>
	</g>
	<polygon class="st4" points="537.5,751.1 516.8,750.2 514,726 536.2,722.3 	"/>
	<g>
		<path class="st3" d="M658.1,729.2l-30.3,5.3c-30.6-76.3-52.4-139.9-67.8-192.7c-8.3-28.5-14.7-53.9-19.7-76.3l1.4,83V737h-30.8
			c-74.9-357.3-21.8-439-21.8-439l89.6-15.3c3.4,13.4,6,35.1,7.5,50.2l4,29.6l35,180.9L658.1,729.2z"/>
	</g>
	<polygon class="st3" points="623.1,730.8 660.7,718.3 660.2,734.3 629.1,744.2 	"/>
	<polygon class="st3" points="506.9,732.5 546.1,726.8 542.9,742.4 510.5,746.8 	"/>
	<path class="st1" d="M570.7,102.5c-0.1,0-0.3,0-0.4-0.1c-11.4-6.9-21.6-32.3-22.1-33.4c-0.2-0.4,0-0.8,0.4-1c0.4-0.1,0.8,0,1,0.4
		c0.1,0.3,10.4,26,21.4,32.6c0.4,0.2,0.5,0.7,0.3,1C571.2,102.3,570.9,102.5,570.7,102.5z"/>
	<path class="st1" d="M478.7,35.8c0,0,4.5-15.2,34.2-17.7c29.8-2.6,44.6,26.7,37.6,48.5c0,0,6.3,29.7,18.3,38.4
		c0,0-57.3,25.9-86.2,26c-6.4,0-20.2-31.9-22-54.9C458.9,53.9,465.6,36.5,478.7,35.8z"/>
	<polygon class="st1" points="489.1,284.6 489.1,298 580.5,291 580.5,275.2 	"/>
	<polygon class="st5" points="489.1,284.6 489.1,298 580.5,291 580.5,275.2 	"/>
	
		<rect x="540" y="279.3" transform="matrix(0.996 -8.920225e-02 8.920225e-02 0.996 -23.4008 50.212)" class="st6" width="20.1" height="15.2"/>
	<g>
		
			<rect x="515.9" y="279.1" transform="matrix(0.9987 -5.105561e-02 5.105561e-02 0.9987 -14.1646 26.8323)" class="st3" width="4.5" height="23.1"/>
	</g>
	<g>
		
			<rect x="571.7" y="273" transform="matrix(0.9987 -5.092893e-02 5.092893e-02 0.9987 -13.7463 29.6011)" class="st3" width="4.5" height="23.1"/>
	</g>
	<path class="st1" d="M580.9,276.8l-91.4,7.9c-0.9-13.8-1.8-25.7-3.9-38.9c-1.3-8.5-3.2-17.6-5.9-28.2c-2.1-8.3-4.6-17.5-7.9-28.1
		c-0.2-0.6-0.3-1.2-0.5-1.7c-1.9-6-15.3-1.4-16.5-8.7c-5.3-32.3,29.6-34.7,42.4-36.8c13.5-2.4,27.3-3.9,41.1-4.3
		c17.8-0.2,38.2,1.9,38.2,1.9s2.9,0.7,4.7,19.6C582.9,177,584.6,212.4,580.9,276.8z"/>
	<path class="st0" d="M530.8,158.1c-22.5-2.9-29.3-12.5-29.3-12.5c14.3-13.5,2.4-36.9,2.4-36.9l27.1,5.1c-0.7,4.5-1,8.2-1.1,11.4
		c-0.2,16.5,7.2,16.6,7.2,16.6C541.9,150.7,530.8,158.1,530.8,158.1z"/>
	<path class="st4" d="M531,113.7c-0.7,4.5-1,8.2-1.1,11.4c-18.3,0-26.1-16.5-26.1-16.5L531,113.7z"/>
	<g>
		<path class="st0" d="M510.2,37.8c23-5.2,33.2,5.4,40.3,28.8c8.8,29.2,7,51.7-23.2,51.9C486.2,118.8,472,46.5,510.2,37.8z"/>
		<path class="st7" d="M535.3,68.7c0,0,4.6,5.3,8.9,8c0,0-1.3,3.6-5.5,4L535.3,68.7z"/>
		<g>
			<path class="st1" d="M520.8,70c0.5,1.9-0.2,3.7-1.4,4c-1.3,0.3-2.7-1-3.1-2.8c-0.5-1.9,0.2-3.7,1.4-4
				C518.9,66.9,520.3,68.1,520.8,70z"/>
			<path class="st1" d="M517.2,67.4l3.7-2.6C520.9,64.8,519.7,68.7,517.2,67.4z"/>
		</g>
		<g>
			<path class="st1" d="M544.1,63.7c0.5,1.9-0.2,3.7-1.4,4c-1.3,0.3-2.7-1-3.1-2.8c-0.5-1.9,0.2-3.7,1.4-4
				C542.2,60.6,543.6,61.9,544.1,63.7z"/>
			<path class="st1" d="M540.5,61.1l3.7-2.6C544.2,58.5,543,62.4,540.5,61.1z"/>
		</g>
		<path class="st1" d="M507.8,61c-0.2,0-0.3,0-0.5-0.1c-0.5-0.3-0.8-0.9-0.5-1.5c2.8-5.6,9.8-6.3,10.1-6.4c0.6-0.1,1.1,0.4,1.2,1
			c0.1,0.6-0.4,1.1-1,1.2c-0.1,0-6.1,0.6-8.3,5.1C508.6,60.8,508.2,61,507.8,61z"/>
		<path class="st1" d="M533.5,50.5c-0.4,0-0.7-0.2-0.9-0.5c-0.3-0.5-0.2-1.2,0.3-1.5c0.2-0.1,4.3-2.7,10.6-0.3
			c0.6,0.2,0.9,0.9,0.6,1.4c-0.2,0.6-0.9,0.9-1.4,0.6c-5.2-2-8.5,0-8.6,0.1C533.9,50.4,533.7,50.5,533.5,50.5z"/>
		<path class="st1" d="M537.4,90.5c-0.7,3.1-0.9,8.6-0.9,8.6c-0.5,0.1-1,0.1-1.5,0.2c-6.9,0.8-10.3-1-12.1-3.4
			c-1-1.3-1.4-2.7-1.6-3.9c-0.2-1.4-0.1-2.4-0.1-2.4c3.9,1.7,10.4,1.4,13.8,1.1C536.5,90.7,537.4,90.5,537.4,90.5z"/>
		<path class="st6" d="M535.1,90.8l-0.3,2.5c-6.5,0.8-11.1,0.5-13.4-1.3c-0.2-1.4-0.1-2.4-0.1-2.4C525.2,91.4,531.6,91.1,535.1,90.8
			z"/>
		<path class="st8" d="M535,99.3c-6.9,0.8-10.3-1-12.1-3.4c2.3-0.2,5.2-0.2,7.8,0.6C532.7,97.1,534.1,98.2,535,99.3z"/>
		<path class="st1" d="M493.8,82.3c0,0,6.5-21.4,1.5-35.6c0,0,41.4-29,54.2,16.8c0,0-4.9-42.1-44.7-34.1c-39.7,8-26.5,65.9-2.2,78.6
			C502.7,108,489.8,95.7,493.8,82.3z"/>
		<path class="st0" d="M498.7,86.4c-1-3.7-6.2-9.1-13-6.8c-7,2.4-7,17.8,11.5,17.3C499.9,96.8,500.8,94,498.7,86.4z"/>
	</g>
	<path class="st1" d="M495.4,46.7c0,0,23.9-8.8,37.3-2.2c0,0-14.5-13-39-0.8L495.4,46.7z"/>
	<path class="st0" d="M480.6,148c0,0,26.5,21.5,51.1,21.1c24.6-0.3,33.3-28,33.3-28S526.7,129.8,480.6,148z"/>
	<path class="st4" d="M560.1,541.8c-8.3-28.5-14.7-53.9-19.7-76.3c0,0,0.5-43.7,5.8-79.6C546.2,385.8,559.3,488.5,560.1,541.8z"/>
	<path class="st0" d="M406.5,195.6c0,0-18.1-28.9-21.9-47.4c0,0,5-8.7,3.4-14.2c-1.6-5.5-14.1-23-18.9-21
		c-4.9,2-13.6,12.3-12.2,17.7c1.4,5.5,14.4,19,14.4,19s10.3,42.5,20.1,53.8C401.4,215,406.5,195.6,406.5,195.6z"/>
	<path class="st1" d="M455.9,163.2c9.2-1.3,27.8,16.7,25,32.3c-2.8,15.6-28.9,59.3-49,55.9c-28.4-4.8-59.6-79.7-59.6-79.7l15.6-13.6
		c0,0,36.8,63.7,44,62.5C439.2,219.3,455.9,163.2,455.9,163.2z"/>
	<path class="st2" d="M455.9,163.2c9.2-1.3,27.8,16.7,25,32.3c-2.8,15.6-28.9,59.3-49,55.9c-28.4-4.8-59.6-79.7-59.6-79.7l15.6-13.6
		c0,0,36.8,63.7,44,62.5C439.2,219.3,455.9,163.2,455.9,163.2z"/>
	<polygon class="st1" points="365.9,167.1 388.7,153.4 392.3,159.3 370.8,178.3 	"/>
	<polygon class="st1" points="653.1,184.4 671.5,207.2 674.7,200.1 658.1,180.8 	"/>
	<g>
		<path class="st3" d="M662.3,153.6l29.1-35.5c1-1.2,2.8-1.3,4-0.3l13,12.3c1,1,1.2,2.6,0.2,3.7l-29.6,36.3c-1,1.3-3,1.4-4.1,0.2
			l-12.5-13.1C661.5,156.2,661.4,154.6,662.3,153.6z"/>
		<path class="st9" d="M662.3,153.6l29.1-35.5c1-1.2,2.8-1.3,4-0.3l13,12.3c1,1,1.2,2.6,0.2,3.7l-29.6,36.3c-1,1.3-3,1.4-4.1,0.2
			l-12.5-13.1C661.5,156.2,661.4,154.6,662.3,153.6z"/>
		<path class="st3" d="M661.1,152.1l29.1-35.5c1-1.2,2.8-1.3,4-0.3l13,12.3c1,1,1.2,2.6,0.2,3.7l-29.6,36.3c-1,1.3-3,1.4-4.1,0.2
			l-12.5-13.1C660.3,154.8,660.2,153.2,661.1,152.1z"/>
		<polygon class="st10" points="691.4,118.1 705.8,132 677.6,166.7 663.6,151.9 		"/>
	</g>
</g>
</svg>
