<?xml version="1.0" encoding="utf-8"?>
<!-- Generator: Adobe Illustrator 25.2.0, SVG Export Plug-In . SVG Version: 6.00 Build 0)  -->
<svg version="1.1" id="a8897f4c-2937-4134-8b3a-fee1040aeff6"
	 xmlns="http://www.w3.org/2000/svg" xmlns:xlink="http://www.w3.org/1999/xlink" x="0px" y="0px" viewBox="0 0 1066.1 824.2"
	 style="enable-background:new 0 0 1066.1 824.2;" xml:space="preserve">
<style type="text/css">
	.st0{opacity:0.1;fill:#ECECEC;}
	.st1{fill:#ECECEC;}
	.st2{opacity:0.1;fill:#F0F0F0;}
	.st3{fill:#007CFF;}
	.st4{opacity:0.7;}
	.st5{fill:#FFFFFF;}
	.st6{opacity:0.4;}
	.st7{opacity:0.3;fill:#FFFFFF;enable-background:new    ;}
	.st8{opacity:0.7;fill:#FFFFFF;enable-background:new    ;}
	.st9{opacity:0.8;fill:#FFFFFF;enable-background:new    ;}
	.st10{fill:#E4897B;}
	.st11{opacity:0.3;enable-background:new    ;}
	.st12{fill:#1A2E35;}
	.st13{opacity:0.2;enable-background:new    ;}
	.st14{fill:#DE5753;}
	.st15{opacity:0.5;fill:#FFFFFF;enable-background:new    ;}
	.st16{opacity:0.2;fill:#FFFFFF;enable-background:new    ;}
	.st17{fill:#EBB376;}
	.st18{opacity:0.4;fill:#007CFF;enable-background:new    ;}
	.st19{fill:#D58745;}
	.st20{fill:#EEC1BB;}
	.st21{fill:#D4827D;}
	.st22{fill:#9F5B53;}
	.st23{fill:#892B29;}
	.st24{opacity:0.6;fill:#FFFFFF;enable-background:new    ;}
</style>
<g>
	<g>
		<rect x="8.3" y="716.8" class="st0" width="1049.5" height="0.5"/>
		<rect x="883.1" y="750.6" class="st0" width="69.5" height="0.5"/>
		<rect x="685.3" y="756.3" class="st1" width="18.2" height="0.5"/>
		<rect x="840.7" y="731.1" class="st0" width="40.3" height="0.5"/>
		<rect x="118.4" y="734.6" class="st0" width="90.7" height="0.5"/>
		<rect x="227.8" y="734.6" class="st0" width="13.3" height="0.5"/>
		<rect x="284.3" y="743.5" class="st0" width="196.6" height="0.5"/>
	</g>
	<polygon class="st2" points="835.2,221.2 606.7,144.1 606.5,143.9 485.8,20.2 389,108.6 387.6,107 485.9,17.2 607.8,142.2 
		834.4,218.7 927.3,90.8 929,92.1 	"/>
	<g>
		<path class="st2" d="M125,411.1c0,6.2-5.1,11.3-11.3,11.3c-6.2,0-11.3-5.1-11.3-11.3c0-6.2,5.1-11.3,11.3-11.3
			C120,399.9,125,404.9,125,411.1z"/>
		<path class="st2" d="M497.2,18.7c0,6.2-5.1,11.3-11.3,11.3s-11.3-5.1-11.3-11.3s5.1-11.3,11.3-11.3S497.2,12.5,497.2,18.7z"/>
		<path class="st2" d="M939.5,91.5c0,6.2-5.1,11.3-11.3,11.3s-11.3-5.1-11.3-11.3c0-6.2,5.1-11.3,11.3-11.3S939.5,85.2,939.5,91.5z"
			/>
		<path class="st2" d="M940.5,687.4c0,6.2-5.1,11.3-11.3,11.3s-11.3-5.1-11.3-11.3s5.1-11.3,11.3-11.3
			C935.4,676.1,940.5,681.1,940.5,687.4z"/>
		<path class="st2" d="M618.6,143.1c0,6.2-5.1,11.3-11.3,11.3s-11.3-5.1-11.3-11.3s5.1-11.3,11.3-11.3
			C613.5,131.9,618.6,136.9,618.6,143.1z"/>
	</g>
	<polygon class="st2" points="410,687.7 409.1,687.5 125.9,634 126.3,632 408.6,685.3 606.3,142.8 608.3,143.5 	"/>
	
		<rect x="186" y="172.1" transform="matrix(0.6629 -0.7487 0.7487 0.6629 -114.1145 219.8099)" class="st2" width="2.1" height="129.1"/>
	<polygon class="st2" points="928.6,688.3 788.6,601.5 791.7,600.6 938.8,459.1 833.8,220.4 835.7,219.6 941.3,459.6 940.8,460.1 
		793.3,601.9 929.7,686.5 	"/>
	<polygon class="st2" points="127,633.6 125.2,632.4 209.8,501.7 112.3,411.2 113,410.4 235.2,278.1 235.9,278.6 792.7,600.7 
		791.7,602.5 235.6,280.8 115.2,411.1 212.5,501.4 	"/>
	<g>
		<g>
			<g>
				<path class="st3" d="M514.2,542c5.6,0.5,11.2,0.7,16.8,0.6c47.4-0.7,90.9-21,121.6-53.8C678.1,461.7,695,426,698.3,386
					c0.1-1,0.2-2.1,0.2-3.1c1.4-21.4-1.3-42.2-7.3-61.5l0,0c-18.4-59.2-68.3-105.4-131.6-117.2c-5.7-1-11.4-1.8-17.3-2.3
					c-14.2-1.2-28.1-0.6-41.5,1.6c-39.8,6.4-75.4,26.8-101.1,56.2c-23.1,26.5-38.3,60.4-41.5,98.1c-1.7,20.2,0.3,39.9,5.3,58.5
					C381.6,483.9,440.5,535.9,514.2,542z"/>
			</g>
			<g class="st4">
				<path class="st5" d="M514.2,542c5.6,0.5,11.2,0.7,16.8,0.6c47.4-0.7,90.9-21,121.6-53.8C678.1,461.7,695,426,698.3,386
					c0.1-1,0.2-2.1,0.2-3.1c1.4-21.4-1.3-42.2-7.3-61.5l0,0c-18.4-59.2-68.3-105.4-131.6-117.2c-5.7-1-11.4-1.8-17.3-2.3
					c-14.2-1.2-28.1-0.6-41.5,1.6c-39.8,6.4-75.4,26.8-101.1,56.2c-23.1,26.5-38.3,60.4-41.5,98.1c-1.7,20.2,0.3,39.9,5.3,58.5
					C381.6,483.9,440.5,535.9,514.2,542z"/>
			</g>
			<g>
				<path class="st3" d="M400.4,413.6c-0.6,3.2-4.6,4.3-7.8,4.7c-4.9,0.6-9.8,1.2-14.6,1.8c-2.3-6.1-9.5-6.1-14.5-3.8
					c18.2,67.5,77.1,119.6,150.7,125.6c5.6,0.5,11.2,0.7,16.8,0.6c0.1-0.1,0.2-0.3,0.3-0.4c2.5-4.5-1.1-8.4-3.1-12.1
					c-0.4-0.8-4.6-11.4-3.2-11.4c-4.5,0.1-9-0.5-13.3-1.7c-0.3-0.1-0.7-0.2-0.9-0.5c-0.4-0.7,0.6-1.4,1.4-1.6c2-0.5,4.1-0.6,6.1-1.2
					c2-0.6,3.9-1.8,4.7-3.7s0.2-4.1,0.6-6.2c0.5-2.5,2.6-4.4,4.8-5.5s4.7-1.4,7-1.9c-5.2-2.8-1.4-8.7-5.4-12.6
					c-1.3-1.3-3.2-2.8-2.4-4.4c0.8-1.5,3.5-1.5,3.8-3.2c0.2-1.2-1-2.1-2.2-2.4s-2.5-0.2-3.5-0.8c-1.5-0.8-2-3-1-4.4
					c0.9-1.2,2.5-1.6,3.8-2.3c1.3-0.7,2.5-2.4,1.7-3.7c-0.2-0.3-0.5-0.5-0.8-0.7c-2.2-1.4-5-0.2-7.2,1.2c-2.1,1.4-4.3,3.2-6.9,3.2
					c-0.6-1-0.2-2.4,0.8-2.9c0.4-0.2,0.8-0.3,1-0.5c0.6-0.6,0.1-1.6-0.3-2.4c-1.9-3.5-2.4-7.9-1.2-11.7c5.2,0.1,10.4,0.2,15.6,0.3
					c0.1-1.2,0.3-1.9,1.5-2.2c-3.5-4.2-7.3-8-10.4-12.6c-0.4-0.5-0.8-1.1-1.4-1.3c-0.6-0.2-1.4,0-2-0.1c-2.3-0.3-2.6-3.4-2.4-5.7
					c-0.3-0.7-1.4-0.4-1.8,0.2c-0.4,0.6-0.5,1.5-1,2c-0.8,0.8-2.1,0.7-3.2,0.3c-3.7-1.4-5.6-6.2-4-9.7c0.2-0.4,0.4-0.8,0.9-1.1
					c0.9-0.5,2,0.1,3,0.3c4,0.7,3.4-3.7,2.4-5.8c-1.3-2.8-5.2-4.6-8-5.4c-3.3-0.8-25.3-5-21.6-12.2c0.3-0.7,1-1.1,1.7-1.4
					c2.1-0.9,4.5-0.7,6.7-1.3c2.2-0.6,4.3-2.9,3.4-5c-0.4-0.8-1.2-1.4-1.6-2.2c-1.2-2.2,0.7-5.1-0.2-7.5c-0.4-1.1-1.3-1.9-1.9-2.9
					s-0.7-2.5,0.3-3.2c1.1-0.7,2.7,0.3,3.9-0.2c1.3-0.6,1.2-2.6,0-3.4c-1.1-0.8-2.7-0.5-3.9,0.3c-0.6,0.4-1.2,0.9-1.9,1
					c-1.3,0.2-2.2-1.1-2.9-2.2c-1-1.8-2.1-3.5-3.1-5.3c-1.2,0-2.1,1.1-2.5,2.2s-0.5,2.3-0.9,3.4c-2.2,5.3-10.2,4.6-9.2,11.8
					c2.2-0.3,4.2,2.2,3.5,4.2c-0.8,2.5-4.7,3.9-4.1,6.6c0.2,0.9,0.9,1.7,1.1,2.6c0.4,2.5-3.5,3.5-5.2,4.1c-5.6,1.9-6-1.8-10.8-2
					c-2.2-0.1-4.2,1.4-6.4,1.6c-2,0.2-4.1-0.6-6.1-0.5c-5.6,0.3-2.8,7.9-2.4,11.2c-3-2-7,0.3-9.4,3c-3.7,4.2-3.3,3.4-8.2,3.6
					c-1.3,0-2.6,0.7-3.2,1.9c-0.9,2.1,1,4.3,1.1,6.5c0,1.1-0.4,2.1-0.3,3.2c0.3,2.8,3.6,4,5.6,6c1.8,1.7,2.6,4.4,2.2,6.8
					c-1.4,0.1-2.9,0-4.3-0.3c-0.8-1.6-1.7-3.3-2.5-4.9c-0.7-1.4-1.5-2.9-2.9-3.9c-0.7-0.5-1.6-0.9-2.2-1.6c-1.1-1.5-0.2-3.5,0-5.3
					c0.6-4.3-1.6-11.7-2.6-16c-1.1-4.6-4.2-6.4-5.3-10.6c-0.2-0.7-1.2-1-1.9-0.6c-0.7,0.4-1,1.2-1.2,1.9c-0.4,1.7-0.3,3.6,0.5,5.3
					c-1-2.1-6.4,3.5-6.7,4.6c-0.5,1.8,0.6,4.2,0.6,6.1c-0.1,4.5-1.2,7.1-5.9,3.7c-1.8-1.3-4.1-2.8-6-1.7c0.4,1.2-0.4,2.6-1.6,3.2
					s-2.5,0.5-3.8,0.3c-0.9-0.2-1.8-0.4-2.3-1.1c-0.3-0.4-0.5-0.8-0.8-1.1c-1.2-0.9-2.7,0.7-3.4,2.1"/>
				<path class="st3" d="M606.6,279.4c0.9,1.5-0.1,3.4-1.1,4.8c-1.1,1.4-2.3,3-1.9,4.7c2,0.2,4.1,0.4,6.1,0.6c0.4,0,0.8,0.1,1,0.4
					s0.2,0.7,0.2,1.1c-0.2,1.3-0.3,2.6-0.5,3.9c-1.3,1-2.5-2.1-4.1-1.8c-0.7,0.1-1.1,0.9-1.4,1.5c-3.3,5.2-9,1.3-12.1-1.4
					c-3.6-3.1-8.7-3.3-13.5-3.4c-1.7,0-3.6,0-4.8,1.3c-1.2,1.2-1.2,3-1.8,4.6c-1,2.7-3.6,4.5-5.1,7c-5.2,8.8,4.1,15.5,12,13.1
					c4.1-1.2,3.4-2,7.6-0.7c1.7,0.5,3.9,0.1,4.9,2c1.1,2.1-0.5,4.8-2.8,4.7c-2.3,0-4.6,0.3-6.7-0.8c0.8,2.8-0.1,5.9-0.3,8.9
					c-2.7-0.6-5.3,2.7-4.1,5.2c1.3,0,3.1,0.5,3,1.8c0,0.4-0.2,0.7-0.5,1.1c-0.9,1.3-2.1,2.5-2.9,3.9c-1.2,2.2-1.2,8.7-4.3,9.5
					c-0.5,0.1-1.1,0.1-1.7,0.3c-1.1,0.4-1.8,1.7-1.5,2.9c0.3,1.2,1.3,2.1,2.5,2.4c0.8,0.2,1.6,0.2,2.4,0.5c4,1.4,0.5,5.4,1.5,7.4
					c0.5,0.9,7.2,5.2,8,5.4c-2.4,1.6-4.5,4.2-4.5,7.2c-0.1,3.3,2.4,4.9,5.5,5.9c3.3,1,7.3,1.4,9.7,2.3c1.3,0.5,2.8,1,3.9,0.1
					c1.3-1.1,1-3.6,2.6-4.3c0.5-0.2,1.1-0.2,1.6-0.3c3.2-0.3,5.7-3.6,5.1-6.8c0.7-1,2.2-0.9,3.4-0.8c1.2,0,2.7-0.4,2.9-1.6
					c0.2-1.4-1.6-2.1-2.9-2.2c-1.4-0.1-2.8,0-4.2,0.3c-1,0.2-2.1,0.6-3.1,0.1c-0.7-0.3-1.2-1-1.6-1.7c-1-1.6-1.9-3.5-1.7-5.4
					s1.7-3.8,3.6-3.8c0.5,0,1,0.2,1.5,0.1c1.3-0.2,1.9-1.8,1.8-3.1c-0.1-1.3-0.5-2.7-0.2-3.9c0.4-1.3,2.1-2.2,3-1.2
					c0.7-1.7,1.2-4.2-0.4-5c-0.5-0.3-1.2-0.2-1.7-0.3c-3.6-0.3-8.6-5.3-4.5-8.1c2.7-1.8,7,2,9.3-1.5c1.1-1.7,0.4-4.1,1.6-5.8
					c0.7-0.5,1.5,0.5,1.6,1.3c0.5,2.6-0.5,5.4-2.5,7.2c2.1,1.2,5.3-0.2,6.7,1.8c1.4,1.9-0.7,5.2,1.2,6.7c0.5,0.4,1.2,0.5,1.9,0.6
					c3.3,0.5,9.4-0.1,9.6,4.6c0,0.6-0.1,1.2,0.1,1.7c0.5,1.7,2.8,1.8,4.5,1.6c0.9-1.7-0.3-3.7-1-5.4c-0.8-1.8-0.7-4.4,1.1-4.9
					c1.3-0.3,2.9,0.8,4,0c0.5-0.4,0.8-1.1,1.3-1.4c1.4-0.7,2.5,1.4,4,1.8c2,0.6,3.5-2,3.5-4.1s-0.5-4.5,0.9-6.1
					c0.4-0.5,1-0.9,1.5-1.3c1.5-1.4,1.8-3.7,2-5.7c0.3-3.3,13.3,5.2,14.1,5.4c6.2,1,10-5.1,14.3-8.5c2.2-1.8,4.8-3,7.4-4.2
					c-17.7-57-65.4-101.7-123.5-115.5c-2.6-0.6-5.3-1.3-7.9-1.5c0.8,4,3.3,10.2,0.6,14c-3.4,4.8-10.5,0.6-13.2,6.2
					c-0.1,1.4,2.3,1.2,3.4,2.1c0.6,0.5,0.8,1.4,1.1,2.1s1,1.5,1.8,1.2c0.9,1.3-0.5,3-1.7,4c-1.4,1.3-2.7,2.7-3.2,4.5
					c-1.1,3.7,1.4,7.5,3,11c1.3,2.9,2,6.1,2.8,9.3c0-1.5,2.1-2.1,3.5-1.4c1.3,0.7,2.1,2,3.2,3.1c1.8,1.8,4.2,0.7,6.2,2.2
					c2.5,1.9,4,5.2,7.1,5.7c3.7,0.6,6.4-3.3,8-6.7c4,2.1,6.6,7.3,11.1,7.7c1.8,0.1,3.5-0.5,5.1-1.2c3.4-1.3,6.7-2.6,10-4
					c1.4-0.6,2.9-1.1,4.3-0.6c1.7,0.6,2.5,2.4,3.2,4c0.7,1.8,1.4,3.5,2.2,5.3c0.3,0.7,0.6,1.5,0.4,2.3c-0.2,0.8-0.9,1.4-1.6,1.8
					c-3.8,2.5-8.5,3.5-13,2.7c0.4,6.1,1.6,12.1,3.6,17.9c-3.4-0.9-7.4,0.3-10.5-1.1"/>
				<path class="st3" d="M567.6,417.9c-1.3,1.5-3.2,2.7-5.1,2.6c-1.2,0-2.4-0.5-3.6-0.7c-1.2-0.2-2.6,0.1-3.3,1.1
					c-0.9,1.3,0,3,0.8,4.4c0.7,1.1,1.4,2.3,2.7,2.6c0.9,0.3,1.9,0,2.8,0.2c1.8,0.3,3,2,4.2,3.4s3.2,2.7,4.8,1.7
					c1.1-0.6,1.5-1.9,2.5-2.6c2.5-1.6,5.6,1.9,7.9,0.6c2.7-1.5,1.7-5.9,0.6-8.4c-1.1-2.5-3.4-4.4-5.4-6.3
					C570.9,411.3,571.6,413.1,567.6,417.9z"/>
				<path class="st3" d="M652.6,488.7c26.8-26.6,42.5-65.4,45.6-102.6c0.1-1,0.2-2.1,0.2-3.1c-5.2-5.3-15.5-8.7-18.2,0.9
					c-1.1-0.1-1.3-0.7-2.1-1.3c-1.3-0.9-3.1,0.3-3.8,1.7c-2.3,4.6-2.7,10.5-9.1,9.2c-7.7-1.5-2.5-4.8-5-9c-0.4-0.6-1-1-1.5-1.5
					c-1.8-1.9-1.6-4.8-1.2-7.4c1.5,0.8,3.5-0.1,4-1.7c0.2-0.6,0.2-1.3,0.6-1.8c0.9-1,2.7-0.1,3.1,1.2c0.4,1.3,0.1,2.7,0.4,4
					c0.3,1.3,1.7,2.6,2.9,1.9c0.5-0.3,0.7-0.8,0.9-1.4c0.7-2.3,0.2-4.8-1.3-6.7c1.3-0.3,2.2-1.6,2.2-2.9s-1-2.5-2.3-2.8
					c-1.9-0.4-4.5,0.7-5.3-1.1c0.3,1.5-0.4,3.2-1.6,4.1c-4.9,3.6-16.1,0.4-15,10.9c0.2,1.7,0.8,3.3,0.7,5c0,1.7-1,3.6-2.6,3.9
					c3,2.4,1.9,8,5.1,10.1c1.5,1,3.7,0.8,5-0.5c0.2-0.2,0.4-0.5,0.7-0.6c0.6-0.2,1.1,0.4,1.7,0.5c1,0.2,2-0.9,3-0.9
					c1.5-0.1,2.3,1.7,2.6,3.2s0.7,3.3,2.1,3.7c0.5,0.1,1,0.1,1.5,0.2c1,0.3,1.6,1.3,1.6,2.4c0.1,1-0.3,2-0.7,3
					c-0.6,0.6-1.7,0.2-2.3-0.4s-1-1.5-1.6-2.1c-0.4-0.3-9.3,0.4-9-0.3c-1.3,3.1-2,9.8-6.6,8.1c-1.6-0.6-3.3-1.7-5-1.2
					c0.8-2.2,1.6-4.3,2.3-6.5c-0.7-0.6-1.7,0.2-2,1.1s-0.3,1.9-1.1,2.4c-0.5,0.4-1.2,0.4-1.8,0.4c-2.1,0-4.1-0.1-6.2-0.1
					c-2.2,0-4.8,0.1-6.2,1.8c-1.6,2-0.7,5,1,6.9c0.4,0.5,0.9,1,0.8,1.6c0,0.5-0.5,1-0.9,1.3c-2.1,2-3.5,4.9-3,7.8s3.1,5.4,6,5.2
					c1.1-0.1,2.5-0.5,3.2,0.4c0.4,0.5,0.4,1.4,1,1.7c0.8,0.3,1.4-0.6,1.9-1.2c1-1.1,2.8-1.4,4.1-0.7c0.7,0.4,2.7,6.7,2.2,7.6
					c-1.2,2.1-7.1,1.3-9.4,1.4c-0.9,0-1.9,0.1-2.4,0.8c-0.9,1-0.2,2.7,0.8,3.6s2.3,1.7,2.8,3c0.3,0.7,0.3,1.6,0.2,2.4
					c-0.1,1.6-0.2,3.4-1.5,4.5c-0.6,0.5-1.3,0.8-1.9,1.2c-1.3,1.1-1.4,3.2-1,4.8c0.5,1.7,1.4,3.2,1.7,4.9c0.7,3.6-1.3,7.6,0.1,11
					c0.7,1.6,2.9,3,4.2,1.8c1.2-1,1.2-3.4,2.7-3.5c1.5-0.2,3.3,3.5,4.5,4.3c1,0.6,2.9-0.4,4.7,0.9
					C650.8,485.2,651.1,487.5,652.6,488.7z"/>
				<path class="st3" d="M424.8,261.3c1.5-1.9,2.5-4.1,5.3-4.6c3.9-0.7,5.3,1.5,3.6,5.2c-0.2,0.3-0.3,0.7-0.2,1
					c0.3,1.1,1.9,0.5,2.9-0.2c2.2-1.5,5-1.4,7.4-0.4c0.6,0.2,1.6-10.3,1.1-11.6c-1.9-4.3-10.9-2.3-9-6.9c3.3-0.1,6.8,0.4,10.1,0.6
					c0.2-1.6,0.4-3.2,0.6-4.8c-0.1,1.2,6.1,1,6.8,0.6c2.7-1.4,2-6.4,6.9-5.6c6.2,1,6.6,13.3-0.5,11.3c-1.7,3.6-2.3,7.9-2.5,11.9
					c-1.3,0-2.6,0-3.9,0c-0.6,0.9-0.8,2.1-0.5,3.1c3.1,2.2,7.5,2.2,10.6,0.1c2,1.6,4.9,0.1,7-1.4c2.9,4.7,11.3,4,13.4-1.1
					c2.2-5.1-3.2-11.6-8.6-10.4c-0.1-2.6-1-5.1-2.6-7.1c6.7,0.2,13.3-4.3,15.4-10.7c1.1-3.2,1.3-7.1,4-9.1c1.2-0.9,2.7-1.3,4-2.1
					c2.8-1.9,3.6-5.6,4.1-8.9c0.3-2.2,0.5-4.5,0.6-6.7c-39.8,6.4-75.4,26.8-101.1,56.2c-0.1,1.2-0.2,2.4,0.3,3.5
					c0.9,2,3.2,2.8,5.3,3.3c8.2,2.2,13.4,1.7,19.1-4.7C424.5,261.7,424.6,261.5,424.8,261.3z"/>
			</g>
			<g class="st6">
				<path class="st5" d="M400.4,413.6c-0.6,3.2-4.6,4.3-7.8,4.7c-4.9,0.6-9.8,1.2-14.6,1.8c-2.3-6.1-9.5-6.1-14.5-3.8
					c18.2,67.5,77.1,119.6,150.7,125.6c5.6,0.5,11.2,0.7,16.8,0.6c0.1-0.1,0.2-0.3,0.3-0.4c2.5-4.5-1.1-8.4-3.1-12.1
					c-0.4-0.8-4.6-11.4-3.2-11.4c-4.5,0.1-9-0.5-13.3-1.7c-0.3-0.1-0.7-0.2-0.9-0.5c-0.4-0.7,0.6-1.4,1.4-1.6c2-0.5,4.1-0.6,6.1-1.2
					c2-0.6,3.9-1.8,4.7-3.7s0.2-4.1,0.6-6.2c0.5-2.5,2.6-4.4,4.8-5.5s4.7-1.4,7-1.9c-5.2-2.8-1.4-8.7-5.4-12.6
					c-1.3-1.3-3.2-2.8-2.4-4.4c0.8-1.5,3.5-1.5,3.8-3.2c0.2-1.2-1-2.1-2.2-2.4s-2.5-0.2-3.5-0.8c-1.5-0.8-2-3-1-4.4
					c0.9-1.2,2.5-1.6,3.8-2.3c1.3-0.7,2.5-2.4,1.7-3.7c-0.2-0.3-0.5-0.5-0.8-0.7c-2.2-1.4-5-0.2-7.2,1.2c-2.1,1.4-4.3,3.2-6.9,3.2
					c-0.6-1-0.2-2.4,0.8-2.9c0.4-0.2,0.8-0.3,1-0.5c0.6-0.6,0.1-1.6-0.3-2.4c-1.9-3.5-2.4-7.9-1.2-11.7c5.2,0.1,10.4,0.2,15.6,0.3
					c0.1-1.2,0.3-1.9,1.5-2.2c-3.5-4.2-7.3-8-10.4-12.6c-0.4-0.5-0.8-1.1-1.4-1.3c-0.6-0.2-1.4,0-2-0.1c-2.3-0.3-2.6-3.4-2.4-5.7
					c-0.3-0.7-1.4-0.4-1.8,0.2c-0.4,0.6-0.5,1.5-1,2c-0.8,0.8-2.1,0.7-3.2,0.3c-3.7-1.4-5.6-6.2-4-9.7c0.2-0.4,0.4-0.8,0.9-1.1
					c0.9-0.5,2,0.1,3,0.3c4,0.7,3.4-3.7,2.4-5.8c-1.3-2.8-5.2-4.6-8-5.4c-3.3-0.8-25.3-5-21.6-12.2c0.3-0.7,1-1.1,1.7-1.4
					c2.1-0.9,4.5-0.7,6.7-1.3c2.2-0.6,4.3-2.9,3.4-5c-0.4-0.8-1.2-1.4-1.6-2.2c-1.2-2.2,0.7-5.1-0.2-7.5c-0.4-1.1-1.3-1.9-1.9-2.9
					s-0.7-2.5,0.3-3.2c1.1-0.7,2.7,0.3,3.9-0.2c1.3-0.6,1.2-2.6,0-3.4c-1.1-0.8-2.7-0.5-3.9,0.3c-0.6,0.4-1.2,0.9-1.9,1
					c-1.3,0.2-2.2-1.1-2.9-2.2c-1-1.8-2.1-3.5-3.1-5.3c-1.2,0-2.1,1.1-2.5,2.2s-0.5,2.3-0.9,3.4c-2.2,5.3-10.2,4.6-9.2,11.8
					c2.2-0.3,4.2,2.2,3.5,4.2c-0.8,2.5-4.7,3.9-4.1,6.6c0.2,0.9,0.9,1.7,1.1,2.6c0.4,2.5-3.5,3.5-5.2,4.1c-5.6,1.9-6-1.8-10.8-2
					c-2.2-0.1-4.2,1.4-6.4,1.6c-2,0.2-4.1-0.6-6.1-0.5c-5.6,0.3-2.8,7.9-2.4,11.2c-3-2-7,0.3-9.4,3c-3.7,4.2-3.3,3.4-8.2,3.6
					c-1.3,0-2.6,0.7-3.2,1.9c-0.9,2.1,1,4.3,1.1,6.5c0,1.1-0.4,2.1-0.3,3.2c0.3,2.8,3.6,4,5.6,6c1.8,1.7,2.6,4.4,2.2,6.8
					c-1.4,0.1-2.9,0-4.3-0.3c-0.8-1.6-1.7-3.3-2.5-4.9c-0.7-1.4-1.5-2.9-2.9-3.9c-0.7-0.5-1.6-0.9-2.2-1.6c-1.1-1.5-0.2-3.5,0-5.3
					c0.6-4.3-1.6-11.7-2.6-16c-1.1-4.6-4.2-6.4-5.3-10.6c-0.2-0.7-1.2-1-1.9-0.6c-0.7,0.4-1,1.2-1.2,1.9c-0.4,1.7-0.3,3.6,0.5,5.3
					c-1-2.1-6.4,3.5-6.7,4.6c-0.5,1.8,0.6,4.2,0.6,6.1c-0.1,4.5-1.2,7.1-5.9,3.7c-1.8-1.3-4.1-2.8-6-1.7c0.4,1.2-0.4,2.6-1.6,3.2
					s-2.5,0.5-3.8,0.3c-0.9-0.2-1.8-0.4-2.3-1.1c-0.3-0.4-0.5-0.8-0.8-1.1c-1.2-0.9-2.7,0.7-3.4,2.1"/>
				<path class="st5" d="M606.6,279.4c0.9,1.5-0.1,3.4-1.1,4.8c-1.1,1.4-2.3,3-1.9,4.7c2,0.2,4.1,0.4,6.1,0.6c0.4,0,0.8,0.1,1,0.4
					s0.2,0.7,0.2,1.1c-0.2,1.3-0.3,2.6-0.5,3.9c-1.3,1-2.5-2.1-4.1-1.8c-0.7,0.1-1.1,0.9-1.4,1.5c-3.3,5.2-9,1.3-12.1-1.4
					c-3.6-3.1-8.7-3.3-13.5-3.4c-1.7,0-3.6,0-4.8,1.3c-1.2,1.2-1.2,3-1.8,4.6c-1,2.7-3.6,4.5-5.1,7c-5.2,8.8,4.1,15.5,12,13.1
					c4.1-1.2,3.4-2,7.6-0.7c1.7,0.5,3.9,0.1,4.9,2c1.1,2.1-0.5,4.8-2.8,4.7c-2.3,0-4.6,0.3-6.7-0.8c0.8,2.8-0.1,5.9-0.3,8.9
					c-2.7-0.6-5.3,2.7-4.1,5.2c1.3,0,3.1,0.5,3,1.8c0,0.4-0.2,0.7-0.5,1.1c-0.9,1.3-2.1,2.5-2.9,3.9c-1.2,2.2-1.2,8.7-4.3,9.5
					c-0.5,0.1-1.1,0.1-1.7,0.3c-1.1,0.4-1.8,1.7-1.5,2.9c0.3,1.2,1.3,2.1,2.5,2.4c0.8,0.2,1.6,0.2,2.4,0.5c4,1.4,0.5,5.4,1.5,7.4
					c0.5,0.9,7.2,5.2,8,5.4c-2.4,1.6-4.5,4.2-4.5,7.2c-0.1,3.3,2.4,4.9,5.5,5.9c3.3,1,7.3,1.4,9.7,2.3c1.3,0.5,2.8,1,3.9,0.1
					c1.3-1.1,1-3.6,2.6-4.3c0.5-0.2,1.1-0.2,1.6-0.3c3.2-0.3,5.7-3.6,5.1-6.8c0.7-1,2.2-0.9,3.4-0.8c1.2,0,2.7-0.4,2.9-1.6
					c0.2-1.4-1.6-2.1-2.9-2.2c-1.4-0.1-2.8,0-4.2,0.3c-1,0.2-2.1,0.6-3.1,0.1c-0.7-0.3-1.2-1-1.6-1.7c-1-1.6-1.9-3.5-1.7-5.4
					s1.7-3.8,3.6-3.8c0.5,0,1,0.2,1.5,0.1c1.3-0.2,1.9-1.8,1.8-3.1c-0.1-1.3-0.5-2.7-0.2-3.9c0.4-1.3,2.1-2.2,3-1.2
					c0.7-1.7,1.2-4.2-0.4-5c-0.5-0.3-1.2-0.2-1.7-0.3c-3.6-0.3-8.6-5.3-4.5-8.1c2.7-1.8,7,2,9.3-1.5c1.1-1.7,0.4-4.1,1.6-5.8
					c0.7-0.5,1.5,0.5,1.6,1.3c0.5,2.6-0.5,5.4-2.5,7.2c2.1,1.2,5.3-0.2,6.7,1.8c1.4,1.9-0.7,5.2,1.2,6.7c0.5,0.4,1.2,0.5,1.9,0.6
					c3.3,0.5,9.4-0.1,9.6,4.6c0,0.6-0.1,1.2,0.1,1.7c0.5,1.7,2.8,1.8,4.5,1.6c0.9-1.7-0.3-3.7-1-5.4c-0.8-1.8-0.7-4.4,1.1-4.9
					c1.3-0.3,2.9,0.8,4,0c0.5-0.4,0.8-1.1,1.3-1.4c1.4-0.7,2.5,1.4,4,1.8c2,0.6,3.5-2,3.5-4.1s-0.5-4.5,0.9-6.1
					c0.4-0.5,1-0.9,1.5-1.3c1.5-1.4,1.8-3.7,2-5.7c0.3-3.3,13.3,5.2,14.1,5.4c6.2,1,10-5.1,14.3-8.5c2.2-1.8,4.8-3,7.4-4.2
					c-17.7-57-65.4-101.7-123.5-115.5c-2.6-0.6-5.3-1.3-7.9-1.5c0.8,4,3.3,10.2,0.6,14c-3.4,4.8-10.5,0.6-13.2,6.2
					c-0.1,1.4,2.3,1.2,3.4,2.1c0.6,0.5,0.8,1.4,1.1,2.1s1,1.5,1.8,1.2c0.9,1.3-0.5,3-1.7,4c-1.4,1.3-2.7,2.7-3.2,4.5
					c-1.1,3.7,1.4,7.5,3,11c1.3,2.9,2,6.1,2.8,9.3c0-1.5,2.1-2.1,3.5-1.4c1.3,0.7,2.1,2,3.2,3.1c1.8,1.8,4.2,0.7,6.2,2.2
					c2.5,1.9,4,5.2,7.1,5.7c3.7,0.6,6.4-3.3,8-6.7c4,2.1,6.6,7.3,11.1,7.7c1.8,0.1,3.5-0.5,5.1-1.2c3.4-1.3,6.7-2.6,10-4
					c1.4-0.6,2.9-1.1,4.3-0.6c1.7,0.6,2.5,2.4,3.2,4c0.7,1.8,1.4,3.5,2.2,5.3c0.3,0.7,0.6,1.5,0.4,2.3c-0.2,0.8-0.9,1.4-1.6,1.8
					c-3.8,2.5-8.5,3.5-13,2.7c0.4,6.1,1.6,12.1,3.6,17.9c-3.4-0.9-7.4,0.3-10.5-1.1"/>
				<path class="st5" d="M567.6,417.9c-1.3,1.5-3.2,2.7-5.1,2.6c-1.2,0-2.4-0.5-3.6-0.7c-1.2-0.2-2.6,0.1-3.3,1.1
					c-0.9,1.3,0,3,0.8,4.4c0.7,1.1,1.4,2.3,2.7,2.6c0.9,0.3,1.9,0,2.8,0.2c1.8,0.3,3,2,4.2,3.4s3.2,2.7,4.8,1.7
					c1.1-0.6,1.5-1.9,2.5-2.6c2.5-1.6,5.6,1.9,7.9,0.6c2.7-1.5,1.7-5.9,0.6-8.4c-1.1-2.5-3.4-4.4-5.4-6.3
					C570.9,411.3,571.6,413.1,567.6,417.9z"/>
				<path class="st5" d="M652.6,488.7c26.8-26.6,42.5-65.4,45.6-102.6c0.1-1,0.2-2.1,0.2-3.1c-5.2-5.3-15.5-8.7-18.2,0.9
					c-1.1-0.1-1.3-0.7-2.1-1.3c-1.3-0.9-3.1,0.3-3.8,1.7c-2.3,4.6-2.7,10.5-9.1,9.2c-7.7-1.5-2.5-4.8-5-9c-0.4-0.6-1-1-1.5-1.5
					c-1.8-1.9-1.6-4.8-1.2-7.4c1.5,0.8,3.5-0.1,4-1.7c0.2-0.6,0.2-1.3,0.6-1.8c0.9-1,2.7-0.1,3.1,1.2c0.4,1.3,0.1,2.7,0.4,4
					c0.3,1.3,1.7,2.6,2.9,1.9c0.5-0.3,0.7-0.8,0.9-1.4c0.7-2.3,0.2-4.8-1.3-6.7c1.3-0.3,2.2-1.6,2.2-2.9s-1-2.5-2.3-2.8
					c-1.9-0.4-4.5,0.7-5.3-1.1c0.3,1.5-0.4,3.2-1.6,4.1c-4.9,3.6-16.1,0.4-15,10.9c0.2,1.7,0.8,3.3,0.7,5c0,1.7-1,3.6-2.6,3.9
					c3,2.4,1.9,8,5.1,10.1c1.5,1,3.7,0.8,5-0.5c0.2-0.2,0.4-0.5,0.7-0.6c0.6-0.2,1.1,0.4,1.7,0.5c1,0.2,2-0.9,3-0.9
					c1.5-0.1,2.3,1.7,2.6,3.2s0.7,3.3,2.1,3.7c0.5,0.1,1,0.1,1.5,0.2c1,0.3,1.6,1.3,1.6,2.4c0.1,1-0.3,2-0.7,3
					c-0.6,0.6-1.7,0.2-2.3-0.4s-1-1.5-1.6-2.1c-0.4-0.3-9.3,0.4-9-0.3c-1.3,3.1-2,9.8-6.6,8.1c-1.6-0.6-3.3-1.7-5-1.2
					c0.8-2.2,1.6-4.3,2.3-6.5c-0.7-0.6-1.7,0.2-2,1.1s-0.3,1.9-1.1,2.4c-0.5,0.4-1.2,0.4-1.8,0.4c-2.1,0-4.1-0.1-6.2-0.1
					c-2.2,0-4.8,0.1-6.2,1.8c-1.6,2-0.7,5,1,6.9c0.4,0.5,0.9,1,0.8,1.6c0,0.5-0.5,1-0.9,1.3c-2.1,2-3.5,4.9-3,7.8s3.1,5.4,6,5.2
					c1.1-0.1,2.5-0.5,3.2,0.4c0.4,0.5,0.4,1.4,1,1.7c0.8,0.3,1.4-0.6,1.9-1.2c1-1.1,2.8-1.4,4.1-0.7c0.7,0.4,2.7,6.7,2.2,7.6
					c-1.2,2.1-7.1,1.3-9.4,1.4c-0.9,0-1.9,0.1-2.4,0.8c-0.9,1-0.2,2.7,0.8,3.6s2.3,1.7,2.8,3c0.3,0.7,0.3,1.6,0.2,2.4
					c-0.1,1.6-0.2,3.4-1.5,4.5c-0.6,0.5-1.3,0.8-1.9,1.2c-1.3,1.1-1.4,3.2-1,4.8c0.5,1.7,1.4,3.2,1.7,4.9c0.7,3.6-1.3,7.6,0.1,11
					c0.7,1.6,2.9,3,4.2,1.8c1.2-1,1.2-3.4,2.7-3.5c1.5-0.2,3.3,3.5,4.5,4.3c1,0.6,2.9-0.4,4.7,0.9
					C650.8,485.2,651.1,487.5,652.6,488.7z"/>
				<path class="st5" d="M424.8,261.3c1.5-1.9,2.5-4.1,5.3-4.6c3.9-0.7,5.3,1.5,3.6,5.2c-0.2,0.3-0.3,0.7-0.2,1
					c0.3,1.1,1.9,0.5,2.9-0.2c2.2-1.5,5-1.4,7.4-0.4c0.6,0.2,1.6-10.3,1.1-11.6c-1.9-4.3-10.9-2.3-9-6.9c3.3-0.1,6.8,0.4,10.1,0.6
					c0.2-1.6,0.4-3.2,0.6-4.8c-0.1,1.2,6.1,1,6.8,0.6c2.7-1.4,2-6.4,6.9-5.6c6.2,1,6.6,13.3-0.5,11.3c-1.7,3.6-2.3,7.9-2.5,11.9
					c-1.3,0-2.6,0-3.9,0c-0.6,0.9-0.8,2.1-0.5,3.1c3.1,2.2,7.5,2.2,10.6,0.1c2,1.6,4.9,0.1,7-1.4c2.9,4.7,11.3,4,13.4-1.1
					c2.2-5.1-3.2-11.6-8.6-10.4c-0.1-2.6-1-5.1-2.6-7.1c6.7,0.2,13.3-4.3,15.4-10.7c1.1-3.2,1.3-7.1,4-9.1c1.2-0.9,2.7-1.3,4-2.1
					c2.8-1.9,3.6-5.6,4.1-8.9c0.3-2.2,0.5-4.5,0.6-6.7c-39.8,6.4-75.4,26.8-101.1,56.2c-0.1,1.2-0.2,2.4,0.3,3.5
					c0.9,2,3.2,2.8,5.3,3.3c8.2,2.2,13.4,1.7,19.1-4.7C424.5,261.7,424.6,261.5,424.8,261.3z"/>
			</g>
		</g>
	</g>
	<g>
		<g>
			<path class="st3" d="M113.7,193.9c0,9.3,5,17.4,12.5,21.7c3.7,2.1,7.9,3.3,12.5,3.3c5.8,0,11.2-2,15.4-5.3
				c5.8-4.6,9.6-11.7,9.6-19.7c0-13.8-11.2-25-25-25S113.7,180.1,113.7,193.9z"/>
			<ellipse class="st7" cx="138.7" cy="193.9" rx="23.6" ry="23.6"/>
			<path class="st3" d="M124.7,193.5c0.3,3,2.9,3.5,2.9,3.5s-0.6,1.6,0.1,3.5s4.6,1.9,4.6,1.9s0.3,1,1.8,1.2
				c0.1,0.1,0.2,0.2,0.2,0.3c0.2,0.2,0.4,0.5,0.5,0.8c0.5,3.8,0.4,7.8-1.5,9.8l0,0c-1.6,0.2-3.2,0.4-4.9,0.7
				c-0.8,0.1-1.5,0.2-2.3,0.4c3.7,2.1,7.9,3.3,12.5,3.3c5.8,0,11.2-2,15.4-5.3c-0.7,0-1.5,0-2.4,0c-1.3,0-2.8,0-4.4,0v-0.1
				c-2.7-0.4-4-1.7-4.5-3.3c-0.3-0.8-0.3-1.7-0.3-2.6c0.7-0.1,1.4-0.4,2.1-0.7c1.9-0.9,3.4-2.5,4.2-4.7c0.1-0.3,0.2-0.6,0.3-0.9
				c0.6-2.1,0.8-4.8,0.5-7.4c0.7-0.4,1.5-1.1,1.7-2.4c0.5-2.5-1.8-3.1-1.8-3.1s2.5-0.4,2.6-3.5s-2.6-3.1-2.6-3.1s0.9-1.3-0.9-3.8
				c-1.8-2.4-4.2-0.9-4.2-0.9s-1.9-2.9-4.9-2.2s-3.8,2.5-3.8,2.5s0-1.8-3.5-0.8s-3,5-3,5s-2.3-1.2-3.5,1.3s1.4,6.9,1.4,6.9
				S124.4,190.5,124.7,193.5z"/>
			<path class="st8" d="M113.7,193.9c0,9.3,5,17.4,12.5,21.7c3.7,2.1,7.9,3.3,12.5,3.3c5.8,0,11.2-2,15.4-5.3
				c5.8-4.6,9.6-11.7,9.6-19.7c0-13.8-11.2-25-25-25S113.7,180.1,113.7,193.9z"/>
		</g>
		<g>
			<circle class="st3" cx="126.1" cy="633" r="22.2"/>
			<path class="st7" d="M147,633c0,4.8-1.6,9.3-4.4,12.8c-3.8,4.9-9.8,8.1-16.6,8.1c-4.4,0-8.4-1.3-11.8-3.6
				c-5.5-3.8-9.1-10.1-9.1-17.3c0-11.6,9.4-21,21-21S147,621.4,147,633z"/>
			<path class="st3" d="M142.6,645.8c-3.8,4.9-9.8,8.1-16.6,8.1c-4.4,0-8.4-1.3-11.8-3.6c0.7-1.6,1.1-2.5,1.1-2.5
				c2.6-0.8,5.3-1.5,8-2c0.7-0.6,1.6-1.1,2.7-1.4c0.6-1.7,0.2-3.5-0.2-4.8c-0.8-0.6-1.5-1.3-2.1-2.1c-0.4-0.3-0.8-0.7-1.1-1.1
				c-0.6-0.3-5.1-2.3-5.3-9.6c0-0.3,0-0.6,0-0.9c-1.4-0.1-2.8,0.3-1.8,3.1c1.7,4.8-0.1,7.4-0.1,7.4c0.1-1.6-0.2-3.2-0.2-3.2
				c0,5-2.7,5.3-2.7,5.3s1.7-1.8-0.8-7.4c-2.5-5.6-1.8-13.1,3-13.5c2.6-0.2,4.3,1.1,5.4,2.2c2.7-2.4,6.9-2.9,9.5-1.1
				c0,0,4.3-1.1,5.6,0.1c0.3,0.2,0.1,0.8-0.5,1.6c1.1,0.7,2,1.9,2.4,3.6c0.7,3-0.2,5.3-1.2,6.8c0.6,5.5-0.4,9.6-4.7,10
				c0,0.1,0,0.3,0,0.4c0,0.2,0,0.4,0,0.6c0,1.1,0.1,1.8,0.3,2.3c0.6,0.1,1.3,0.3,1.8,0.5c3.9,0,8.3,0.4,8.3,0.4l0,0
				C142,645.3,142.3,645.5,142.6,645.8z"/>
			<circle class="st8" cx="126.1" cy="633" r="22.2"/>
		</g>
		<g>
			<ellipse class="st3" cx="940" cy="459.4" rx="24.5" ry="24.5"/>
			<path class="st7" d="M963.1,459.4c0,4.7-1.4,9.1-3.9,12.8c-4.1,6.2-11.2,10.3-19.3,10.3c-5.3,0-10.3-1.8-14.2-4.9
				c-5.5-4.2-9-10.8-9-18.3c0-12.8,10.4-23.1,23.1-23.1C952.8,436.2,963.1,446.6,963.1,459.4z"/>
			<path class="st3" d="M959.3,472.2c-4.1,6.2-11.2,10.3-19.3,10.3c-5.3,0-10.3-1.8-14.2-4.9c-0.3-1.4,0-2.8,0.1-3.8
				c0.3-2.8,3.5-5.1,3.5-7.1c-0.1-2-3.3-4.5-1.2-5.7c2.1-1.1,2.6-5.5,0.9-8c-1.4-1.6-2.5-4.2,0.1-7.5c1.6-2.1,3.9-3,6.3-3.4
				c1.6-0.9,3.8-1.3,6.8-1c2.9,0.3,5.1,1.1,6.8,2.3c1.7,1.2,2.8,2.7,3.5,4.4c0,0,2.5,4.9,0.7,10c-1.2,3.3,4,3.1,4.1,6.2
				c0.1,3-2.4,3.2-2,5.2C955.9,470.2,957.6,471,959.3,472.2z"/>
			<ellipse class="st8" cx="940" cy="459.4" rx="24.5" ry="24.5"/>
		</g>
	</g>
	<g>
		
			<rect x="638.6" y="255.2" transform="matrix(0.9175 -0.3978 0.3978 0.9175 -40.8134 315.7858)" class="st3" width="204.1" height="2.1"/>
		
			<rect x="427.3" y="96.4" transform="matrix(0.8503 -0.5263 0.5263 0.8503 -26.6358 251.2532)" class="st3" width="2.1" height="152.1"/>
		
			<rect x="204.5" y="473.3" transform="matrix(0.9787 -0.2051 0.2051 0.9787 -90.6865 73.7897)" class="st3" width="212.2" height="2.1"/>
		
			<rect x="638.6" y="255.2" transform="matrix(0.9175 -0.3978 0.3978 0.9175 -40.8134 315.7858)" class="st9" width="204.1" height="2.1"/>
		
			<rect x="729.7" y="401.7" transform="matrix(0.8474 -0.5309 0.5309 0.8474 -161.5309 466.4088)" class="st3" width="2.1" height="225.1"/>
		
			<rect x="729.7" y="401.7" transform="matrix(0.8474 -0.5309 0.5309 0.8474 -161.5309 466.4088)" class="st9" width="2.1" height="225.1"/>
		
			<rect x="427.3" y="96.4" transform="matrix(0.8503 -0.5263 0.5263 0.8503 -26.6358 251.2532)" class="st9" width="2.1" height="152.1"/>
		
			<rect x="204.5" y="473.3" transform="matrix(0.9787 -0.2051 0.2051 0.9787 -90.6865 73.7897)" class="st9" width="212.2" height="2.1"/>
		<path class="st3" d="M408.9,687.6L205.6,496.4L234.4,279l0.2-0.2l153.2-171.9l0.4-0.1l277.6-38.4l169.5,146.8l-0.1,0.5
			l-43.8,394.7l-0.8,0.2L408.9,687.6z M207.8,495.6l201.8,189.7l380-76.6L833.1,216l-168-145.5l-276.3,38.2L236.4,279.9L207.8,495.6
			z"/>
		<path class="st9" d="M408.9,687.6L205.6,496.4L234.4,279l0.2-0.2l153.2-171.9l0.4-0.1l277.6-38.4l169.5,146.8l-0.1,0.5
			l-43.8,394.7l-0.8,0.2L408.9,687.6z M207.8,495.6l201.8,189.7l380-76.6L833.1,216l-168-145.5l-276.3,38.2L236.4,279.9L207.8,495.6
			z"/>
		<g>
			<polygon class="st3" points="471.5,237.1 468.4,255.5 465.2,237.1 			"/>
			<path class="st3" d="M477.5,237.1c0,5-4.1,9.1-9.1,9.1s-9.1-4.1-9.1-9.1s4.1-9.1,9.1-9.1S477.5,232.1,477.5,237.1z"/>
			<path class="st7" d="M469.3,230.7c1,1.3,0.2,3.6-1.8,5.2c-2,1.5-4.4,1.7-5.5,0.3c-1-1.3-0.2-3.6,1.8-5.2
				C465.8,229.5,468.2,229.4,469.3,230.7z"/>
		</g>
		<g>
			<polygon class="st3" points="650.2,296.8 647,315.2 643.9,296.8 			"/>
			<circle class="st3" cx="647" cy="296.8" r="9.1"/>
			<path class="st7" d="M647.9,290.4c1,1.3,0.2,3.6-1.8,5.2c-2,1.5-4.4,1.7-5.5,0.3s-0.2-3.6,1.8-5.2
				C644.5,289.2,646.9,289,647.9,290.4z"/>
		</g>
		<g>
			<polygon class="st3" points="417.6,451.5 414.4,469.9 411.3,451.5 			"/>
			<circle class="st3" cx="414.4" cy="451.5" r="9.1"/>
			<path class="st7" d="M415.3,445.1c1,1.3,0.2,3.6-1.8,5.2c-2,1.5-4.4,1.7-5.5,0.3c-1-1.3-0.2-3.6,1.8-5.2
				C411.9,443.9,414.3,443.8,415.3,445.1z"/>
		</g>
		<g>
			<polygon class="st3" points="674.2,418.9 671,437.2 667.9,418.9 			"/>
			<path class="st3" d="M680.1,418.9c0,5-4.1,9.1-9.1,9.1s-9.1-4.1-9.1-9.1s4.1-9.1,9.1-9.1C676.1,409.8,680.1,413.8,680.1,418.9z"
				/>
			<path class="st7" d="M671.9,412.4c1,1.3,0.2,3.6-1.8,5.2c-2,1.5-4.4,1.7-5.5,0.3c-1-1.3-0.2-3.6,1.8-5.2
				C668.4,411.3,670.9,411.1,671.9,412.4z"/>
		</g>
	</g>
	<g>
		<path class="st3" d="M904.7,220c0,15.7-5.2,30.3-14,41.9c-3.1,4.2-6.7,8-10.7,11.3c-3.5,3.1-7.4,5.8-11.6,8
			c-10,5.5-21.5,8.7-33.8,8.7c-10.3,0-20.1-2.2-28.9-6.3c-0.8-0.3-1.6-0.7-2.4-1.2l0,0c-4.9-2.4-9.6-5.5-13.7-9
			c-6.3-5.3-11.6-11.6-15.6-18.8c-5.9-10.2-9.2-22.1-9.2-34.7c0-38.7,31.3-70,70-70C873.4,150,904.7,181.3,904.7,220z"/>
		
			<ellipse transform="matrix(0.7071 -0.7071 0.7071 0.7071 88.952 654.7341)" class="st8" cx="834.8" cy="220" rx="67.9" ry="67.9"/>
		<g>
			<path class="st10" d="M789.7,251.7l6.6-27.2c0,0,4.2-3.3,4.4-5.7c0.3-2.4-2.6-16.7-4.4-17.5c-1.8-0.9-12.5,2.9-13,5.9
				s3.7,15,4.5,16L777,254.8L789.7,251.7z"/>
			<path class="st3" d="M794.9,236.1l-3.9,35.8c-6.1-5.1-11.2-11.3-15.2-18.2c2.4-8.6,4.9-16.3,6-19.7c0.4-1.2,0.6-1.9,0.6-1.9
				l2.3,0.3l9.3,1.2l1.2,0.2L794.9,236.1z"/>
			<path class="st3" d="M812.8,259.2l-6.1,22.6c-0.8-0.3-1.6-0.7-2.4-1.1l0,0c-4.8-2.4-9.3-5.3-13.3-8.8c0.5-1.1,13-29.3,17.6-28.9
				L812.8,259.2z"/>
			<path class="st11" d="M794.9,236.1l-3.9,35.8c-6.1-5.1-11.2-11.3-15.2-18.2c2.4-8.6,4.9-16.3,6-19.7c0.4-1.2,0.6-1.9,0.6-1.9
				l2.3,0.3l9.3,1.2l1.2,0.2L794.9,236.1z"/>
			<path class="st11" d="M812.8,259.2l-6.1,22.6c-0.8-0.3-1.6-0.7-2.4-1.1l0,0c-4.8-2.4-9.3-5.3-13.3-8.8c0.5-1.1,13-29.3,17.6-28.9
				L812.8,259.2z"/>
			<polygon class="st3" points="797.8,231.4 795.7,236.2 780.8,233.8 781.1,231 			"/>
			<path class="st12" d="M876.1,196.6c-1.7,6.7,7.8,25,3.9,58.4c-3.9,33.4-40.5,31.4-57,20.2c-16.5-11.1-13.6-71.6-8-83.5
				C820.8,179.9,876.1,196.6,876.1,196.6z"/>
			<g>
				<path class="st3" d="M885.8,250.6c-0.4,1-0.7,1.9-1,2.9c-0.4,0.9-0.7,1.9-1,2.8c-0.6,1.8-1.2,3.6-1.8,5.4
					c-1.2,3.5-2.2,6.8-3.2,9.9c-3.4,3-7.2,5.6-11.2,7.8c-9.7,5.4-20.9,8.5-32.8,8.5c-10,0-19.5-2.2-28.1-6.1
					c-0.8-0.3-1.6-0.7-2.4-1.1c0-0.7,0-1.4,0-2c0-0.7,0-1.3,0-1.9c0-1.9,0.1-3.7,0.2-5.4c0.1-1.1,0.1-2.2,0.1-3.3
					c0-0.5,0.1-1,0.1-1.5c0.1-1.9,0.2-3.6,0.3-5.1c0-0.5,0.1-1,0.1-1.5c0.1-1.5,0.2-2.8,0.3-4c0.8-7.8,1.8-10.8,2.5-12.1
					c0.1-0.3,0.3-0.4,0.4-0.5c0.2-0.2,0.3-0.3,0.3-0.3s1-0.1,2.7-0.2c4.5-0.4,13.9-1.1,22.4-1c0.2,0,0.3,0,0.5,0
					c1.1,0,2.3,0.1,3.4,0.2c4.4,0.2,8.8,0.6,13.1,1.2c1.6,0.2,3.2,0.4,4.8,0.7c1.7,0.3,3.5,0.5,5.2,0.8c0.2,0.1,0.5,0.1,0.7,0.1
					c6.4,1.1,12.8,2.5,19.1,4.4C882.3,249.6,884.1,250.1,885.8,250.6L885.8,250.6z"/>
				<path class="st11" d="M885.8,250.6C885.8,250.7,885.8,250.7,885.8,250.6c-0.4,1-0.7,1.9-1,2.9c-0.4,0.9-0.7,1.9-1,2.8
					c-0.6,1.8-1.2,3.6-1.8,5.4c-1.2,3.5-2.2,6.8-3.2,9.9c-3.4,3-7.2,5.6-11.2,7.8c-9.7,5.4-20.9,8.5-32.8,8.5
					c-10,0-19.5-2.2-28.1-6.1c-0.8-0.3-1.6-0.7-2.4-1.1l0,0c0-0.7,0-1.3,0.1-2c0-0.7,0-1.3,0-1.9c0-1.9,0.1-3.7,0.2-5.4
					c0.1-1.1,0.1-2.2,0.1-3.3c0-0.5,0.1-1,0.1-1.5c0.1-1.9,0.2-3.6,0.3-5.1c0-0.5,0.1-1,0.1-1.5c0.1-1.5,0.2-2.8,0.3-4
					c0.8-7.8,1.8-10.8,2.5-12.1c0.1-0.3,0.3-0.4,0.4-0.5c0.2-0.2,0.3-0.3,0.3-0.3s1-0.1,2.7-0.2c4.5-0.4,13.9-1.1,22.4-1
					c0.2,0,0.3,0,0.5,0c1.1,0,2.3,0.1,3.4,0.2c4.4,0.2,8.8,0.6,13.1,1.2c1.6,0.2,3.2,0.4,4.8,0.7c1.7,0.3,3.5,0.5,5.2,0.8
					c0.2,0.1,0.5,0.1,0.7,0.1c6.4,1.1,12.8,2.5,19.1,4.4C882.3,249.6,884.1,250.1,885.8,250.6z"/>
			</g>
			<path class="st5" d="M846.5,240c15,1.2,16.8,5.7,15.2,8.1s-21.9,22.2-28,35.5C833.7,283.6,811.7,237.2,846.5,240z"/>
			<path class="st10" d="M838.7,255.1c14.8-1.9,19.3-8.2,19.3-8.2c-9.4-8.9-1.6-24.3-1.6-24.3l-17.9,3.3c0.5,3,0.7,5.4,0.7,7.5
				c0.1,10.8-4.8,10.9-4.8,10.9C831.4,250.2,838.7,255.1,838.7,255.1z"/>
			<path class="st13" d="M838.6,225.9c0.5,3,0.7,5.4,0.7,7.5c12.1,0,17.2-10.9,17.2-10.9L838.6,225.9z"/>
			<g>
				<g>
					<path class="st10" d="M848.5,175.9c-15.5-0.9-21,7.2-23,23.1c-2.5,19.9,1.1,34.4,20.8,31.2
						C872.9,225.9,874.2,177.4,848.5,175.9z"/>
					<path class="st14" d="M835.5,198.7c0,0-2.4,3.9-4.9,6.2c0,0,1.2,2.2,4,2L835.5,198.7z"/>
					<g>
						<path class="st12" d="M845.1,198c-0.1,1.3,0.5,2.4,1.4,2.4c0.8,0.1,1.6-0.9,1.7-2.2c0.1-1.3-0.5-2.4-1.4-2.4
							C846,195.7,845.2,196.7,845.1,198z"/>
						<path class="st12" d="M847.2,195.9l-2.7-1.3C844.5,194.6,845.7,197,847.2,195.9z"/>
					</g>
					<g>
						<path class="st12" d="M829.3,196.5c-0.1,1.3,0.5,2.4,1.4,2.4c0.8,0.1,1.6-0.9,1.7-2.2c0.1-1.3-0.5-2.4-1.4-2.4
							C830.2,194.2,829.4,195.2,829.3,196.5z"/>
						<path class="st12" d="M831.4,194.4l-2.7-1.3C828.7,193.1,829.9,195.5,831.4,194.4z"/>
					</g>
					<path class="st12" d="M852.5,190.7c-0.2,0-0.4-0.1-0.6-0.3c-1.9-2.7-5.9-2.4-6-2.4c-0.4,0-0.7-0.3-0.8-0.7
						c0-0.4,0.3-0.7,0.7-0.8c0.2,0,4.8-0.3,7.2,3c0.2,0.3,0.2,0.8-0.2,1C852.8,190.7,852.6,190.7,852.5,190.7z"/>
					<path class="st12" d="M828.4,187.7c-0.2,0-0.5-0.1-0.6-0.4c-0.2-0.3-0.1-0.8,0.3-1c3.8-2.3,6.8-1,6.9-1
						c0.4,0.2,0.5,0.6,0.4,0.9c-0.2,0.4-0.6,0.5-0.9,0.4c-0.1,0-2.4-1-5.6,0.9C828.6,187.6,828.5,187.7,828.4,187.7z"/>
					<g>
						<path class="st12" d="M836.6,213.2c0.8,1.9,1.5,5.5,1.5,5.5c0.3,0,0.7,0,1,0c4.5-0.2,6.6-1.8,7.5-3.5c0.5-0.9,0.6-1.9,0.6-2.7
							c0-0.9-0.2-1.6-0.2-1.6c-2.3,1.5-6.6,2.1-8.8,2.3C837.2,213.1,836.6,213.2,836.6,213.2z"/>
						<path class="st5" d="M838.1,213.1l0.5,1.6c4.3-0.2,7.3-0.9,8.5-2.3c0-0.9-0.2-1.6-0.2-1.6
							C844.6,212.3,840.4,212.9,838.1,213.1z"/>
						<path class="st14" d="M839.1,218.6c4.5-0.2,6.6-1.8,7.5-3.5c-1.5,0.1-3.4,0.5-5,1.2C840.4,216.9,839.6,217.8,839.1,218.6z"/>
					</g>
					<path class="st12" d="M864,203c0,0-6.6-13.2-4.9-22.9c0,0-30.1-14.3-33.3,16.9c0,0-1.5-27.9,25.2-27
						c26.7,0.8,24.5,39.9,10,50.8C861,220.7,868,211.3,864,203z"/>
					<path class="st10" d="M861.3,206.2c0.2-2.5,3.1-6.6,7.7-5.8c4.8,0.8,6.5,10.8-5.6,12.5C861.6,213.1,860.8,211.4,861.3,206.2z"
						/>
				</g>
				<path class="st12" d="M854.9,178.5c0,0-2.5,19.2,9.1,36.5c8.7,13.2-1.3,24.7-1.3,24.7s15.5-9.9,16-24.7c0,0,12.8-35.6-13.8-45.2
					c0,0-0.1-8-17.4-6.5c-17.3,1.5-31.3,16.4-33.9,35.3c-2.6,18.9,7.2,40.1,7.2,40.1S810.3,171.7,854.9,178.5z"/>
				<path class="st12" d="M855.9,178.9c-1.2,4.3-1.5,9.1-1.3,13.8c0.3,4.7,1,9.3,2.2,13.9c1.2,4.6,2.9,9,5.2,13.1s5.1,8,8.8,11
					c-3.8-2.9-6.8-6.7-9.2-10.8s-4.4-8.5-5.7-13.1c-1.4-4.6-2.4-9.3-2.8-14.1c-0.3-4.8-0.3-9.6,0.9-14.5L855.9,178.9z"/>
			</g>
			<g>
				<path class="st3" d="M889.2,260.7c-3,4-6.5,7.7-10.3,11c-3.4,3-7.2,5.6-11.2,7.8c0.2-0.9,0.5-1.8,0.8-2.7
					c2.7-7.5,7.4-14.4,11.2-19.2c3.2-3.9,5.7-6.5,6.1-6.9l0.1-0.1C887.4,252,888.5,255.6,889.2,260.7z"/>
				<path class="st11" d="M889.2,260.7c-3,4-6.5,7.7-10.3,11c-3.4,3-7.2,5.6-11.2,7.8c0.2-0.9,0.5-1.8,0.8-2.7
					c2.7-7.5,7.4-14.4,11.2-19.2c3.2-3.9,5.7-6.5,6.1-6.9l0.1-0.1C887.4,252,888.5,255.6,889.2,260.7z"/>
			</g>
		</g>
	</g>
	<g>
		<circle class="st3" cx="663.4" cy="73.7" r="38.2"/>
		<path class="st7" d="M699.4,73.7c0,9.5-3.7,18.1-9.6,24.5c-6.6,7.1-16,11.5-26.4,11.5c-11.2,0-21.2-5.1-27.8-13.1
			c-5.2-6.2-8.3-14.2-8.3-22.9c0-19.9,16.1-36,36-36C683.3,37.7,699.4,53.8,699.4,73.7z"/>
		<path class="st3" d="M689.8,98.2c-6.6,7.1-16,11.5-26.4,11.5c-11.2,0-21.2-5.1-27.8-13.1c0.2-0.1,0.4-0.1,0.6-0.2
			c0.5-0.6,1-1.3,1.7-1.8c0-0.1,0-0.2,0-0.3l0.6-0.1c1-0.6,2.3-1,3.9-1c0.4,0,0.8,0,1.2,0.1l2.2-0.4c0,0,0,0.2,0,0.6
			c2.8,0.2,7.2,0.5,12.1,0.8c1.1-0.9,1.8-1.9,2.2-3.2c0.4-1.3,0.5-2.7,0.4-4.1c-1.7-0.1-3.5-0.5-5-1.3c-2.8-1.4-5.1-3.9-6.2-7.1
			c-0.2-0.4-0.3-0.9-0.4-1.3c-0.9-3.9-1.2-8.9-0.2-13.6l0,0c-0.1,0-0.3,0-0.4,0c-0.2,0-0.3-0.2-0.3-0.4v-0.1c0-0.2,0.3-0.4,0.5-0.3
			h0.1c-0.3-3,0.2-6.1,0.6-8.1c-1.3-2.2-1.3-6.5-0.1-8.2c1.3-1.9,0.3-0.9,3.8-1.2s1.4-3.4,3.6-3.5c2.2,0,1.8,1.4,4.5,2.4
			c2.8,1,1.7-2.1,4.9-2.4c3.1-0.3,3.6,2.1,5.8,2.7s2.7,0,4.3,0s1.8,4.8,2.5,5.7s1.9-0.4,3.3,2c0.2,0.3,0.3,0.7,0.3,1.2
			c0,3.2-4,9.2-4,9.2c-0.2,1.4-0.4,2.9-0.8,4.5c1.2,1.1,1.5,3,0.7,4.8c-0.8,1.6-2,2.9-3.5,3.7c-0.8,1.6-1.6,3-2.3,4
			c-1,5.5-1.5,12,0.4,16.1C679.4,96.2,685.5,97,689.8,98.2z"/>
		<circle class="st15" cx="663.4" cy="73.7" r="38.2"/>
	</g>
	<g>
		<ellipse class="st3" cx="409.3" cy="683.1" rx="38.2" ry="38.2"/>
		<path class="st16" d="M445.3,683.1c0,10.3-4.3,19.6-11.3,26.1c-6.4,6.1-15.2,9.9-24.7,9.9c-7.6,0-14.6-2.3-20.4-6.3
			c-9.4-6.5-15.6-17.4-15.6-29.7c0-19.9,16.1-36,36-36C429.2,647.1,445.3,663.2,445.3,683.1z"/>
		<path class="st3" d="M434,709.3c-6.4,6.1-15.2,9.9-24.7,9.9c-7.6,0-14.6-2.3-20.4-6.3c2.6-0.4,5.4-0.7,8.2-1
			c2.2-4.7,1.6-12.2,0.5-18.6c-0.8-1.2-1.7-2.7-2.6-4.6c-1.7-1-3.1-2.5-4-4.3c-0.9-2-0.6-4.2,0.8-5.5c-0.7-3.2-1.1-6.2-1.2-8.7
			l-0.2,0.1c0,0-2.9-11.2,7.9-15.3s21.8,3.2,21.8,3.2s2.3-4.4,5.1-3.2c2.4,1,1.1,4.1,0.7,5c0.3-0.5,1-1.5,2.5-2.1
			c1.9-0.9,4.6,1.6-1.4,7.5c-0.6,0.6-1.3,1.1-2.1,1.5c0.3,2.4,0.6,5.3,0.2,8.1c1.1,5.4,0.9,11.2-0.2,15.7c-0.1,0.5-0.3,1-0.5,1.5
			c-1.3,3.7-4,6.5-7.2,8.2c-1.8,0.9-3.8,1.5-5.8,1.6c-0.1,1.7,0,3.3,0.5,4.8c0.5,1.4,1.3,2.7,2.6,3.6c5.7-0.4,10.7-0.7,14-0.9
			c0-0.5-0.1-0.7-0.1-0.7l2.6,0.5C432.1,709.1,433.1,709.1,434,709.3z"/>
		<ellipse class="st15" cx="409.3" cy="683.1" rx="38.2" ry="38.2"/>
	</g>
	<g>
		<ellipse class="st3" cx="235.4" cy="279.5" rx="38.2" ry="38.2"/>
		<path class="st16" d="M271.4,279.5c0,9.2-3.5,17.6-9.2,24c-6.6,7.4-16.2,12-26.9,12c-7.9,0-15.3-2.6-21.2-6.9
			c-9-6.6-14.8-17.2-14.8-29.1c0-19.9,16.1-36,36-36S271.4,259.6,271.4,279.5z"/>
		<path class="st3" d="M262.2,303.5c-6.6,7.4-16.2,12-26.9,12c-7.9,0-15.3-2.6-21.2-6.9l14.3-4.4c0.3,0.3,0.5,0.6,0.8,1
			c0.6-0.1,1.2-0.2,1.8-0.3c1.1-0.2,2.3-0.4,3.4-0.5c0.8-1.4,1.3-2.9,1.4-4.4c-1.2,0.1-2,0.1-2,0.1c0.4-1.4-1.7-4.4-1.7-4.4
			l-0.7,3.9c0,0-1.4-0.2-2.4-0.8c-1-0.6-2.2-4.9-2.2-4.9s-2.5,4.1-3,5.1c-0.6,1-2,0-2,0s-0.9-3.6,0.2-7.3c1.2-3.7-2.5-3.6-2.5-3.6
			s0,1.6-1,4.1s-1,3.8-1,5.3s0.1,2.6-0.9,2.6c-1.1,0-1.2-1-1.1-2.6c0.1-1.6-1.6-3.2-0.6-4.5s0.2-4.9,0.2-4.9
			c-0.6,2.5-3.4,2.4-3.8,4.2c-0.5,1.8,1.3,4.3,0.5,5.2c-0.8,0.9-2.3,0-2.3,0s1.2-2,0.4-3.1s-2.2-1.7-1.6-4.1
			c0.6-2.4,1.7-2.3,1.3-4.9s-1.6-2.4,0-3.4s3.6-5.5,3.6-7.5s-0.8-6.5,2.5-8.1c3.4-1.6,4.2-2.8,3.6-7.1c-0.6-4.2,2.6-3.9,6.7-3.1
			c0,0,2-3.2,3.9-2.6s3.4,0.2,3.8-0.8c0.4-1.1,5.7-1,6.5,0s3.6,1.7,5.4,1c1.7-0.7,6.3,2.2,6.2,4.1s-0.1,3,2.4,4.1
			c2.5,1.1,2.9,1.7,4,6s-0.7,6,1.4,7.7c2.2,1.6,1.9,8.3,2,10.3s0,4.3,0,4.3s0,0-0.6,0.2s-1.1-2.2-1-4c0.1-1.7-3.6-4.1-4-4.3
			c0.1,0.2,0.8,1.6,1.2,2.8c0.5,1.2,0.6,4.4,0.5,6.4s2.3,3.2,2.3,3.2l-2.6,1.3c0,0-2-4.4-1.3-6.6c0.7-2.3-1.3-4.3-1.3-4.3v4.3
			c0,0-0.7,1.5-1.8,3.6c-1.1,2,0.8,2.6,1.1,3.7s-2.4,1.1-2.4,1.1l-0.5-2.6l-0.9,2.6c-1,0.7-2.9,1.2-5.2,1.6c0.1,2,0.5,3.3,1,4.1
			c0.9,0,1.7-0.1,2.6-0.1c1.7,0,3.5,0,5.1,0.1l0,0C257.2,303.1,260.1,303.3,262.2,303.5z"/>
		<ellipse class="st15" cx="235.4" cy="279.5" rx="38.2" ry="38.2"/>
	</g>
	<g>
		<circle class="st3" cx="385.7" cy="104.7" r="64.1"/>
		<path class="st8" d="M447.7,104.7c0,14.2-4.8,27.3-12.9,37.8c-2.2,2.9-4.7,5.6-7.4,8c-2.5,2.3-5.1,4.3-8,6.1
			c-0.1,0.1-0.2,0.2-0.4,0.2c-2.2,1.4-4.5,2.7-6.9,3.9c-8,3.8-17,6-26.5,6c-18.9,0-35.8-8.5-47.2-21.8l0,0
			c-9.2-10.8-14.8-24.8-14.8-40.1c0-34.2,27.8-62,62-62C419.9,42.7,447.7,70.5,447.7,104.7z"/>
		<g id="_x3C_Group_x3E__4_">
			<path class="st17" d="M400.1,104.7c1.4-3,2.3-1.7,6.3,1.3c3.9,3,4.6,5.8,4.6,9s-0.6,9.7-0.6,9.7l10.2,11.5l-4.6,7l-12-13.5
				c0,0-5.9-4.4-6.9-9.4C396.2,115.3,400.1,104.7,400.1,104.7z"/>
			<g>
				<path class="st12" d="M398.8,101.2l8.4,15.1c0.4,0.7,0.3,1.5-0.2,2.1l-6.5,7.5c-0.8,0.9-2.3,0.8-3-0.3l-7.5-12.4L398.8,101.2z"
					/>
				<polygon class="st18" points="398.3,102.8 405.7,116.8 398.7,125.1 391.1,112.8 				"/>
			</g>
			<path class="st3" d="M419.5,156.6c0.1,0.3,0.1,0.6,0.1,0.9c-0.2-0.2-0.3-0.4-0.5-0.7c-2.2,1.4-4.5,2.7-6.9,3.9
				c0.5-4.3,1.2-8.1,1.7-11.3c0.5-2.9,0.9-5.4,1.3-7.1c0.3-1.7,0.5-2.7,0.6-2.9l0,0c0.7,0.1,1.5,0.4,2.2,0.7
				c3.2,1.6,6.4,5.3,9.5,10.3C424.9,152.7,422.3,154.8,419.5,156.6z"/>
			<g>
				<path class="st3" d="M419.6,157.5c-0.2-0.2-0.3-0.4-0.5-0.7c-2.2,1.4-4.5,2.7-6.9,3.9c-8,3.8-17,6-26.5,6
					c-18.9,0-35.8-8.5-47.2-21.8c1.1-0.3,2.2-0.5,3.3-0.7c0.1,0,0.2,0,0.3-0.1c0.2,0,0.4-0.1,0.7-0.1c2.8-0.5,5.7-1,8.6-1.4
					c0,0,0,0,0.1,0c1.3-0.2,2.5-0.4,3.8-0.5c1.7-0.2,3.4-0.4,5-0.6c0.1,0,0.3,0,0.4,0c3.8-0.4,7.7-0.8,11.4-1.1
					c1.2-0.1,2.5-0.2,3.7-0.2l0,0c1.6-0.1,3.1-0.2,4.7-0.3c1.5-0.1,3.1-0.1,4.5-0.2c0.6,0,1.2,0,1.8-0.1c1.8-0.1,3.6-0.1,5.3-0.1
					c5.5-0.1,10.4-0.1,14.2-0.1c0.9,0,1.8,0,2.6,0c1.4,0,2.7,0.1,3.7,0.1c2.1,0,3.2,0.1,3.2,0.1c0.3,0.9,0.5,1.9,0.7,2.9l0,0
					c1.1,4.3,2.1,9.1,3,14.2C419.5,156.9,419.6,157.2,419.6,157.5z"/>
				<path class="st13" d="M419.6,157.5c-0.2-0.2-0.3-0.4-0.5-0.7c-2.2,1.4-4.5,2.7-6.9,3.9c-8,3.8-17,6-26.5,6
					c-18.9,0-35.8-8.5-47.2-21.8c-0.5,0.1-1,0.2-1.5,0.3c0.5-0.1,1-0.2,1.5-0.3c1.1-0.2,2.2-0.5,3.3-0.7c0.1,0,0.2,0,0.3-0.1
					c0.2,0,0.4-0.1,0.7-0.1c2.8-0.5,5.7-1,8.6-1.4c0,0,0,0,0.1,0c1.3-0.2,2.5-0.4,3.8-0.5c1.7-0.2,3.4-0.4,5-0.6c0.1,0,0.3,0,0.4,0
					c3.8-0.4,7.7-0.8,11.4-1.1c1.2-0.1,2.4-0.2,3.6-0.3c1.6-0.1,3.1-0.2,4.7-0.3c1.5-0.1,3.1-0.1,4.5-0.2c0.6,0,1.2,0,1.8-0.1
					c1.8-0.1,3.6-0.1,5.2-0.2c5.5-0.1,10.4-0.1,14.3-0.1c0.9,0,1.8,0,2.6,0c1.4,0,2.6,0.1,3.7,0.1c2.1,0.1,3.2,0.1,3.2,0.1l0,0
					c0.3,0.9,0.5,1.9,0.7,2.9l0,0c1.1,4.3,2.1,9.1,3,14.2C419.5,156.9,419.6,157.2,419.6,157.5z"/>
			</g>
			<path class="st17" d="M360.2,141.3c6.8,6.2,23.5,3.9,23.5,3.9s10.4-2.9,8.2-6.1c-6.1-1-9.1-3.9-10.3-7.5c-0.7-2.1-0.8-4.5-0.6-7
				c0.1-1.3,0.3-2.6,0.5-3.9l-20.6-15.3C363.6,115.4,366.9,133.9,360.2,141.3z"/>
			<path class="st13" d="M365.6,115c0.8,12.4,11,15.8,16,16.5c-0.7-2.1-0.8-4.5-0.6-7L365.6,115z"/>
			<g>
				<path class="st12" d="M401.2,75.9c0,0,2.9,19.3-7.3,26.7c-10.2,7.4-10.2-28.5-10.2-28.5L401.2,75.9z"/>
				<path class="st17" d="M364.2,117.9c5,7.1,13.1,9,20.1,6.8c4.5-1.4,8.6-4.6,11.1-9.1c0.3-0.6,0.6-1.2,0.9-1.9
					c5-11.8,6.6-32.4-5.8-40.1c-8.8-5.6-20.6-2.9-26.1,5.9c-1.6,2.5-2.6,5.4-2.8,8.3C360.1,101.7,358.5,109.7,364.2,117.9z"/>
				<path class="st12" d="M381.7,95.3c-0.3,1.1,0.2,2.1,1,2.2c0.7,0.1,1.5-0.7,1.7-1.8c0.2-1.1-0.3-2.1-1-2.2
					C382.6,93.4,381.9,94.2,381.7,95.3z"/>
				<path class="st12" d="M394.2,97.4c-0.3,1.1,0.3,2.1,1,2.2s1.5-0.7,1.7-1.8c0.2-1.1-0.3-2.1-1-2.2S394.4,96.4,394.2,97.4z"/>
				<path class="st19" d="M390.1,97.3c0.7,3.6,2,7.1,3.7,10.4c-1.7,0.8-3.8,0.9-5.5,0.1L390.1,97.3z"/>
				<path class="st12" d="M378.5,90.5c0.2,0.1,0.5,0,0.7-0.1c1.2-1.2,2.9-1.7,4.6-1.5c0.4,0.1,0.7-0.1,0.8-0.5
					c0.1-0.4-0.1-0.7-0.5-0.8l0,0c-2.1-0.4-4.2,0.3-5.8,1.8c-0.3,0.2-0.3,0.7-0.1,0.9l0,0C378.3,90.4,378.4,90.5,378.5,90.5z"/>
				<path class="st12" d="M400.4,94c0.1,0.1,0.2,0.1,0.4,0.1c0.4-0.1,0.6-0.5,0.5-0.8l0,0c-0.5-2.1-2.1-3.7-4.1-4.5
					c-0.3-0.1-0.7,0.1-0.8,0.4l0,0c-0.1,0.3,0.1,0.7,0.4,0.8l0,0c1.6,0.6,2.7,2,3.2,3.6C400,93.8,400.2,94,400.4,94z"/>
				<path class="st12" d="M374.5,72.6v6.2c-2.1,0.8-3.6,2.9-3,5.4c1.3,5.3-2.5,12.9-6.8,15.6c0,0,0.1-2.2-1.8-1.9
					s-2.8,11.9,0.1,17.8c0,0-4.9-5.6-6.5-18.1c-1.5-11.5-0.7-20.9,2.1-24.9L374.5,72.6L374.5,72.6z"/>
				<path class="st17" d="M353.7,98.1c1,3.3,3.3,6.2,6.3,7.8c4.1,2.2,7.1-1.2,6.8-5.6c-0.3-3.9-2.7-9.8-7.2-10.2
					C355.1,89.9,352.5,94,353.7,98.1z"/>
				<path class="st12" d="M374.5,78.8c0,0,4,4,7.9,1.1c0,0,4.4,3.7,8,1.1c0,0,2,3.3,5.2,3.7s3.2-2.9,3.2-2.9s5.1,2.9,7,1.6
					c1.9-1.4-1-6.8-1-6.8s2.4-1.3,0.9-5.7c-1.5-4.4-8.6-3.4-8.6-3.4s0.3-4.1-4.7-8.4c-4.9-4.3-7.9,1-7.9,1s-4.8-6.5-10.7-5.6
					c-5.9,0.9-5.3,4.9-5.3,4.9s-6.8-4.3-9.9,0s0,6.3,0,6.3s-6.8,2.3-6.5,6.9c0.3,4.7,3.8,4,3.8,4s-2,2.2,2.5,4.1S367,78,367,78
					s-1.7,2.6,1.5,4.4C371.5,84.2,374.5,78.8,374.5,78.8z"/>
				<g>
					<path class="st12" d="M388,111.9c-1.6,1.3-3.9,4.2-3.9,4.2c-0.3-0.2-0.6-0.3-0.9-0.5c-3.9-2.3-5-4.6-5-6.6c0-1.1,0.4-2,0.7-2.7
						c0.4-0.8,0.9-1.3,0.9-1.3c1.4,2.5,4.9,4.9,6.8,6.1C387.5,111.7,388,111.9,388,111.9z"/>
					<path class="st5" d="M386.7,111.1l-1.2,1.2c-3.7-2.2-6-4.2-6.5-6c0.4-0.8,0.9-1.3,0.9-1.3C381.3,107.5,384.8,109.9,386.7,111.1
						z"/>
					<path class="st14" d="M383.3,115.6c-3.9-2.3-5-4.6-5-6.6c1.3,0.8,2.8,2,3.9,3.4C383,113.5,383.2,114.6,383.3,115.6z"/>
				</g>
			</g>
			<path class="st3" d="M383.7,145.2c0,0-24.1-16.4-31.7-17.3c-7.7-0.9-6.3,8.6-6.3,8.6s-5.9,0-3.6,7.3s35,11.3,47.1,7.7
				s19.3-10.4,17.3-16.8c-2-6.4-7.6-0.9-7.6-0.9s-3.2-6-7.9-4.6C386.2,130.6,383.7,145.2,383.7,145.2z"/>
			<path class="st3" d="M434.8,142.4c-2.2,2.9-4.7,5.6-7.4,8c-2.5,2.3-5.1,4.3-8,6.1c0.1,0.3,0.1,0.6,0.1,0.9
				c-0.2-0.2-0.3-0.4-0.5-0.7c-1.6-2.1-3.4-4.7-5.2-7.5c-2.2-3.5-4.2-7.1-5.1-10.1l0,0c-0.3-0.9-0.5-1.8-0.5-2.6l-2-2.8l0.7-0.8
				l5.3-6.2l1.2-1.3l2.3,3c0,0,2.9-1,12.3,7C430.4,137.5,432.8,140.1,434.8,142.4z"/>
		</g>
	</g>
	<g>
		<circle class="st3" cx="208.6" cy="499" r="60.6"/>
		<path class="st8" d="M267.1,499c0,14-4.9,26.8-13.1,36.9c-2.5,3-5.2,5.8-8.3,8.3c-1,0.8-2,1.6-3,2.3c-2.8,2.1-5.9,3.8-9.1,5.4
			c-7.6,3.6-16,5.6-25,5.6c-10.7,0-20.8-2.9-29.4-8c-2.2-1.3-4.3-2.7-6.4-4.3l0,0c-0.1-0.1-0.2-0.2-0.3-0.3
			c-2.4-1.8-4.6-3.9-6.6-6.1c-9.8-10.4-15.7-24.5-15.7-39.8c0-32.2,26.2-58.5,58.5-58.5C240.9,440.6,267.1,466.8,267.1,499z"/>
		<g>
			<path class="st12" d="M245.7,544.2c-1,0.8-2,1.6-3,2.3c-2.8,2.1-5.9,3.8-9.1,5.4c-7.6,3.6-16,5.6-25,5.6c-10.7,0-20.8-2.9-29.4-8
				c-2.2-1.3-4.3-2.7-6.4-4.3l0,0c-0.1-0.1-0.2-0.2-0.3-0.3c0-0.1,0.1-0.3,0.1-0.4l0,0c0.5-1.9,1-3.9,1.4-5.9
				c0.6-2.8,1.2-5.6,1.7-8.6c1.3-7.8,2-16.2,1.8-24.7c-1-31,4.6-42.3,17.3-48.4c0.6-0.3,1.2-0.6,1.8-0.8c3-1.3,6-1.5,8.9-1.1l0,0
				c10.8,1.5,20.2,11.6,20.2,11.6s2.1,2.9,5,8.4c5.1,9.9,12.7,28.3,14.5,53.4l0,0C245.6,533.4,245.8,538.7,245.7,544.2z"/>
			<path class="st3" d="M245.2,528.3L245.2,528.3c-2.3-1.7-4.4-2.9-6.1-3.2c0,0-12.3-1.2-23.1-1.1c-1.2,0-2.4,0.1-3.5,0.2
				c-5.5,0.3-11,0.9-16.4,1.7c-1.6,0.2-3.2,0.5-4.8,0.8c-5.2,0.9-10.4,2-15.6,3.4c-2.5,0.7-4.9,1.4-7.3,2.1
				c-0.9,1.1-1.7,3.5-2.5,6.8c2,2.2,4.2,4.3,6.6,6.1c0.1,0.1,0.2,0.2,0.3,0.3l0,0c2,1.6,4.1,3,6.4,4.3c8.6,5.1,18.7,8,29.4,8
				c8.9,0,17.4-2,25-5.6c3.2-1.5,6.2-3.3,9.1-5.4c1-0.7,2.1-1.5,3-2.3c3-2.5,5.8-5.3,8.3-8.3C251.1,533.1,248,530.3,245.2,528.3z"/>
			<path class="st16" d="M245.2,528.3L245.2,528.3c-2.3-1.7-4.4-2.9-6.1-3.2c0,0-12.3-1.2-23.1-1.1c-1.2,0-2.4,0.1-3.5,0.2
				c-5.5,0.3-11,0.9-16.4,1.7c-1.6,0.2-3.2,0.5-4.8,0.8c-5.2,0.9-10.4,2-15.6,3.4c-2.5,0.7-4.9,1.4-7.3,2.1
				c-0.9,1.1-1.7,3.5-2.5,6.8c2,2.2,4.2,4.3,6.6,6.1c0.1,0.1,0.2,0.2,0.3,0.3l0,0c2,1.6,4.1,3,6.4,4.3c8.6,5.1,18.7,8,29.4,8
				c8.9,0,17.4-2,25-5.6c3.2-1.5,6.2-3.3,9.1-5.4c1-0.7,2.1-1.5,3-2.3c3-2.5,5.8-5.3,8.3-8.3C251.1,533.1,248,530.3,245.2,528.3z"/>
			<path class="st20" d="M211.5,536.2c-13.6-1.7-17.7-7.6-17.7-7.6c5.6-5.2,4.5-13,3.1-17.8c-0.8-2.7-1.7-4.4-1.7-4.4l16.4,3.1
				c-0.4,2.7-0.6,5-0.6,6.9c0,2.1,0.2,3.8,0.5,5.1c1.1,4.9,3.9,5,3.9,5C218.2,531.7,211.5,536.2,211.5,536.2z"/>
			<path class="st13" d="M211,516.3c0,2.1,0.2,3.8,0.5,5.1c-6.5-0.9-11.4-6.1-14.5-10.6c-0.8-2.7-1.7-4.4-1.7-4.4l16.4,3.1
				C211.2,512.1,211,514.4,211,516.3z"/>
			<g>
				<path class="st20" d="M208.3,464.1c14.2,0.5,18.5,8.3,19,23c0.6,18.4-3.9,31.2-21.6,26.7C181.8,507.6,184.7,463.3,208.3,464.1z"
					/>
				<path class="st21" d="M218.2,486c0,0,1.8,3.8,3.9,6.1c0,0-1.3,1.9-3.8,1.5L218.2,486z"/>
				<path class="st12" d="M203.5,477.4c-0.2,0-0.3-0.1-0.5-0.2c-0.3-0.3-0.3-0.7-0.1-1c2.5-2.9,6.8-2.2,6.9-2.2
					c0.4,0.1,0.7,0.4,0.6,0.9c-0.1,0.4-0.4,0.7-0.9,0.6c0,0-3.6-0.6-5.6,1.7C203.9,477.3,203.7,477.4,203.5,477.4z"/>
				<path class="st12" d="M225.7,476.6c-0.1,0-0.3,0-0.4-0.1c-2.7-1.9-4.9-1.3-5-1.3c-0.4,0.1-0.8-0.1-0.9-0.5
					c-0.1-0.4,0.1-0.8,0.5-0.9c0.1,0,2.9-0.9,6.3,1.5c0.3,0.2,0.4,0.7,0.2,1C226.2,476.5,225.9,476.6,225.7,476.6z"/>
				<g>
					<path class="st12" d="M216,499.1c-0.9,1.7-1.8,4.9-1.8,4.9c-0.3,0-0.6-0.1-0.9-0.1c-4.1-0.6-5.9-2.2-6.5-3.8
						c-0.4-0.9-0.4-1.8-0.3-2.5c0.1-0.8,0.3-1.4,0.3-1.4c2,1.6,5.8,2.4,7.9,2.8C215.4,499,216,499.1,216,499.1z"/>
					<path class="st5" d="M214.6,498.8l-0.6,1.4c-3.9-0.5-6.5-1.5-7.6-2.8c0.1-0.8,0.3-1.4,0.3-1.4
						C208.7,497.7,212.5,498.5,214.6,498.8z"/>
					<path class="st14" d="M213.2,503.8c-4.1-0.6-5.9-2.2-6.5-3.8c1.4,0.2,3.1,0.7,4.5,1.5C212.3,502.2,212.9,503,213.2,503.8z"/>
				</g>
				<path class="st12" d="M191.9,487.5c0,0,7.1-11.4,6.4-20.5c0,0,28.6-10.5,29,18.2c0,0,3.7-25.3-20.7-26.8s-25.7,34.3-13.4,45.4
					C193.1,503.9,187.5,494.7,191.9,487.5z"/>
				<path class="st20" d="M194.1,490.6c0-2.3-2.2-6.3-6.5-6c-4.4,0.3-6.9,9.3,4,11.9C193.2,496.9,194.1,495.4,194.1,490.6z"/>
				<path class="st12" d="M200.3,454.7c7.7-2.1,28.2-2.4,33.1,18.8l-2.8,1.4c0,0-6.8-3.7-15.4-4.6c0,0-1.7-3.1-4-5.7
					c0,0,0.3,3.4,0,5.4c0,0-13.4,2-19.4,7.4c-9.4,8.5-10,14-10,14S175.3,461.7,200.3,454.7z"/>
				<path class="st12" d="M235.4,473.3c-0.2,0-0.4-0.1-0.5-0.4c-2.4-7.3-6.6-12.4-12.4-15.3c-10.6-5.2-23-1-23.2-0.9
					c-0.3,0.1-0.6,0-0.7-0.3c-0.1-0.3,0-0.6,0.3-0.7c0.1,0,13-4.4,23.9,1c6,3,10.4,8.3,12.9,15.9
					C235.8,472.9,235.6,473.2,235.4,473.3C235.5,473.3,235.4,473.3,235.4,473.3z"/>
				<path class="st12" d="M205.6,484.5c0,0,3.3-2.8,4.9,1C210.5,485.5,208,484.3,205.6,484.5z"/>
				<path class="st12" d="M221.4,486.6c0,0,1.8-3.9,4.3-1.1C225.7,485.5,222.9,485.6,221.4,486.6z"/>
			</g>
		</g>
	</g>
	<g>
		<ellipse class="st3" cx="793" cy="603.1" rx="75.1" ry="75.1"/>
		<path class="st8" d="M866,603.1c0,11.8-2.8,22.9-7.8,32.8c-1,2-2.1,3.9-3.2,5.8c-0.9,1.4-1.8,2.9-2.9,4.3
			c-4.3,5.9-9.4,11.1-15.2,15.5c-1.3,1-2.7,2-4.1,2.9c-5.6,3.7-11.8,6.6-18.3,8.6c-6.8,2.1-14,3.2-21.5,3.2c-10.7,0-21-2.3-30.2-6.5
			c-1.2-0.5-2.4-1.1-3.5-1.7l0,0c-6.5-3.4-12.5-7.8-17.7-12.9c-5.1-5-9.4-10.8-12.9-17.1c-1-1.8-1.9-3.7-2.7-5.6l0,0
			c-3.9-8.9-6.1-18.8-6.1-29.1c0-40.2,32.7-73,73-73C833.3,530.1,866,562.9,866,603.1z"/>
		<g id="_x3C_Group_x3E__2_">
			<path class="st22" d="M756.6,600.2c-0.9,1.8-4.5,5.5-4.5,5.5l-6.3,29.8l-4.1,19.4c-5.1-5-9.4-10.8-12.9-17.1
				c0.5-1.6,1-3.2,1.6-4.9c4.5-13.8,9.6-29.8,9.9-31.4c0.7-2.8-1.8-16.6-1.2-19.1s13.2-5.5,15.9-5.5
				C757.8,577,757.5,598.4,756.6,600.2z"/>
			<path class="st3" d="M766.5,633L766.5,633l-2.6,27.2l-0.9,9.3c-1.2-0.5-2.4-1.1-3.5-1.7l0,0c-6.5-3.4-12.5-7.8-17.7-12.9
				c-5.1-5-9.4-10.8-12.9-17.1c-1-1.8-1.9-3.7-2.7-5.6l4.3,0.7l15.4,2.5l3.3,0.5l-3.9,18.8C745.2,654.8,759.4,635.2,766.5,633z"/>
			<path class="st11" d="M766.5,633L766.5,633l-2.6,27.2l-0.9,9.3c-1.2-0.5-2.4-1.1-3.5-1.7l0,0c-6.5-3.4-12.5-7.8-17.7-12.9
				c-5.1-5-9.4-10.8-12.9-17.1c-1-1.8-1.9-3.7-2.7-5.6l4.3,0.7l15.4,2.5l3.3,0.5l-3.9,18.8C745.2,654.8,759.4,635.2,766.5,633z"/>
			<g>
				<path class="st3" d="M858.2,635.9c-1,2-2.1,3.9-3.2,5.8c-0.9,1.4-1.8,2.9-2.9,4.3c-4.3,5.9-9.4,11.1-15.2,15.5
					c-1.3,1-2.7,2-4.1,2.9c-5.6,3.7-11.8,6.6-18.3,8.6c-6.8,2.1-14,3.2-21.5,3.2c-10.7,0-21-2.3-30.2-6.5c-1.2-0.5-2.4-1.1-3.5-1.7
					l0,0c2.9-21,6.7-33.5,7.1-34.7c0-0.1,0-0.1,0-0.1c7.6-2.2,15.3-3.7,23.1-4.7c0.1,0,0.2,0,0.4,0l0,0c11.2-0.9,22.5-1.1,33.8-0.7
					h0.1c7.8,0.2,15.6,1,23.3,2.3C848.1,630.3,853.3,632.5,858.2,635.9z"/>
				<path class="st11" d="M858.2,635.9c-1,2-2.1,3.9-3.2,5.8c-0.9,1.4-1.8,2.9-2.9,4.3c-4.3,5.9-9.4,11.1-15.2,15.5
					c-1.3,1-2.7,2-4.1,2.9c-5.6,3.7-11.8,6.6-18.3,8.6c-6.8,2.1-14,3.2-21.5,3.2c-10.7,0-21-2.3-30.2-6.5c-1.2-0.5-2.4-1.1-3.5-1.7
					l0,0c2.9-21,6.7-33.5,7.1-34.7c0-0.1,0-0.1,0-0.1c7.6-2.2,15.3-3.7,23.1-4.7c0.1,0,0.2,0,0.4,0l0,0c11.2-0.9,22.5-1.1,33.8-0.7
					h0.1c7.8,0.2,15.6,1,23.3,2.3C848.1,630.3,853.3,632.5,858.2,635.9z"/>
				<path class="st9" d="M836.9,661.4c-1.3,1-2.7,2-4.1,2.9c-5.6,3.7-11.8,6.6-18.3,8.6c-6.8,2.1-14,3.2-21.5,3.2
					c-10.7,0-21-2.3-30.2-6.5c-1.2-0.5-2.4-1.1-3.5-1.7l0,0c0.1-0.6,0.2-1.2,0.3-1.8c1.2-1.9,2.6-3.8,4.2-5.8
					c7.5-9.6,18.1-19.3,23.4-23.9c1.5,1.8,4,3.4,8.2,4.2c6.9,1.3,14.8-1.9,21.3-5.8c2.9,2.9,7.4,7.6,11.4,12.6
					c3.1,3.8,5.9,7.9,7.7,11.6C836.3,659.8,836.6,660.6,836.9,661.4z"/>
			</g>
			<path class="st22" d="M823.8,627.7c0,0-8.5,10.5-24.9,11.3c-14.1,0.6-9.4-10.5-9.4-10.5c5.2-1.4,8.1-3.8,9.5-6.7
				c1.8-3.8,1.3-8.5,0.1-13.1c-0.1-0.3-0.2-0.6-0.3-1l20.6-18.4C817.7,600.3,815.9,620.5,823.8,627.7z"/>
			<path class="st13" d="M816.2,605.4c-1.1,7.1-9.7,14.1-17.1,16.3c1.8-3.8,1.3-8.5,0.1-13.1l17.1-13.1
				C816.9,598.7,816.9,602.1,816.2,605.4z"/>
			<g>
				<path class="st12" d="M802.8,565.3c4.9,5.5,0.5,11.7-15.7,18.9c-3.6-8.5-1-22.4,4.2-24.7C796.5,557.1,798.5,560.5,802.8,565.3z"
					/>
				<path class="st22" d="M825.5,582.9c-4.3,14.3-6.2,22.9-15.3,28.6c-13.7,8.6-30.1-2.3-30.1-17.6c0-13.8,7.1-34.9,22.7-37.3
					c11.1-1.8,21.6,5.8,23.4,16.9C826.7,576.6,826.4,579.8,825.5,582.9z"/>
				<path class="st12" d="M802.8,581.7c-0.3,1.2-1.1,2-1.9,1.8c-0.8-0.2-1.2-1.3-0.9-2.5s1.1-2,1.9-1.8S803,580.5,802.8,581.7z"/>
				<path class="st12" d="M789.4,578.5c-0.3,1.2-1.1,2-1.9,1.8c-0.8-0.2-1.2-1.3-0.9-2.5s1.1-2,1.9-1.8
					C789.3,576.2,789.7,577.3,789.4,578.5z"/>
				<path class="st23" d="M793.6,580.1c-2.3,3.3-5,6.2-8.1,8.8c1.7,2.5,5.4,2.4,5.4,2.4L793.6,580.1z"/>
				<path class="st12" d="M807.5,578.3c0.1,0.1,0.3,0.1,0.5,0c0.4-0.2,0.5-0.6,0.4-0.9c-0.9-2.1-2.7-3.7-5-4.2
					c-0.4-0.1-0.7,0.2-0.8,0.5l0,0c0,0.4,0.2,0.7,0.6,0.8l0,0c1.8,0.4,3.2,1.7,3.9,3.4C807.1,578.1,807.3,578.3,807.5,578.3z"/>
				<path class="st12" d="M784.3,572.5c0.3,0.1,0.5,0,0.7-0.2c1.1-1.4,2.8-2.3,4.7-2.2c0.4,0,0.7-0.2,0.8-0.6c0-0.4-0.2-0.7-0.6-0.8
					c-2.3-0.1-4.5,0.9-5.9,2.7c-0.2,0.3-0.2,0.7,0.1,1l0,0C784.1,572.5,784.2,572.5,784.3,572.5z"/>
				<path class="st12" d="M822.7,568.6c-7.3,0.7-8.2,8.2-1.3,24.5c8.4-3.7,16-15.7,13.7-21C832.9,566.9,829.2,568,822.7,568.6z"/>
				<path class="st22" d="M829.6,596.1c-1.8,3.3-4.9,5.7-8.5,6.7c-4.8,1.3-7.2-3-5.8-7.5c1.2-4.1,5.2-9.7,10-9
					S831.9,592.1,829.6,596.1z"/>
				<path class="st12" d="M808.6,562.6c0,0-1.5,15.1,12.2,19.5c13.7,4.5,18.9-3.4,18.9-3.4s-2.2-0.2-3.5-0.6c0,0,5.9-6,3.5-13.8
					c-2.3-7.8-14.5-18.5-25.7-17.5c0,0-8.9-6.3-20-3.1s-12.5,15.8-12.5,15.8s1.5-7.5,6.5-8.5c0,0-9.5,13.9-2.2,20.1
					C785.9,571.2,790.5,556.3,808.6,562.6z"/>
				<g>
					<path class="st12" d="M788.4,596.7c1.2,1.7,2.8,5.1,2.8,5.1c0.3-0.1,0.7-0.2,1-0.3c4.5-1.3,6.1-3.3,6.6-5.2
						c0.3-1,0.2-2.1,0-2.8c-0.2-0.9-0.6-1.5-0.6-1.5c-2,2.1-6.1,3.6-8.3,4.3C789,596.6,788.4,596.7,788.4,596.7z"/>
					<path class="st5" d="M789.9,596.3l0.9,1.5c4.2-1.2,7-2.6,8-4.3c-0.2-0.9-0.6-1.5-0.6-1.5C796.2,594.1,792.2,595.6,789.9,596.3z
						"/>
					<path class="st14" d="M792.2,601.6c4.5-1.3,6.1-3.3,6.6-5.2c-1.5,0.5-3.3,1.2-4.7,2.4C793,599.6,792.5,600.6,792.2,601.6z"/>
				</g>
			</g>
		</g>
	</g>
	<g>
		<path class="st3" d="M574.8,250l-36.9-1.8c-2-0.1-3.6-1.8-3.5-3.9l1.8-36.9c0.1-2,1.8-3.6,3.9-3.5l36.9,1.8c2,0.1,3.6,1.8,3.5,3.9
			l-1.8,36.9C578.5,248.5,576.8,250.1,574.8,250z"/>
		<path class="st24" d="M570,218.8c-2.9-5.2-8.9-3.6-12.2,0.2c-2.9-4.1-8.8-6.3-12.1-1.4c-5.7,8.3,4.8,16.7,9.8,20.1
			c0.6,0.4,1,0.7,1.4,1c0.4-0.2,0.9-0.5,1.5-0.8C563.6,235.1,574.8,227.7,570,218.8z"/>
		<path class="st3" d="M561.3,245.9c0,0-6.4,13-19.6,16.5c0,0,7.4-3.8,7.5-17.7L561.3,245.9z"/>
	</g>
</g>
</svg>
