<?xml version="1.0" encoding="utf-8"?>
<!-- Generator: Adobe Illustrator 25.2.0, SVG Export Plug-In . SVG Version: 6.00 Build 0)  -->
<svg version="1.1" id="a8897f4c-2937-4134-8b3a-fee1040aeff6"
	 xmlns="http://www.w3.org/2000/svg" xmlns:xlink="http://www.w3.org/1999/xlink" x="0px" y="0px" viewBox="0 0 1066.1 824.2"
	 style="enable-background:new 0 0 1066.1 824.2;" xml:space="preserve">
<style type="text/css">
	.st0{opacity:0.1;}
	.st1{fill:#E7E7E7;}
</style>
<g class="st0">
	<path class="st1" d="M405.8,171.9c0-5.1-2-9.8-5.4-13.3l165-42.5l-167.3,10.1l-28.9,26.4h-15.5c-1.9-0.7-3.9-1.1-6-1.1
		c-5.4,0-10.3,2.6-13.7,6.8L190.3,11.7l92.4,139.9l47.1,15c-0.5,1.8-0.7,3.7-0.7,5.7c0,9.3,5.5,17.2,13.1,19.8l-54.7,196.8l74.9-150
		l-10.2-46.5c1-0.3,2-0.6,2.9-1.1h13.8v541.6h37.4l-15.9-542C399.2,189.1,405.8,181.2,405.8,171.9z"/>
	<path class="st1" d="M735.1,239.6l-15.4-7.8l-0.1-2.3c7.4-1.5,13-8.1,13-16c0-9-7.3-16.3-16.3-16.3h-25l71.3-155.5l-82.2,114.7
		l2.3,39.9c-8.2,0.6-14.7,8.2-14.7,17.4c0,0.5,0,1,0.1,1.5l-172.8,16.3l140.4,13.8l34.5-22.7c2.7,5.1,7.7,8.6,13.5,8.6
		c2.2,0,4.3-0.5,6.2-1.4h5.2l6.4,9v494.1h31.5l-12.5-467.3l72.8,102.5L735.1,239.6z"/>
	<path class="st1" d="M241,188.6c-6.3-12.7-18.6-21.8-31.2-21.8c-7.9,0-14.5,3.6-18.8,9.4c-4.1-3.3-8.9-5.3-13.8-5.3
		c-8.6,0-14.9,6.1-16.4,14.8c-4-1.9-8.3-3.1-12.7-3.3c-8.6-0.4-15.4,3.1-18.8,8.9c-1.6-1-3.4-1.6-5.3-1.6c-4.9-0.2-8.1,3.3-7.2,7.9
		c0.1,0.3,0.1,0.6,0.2,0.8h139.1C256.5,193.8,247.1,188.8,241,188.6z"/>
	<path class="st1" d="M967,145.7c-6.3-12.7-18.6-21.8-31.2-21.8c-7.9,0-14.5,3.6-18.8,9.4c-4.1-3.3-8.9-5.3-13.8-5.3
		c-8.6,0-14.9,6.1-16.4,14.8c-4-1.9-8.3-3.1-12.7-3.3c-8.6-0.4-15.4,3.1-18.8,8.9c-1.6-1-3.4-1.6-5.3-1.6c-4.9-0.2-8.1,3.3-7.2,7.9
		c0.1,0.3,0.1,0.6,0.2,0.8h139.1C982.5,151,973.1,145.9,967,145.7z"/>
	<path class="st1" d="M625.7,324.1c-0.7-0.1-1.4-0.1-2-0.1c-6.2-7.5-13.9-12.3-21.2-12.3c-5.3,0-9.4,2.5-12.2,6.7
		c-11.3-14.6-25.8-24.1-39.5-24.1c-11,0-19.3,6.2-24,16.2c-6.4-5.7-13.5-9.2-20.3-9.2c-12,0-19.4,10.6-19.5,25.6c0,0,0,0,0,0
		c-5.9-3.3-12.2-5.4-18.3-5.7c-12-0.7-20.6,5.4-24.2,15.3c-2.5-1.7-5.1-2.7-7.7-2.9c-6.6-0.4-10.2,5.1-8.6,12.4h227.5
		C650.9,335,637.9,325.3,625.7,324.1z"/>
	<path class="st1" d="M704.5,31.4c-2.3-5.6-8.8-10.4-15-11c-0.3,0-0.7-0.1-1-0.1c-3.1-3.8-7-6.2-10.6-6.2c-2.6,0-4.7,1.3-6.1,3.4
		c-5.6-7.3-12.9-12-19.7-12c-5.5,0-9.7,3.1-12,8.1c-3.2-2.9-6.8-4.6-10.2-4.6c-6,0-9.7,5.3-9.8,12.8c0,0,0,0,0,0
		c-3-1.7-6.1-2.7-9.2-2.9c-6-0.3-10.3,2.7-12.1,7.7c-1.2-0.8-2.6-1.4-3.9-1.4c-3.3-0.2-5.1,2.6-4.3,6.2H704.5z"/>
</g>
</svg>
