<?xml version="1.0" encoding="utf-8"?>
<!-- Generator: Adobe Illustrator 25.2.0, SVG Export Plug-In . SVG Version: 6.00 Build 0)  -->
<svg version="1.1" id="a8897f4c-2937-4134-8b3a-fee1040aeff6"
	 xmlns="http://www.w3.org/2000/svg" xmlns:xlink="http://www.w3.org/1999/xlink" x="0px" y="0px" viewBox="0 0 1066.1 824.2"
	 style="enable-background:new 0 0 1066.1 824.2;" xml:space="preserve">
<style type="text/css">
	.st0{fill:#007CFF;}
	.st1{fill:#1A2E35;}
	.st2{opacity:0.4;fill:#FFFFFF;enable-background:new    ;}
	.st3{opacity:0.6;fill:#FFFFFF;enable-background:new    ;}
	.st4{opacity:0.2;fill:#FFFFFF;enable-background:new    ;}
	.st5{opacity:0.2;enable-background:new    ;}
	.st6{fill:#FCC1BB;}
	.st7{opacity:0.1;fill:#FFFFFF;enable-background:new    ;}
	.st8{opacity:0.3;fill:#FFFFFF;enable-background:new    ;}
	.st9{fill:#CC7A63;}
	.st10{fill:#B84D3C;}
	.st11{fill:none;stroke:#1A2E35;stroke-width:0.708;stroke-linecap:round;stroke-linejoin:round;stroke-miterlimit:10;}
	.st12{opacity:0.5;fill:#FFFFFF;}
	.st13{enable-background:new    ;}
	.st14{opacity:0.1;enable-background:new    ;}
	.st15{opacity:0.1;}
	.st16{fill:#FD897B;}
	.st17{opacity:0.4;enable-background:new    ;}
	.st18{fill:#FD5652;}
	.st19{fill:none;stroke:#1A2E35;stroke-width:0.5572;stroke-linecap:round;stroke-linejoin:round;stroke-miterlimit:10;}
</style>
<g>
	<g>
		<path class="st0" d="M157.1,639.1l-18-4.5c-4.5-1.1-9.5,0.8-10.6,5.3l-3,11.9c-1.1,4.5,2.4,8.3,6.9,9.4l7.1,1.8l0,8.1l3.8-7.2
			l7.1,1.8c4.5,1.1,9.4-0.5,10.6-5.1l3-11.9C165.1,644.2,161.6,640.3,157.1,639.1z"/>
		<path class="st0" d="M177.3,595.8c-9.3-4-14.7,7.5-14.7,7.5s-11.3-5.8-16.3,3c-7.1,12.6,13.2,23.9,25.2,23.5
			C181.3,622.8,190.6,601.5,177.3,595.8z"/>
		<polygon class="st0" points="208.4,663.2 199.3,650.6 184.5,655.4 195.4,621.8 219.4,629.6 		"/>
		<g>
			<rect x="97.1" y="682" class="st1" width="144.2" height="81.4"/>
			<rect x="97.1" y="682" class="st2" width="144.2" height="81.4"/>
			<rect x="183.9" y="682" class="st2" width="57.4" height="81.4"/>
		</g>
		<path class="st3" d="M157.1,639.1l-18-4.5c-4.5-1.1-9.5,0.8-10.6,5.3l-3,11.9c-1.1,4.5,2.4,8.3,6.9,9.4l7.1,1.8l0,8.1l3.8-7.2
			l7.1,1.8c4.5,1.1,9.4-0.5,10.6-5.1l3-11.9C165.1,644.2,161.6,640.3,157.1,639.1z"/>
		<polygon class="st2" points="208.4,663.2 199.3,650.6 184.5,655.4 195.4,621.8 219.4,629.6 		"/>
	</g>
	<g id="_x3C_Group_x3E__66_">
		<g>
			<path class="st1" d="M623.2,109.1c-0.1-1-1-1.8-2-1.9l-53.8-5.9c-0.7-0.1-3.3,1.6-3.2,2.5l6.3,50.8c0.1,1.1,1,1.9,2,2l54.5,4.3
				c0.7,0.1,3.2-1.6,3.1-2.5L623.2,109.1z"/>
			<path class="st4" d="M567.4,101.3l53.8,5.9c1,0.1,1.8,0.9,2,1.9l7,49.1c0.1,0.9-0.6,1.7-1.5,1.6l-54.5-4.3c-1.1-0.1-1.9-0.9-2-2
				l-6.3-50.8C565.7,102,566.5,101.2,567.4,101.3z"/>
			<polygon class="st0" points="574.3,153.3 568.2,103.7 621,109.5 627.8,157.5 			"/>
			<polygon class="st3" points="574.3,153.3 568.2,103.7 621,109.5 627.8,157.5 			"/>
			<path class="st5" d="M583.3,113.1c0.7,3.4-1,6.6-3.8,7.2c-2.8,0.5-5.5-1.8-6.2-5.2c-0.7-3.4,1-6.6,3.8-7.2
				C579.8,107.4,582.6,109.7,583.3,113.1z"/>
			<g>
				<polygon class="st5" points="592.9,138.9 607.3,140.3 605.7,126.5 591.1,125 				"/>
				<polygon class="st5" points="607.5,142.3 593.2,140.9 594.6,152 608.8,153.1 				"/>
				<polygon class="st5" points="609.4,142.5 610.8,153.3 624.4,154.4 622.7,143.9 				"/>
				<polygon class="st5" points="609.1,140.5 622.4,141.8 620.3,128.1 607.3,126.7 				"/>
				<polygon class="st5" points="591.3,140.7 577,139.2 578.3,150.7 592.6,151.9 				"/>
				<polygon class="st5" points="591.1,138.7 589.5,124.8 575.2,123.3 576.8,137.3 				"/>
			</g>
			<g>
				<polygon class="st5" points="609.5,119.3 616.9,120.2 616.1,116.8 608.8,115.9 				"/>
				<polygon class="st5" points="595.8,114.4 587.6,113.4 588.1,116.6 596.3,117.6 				"/>
				<polygon class="st5" points="598.6,117.9 606.7,118.9 606.1,115.6 598.3,114.7 				"/>
			</g>
		</g>
		<path class="st6" d="M650.1,139.4c0,0-19.1-10.7-21.9-12.9c-2.8-2.1-28.2-2.5-27.7,0c0.5,2.5,10,17.7,12.2,19.2
			c2.3,1.4,17.5,0,17.5,0l17.4,7L650.1,139.4z"/>
		<g>
			<path class="st1" d="M746.8,137.6c16.2,7.8,7.7,74.5-30.4,89.8c-38,15.3-76.2-44.9-76.2-44.9l11.9-31c0,0,34.9,28.8,48.5,22.2
				C714.2,167,734.5,131.7,746.8,137.6z"/>
			<path class="st7" d="M746.8,137.6c16.2,7.8,7.7,74.5-30.4,89.8c-38,15.3-76.2-44.9-76.2-44.9l11.9-31c0,0,34.9,28.8,48.5,22.2
				C714.2,167,734.5,131.7,746.8,137.6z"/>
		</g>
		<polygon class="st6" points="644.6,727 623.8,729.2 622.7,717.1 619.9,684.2 640.7,682 643.9,718.4 		"/>
		<polygon class="st6" points="748.7,724.4 728.5,724.4 728.3,719.8 728.3,719.2 727.3,689.9 727.3,689.3 726.8,678.1 747.1,678.1 
					"/>
		<polygon class="st5" points="640.7,682 643.9,718.4 622.7,717.1 619.9,684.2 		"/>
		<polygon class="st5" points="748.6,721.8 748.6,721.8 728.3,719.2 728.3,719.2 727.3,690.9 727.3,690.9 747.5,692.6 748.6,720.9 
					"/>
		<path class="st0" d="M725.7,723.2h24.6c0.8,0,1.5,0.6,1.7,1.4l4,18c0.3,1.6-0.7,3.2-2.3,3.5c-0.2,0-0.4,0.1-0.7,0.1
			c-7.9-0.1-13.7-0.6-23.7-0.6c-6.1,0-24.7,0.6-33.2,0.6c-8.5,0-9.6-8.4-6.1-9.2c15.6-3.4,27.3-8.1,32.3-12.6
			C723.2,723.6,724.5,723.1,725.7,723.2z"/>
		<path class="st0" d="M621.5,722.5h24.6c0.8,0,1.5,0.6,1.7,1.4l4,18c0.3,1.6-0.7,3.2-2.3,3.5c-0.2,0-0.4,0.1-0.7,0.1
			c-7.9-0.1-13.7-0.6-23.7-0.6c-6.1,0-24.7,0.6-33.2,0.6c-8.5,0-9.6-8.4-6.1-9.2c15.6-3.4,27.3-8.1,32.3-12.6
			C619.1,723,620.3,722.5,621.5,722.5z"/>
		<path class="st1" d="M617.9,714.1h29.7c0,0-2.4-220.8,29.7-307c2.3,28.5,4.8,58.1,7.3,82.7c1.6,15.3,3.1,21.1,4.6,31.1
			c9.3,64.3,32.9,195.8,32.9,195.8h29.3c0,0-3.5-124.8-6.9-188c-3.8-68.6-5.5-212.1-5.6-225H631.4
			C621.2,357.6,595,539.2,617.9,714.1z"/>
		<g>
			<path class="st6" d="M670.4,84.2c0.3,1,0.5,1.9,0.9,2.9c2,5.6,5.6,10.1,10,13.3c1.2,0.8,2.4,1.6,3.7,2.3c6.7,3.5,14.7,4.1,21.9,1
				c2.9-1.2,5.8-3.2,8.4-5.8c10.1-10.2,9.9-22,11-42c0.3-4.3-0.4-8.6-2-12.6c-5.8-14-21.8-20.6-35.8-14.8
				C668.8,36.4,666.1,66.2,670.4,84.2z"/>
			<path class="st5" d="M681.3,100.4c1.2,0.8,2.4,1.6,3.7,2.3c6.7,3.5,14.7,4.1,21.9,1c-1.4-3.9-3.6-6.8-3.6-6.8
				S691.3,95,681.3,100.4z"/>
			<path class="st6" d="M721.5,126.3c-9.8,9-34,5.6-34,5.6s-15.1-4.1-11.9-8.8c8.9-1.5,13.2-5.6,14.9-10.9c1-3.1,1.2-6.6,0.9-10.1
				c-0.1-1.9-0.4-3.8-0.7-5.7l29.8-22.1C716.7,88.9,711.9,115.8,721.5,126.3z"/>
			<path class="st1" d="M681.3,66l-4.3,1.6l2.2-8.8c0,0-6.3-9.5,0-18c0,0-16-7.1-3.9-24.9c0,0,4.5,10.5,16.6,5.2
				c6.5-2.8,26.9-3.1,27.9,5.2c0,0,14.7-0.1,16.3,25c1.6,25.1-15.6,39.5-15.6,39.5s-17.7,4.2-26.4-2.9C685.4,80.9,681.3,66,681.3,66
				z"/>
			<path class="st6" d="M692.6,67.4c-1.2,4.4-3.6,7.5-6.7,8.9c-4.1,1.7-6.7-4-6.2-10c0.6-5.3,3.3-12.8,7.7-11.8
				C691.9,55.4,694.1,62,692.6,67.4z"/>
		</g>
		<path class="st5" d="M677.2,407c2.3,28.5,4.8,58.1,7.3,82.8c3.7-35.6,8.1-60.9,8.1-60.9s4.2-3.4,15.7-21.8
			c11.5-18.4,0-52.7,0-52.7C708.7,386.1,677.2,407,677.2,407z"/>
		<polygon class="st0" points="614.6,705.7 616.1,714.1 651.1,714.1 651.1,706.4 		"/>
		<polygon class="st0" points="718.7,708.9 722,716.7 751.4,716.7 753.3,708.9 		"/>
		<g>
			<path class="st1" d="M650.1,124.9c0,0,26.7-6.4,55.9-1.1c29.2,5.3,40.7,13.8,40.7,13.8l15.1,229.7c0,0-78.2,19-143.9,0
				C618,367.3,624.2,154.4,650.1,124.9z"/>
			<path class="st4" d="M761.9,367.3c0,0-78.2,19-143.9,0c0,0,0.1-2.5,0.3-7.1c0.6-17.1,2.5-62.6,6.7-109.4c0.2-2,0.4-4.1,0.5-6.1
				c4.9-53,12.7-106.1,24.7-119.8c0,0,26.7-6.3,55.9-1.1c29.2,5.3,40.7,13.7,40.7,13.7l6.9,105.7l0.5,8.1l7.1,108L761.9,367.3z"/>
			<path class="st5" d="M754.2,251.3c-14.4-4.1-51.2-10.3-129.3-0.5c0.2-2,0.4-4.1,0.5-6.1c18.4-3,83.5-12.4,128.3-1.4L754.2,251.3z
				"/>
			<path class="st5" d="M761.9,367.3c0,0-78.2,19-143.9,0c0,0,0.1-2.5,0.3-7.1c32.8,4.9,96.9,8.8,143.1-0.9L761.9,367.3z"/>
		</g>
		<path class="st0" d="M668.5,121.8c0,0,11.7-16,45-16.1c33.3-0.1,33,25.7,22.6,43C725.6,166,668.5,121.8,668.5,121.8z"/>
		<g>
			<path class="st6" d="M571.5,173.6l-3.3-18.5c0,0,7.7-11.8,6-14.4c-1.8-2.6-8.4-24.2-8.4-24.2s-16.4,16.6-15.3,21.1
				c1.1,4.5,5.6,12.5,5.6,12.5l0.5,37.2L571.5,173.6z"/>
			<polygon class="st0" points="574.2,173.6 570.6,159.9 547.9,179.3 556.5,198.7 			"/>
			<path class="st1" d="M650.1,124.9c-7.9,2.4-48.7,76.3-57.8,76.3c-7.1,0-20.2-38.1-20.2-38.1l-21.7,25.5c0,0,2.9,63.7,38.4,65.5
				c35.6,1.7,68.9-58.6,68.9-58.6s5.6-17.5,2.2-43.4C657.4,131.7,650.1,124.9,650.1,124.9z"/>
			<path class="st7" d="M650.1,124.9c-7.9,2.4-48.7,76.3-57.8,76.3c-7.1,0-20.2-38.1-20.2-38.1l-21.7,25.5c0,0,2.9,63.7,38.4,65.5
				c35.6,1.7,68.9-58.6,68.9-58.6s5.6-17.5,2.2-43.4C657.4,131.7,650.1,124.9,650.1,124.9z"/>
		</g>
		<g>
			<path class="st0" d="M605.6,38.3h-26.5c-4,0-7.2,3.2-7.2,7.2v20.7c0,4,3.2,7.2,7.2,7.2h9.8l3.5,8.5l3.5-8.5h9.8
				c4,0,7.2-3.2,7.2-7.2V45.6C612.9,41.6,609.6,38.3,605.6,38.3z"/>
			<path class="st3" d="M582.3,48.8c2.6-4.2,7.5-2.5,10,0.8c2.6-3.2,7.5-4.8,10.1-0.6c4.3,7.1-4.8,13.6-9,16.1
				c-0.5,0.3-0.9,0.5-1.2,0.7c-0.3-0.2-0.7-0.4-1.2-0.7C586.8,62.4,577.9,55.8,582.3,48.8z"/>
		</g>
		<g>
			<path class="st0" d="M549.3,85.6h-13.3c-2,0-3.6,1.6-3.6,3.6v10.4c0,2,1.6,3.6,3.6,3.6h4.9l1.8,4.3l1.8-4.3h4.9
				c2,0,3.6-1.6,3.6-3.6V89.2C553,87.2,551.3,85.6,549.3,85.6z"/>
			<path class="st3" d="M537.7,90.8c1.3-2.1,3.8-1.2,5,0.4c1.3-1.6,3.8-2.4,5-0.3c2.1,3.6-2.4,6.8-4.5,8c-0.2,0.1-0.4,0.3-0.6,0.4
				c-0.2-0.1-0.4-0.2-0.6-0.4C539.9,97.6,535.5,94.3,537.7,90.8z"/>
		</g>
		<path class="st8" d="M725.7,723.2h24.6c0.8,0,1.5,0.6,1.7,1.4l4,18c0.3,1.6-0.7,3.2-2.3,3.5c-0.2,0-0.4,0.1-0.7,0.1
			c-7.9-0.1-13.7-0.6-23.7-0.6c-6.1,0-24.7,0.6-33.2,0.6c-8.5,0-9.6-8.4-6.1-9.2c15.6-3.4,27.3-8.1,32.3-12.6
			C723.2,723.6,724.5,723.1,725.7,723.2z"/>
		<path class="st8" d="M621.5,722.5h24.6c0.8,0,1.5,0.6,1.7,1.4l4,18c0.3,1.6-0.7,3.2-2.3,3.5c-0.2,0-0.4,0.1-0.7,0.1
			c-7.9-0.1-13.7-0.6-23.7-0.6c-6.1,0-24.7,0.6-33.2,0.6c-8.5,0-9.6-8.4-6.1-9.2c15.6-3.4,27.3-8.1,32.3-12.6
			C619.1,723,620.3,722.5,621.5,722.5z"/>
	</g>
	<g>
		<path class="st9" d="M927.5,550.4c-11.2,27.7-41.1,68.6-68.8,103.5c-2.4,3-4.8,6-7.1,8.9c-7.9,9.9-15.5,19.1-22.5,27.1
			c-3.5,4-6.9,7.8-10.1,11.2v0c-11.4,12.3-16.8,19.9-16.8,19.9l-11.1-6.5c0,0,10.6-16.6,24.8-39.4c3-4.8,6.2-9.9,9.4-15.2
			c8.3-13.4,17.3-28,26-42.2c1.6-2.7,3.3-5.4,4.9-8.1c16.1-26.6,30.3-50.7,35.4-61.3c0.4-0.8,0.7-1.6,1-2.2
			c2.8-6.5-4.8-31.6-13.3-55.2c-0.6-1.8-1.3-3.6-1.9-5.3c-8.1-22-16.2-41.4-16.2-41.4l22.6-38.3l8.3-14.1c0,0,4.5,12.3,10.4,30.1
			c4.1,12,8.8,26.6,13.3,41.5c0.5,1.5,0.9,3,1.4,4.6c6.8,22.6,12.5,45.4,14.7,60.9C932.7,534.5,931,541.8,927.5,550.4z"/>
		<path class="st5" d="M859.4,653.9c-14.6,18.4-28.6,35-39.1,47.2c-1.5-7.5-3-16.3-4.2-25.9c12.1-19.4,26.8-43.3,40.3-65.4
			C856.2,621.4,856.7,638.8,859.4,653.9z"/>
		<path class="st9" d="M852.1,747.7l-13.2,1.7c0,0-5.1-24.9-9.9-59.6c-1.3-9.4-2.6-19.4-3.7-29.9c-2.8-25.7-4.9-53.9-4.7-80.2
			c0,0-1.4-5-3.6-13.4c-3.5-14.1-9-37.7-12.8-63.8c0-0.2,0-0.3-0.1-0.5c-4.6-31.3-6.8-66.1-0.7-92.1l45.8,20.6l0.8,55.3l0.2,13.4
			l0.6,46.6l0.1,10.7l0.4,61.3l0.3,45L852.1,747.7z"/>
		<path class="st5" d="M849.2,430.6l0.8,55.3c-14,9.4-33.2,14-45.8,16.2c-4.6-31.3-6.8-66.1-0.7-92.1L849.2,430.6z"/>
		<path class="st5" d="M917.3,468.1c-11.8,13.1-31.1,16.6-39.8,17.5c-8.1-22-16.2-41.4-16.2-41.4l22.6-38.3
			c6.2,4.9,12.7,10.3,18.7,16.1c4.1,12,8.8,26.6,13.3,41.5C916.4,465.1,916.8,466.6,917.3,468.1z"/>
		<g>
			<path class="st0" d="M881.5,221.6c8.7,0.4,45.1,49.3,45.1,49.3l13.5-17.6c0,0,20.8,40.5,10.5,59.7S886,279.6,886,279.6
				L881.5,221.6z"/>
			<path class="st5" d="M881.5,221.6l3.6,39l0.9,19.1c0,0,8.9,8.7,20.2,17.7c16.6,13.2,38.3,27.2,44.4,15.8
				c10.3-19.3-10.5-59.7-10.5-59.7l-13.5,17.6l-0.1-0.1C924.5,267.8,889.9,222,881.5,221.6z"/>
		</g>
		<path class="st5" d="M885.1,260.6l0.9,19.1c0,0,8.9,8.7,20.2,17.7c1.1-22.9-20.2-56.2-20.2-56.2L885.1,260.6z"/>
		<path class="st5" d="M926.6,270.9l-1.9,3.7l5.7,22c0,0-15.6-14.2-5.7-28.1L926.6,270.9z"/>
		<g>
			<path class="st0" d="M883.1,343.8l-73.3,5.7c0,0-1-43.8-6.8-66.6c-1.9-7.4-4.3-15.7-7.3-25.3c-1.3-4.1-2.7-8.4-4.2-13
				c-1.4-4.3-2.9-8.8-4.6-13.6c10-3.2,20.2-5.7,30.6-7.4c10.9-1.9,22-3.1,33.2-3.5c14.4-0.1,30.9,1.5,30.9,1.5s2.3,0.6,3.8,15.8
				C886.7,251.7,886.1,291.8,883.1,343.8z"/>
			<path class="st5" d="M883.1,343.8l-73.3,5.7c0,0,0-0.9-0.1-2.5c-0.3-9.6-1.8-44.5-6.8-64c-1.4-5.3-3-11-4.9-17.4
				c-0.8-2.5-1.6-5.2-2.4-7.9c-1.3-4.1-2.7-8.4-4.2-13c-1.4-4.3-2.9-8.8-4.6-13.6c4-1.3,8-2.4,12.1-3.5c6.1-1.6,12.3-2.9,18.6-3.9
				c10.9-1.9,22-3.1,33.2-3.5c9.3-0.1,19.4,0.6,25.4,1.1c3.3,0.3,5.4,0.5,5.4,0.5s2.3,0.6,3.8,15.8
				C886.7,251.7,886.1,291.8,883.1,343.8z"/>
		</g>
		<path class="st1" d="M792.1,707.3c1.3-1,12.8,16.1,12.8,16.1s-2.5,17.8,2.6,29.3c5.1,11.5-4.9,10.5-13.2-0.4
			c-8.3-10.9-14.7-19.2-20.6-26.9C767.9,717.7,778.2,717.5,792.1,707.3z"/>
		<g>
			<path class="st0" d="M808.8,736.3c-2.6-0.6-4.3-8-4.6-9.5c0-0.1,0-0.1,0-0.2l0,0l0,0c0-0.1,0-0.1,0.1-0.2h0l0,0
				c0-0.1,0.1-0.1,0.1-0.1h0c0,0,0,0,0,0h0l0,0l0,0c0.1,0,0.1-0.1,0.2-0.1c0.2-0.1,5.1-1.6,7.7-0.1c0.8,0.5,1.4,1.2,1.6,2.1
				c0.2,1,0,1.7-0.6,2.1c-0.9,0.6-2.6,0.1-4.4-0.7c1.2,1.3,2.2,2.7,2.4,4c0.1,0.7-0.1,1.2-0.4,1.7c-0.6,0.8-1.2,1-1.7,1
				C809,736.3,808.9,736.3,808.8,736.3z M809,735.2c0.1,0,0.4,0.1,0.9-0.6c0.2-0.2,0.3-0.5,0.2-0.9c-0.2-1.7-2.8-4.2-4.6-5.7
				C806.4,731.3,807.8,734.9,809,735.2z M806,726.9c2.8,1.7,5.8,3.1,6.6,2.6c0.2-0.2,0.2-0.7,0.1-1c-0.1-0.6-0.5-1.1-1-1.4
				c-0.7-0.4-1.6-0.5-2.5-0.5C808,726.5,806.9,726.7,806,726.9z"/>
		</g>
		<path class="st1" d="M834.3,741c0-1.7,20.5-0.4,20.5-0.4s12.6,12.8,24.9,15.7c12.2,2.9,5.4,10.2-8.3,10.2c-13.7,0-24.1,0-33.9,0
			C827.8,766.6,833.9,758.3,834.3,741z"/>
		<g>
			<path class="st0" d="M857.1,743.3c-0.1,0-0.1-0.1-0.2-0.1l0,0l0,0c0,0-0.1-0.1-0.1-0.1l0,0l0,0c0-0.1,0-0.1,0-0.2l0,0l0,0
				c0,0,0,0,0,0l0,0c0-0.1,0-0.2,0-0.2c0.1-0.2,1.8-5,4.6-6.1c0.9-0.4,1.8-0.3,2.7,0.1c0.9,0.4,1.4,1,1.3,1.7
				c-0.1,1.1-1.5,2.2-3.2,3c1.7-0.2,3.5-0.1,4.6,0.5c0.6,0.3,0.9,0.8,1.1,1.4c0.3,1.2-0.1,1.9-0.5,2.2c-0.4,0.3-1.1,0.5-1.8,0.5
				C862.7,745.9,858.2,743.8,857.1,743.3z M859,743c3,1.3,6.8,2.4,7.7,1.6c0.1-0.1,0.3-0.3,0.1-1.1c-0.1-0.3-0.3-0.5-0.6-0.7
				c-0.6-0.3-1.4-0.4-2.4-0.4C862.3,742.4,860.4,742.7,859,743z M861.8,737.5c-1.6,0.7-2.9,3-3.5,4.4c3-1.2,6-2.7,6-3.7
				c0-0.3-0.5-0.6-0.7-0.7c-0.3-0.2-0.6-0.2-0.9-0.2C862.4,737.3,862.1,737.4,861.8,737.5z"/>
		</g>
		<path class="st9" d="M844.6,236.4c-18.2-2.3-23.7-10.1-23.7-10.1c7.4-7,6.1-17.4,4.2-23.8c-1-3.6-2.2-6-2.2-6l21.9,4.1
			c-0.6,3.6-0.8,6.7-0.8,9.2c0,2.8,0.2,5,0.6,6.8c1.5,6.5,5.2,6.6,5.2,6.6C853.6,230.5,844.6,236.4,844.6,236.4z"/>
		<path class="st5" d="M843.9,209.9c0,2.8,0.2,5,0.6,6.8c-8.7-1.1-15.3-8.1-19.4-14.2c-1-3.6-2.2-6-2.2-6l21.9,4.1
			C844.2,204.3,843.9,207.3,843.9,209.9z"/>
		<g>
			<path class="st1" d="M870.7,159.2c0,0,9.1-2.5,7.1-8.9c-2-6.3-5.2-6.6-5.2-6.6s5.4-7.7,1.8-16.3c-3.6-8.6-13.6-6.1-13.6-6.1
				s0.8-9.3-8-11.8c-8.8-2.5-13.3,5.5-13.3,5.5s-5.4-8.5-14.5-7.1c-9.1,1.4-12,13.6-12,13.6s-7.9-3.7-12.9,4.8c-5,8.5,0,15.8,0,15.8
				s-5.4-3.2-8.2,5.7c-2.7,8.9,6.1,17.9,6.1,17.9s-5.2,0.2-3.2,7.2c2,7,10.4,7.9,10.4,7.9s-3.4,1.4,2.3,7.5c5.7,6.1,26.2,0,26.2,0
				L870.7,159.2z"/>
			<path class="st9" d="M847.7,142.4c18.9,2.7,23.5,13.7,22.1,33.4c-1.8,24.6-9.7,41-32.5,32.4C806.3,196.5,816.4,137.9,847.7,142.4
				z"/>
			<path class="st10" d="M857.8,173c0,0,1.9,5.3,4.4,8.6c0,0-2,2.3-5.3,1.4L857.8,173z"/>
			<g>
				<path class="st1" d="M846.4,169.7c-0.2,1.6-1.2,2.7-2.2,2.6c-1-0.1-1.7-1.5-1.5-3c0.2-1.6,1.2-2.7,2.2-2.6
					C845.9,166.8,846.6,168.2,846.4,169.7z"/>
				<path class="st1" d="M844.5,166.7l3.5-0.9C848,165.8,846,168.4,844.5,166.7z"/>
			</g>
			<g>
				<path class="st1" d="M865.8,171.8c-0.2,1.6-1.2,2.7-2.2,2.6c-1-0.1-1.7-1.5-1.5-3c0.2-1.6,1.2-2.7,2.2-2.6
					C865.3,168.8,866,170.2,865.8,171.8z"/>
				<path class="st1" d="M863.8,168.7l3.5-0.9C867.4,167.8,865.3,170.5,863.8,168.7z"/>
			</g>
			<path class="st11" d="M848.1,156.7c0,0-5.2-1.5-8.6,1.7"/>
			<path class="st11" d="M862,157.9c0,0,3.5-0.8,7.3,2.6"/>
			<path class="st1" d="M822.5,171.2c0,0,11.1-14.2,11.5-26.4c0,0,39.6-9.9,36,28.4c0,0,8.5-33.2-23.8-38.6
				c-32.3-5.4-39.1,42-24.3,58.6C821.8,193.2,815.7,180.2,822.5,171.2z"/>
			<path class="st9" d="M825,175.7c0.3-3.1-2.1-8.7-7.8-8.9c-5.9-0.2-10.5,11.4,3.7,16.4C822.9,183.9,824.4,182.1,825,175.7z"/>
			<path class="st11" d="M852.8,192.9c0,0-8.2,0.7-10.4-6.9"/>
			<path class="st0" d="M816.2,163.7c6.7-23.1,43.3-39.7,53.9-11.1c0,0-1.8-10.4-10.6-18.4c0,0-34.4-13.3-44.3,26.4L816.2,163.7z"/>
		</g>
		<g>
			<path class="st1" d="M894.8,253.9c-0.1,1.2,0.7,2.1,1.9,2.1h20.9c1.2,0,2.2-0.9,2.4-2.1l4.7-41.3c0.1-1.2-0.7-2.4-1.9-2.4h-20.9
				c-1.2,0-2.2,1.2-2.4,2.4L894.8,253.9z"/>
			<path class="st12" d="M901.8,212.3l-4.7,41.7c-0.1,1.2,0.5,2,1.6,2h17.7c1.2,0,3.4-0.7,3.5-1.8l4.7-41.8c0.1-1.2-1.9-2.1-3.1-2.1
				h-17.7C902.7,210.2,901.9,211.1,901.8,212.3z"/>
		</g>
		<path class="st3" d="M854.2,353.2c0,2,1.7,3.7,3.7,3.7c2,0,3.7-1.7,3.7-3.7c0-2-1.7-3.7-3.7-3.7
			C855.9,349.4,854.2,351.1,854.2,353.2z"/>
		<path class="st9" d="M938.6,257.3l-10.9-18.5c0,0,0-9.7-0.9-12c-1-2.3-11.6-7.5-13.7-6.7c-2.1,0.8-2.9,19.9-1,22.4
			c1.9,2.6,8.6,5.4,8.6,5.4l-0.5,3.6l6.4,19.3L938.6,257.3z"/>
		<polygon class="st0" points="943,255.2 939.4,251.6 922.2,270.9 924.7,278.5 		"/>
		<path class="st5" d="M856,286c0,0-20.2,46-46.3,60.9c-0.3-9.6-1.8-44.5-6.8-64c-1.4-5.3-3-11-4.9-17.4l7.9-9.5
			c0,0,5.5,17,3.1,31.8l30.4-18.6L856,286z"/>
		<path class="st9" d="M836.5,275.4l24.8-19.5c0,0,3.8-10.4,5.3-12.3c1.5-1.8,23.3-9.8,25.1-10.1c1.8-0.2,0.1,17.8-2.7,20.9
			c-2.8,3.1-20.2,9.1-20.2,9.1l-26,24.5L836.5,275.4z"/>
		<g>
			<path class="st0" d="M786.9,231c-14.6,7.3-21,89.5,4.2,103.7s63.1-50,63.1-50l-14.7-15.6c0,0-30.8,25.8-34.5,23.4
				c-3.7-2.4,0.5-27.6,0.5-27.6s4.3-7.6-4.8-19.6C791.6,233.5,786.9,231,786.9,231z"/>
			<path class="st5" d="M786.9,231c-14.6,7.3-21,89.5,4.2,103.7s63.1-50,63.1-50l-14.7-15.6c0,0-30.8,25.8-34.5,23.4
				c-3.7-2.4,0.5-27.6,0.5-27.6s4.3-7.6-4.8-19.6C791.6,233.5,786.9,231,786.9,231z"/>
		</g>
		<polygon class="st0" points="854.5,290.5 858.9,287.8 842.4,263.7 836.3,267 		"/>
		<g>
			<path class="st0" d="M921.6,458.1c0,0.1,0.1,0.2,0.1,0.4c-4,0.6-7.3,7.9-11.1,10.4c-4.6,3-10.1,4.8-15.5,5.6
				c-10.3,1.6-21,0.4-31.2,2.3c-12.8,2.3-24.3,8.9-36.6,13c-8.7,2.9-23.1,5.9-31.4,0.1c-6-4.1-5.1-11.5-5.2-18
				c-0.5-20.7,0.1-41.3,3-61.8c2.6-18.2,7-37.8,14.5-56.3c0.6-1.4,1.2-2.8,1.8-4.2l73.3-5.7l0.6,3.5l4.6,26.3l8.7,22.1l21.6,54.6
				C919.7,452.9,920.8,455.5,921.6,458.1z"/>
			<path class="st3" d="M921.6,458.1c0,0.1,0.1,0.2,0.1,0.4c-4,0.6-7.3,7.9-11.1,10.4c-4.6,3-10.1,4.8-15.5,5.6
				c-10.3,1.6-21,0.4-31.2,2.3c-12.8,2.3-24.3,8.9-36.6,13c-8.7,2.9-23.1,5.9-31.4,0.1c-6-4.1-5.1-11.5-5.2-18
				c-0.5-20.7,0.1-41.3,3-61.8c2.6-18.2,7-37.8,14.5-56.3c0.6-1.4,1.2-2.8,1.8-4.2l73.3-5.7l0.6,3.5l4.6,26.3l8.7,22.1l21.6,54.6
				C919.7,452.9,920.8,455.5,921.6,458.1z"/>
		</g>
		<polygon class="st13" points="809.8,349.4 806.8,357.1 884.8,353.2 883.1,343.8 		"/>
		<g>
			<polygon class="st0" points="831.9,347.6 831,357.7 828.1,357.7 828.6,347.6 			"/>
			<polygon class="st3" points="831.9,347.6 831,357.7 828.1,357.7 828.6,347.6 			"/>
		</g>
		<g>
			<polygon class="st0" points="873,344.6 874.1,355.1 876.7,355.1 875.8,344.1 			"/>
			<polygon class="st3" points="873,344.6 874.1,355.1 876.7,355.1 875.8,344.1 			"/>
		</g>
		<path class="st0" d="M851,346.6l0.9,8.6c0.1,0.9,0.9,1.6,1.9,1.6l11.4-0.9c1-0.1,1.7-0.9,1.6-1.9l-0.8-8.4
			c-0.1-0.9-0.9-1.6-1.9-1.6l-11.5,0.8C851.6,344.8,850.9,345.6,851,346.6z"/>
		<path class="st9" d="M876.1,221.2c-0.1,2.4-0.8,5.3-3,8.2c-1.2,1.5-2.7,3-4.9,4.4c-4.7,3.1-12.1,5.8-23.4,7.4
			c-7.2,0.9-13.4,0.9-18.8,0.2c-3-0.4-5.6-1-8.1-1.8c-9.3-2.8-15.3-7.8-18.9-12c4-1,8.1-1.9,12.2-2.7c1.1-0.2,2.1-0.4,3.2-0.6
			c1.1-0.2,2.1-0.4,3.2-0.6c10.9-1.9,22-3.1,33.2-3.5c4,0,8.2,0.1,12.1,0.2c1.7,0.1,3.4,0.2,5,0.3C871,220.8,873.8,221,876.1,221.2z
			"/>
		<path class="st1" d="M826,241.3c-3-0.4-5.6-1-8.1-1.8c-1.2-7.7-4.5-12.4-6.7-14.7c1.1-0.2,2.1-0.4,3.2-0.6
			C820.6,228.6,824.3,236.7,826,241.3z"/>
		<path class="st1" d="M873.1,229.4c-1.2,1.5-2.7,3-4.9,4.4c0.1-5.6-2.8-10.3-5.4-13.4c1.7,0.1,3.4,0.2,5,0.3
			C870.1,223.1,871.9,226.3,873.1,229.4z"/>
		<g>
			<path class="st0" d="M961.7,136.5h-26.5c-4,0-7.2,3.2-7.2,7.2v20.7c0,4,3.2,7.2,7.2,7.2h9.8l3.5,8.5l3.5-8.5h9.8
				c4,0,7.2-3.2,7.2-7.2v-20.7C969,139.7,965.7,136.5,961.7,136.5z"/>
			<path class="st3" d="M938.4,146.9c2.6-4.2,7.5-2.5,10,0.8c2.6-3.2,7.5-4.8,10.1-0.6c4.3,7.1-4.8,13.6-9,16.1
				c-0.5,0.3-0.9,0.5-1.2,0.7c-0.3-0.2-0.7-0.4-1.2-0.7C942.9,160.6,934,153.9,938.4,146.9z"/>
		</g>
		<g>
			<path class="st0" d="M901.4,176.3h-13.3c-2,0-3.6,1.6-3.6,3.6v10.4c0,2,1.6,3.6,3.6,3.6h4.9l1.8,4.3l1.8-4.3h4.9
				c2,0,3.6-1.6,3.6-3.6V180C905,178,903.4,176.3,901.4,176.3z"/>
			<path class="st3" d="M889.8,181.6c1.3-2.1,3.8-1.2,5,0.4c1.3-1.6,3.8-2.4,5-0.3c2.1,3.6-2.4,6.8-4.5,8c-0.2,0.1-0.4,0.3-0.6,0.4
				c-0.2-0.1-0.4-0.2-0.6-0.4C892,188.4,887.6,185.1,889.8,181.6z"/>
		</g>
	</g>
	<g id="_x3C_Group_x3E__65_">
		<g>
			<path class="st0" d="M596.3,602.3c-15.2,32.6-35.2,36.1-35.2,36.1l-24-28.1c0,0,17.2-10.4,21.2-22.9s-3.4-94.5,17.9-111.6
				c0,0,2.5,6.5,5.8,16.7v0c6.5,19.9,16.3,53.7,17.9,80.6C600.6,584.7,599.7,595,596.3,602.3z"/>
			<path class="st14" d="M599.9,573c-20.9-37.3-23.1-64.3-17.9-80.6C588.5,512.4,598.3,546.2,599.9,573z"/>
		</g>
		<g>
			<path class="st1" d="M598.8,655.5c0,0-153.4-42.8-172.6,11c-19.3,53.8,120,96.7,197,99.4s108.5-51.4,85.8-102.8L598.8,655.5z"/>
			<path class="st5" d="M598.8,655.5c0,0-153.4-42.8-172.6,11c-19.3,53.8,120,96.7,197,99.4s108.5-51.4,85.8-102.8L598.8,655.5z"/>
		</g>
		<g>
			<path class="st0" d="M723.4,694.2l-142.5-24.4c25-48.1,17-121.2-4.7-194c15.1-12.6,75.4-21.1,121.5-7.8c0,0,2.7,10.1,6.4,27.5
				c4.4,20.8,10.2,52.1,14.3,89C722.1,617.7,724.5,655.4,723.4,694.2z"/>
			<path class="st3" d="M723.4,694.2l-142.5-24.4c21.2-40.8,18.7-99.6,4.2-161c12.1-23.1,27.6-26.1,27.6-26.1c15.7,22.1,48,0,48,0
				c30,18.1,47.9,55.9,53.6,69.7C720.1,592.2,724.9,642.2,723.4,694.2z"/>
			<path class="st15" d="M718.4,584.6c-10.6-8.7-20.4-20.3-25.2-35.5c-11.6-36.8,6.5-50.7,10.8-53.5
				C708.5,516.4,714.3,547.7,718.4,584.6z"/>
		</g>
		<path class="st0" d="M443.8,739.5c-1.2-0.9-2-2.1-2.4-3.5c-0.2-0.9,0.2-1.9,0.9-2.5c0.4-0.4,1-0.6,1.5-0.5c2.6,0.8,5.1,8.2,5.4,9
			c0.1,0.2,0,0.4-0.1,0.5c-0.2,0.1-0.4,0.1-0.6,0C446.9,741.8,445.3,740.7,443.8,739.5z M444.2,734.4c-0.2-0.2-0.4-0.3-0.6-0.3
			c-0.2-0.1-0.5,0-0.6,0.2c-0.5,0.4-0.8,1.1-0.7,1.7c1.1,2.4,3.1,4.2,5.5,5.3C447.1,738.7,445.9,736.4,444.2,734.4z"/>
		<path class="st0" d="M448.4,742.6l-0.1-0.2c-0.9-2.3-1.1-8.3,0.7-9.6c0.6-0.4,1.5-0.3,2.1,0.2c0.6,0.4,1.1,1.1,1.2,1.9
			c0.6,3-3,7.5-3.2,7.7c-0.1,0.1-0.3,0.2-0.5,0.1C448.6,742.7,448.5,742.7,448.4,742.6z M450.7,733.9l-0.2-0.1
			c-0.6-0.4-0.8-0.2-0.9-0.1c-1.1,0.8-1.3,5-0.7,7.5c1-1.4,2.8-4.3,2.4-6.2C451.2,734.6,451,734.2,450.7,733.9L450.7,733.9z"/>
		<path class="st0" d="M605.9,775.5c0.2,1.4-0.1,2.9-0.8,4.2c-0.6,0.8-1.5,1.2-2.4,1.1c-0.6,0-1.1-0.3-1.4-0.8
			c-1.3-2.4,2.3-9.4,2.7-10.2c0.1-0.2,0.3-0.3,0.4-0.2c0.2,0,0.4,0.2,0.4,0.4C605.4,771.7,605.8,773.6,605.9,775.5z M602,778.7
			c0,0.2,0.1,0.5,0.2,0.7c0.1,0.2,0.3,0.3,0.5,0.3c0.6,0.1,1.3-0.2,1.7-0.7c0.9-2.5,0.9-5.2-0.1-7.6
			C603.1,773.6,602.3,776.1,602,778.7z"/>
		<polygon class="st16" points="567.7,718.1 594.8,738 607.9,747.5 599.4,762.4 586.1,755.1 553.8,737.5 		"/>
		<path class="st1" d="M595.2,761.9l8.2-18.1c0.5-1,1.7-1.4,2.6-1l8.8,4.3c0,0,12.3,5,13.8,9c4.5,11.7-12.6,52.1-17.9,52.1
			c-2,0-3.1-3-3.4-4.9c-0.9-6.1-1-21.5-1.8-26.6c-0.9-6-6.9-10.5-9.7-12.4C595,763.8,594.8,762.8,595.2,761.9z"/>
		<path class="st0" d="M604.9,770l-0.1,0.2c-1,2.2-5.1,6.6-7.4,6.2c-0.8-0.2-1.3-0.8-1.3-1.6c-0.1-0.8,0-1.5,0.5-2.2
			c1.8-2.5,7.5-3.1,7.8-3.1c0.2,0,0.4,0.1,0.4,0.2C604.9,769.8,604.9,769.9,604.9,770z M597.1,774.4l0,0.2c0.1,0.7,0.4,0.7,0.5,0.7
			c1.3,0.3,4.4-2.6,5.9-4.8c-1.7,0.3-5,1-6.1,2.6C597.2,773.6,597.1,774,597.1,774.4L597.1,774.4z"/>
		<polygon class="st5" points="567.7,718.1 594.8,738 586.1,755.1 553.8,737.5 		"/>
		<g>
			<polygon class="st0" points="579.9,756.3 571,754.3 585.8,726 594.1,734.4 			"/>
			<polygon class="st3" points="579.9,756.3 571,754.3 585.8,726 594.1,734.4 			"/>
		</g>
		<polygon class="st16" points="511.5,752.3 478.3,757.8 462.4,760.4 457.7,744 472.2,739.6 507.4,728.9 		"/>
		<path class="st1" d="M461,741.3l7.2,18.5c0.4,1-0.1,2.2-1.2,2.6l-9.3,3.3c0,0-12.2,5.3-16.1,3.6c-11.5-4.9-28.4-45.4-24.7-49.3
			c1.4-1.4,4.3-0.1,5.9,1c5,3.7,16.1,14.3,20.3,17.3c4.9,3.5,12.4,2.4,15.6,1.7C459.7,739.9,460.7,740.4,461,741.3z"/>
		<polygon class="st5" points="511.5,752.3 478.3,757.8 472.2,739.6 507.4,728.9 		"/>
		<path class="st1" d="M477.9,736.1c0,0,138-81.4,184.7-79.2c46.7,2.2,50.8,48.7,31.5,74.4c-19.3,25.8-54.9,32.1-54.9,32.1
			s24.2-34.2,20.7-43.9c-3.5-9.6-16.9,22.8-16.9,22.8s-85.5,11.2-160,17.5L477.9,736.1z"/>
		<g>
			<polygon class="st0" points="475.7,734 483.4,728.9 493.2,759.1 481.4,759.1 			"/>
			<polygon class="st3" points="475.7,734 483.4,728.9 493.2,759.1 481.4,759.1 			"/>
		</g>
		<path class="st16" d="M633.9,487.6c20.1,0,33.2-21.1,33.2-21.1c-26.3-9.2-26.4-37-26.4-37l-10.1,9.9L616,453.6
			c12,8.5,6.3,15.9,2.5,19.2c-1.4,1.2-2.5,1.9-2.5,1.9S613.8,487.6,633.9,487.6z"/>
		<path class="st5" d="M618.5,472.7c24.6,2.8,23-34.1,23-34.1c-3.9,0-7.6,0.2-11,0.8L616,453.6C628,462.1,622.4,469.5,618.5,472.7z"
			/>
		<g>
			<g>
				<path class="st0" d="M669.6,421.1c3,2.9-9.3,10.8-29,4.1c-19.6-6.8-23-26.6-23-26.6S650.1,402.2,669.6,421.1z"/>
				<path class="st17" d="M669.6,421.1c3,2.9-9.3,10.8-29,4.1c-19.6-6.8-23-26.6-23-26.6S650.1,402.2,669.6,421.1z"/>
			</g>
			<path class="st1" d="M599.3,401.8c9.3,3.9,7.5,14.1-7.9,32.6c-9.5-8.2-14.7-26.9-9.7-32.9C586.7,395.6,591.2,398.5,599.3,401.8z"
				/>
			<path class="st16" d="M585.5,443.1C585.5,443.1,585.5,443.2,585.5,443.1c0.9,2.7,1.9,5.1,3,7.4c9.2,18.8,35.7,22.4,47.4,3.8
				c0-0.1,0.1-0.1,0.1-0.2c7.7-12.5,4.8-24.1,1.6-44.3c-0.6-4.3-2.3-8.3-4.8-11.9c-8.8-12.6-26.2-15.7-38.8-6.8
				C578.7,401.8,579.6,425.9,585.5,443.1z"/>
			<path class="st1" d="M609.1,422c0.4,1.6-0.2,3.1-1.3,3.4c-1.1,0.2-2.2-0.9-2.6-2.5c-0.4-1.6,0.2-3.1,1.2-3.4
				C607.6,419.2,608.7,420.4,609.1,422z"/>
			<path class="st1" d="M590.7,426.1c0.4,1.6-0.2,3.1-1.3,3.4c-1.1,0.2-2.2-0.9-2.6-2.5c-0.4-1.6,0.2-3.1,1.3-3.4
				C589.2,423.4,590.3,424.5,590.7,426.1z"/>
			<path class="st18" d="M596.9,425.5c-0.8,5.4-2.4,10.6-4.6,15.6c3.5,2,8.1-0.3,8.1-0.3L596.9,425.5z"/>
			<path class="st1" d="M612.9,415c0.2,0,0.4-0.1,0.6-0.3c0.4-0.4,0.3-1-0.1-1.4c-2.3-2.1-5.6-2.9-8.6-2.2c-0.5,0.1-0.8,0.6-0.7,1.1
				c0,0,0,0,0,0.1c0.2,0.5,0.7,0.8,1.2,0.7l0,0c2.4-0.5,5,0.1,6.8,1.8C612.3,415,612.6,415.1,612.9,415z"/>
			<path class="st1" d="M580.9,421.8c0.4-0.1,0.7-0.4,0.7-0.7c0.5-2.4,2.1-4.5,4.4-5.5c0.5-0.2,0.8-0.7,0.6-1.3
				c-0.2-0.5-0.7-0.8-1.2-0.6c-2.9,1.3-5,3.8-5.6,6.9c-0.1,0.5,0.2,1,0.7,1.2c0,0,0,0,0,0C580.6,421.8,580.8,421.8,580.9,421.8z"/>
			<path class="st1" d="M625.8,394c-8.6,5.3-5.2,15.1,13,30.9c8.1-9.6,10.2-28.9,4.3-34C637.2,385.8,633.3,389.4,625.8,394z"/>
			<path class="st16" d="M650.7,423.6c-0.3,5.1-2.6,9.9-6.5,13.4c-5.1,4.5-10.6,0.6-11.6-5.8c-0.9-5.7,0.6-15,7-17
				C645.9,412.2,651.1,417.3,650.7,423.6z"/>
			<path class="st19" d="M616,441.1c0,0-2.1,7.3-11.9,9"/>
			<path class="st1" d="M618.1,398.1c0,0-5.5,2-8,5.6c0,0-0.9-1.4,0-4.1c0,0-5.9,3.1-8.6,7c0,0-1.7-3.4-1.4-6.5c0,0-2.9,4.8-3.8,8.4
				c0,0-6.9-2.5-7.5-7.9c0,0-0.5,2.9,0,7c0,0-4.6-1.4-5.5-6.1c0,0-1.5,3.9-1.2,8.5c0,0-5.1-2.4-3.6-9.4c1.5-7,21.3-17.9,32.9-14.5
				C622.8,389.4,618.1,398.1,618.1,398.1z"/>
			<path class="st0" d="M577.8,403.4c0,0,0.2-20.3,8.5-28s37.7-10.1,52.2-2.5c14.6,7.6,9.3,35.1,9.3,35.1S617.9,392.8,577.8,403.4z"
				/>
			<path class="st1" d="M588,396.9c0,0,7.9-2.7,18.4-1.5c0,0,5.2-9.1-7.7-9.6C589.3,385.4,587.5,390.3,588,396.9z"/>
			<g>
				<path class="st0" d="M632.2,402.7l16.2,0.1c0,0,12.9,7.4,21.2,18.3C669.6,421.1,657.1,410.3,632.2,402.7z"/>
				<path class="st5" d="M632.2,402.7l16.2,0.1c0,0,12.9,7.4,21.2,18.3C669.6,421.1,657.1,410.3,632.2,402.7z"/>
			</g>
		</g>
		<path class="st5" d="M688.5,627.5L641,680.1c0,0-52.5-1.2-116.2,30c0,0-68.4-28.3-74.7-51.7c-6.3-23.5,143.6-6.9,143.6-6.9
			L688.5,627.5z"/>
		<path class="st16" d="M675,612l-76.1,24.9c0,0-27.2-6-32.1-6c-4.9,0-23.6,15.3-13,20.6c10.6,5.3,39.6,6,42.8,4.3
			s87.6-21.5,87.6-21.5L675,612z"/>
		<g>
			<path class="st0" d="M697.6,468c-17.2-3.3,12.7,101.6,5.3,117.1S667,610.3,667,610.3l13.2,29.1c0,0,38.9-7.3,60.1-34.3
				C761.5,578.2,725.7,473.5,697.6,468z"/>
		</g>
		<g>
			<polygon class="st0" points="667,608 683.1,639.4 669.3,642.4 656.7,613.4 			"/>
			<polygon class="st4" points="667,608 683.1,639.4 669.3,642.4 656.7,613.4 			"/>
		</g>
		<g>
			<g>
				<path class="st1" d="M635.5,651.5v5c0,3.4-2.8,6.5-6.2,6.5H445.3c-3.4,0-6.7-3.1-6.7-6.5v-5H635.5z"/>
				<path class="st4" d="M635.5,651.5v5c0,3.4-2.8,6.5-6.2,6.5H445.3c-3.4,0-6.7-3.1-6.7-6.5v-5H635.5z"/>
				<path class="st4" d="M566.9,651.5v5c0,3.4-2.8,6.5-6.2,6.5H445.3c-3.4,0-6.7-3.1-6.7-6.5v-5H566.9z"/>
			</g>
			<g>
				<path class="st1" d="M560.6,658.4H439c-3.7,0-7.7-2.9-8.8-6.5l-27.9-87.5c-1.1-3.6,0.9-6.7,4.7-6.7h121.6c3.7,0,7.7,3.1,8.8,6.7
					l27.9,87.4C566.5,655.3,564.4,658.4,560.6,658.4z"/>
				<path class="st4" d="M560.6,658.4H439c-3.7,0-7.7-2.9-8.8-6.5l-27.9-87.5c-1.1-3.6,0.9-6.7,4.7-6.7h121.6c3.7,0,7.7,3.1,8.8,6.7
					l27.9,87.4C566.5,655.3,564.4,658.4,560.6,658.4z"/>
				<path class="st4" d="M556.1,658.4H439c-3.7,0-7.7-2.9-8.8-6.5l-27.9-87.5c-1.1-3.6,0.9-6.7,4.7-6.7h117c3.7,0,7.7,3.1,8.8,6.7
					l27.9,87.4C561.9,655.3,559.8,658.4,556.1,658.4z"/>
			</g>
			<path class="st4" d="M484.9,612c1.5,5.8-1.4,10.6-6.5,10.6c-5.1,0-10.4-4.7-11.9-10.6c-1.5-5.8,1.4-10.6,6.5-10.6
				C478.1,601.5,483.4,606.2,484.9,612z"/>
		</g>
		<g>
			<path class="st0" d="M474.3,506.1h-26.5c-4,0-7.2,3.2-7.2,7.2V534c0,4,3.2,7.2,7.2,7.2h9.8l3.5,8.5l3.5-8.5h9.8
				c4,0,7.2-3.2,7.2-7.2v-20.7C481.5,509.3,478.3,506.1,474.3,506.1z"/>
			<path class="st3" d="M451,516.5c2.6-4.2,7.5-2.5,10,0.8c2.6-3.2,7.5-4.8,10.1-0.6c4.3,7.1-4.8,13.6-9,16.1
				c-0.5,0.3-0.9,0.5-1.2,0.7c-0.3-0.2-0.7-0.4-1.2-0.7C455.4,530.2,446.6,523.5,451,516.5z"/>
		</g>
		<g>
			<path class="st0" d="M543.7,525.3h-13.3c-2,0-3.6,1.6-3.6,3.6v10.4c0,2,1.6,3.6,3.6,3.6h4.9l1.8,4.3l1.8-4.3h4.9
				c2,0,3.6-1.6,3.6-3.6v-10.4C547.3,526.9,545.7,525.3,543.7,525.3z"/>
			<path class="st3" d="M532.1,530.5c1.3-2.1,3.8-1.2,5,0.4c1.3-1.6,3.8-2.4,5-0.3c2.1,3.6-2.4,6.8-4.5,8c-0.2,0.1-0.4,0.3-0.6,0.4
				c-0.2-0.1-0.4-0.2-0.6-0.4C534.3,537.4,529.9,534,532.1,530.5z"/>
		</g>
		<g>
			<path class="st0" d="M511.6,458.4h-17.8c-2.7,0-4.9,2.2-4.9,4.9v13.9c0,2.7,2.2,4.9,4.9,4.9h6.5l2.4,5.7l2.4-5.7h6.5
				c2.7,0,4.9-2.2,4.9-4.9v-13.9C516.5,460.6,514.3,458.4,511.6,458.4z"/>
			<path class="st3" d="M496,465.4c1.8-2.8,5.1-1.7,6.7,0.5c1.7-2.2,5.1-3.2,6.8-0.4c2.9,4.8-3.2,9.1-6.1,10.8
				c-0.3,0.2-0.6,0.4-0.8,0.5c-0.2-0.1-0.5-0.3-0.8-0.5C499,474.6,493,470.1,496,465.4z"/>
		</g>
		<path class="st4" d="M595.2,761.9l8.2-18.1c0.5-1,1.7-1.4,2.6-1l8.8,4.3c0,0,12.3,5,13.8,9c4.5,11.7-12.6,52.1-17.9,52.1
			c-2,0-3.1-3-3.4-4.9c-0.9-6.1-1-21.5-1.8-26.6c-0.9-6-6.9-10.5-9.7-12.4C595,763.8,594.8,762.8,595.2,761.9z"/>
		<path class="st4" d="M461,741.3l7.2,18.5c0.4,1-0.1,2.2-1.2,2.6l-9.3,3.3c0,0-12.2,5.3-16.1,3.6c-11.5-4.9-28.4-45.4-24.7-49.3
			c1.4-1.4,4.3-0.1,5.9,1c5,3.7,16.1,14.3,20.3,17.3c4.9,3.5,12.4,2.4,15.6,1.7C459.7,739.9,460.7,740.4,461,741.3z"/>
	</g>
</g>
</svg>
