<?xml version="1.0" encoding="utf-8"?>
<!-- Generator: Adobe Illustrator 23.0.1, SVG Export Plug-In . SVG Version: 6.00 Build 0)  -->
<svg version="1.1" id="a02257e8-5dd7-45a0-b624-c586cf0fa49a"
	 xmlns="http://www.w3.org/2000/svg" xmlns:xlink="http://www.w3.org/1999/xlink" x="0px" y="0px" viewBox="0 0 918.6 684"
	 style="enable-background:new 0 0 918.6 684;" xml:space="preserve">
<style type="text/css">
	.st0{opacity:4.000000e-02;fill:#F2F2F2;}
	.st1{fill:#0062FF;}
	.st2{fill:#2F2E41;}
	.st3{fill:#FFB9B9;}
	.st4{opacity:5.000000e-02;enable-background:new    ;}
	.st5{opacity:0.3;fill:#FFFFFF;enable-background:new    ;}
	.st6{fill:#FBBEBE;}
	.st7{fill:#3F3D56;}
	.st8{opacity:0.1;enable-background:new    ;}
	.st9{opacity:0.3;fill:#0062FF;enable-background:new    ;}
</style>
<title>contact details</title>
<circle class="st0" cx="355.6" cy="328" r="328"/>
<path class="st1" d="M176.6,121.4l-6.8,54.9c8.3,16.3,17.2,34.9,25.6,54.9l16-82.8l0.8,0.7c-11.7-11.8-24-21.5-36.4-28.4
	L176.6,121.4z"/>
<path class="st1" d="M168.3,173.5l6.6-53.2c-14-7.6-28.1-11.8-41.7-11.7c-0.7,0-1.4,0-2.1,0.1C133.8,112.8,149.7,137.4,168.3,173.5z
	"/>
<path class="st1" d="M277,259.2l0.7,1c-2.4-7.4-5.1-14.6-8-21.7l-41.2,92.4l-0.4-0.4c1,4.5,2,9,2.9,13.5L277,259.2z"/>
<path class="st1" d="M249.1,197.8l0.8,0.9c-10.3-17.6-22.7-34-36.9-48.7l-16.3,84.4c7.8,18.8,14.5,37.1,20.2,55L249.1,197.8z"/>
<path class="st1" d="M66.3,193.4c-1.1,14.5-0.7,29.1,1.1,43.5l143.9,40.4c-5.2-15.4-10.8-30-16.4-43.4L66.5,194.7L66.3,193.4z"/>
<path class="st1" d="M70.1,253.7l-0.2-1.2l146,38.8c-1.2-3.8-2.4-7.6-3.6-11.3L67.8,239.4l-0.2-1.2
	C68.3,243.3,69.1,248.4,70.1,253.7z"/>
<path class="st1" d="M268.4,236.1l0.8,0.9c-5.4-12.8-11.6-25.3-18.6-37.3l-32.7,92.8c3.7,12,6.9,23.7,9.6,35.1L268.4,236.1z"/>
<path class="st1" d="M237.7,395.3c1.5,26.5-0.4,51-5.8,73.2c11.3-16.2,55.5-84,55.5-154.2L237.7,395.3z"/>
<path class="st1" d="M88.4,309.9c6,11.9,12.8,23.4,20.4,34.4l-0.1-1.3l127.2,49.9c-1-14.8-2.8-29.6-5.6-44.2L88.4,309.9z"/>
<path class="st1" d="M167,174.2c-20.2-39.1-37-64.5-37.3-64.9l0.5-0.7c-20.6,1.1-36.9,12.2-48,30.4L167,174.2z"/>
<path class="st1" d="M231.6,347.4c0.3,1.4,0.5,2.8,0.8,4.1c2.4,13.2,4.1,26.5,5,39.9l49.2-80.2l0.7,1c-0.1-12.4-1.8-24.7-5-36.6
	c-1.3-4.7-2.7-9.3-4.2-13.9L231.6,347.4z"/>
<path class="st1" d="M193.8,231.3c-8.3-19.8-17.1-38.1-25.3-54.2l-86.7-36l-0.1-1.2c-8.2,13.9-13.4,31.7-15.2,52.4L193.8,231.3z"/>
<path class="st1" d="M235.9,395.3l-126.2-49.5C155,411.8,224.5,468.4,229,472C235.6,447.5,237.4,421.5,235.9,395.3z"/>
<path class="st1" d="M229.7,346.3L229.7,346.3c-3.4-17.8-7.8-35.2-13.1-52.5L70.3,254.9c1.4,7.1,3.1,14.4,5.1,21.7
	c3,10.5,6.9,20.8,11.7,30.6L229.7,346.3z"/>
<path class="st1" d="M423.2,352.9l-40.3,38c-4,17.9-9,37.8-15.3,58.6l65.1-53.6l0.2,1.1c-1.5-16.6-4.8-31.8-10-45.1L423.2,352.9z"/>
<path class="st1" d="M383.6,387.8l39-36.8c-5.9-14.8-14.1-27-24.6-35.6c-0.5-0.4-1.1-0.9-1.7-1.3C395.8,319,392.3,348.1,383.6,387.8
	z"/>
<path class="st1" d="M412.7,523.1l-0.1,1.2c2.8-7.2,5.4-14.5,7.7-21.9l-90.7,44.9l0-0.6c-2.1,4.2-4.2,8.2-6.4,12.2L412.7,523.1z"/>
<path class="st1" d="M430.4,458l0,1.2c3.3-20.2,4.2-40.6,2.6-61l-66.4,54.6c-6,19.4-12.5,37.9-19.5,55.2L430.4,458z"/>
<path class="st1" d="M292.4,338.1c-10.1,10.5-19.1,22-26.9,34.3l85,122.9c5.8-15.2,10.8-30,15-43.9l-73.8-112.2L292.4,338.1z"/>
<path class="st1" d="M256.8,386.9l0.6-1.1l87.7,123c1.5-3.7,3-7.4,4.4-11l-85.3-123.3l0.6-1.1C262.1,377.7,259.4,382.2,256.8,386.9z
	"/>
<path class="st1" d="M420.8,499.9l0,1.2c4.1-13.3,7.2-26.8,9.4-40.6l-84.4,50.7c-4.8,11.6-9.8,22.6-15,33.2L420.8,499.9z"/>
<path class="st1" d="M295.5,602.9c-15.8,21.4-32.9,39-51.1,52.7c19.1-5.3,96.3-29.3,141.1-83.4L295.5,602.9z"/>
<path class="st1" d="M235,441.9c-3,13-5.1,26.2-6.3,39.5l0.7-1.1l66.1,119.5c8.7-12,16.7-24.6,23.9-37.6L235,441.9z"/>
<path class="st1" d="M382.2,387.5c9.4-43,12.6-73.3,12.7-73.7l0.8-0.2c-16.6-12.3-36.2-14.2-56.3-7.2L382.2,387.5z"/>
<path class="st1" d="M321.5,562.1c-0.7,1.2-1.4,2.5-2,3.7c-6.6,11.7-13.8,23-21.6,33.9l89.1-30.4l-0.1,1.2
	c7.8-9.6,14.4-20.1,19.5-31.4c2-4.4,3.9-8.9,5.7-13.4L321.5,562.1z"/>
<path class="st1" d="M366.4,448.6c6.2-20.5,11.2-40.2,15.1-57.9l-43.9-83l0.7-1c-15.2,5.5-30.6,15.9-45.1,30.7L366.4,448.6z"/>
<path class="st1" d="M294.3,601.7l-65.6-118.7c-7.2,79.7,10.2,167.7,11.3,173.3C260.7,641.7,278.7,622.8,294.3,601.7z"/>
<path class="st1" d="M320.7,560L320.7,560c8.7-15.8,16.5-32.1,23.4-48.7L256.2,388c-3.5,6.4-6.8,13-10,20c-4.4,10-8,20.4-10.5,31
	L320.7,560z"/>
<path class="st1" d="M86.8,354.8l10.5,54.3c13,12.9,27.1,27.8,41.3,44.3l-10.4-83.7l1,0.5c-14.8-7.6-29.5-13-43.4-15.7L86.8,354.8z"
	/>
<path class="st1" d="M95,406.9l-10.2-52.6c-15.7-2.9-30.4-2.5-43.3,1.7c-0.7,0.2-1.3,0.5-2,0.7C43.5,359.8,66.2,378.3,95,406.9z"/>
<path class="st1" d="M224.9,454.8l1,0.7c-4.6-6.3-9.4-12.3-14.4-18.2L200.9,538l-0.5-0.3c2.4,4,4.7,8,6.9,12L224.9,454.8z"/>
<path class="st1" d="M179.4,405l1,0.6c-15.3-13.6-32.1-25.3-50.1-34.9l10.6,85.3c13.2,15.5,25.3,30.8,36.2,46.1L179.4,405z"/>
<path class="st1" d="M4.2,457.4c3.5,14.1,8.3,27.9,14.5,41l149.3-6c-9.7-13.1-19.6-25.2-29-36.2L4.8,458.5L4.2,457.4z"/>
<path class="st1" d="M26.4,513.6l-0.6-1.1l150.8-8.2c-2.3-3.3-4.6-6.5-7-9.6l-149.8,6.1l-0.6-1.1C21.5,504.2,23.9,508.9,26.4,513.6z
	"/>
<path class="st1" d="M209.6,435.6l1,0.7c-9.1-10.5-18.8-20.5-29.2-29.7l-2.4,98.4c7.2,10.2,13.9,20.4,20,30.4L209.6,435.6z"/>
<path class="st1" d="M229.6,596.5c9.6,24.8,15.3,48.6,17.1,71.4c5.8-18.9,26.8-97,5.1-163.8L229.6,596.5z"/>
<path class="st1" d="M61.2,561.4c9.4,9.5,19.4,18.3,30,26.4l-0.5-1.2l136.4,8.1c-5.5-13.8-11.8-27.3-19-40.3L61.2,561.4z"/>
<path class="st1" d="M94,408c-31.3-30.9-55.1-49.9-55.5-50.2l0.2-0.8c-19.3,7.4-31.4,23-36.3,43.7L94,408z"/>
<path class="st1" d="M209,552.7c0.7,1.2,1.4,2.5,2,3.7c6.3,11.8,12,23.9,17.1,36.4l22-91.5l1,0.7c-3.9-11.7-9.3-22.9-16-33.3
	c-2.7-4.1-5.4-8-8.2-12L209,552.7z"/>
<path class="st1" d="M137.2,454c-14-16.2-28-31-40.8-43.7l-93.6-7.4l-0.5-1.1c-3.5,15.7-2.9,34.3,1.7,54.5L137.2,454z"/>
<path class="st1" d="M227.9,596.9l-135.4-8.1C156.1,637.6,239.7,670,245,672C243.7,646.7,237.4,621.4,227.9,596.9z"/>
<path class="st1" d="M206.8,552.2L206.8,552.2c-8.7-15.8-18.3-31.1-28.6-45.8L27,514.7c3.5,6.3,7.3,12.7,11.5,19.1
	c6.1,9.1,12.9,17.6,20.5,25.5L206.8,552.2z"/>
<path class="st2" d="M101.6,684c0,0,212-84,468,0"/>
<path class="st3" d="M255.7,619.6c0.2,2.2,0.4,4.5,0.8,6.7c0,0,18.2,12.4,19.7-1.5c0.9-9-1.2-13.1-2.8-14.9l0,0
	c-1-1-1.5-2.4-1.5-3.8v-16.3l-16.1,5.1l0.7,13.9C255.5,611.6,255.4,615.9,255.7,619.6z"/>
<path class="st4" d="M255.7,619.6c0.2,2.2,0.4,4.5,0.8,6.7c0,0,18.2,12.4,19.7-1.5c0.9-9-1.2-13.1-2.8-14.9c-1.3-1-3-1.2-4.5-0.5
	c-2.9-1.3-6.1,0.9-8.8,3.7C258.4,615,256.9,617.2,255.7,619.6z"/>
<path class="st2" d="M268.9,610.9c0,0,8-4.4,9.5,15.3c1.5,19.7,2.2,17.5,2.2,17.5s7.3,17.5-8,15.3s-22.6-3.6-21.9-12.4
	c0.4-5.3,1.7-12.9,2.6-18.2c0.9-5.2,3.3-10,6.9-13.9C262.8,611.8,266,609.6,268.9,610.9z"/>
<path class="st3" d="M354.7,636l8.4,4c0,0,26.1,4,17.8-10.9c-2.4-4.4-4.2-9.2-5.5-14.1c-1.7-6.8-2.7-13.8-2.9-20.9l-22.1,3.1
	c7.2,9.6,6.3,25.2,5.2,33.3C355.2,633.9,354.7,636,354.7,636z"/>
<path class="st4" d="M354.7,636l8.4,4c0,0,26.1,4,17.8-10.9c-2.4-4.4-4.2-9.2-5.5-14.1c-5.1,1-8.9,8.3-8.9,8.3
	c-4.1,14.2-7.8,10.7-10.9,7.3C355.2,633.9,354.7,636,354.7,636z"/>
<path class="st2" d="M367,624.7c0,0,6.5-12.3,13.7-7.1s3.6,12.6,27.1,19.9s7.9,22.7-6.4,21.6s-44.9-6.7-44.9-6.7s-7.9-22.7-4.3-23.2
	S361,645.4,367,624.7z"/>
<path class="st5" d="M400.4,656.3c9.3,0.8,19.1-5.5,18.4-11.9c4.4,7.3-6.8,15.6-17.4,14.7c-14.3-1.2-44.9-6.7-44.9-6.7
	s-0.4-1.1-0.9-2.7C356.5,649.8,386.3,655.2,400.4,656.3z"/>
<path class="st5" d="M250.7,646.3c0.8,6.6,8.1,7.9,21.9,9.9c7,1,9.3-2.1,9.7-5.8c0.5,4.7-0.9,9.9-9.7,8.7
	c-15.3-2.2-22.6-3.6-21.9-12.4C250.7,646.6,250.7,646.4,250.7,646.3z"/>
<path class="st6" d="M217.4,361.4l-2.4,36.3c0,0-1.9,36.8,13.1,39.7s0-47,0-47v-32.9L217.4,361.4z"/>
<path class="st7" d="M230,229.2l-1.9,4.4c0,0,0.5,30.5,0,32.9s-6.8,21.3-6.8,23.3s-4.8,58.1-5.8,61.5s-5.3,14-1.5,15.5
	s11.1-4.4,14,0s5.3,0,5.3-1.5s1-29.1,6.8-36.8s11.1-25.2,12.1-28.6s2.4-52.3,2.9-53.3s-1.9-14-1.9-14L230,229.2z"/>
<path class="st2" d="M257.6,280.5c0,0-5.8,22.8-9.7,27.1s-23.3,36.8-17.4,79.9s16,99.3,16,99.3s1.5,19.9-0.5,25.2s8.7,90.1,8.7,90.1
	s15,11.6,23.3-2.9c0,0-1.9-31.5,0-34.4c1.9-2.9,0-55.2,0-55.2s1.5-130.3,9.2-125s31.5,95.9,31.5,95.9s10.2,34.9,9.7,37.8
	c-0.5,2.9,8.7,39.2,8.7,39.2s8.7,50.4,12.1,51.4s24.2,1.5,26.2-3.9l-5.8-45.5c0,0-5.8-51.8-8.7-59.1c-2.9-7.3-7.8-110.5-21.8-141
	c0,0-5.3-48.9-9.2-56.2c0,0-2.3-10,0.5-19.3C330.3,284,262.9,284.4,257.6,280.5z"/>
<ellipse class="st2" cx="286.4" cy="138.1" rx="40.7" ry="51.6"/>
<path class="st6" d="M370,198.7l-6.3,13.6L289.1,234c0,0-51.8,15-57.2-9.2s20.3-26.6,20.3-26.6s9.7-6.8,21.8-13.6
	c4.1-2.3,5.4-5.9,5.4-9.8c0-1.2-0.1-2.3-0.3-3.4c-0.2-1.3-0.6-2.6-1-3.9c-1-3.1-2.4-6.2-4.1-9c0,0,32-12.6,31.5-5.8
	c-0.2,2.4,0.1,4.9,0.8,7.2c0.7,2.1,1.6,4,2.7,5.9c0.5,0.9,1.1,1.9,1.8,2.9c0.9,1.3,1.9,2.8,3,4.3c6.3,8.7,27.1,8.7,27.1,8.7
	C357.4,179.8,370,198.7,370,198.7z"/>
<path class="st6" d="M447,276.2c0,0,34.9,25.7,41.7,25.2s46.5-2.9,37.3,6.3s-50.9,3.4-50.9,3.4l-38.3-24.2L447,276.2z"/>
<path class="st8" d="M306.3,159.9c-7.2,7.7-18.1,10.6-28.2,7.6c-1-3.1-2.4-6.2-4.1-9c0,0,32-12.6,31.5-5.8
	C305.3,155.1,305.6,157.5,306.3,159.9z"/>
<circle class="st6" cx="286.2" cy="137.6" r="27.6"/>
<path class="st7" d="M251.8,218c0,0,120.1-27.1,120.6-23.3s5.3,11.6,5.3,11.6l-28.1,32c0,0,3.4,15.5-3.4,18.9s-7.8,29.1-14,29.6
	c-6.3,0.5-79.9-0.5-80.4-4.4s1.9-6.3,0-7.3s-4.8-1-2.4-5.8s2.4-25.2,2.4-25.2L229,233.5c0,0-3.1-9,2.6-10.6S251.8,218,251.8,218z"/>
<path class="st7" d="M373.4,205.4h4.4c0,0,13.1,8.7,16.5,16.5s15.5,17.9,18.4,20.8s42.6,30.5,42.1,34.4s-11.6,7.8-12.1,12.1
	s4.8,6.3,1.5,6.3s-24.2-12.1-32-16.5s-23.7-17-25.7-20.3s-15-9.2-16.5-11.6s-24.2-13.6-24.2-13.6L373.4,205.4z"/>
<ellipse transform="matrix(0.1602 -0.9871 0.9871 0.1602 100.8711 332.2614)" class="st2" cx="245.7" cy="106.9" rx="15.5" ry="15.5"/>
<circle class="st2" cx="314" cy="86.5" r="15.5"/>
<ellipse class="st2" cx="290" cy="119.7" rx="28.8" ry="17.7"/>
<path class="st2" d="M309,165.8c-13.3,5.2-23.8,5.8-29.9,5.6c0.2,1.1,0.3,2.3,0.3,3.4c0.7,0,1.5,0,2.3,0c6.7,0,16.8-1.2,29.1-6.1
	L309,165.8z"/>
<path class="st7" d="M519,310h378.1c11.8,0,21.4,9.6,21.4,21.4v209.1c0,11.8-9.6,21.4-21.4,21.4H519c-11.8,0-21.4-9.6-21.4-21.4
	V331.4C497.6,319.6,507.2,310,519,310z"/>
<rect x="543" y="486.8" class="st9" width="330" height="12"/>
<rect x="543.2" y="455.3" class="st9" width="330" height="12"/>
<rect x="814.2" y="412.3" class="st9" width="59" height="12"/>
<rect x="657.2" y="380.3" class="st9" width="216" height="12"/>
<rect x="543" y="518.8" class="st9" width="165.2" height="12"/>
<path class="st1" d="M553.3,341.3H616c5.6,0,10.2,4.6,10.2,10.2v62.7c0,5.6-4.6,10.2-10.2,10.2h-62.7c-5.6,0-10.2-4.6-10.2-10.2
	v-62.7C543.2,345.8,547.7,341.3,553.3,341.3z"/>
</svg>
