<?xml version="1.0" encoding="utf-8"?>
<!-- Generator: Adobe Illustrator 23.0.1, SVG Export Plug-In . SVG Version: 6.00 Build 0)  -->
<svg version="1.1" id="Layer_1" xmlns="http://www.w3.org/2000/svg" xmlns:xlink="http://www.w3.org/1999/xlink" x="0px" y="0px"
	 viewBox="0 0 512 512" style="enable-background:new 0 0 512 512;" xml:space="preserve">
<style type="text/css">
	.st0{fill:#FFFFFF;}
</style>
<title>BACKPACK</title>
<path class="st0" d="M470.9,274.8h-31.3V23c0-12.7-10.3-23-23-23h-35.1c-12.1,0-22.2,9.5-23,21.6l-4.3,69.3c-3.5-2.2-7-4.3-10.7-6.3
	L317.2,4.8c-0.9-2.9-3.6-4.8-6.6-4.8H201.4c-3,0-5.7,1.9-6.6,4.8l-26.4,79.8c-3.6,2-7.2,4.1-10.7,6.3l-4.3-69.3
	C152.6,9.5,142.6,0,130.5,0H95.3c-12.7,0-23,10.3-23,23v251.8H41.1c-17.1,0-31,13.9-31,31V430c0,17.1,13.9,31,31,31h31.3v16
	c0,19.3,15.7,35,35,35h297.3c19.3,0,35-15.7,35-35v-16h31.3c17.1,0,31-13.9,31-31V305.8C501.9,288.7,488,274.8,470.9,274.8z
	 M470.9,288.8c9.4,0,17,7.6,17,17v19.5h-48.3v-36.5H470.9z M487.9,353.7h-48.3v-14.3h48.3V353.7z M372.6,22.4c0.3-4.7,4.2-8.4,9-8.4
	h35.1c5,0,9,4,9,9v152.7c-12.4-29.8-32.4-55.8-58-75.5L372.6,22.4z M285.1,64.7c-20.5-3.3-41.4-3.1-61.8,0.6l6.4-19.3h52.8l6.4,19.3
	C287.5,65,286.3,64.9,285.1,64.7z M167.5,101.3c54.8-33.6,124-33.3,178.5,0.9l-16.3,110.2c-1,6.4-6.4,11.1-12.9,11.1H195.3
	c-6.4,0-11.9-4.7-12.9-11.1l-16.3-110.2C166.5,101.9,167,101.6,167.5,101.3z M185.9,76.2L206.5,14h99l20.6,62.2
	c-7-2.9-14.1-5.3-21.4-7.3l-10.6-32.1c-0.9-2.9-3.6-4.8-6.6-4.8h-62.9c-3,0-5.7,1.9-6.6,4.8l-10.6,32.1
	C200,70.9,192.9,73.3,185.9,76.2z M86.3,23c0-5,4-9,9-9h35.1c4.7,0,8.7,3.7,9,8.4l4.9,77.8c-25.6,19.7-45.5,45.7-58,75.5V23z
	 M24.1,339.3h48.3v14.3H24.1V339.3z M41.1,288.8h31.3v36.5H24.1v-19.5C24.1,296.4,31.7,288.8,41.1,288.8z M41.1,447
	c-9.4,0-17-7.6-17-17v-62.3h48.3V447L41.1,447z M425.7,477c0,11.6-9.4,21-21,21H107.3c-11.6,0-21-9.4-21-21V246
	c0.3-52.9,25-102.7,66.9-134.9l15.3,103.3c2,13.2,13.3,23,26.7,23h121.5c13.4-0.1,24.7-9.8,26.7-23l15.3-103.3
	c41.9,32.2,66.6,82,66.9,134.9V477L425.7,477z M470.9,447h-31.3v-79.3h48.3V430C487.9,439.4,480.3,447,470.9,447L470.9,447z"/>
<path class="st0" d="M365.9,280.2H146.1c-12.7,0-23,10.3-23,23V438c0,12.7,10.3,23,23,23h219.8c12.7,0,23-10.3,23-23V303.2
	C388.9,290.5,378.6,280.2,365.9,280.2z M137.1,303.2c0-5,4-9,9-9h219.8c5,0,9,4,9,9v50.5H137.1L137.1,303.2z M312,367.7h18.8V405
	H312V367.7z M365.9,447H146.1c-5,0-9-4-9-9v-70.3H298V412c0,3.9,3.1,7,7,7c0,0,0,0,0,0h32.8c3.9,0,7-3.1,7-7c0,0,0,0,0,0v-44.3h30.1
	V438C374.9,443,370.9,447,365.9,447z"/>
<path class="st0" d="M242.7,189h26.7c21.4,0,38.7-17.3,38.7-38.7s-17.3-38.7-38.7-38.7h-26.7c-21.4,0-38.7,17.3-38.7,38.7
	S221.3,189,242.7,189L242.7,189z M242.7,125.7h26.7c13.6,0,24.7,11,24.7,24.7c0,13.6-11,24.7-24.7,24.7c0,0,0,0,0,0h-26.7
	c-13.6,0-24.7-11-24.7-24.7C218,136.7,229,125.7,242.7,125.7z"/>
</svg>
