<?xml version="1.0" encoding="utf-8"?>
<!-- Generator: Adobe Illustrator 23.0.1, SVG Export Plug-In . SVG Version: 6.00 Build 0)  -->
<svg version="1.1" id="Layer_1" xmlns="http://www.w3.org/2000/svg" xmlns:xlink="http://www.w3.org/1999/xlink" x="0px" y="0px"
	 viewBox="0 0 512 512" style="enable-background:new 0 0 512 512;" xml:space="preserve">
<style type="text/css">
	.st0{fill:#FFFFFF;}
</style>
<title>WATCH</title>
<path class="st0" d="M428.5,256c0-51.4-22.9-100.1-62.6-132.8L338.8,5.4C338.1,2.3,335.3,0,332,0H180c-3.3,0-6.1,2.3-6.8,5.4
	l-27.1,117.7c-73.4,60.6-83.7,169.2-23.2,242.5c7,8.4,14.7,16.2,23.2,23.2l27.1,117.7c0.7,3.2,3.6,5.4,6.8,5.4h152
	c3.3,0,6.1-2.3,6.8-5.4l27.1-117.7C405.6,356.1,428.5,307.4,428.5,256z M163.4,110.5L185.6,14h140.9l22.2,96.5
	C292.1,74.5,219.9,74.5,163.4,110.5L163.4,110.5z M348.6,401.5L326.4,498H185.6l-22.2-96.5C219.9,437.5,292.1,437.5,348.6,401.5
	L348.6,401.5z M280.2,412.7c-8,1.2-16.1,1.9-24.2,1.8c-66.7-0.5-126.1-42.2-149.1-104.8c-6.2-17.2-9.4-35.4-9.4-53.7
	c0.5-65.3,40.6-123.9,101.3-147.8c18.2-7,37.6-10.7,57.2-10.7c66.7,0.5,126.1,42.2,149.1,104.8c29.6,82.4-13.1,173.2-95.5,202.8
	C300.1,408.6,290.2,411.1,280.2,412.7z"/>
<path class="st0" d="M350.2,162.9c-0.2-0.2-0.3-0.4-0.5-0.6c-0.2-0.2-0.4-0.4-0.6-0.5c-51.5-51.1-134.6-51.1-186.1,0
	c-0.2,0.2-0.4,0.3-0.6,0.5c-0.2,0.2-0.3,0.4-0.5,0.6c-51.1,51.5-51.1,134.6,0,186.1c0.2,0.2,0.3,0.4,0.5,0.6
	c0.2,0.2,0.4,0.4,0.6,0.5c51.5,51.1,134.6,51.1,186.1,0c0.2-0.2,0.4-0.3,0.6-0.5c0.2-0.2,0.3-0.4,0.5-0.6
	C401.3,297.5,401.3,214.5,350.2,162.9z M361.5,263h12.8c-1.6,26.5-12,51.8-29.7,71.6l-9-9c-2.8-2.7-7.2-2.6-9.9,0.2
	c-2.6,2.7-2.6,7,0,9.7l9,9c-19.8,17.7-45.1,28.2-71.6,29.7v-12.8c0-3.9-3.1-7-7-7s-7,3.1-7,7v12.8c-26.5-1.6-51.8-12-71.6-29.7l9-9
	c2.8-2.7,2.9-7.1,0.2-9.9c-2.7-2.8-7.1-2.9-9.9-0.2c-0.1,0.1-0.1,0.1-0.2,0.2l-9,9c-17.7-19.8-28.2-45.1-29.7-71.6h12.8
	c3.9,0,7-3.1,7-7s-3.1-7-7-7h-12.8c1.6-26.5,12-51.8,29.7-71.6l9,9c2.7,2.8,7.1,2.9,9.9,0.2c2.8-2.7,2.9-7.1,0.2-9.9
	c-0.1-0.1-0.1-0.1-0.2-0.2l-9-9c19.8-17.7,45.1-28.2,71.6-29.7v12.8c0,3.9,3.1,7,7,7s7-3.1,7-7v-12.8c26.5,1.6,51.8,12,71.6,29.7
	l-9,9c-2.8,2.7-2.9,7.1-0.2,9.9c2.7,2.8,7.1,2.9,9.9,0.2c0.1-0.1,0.1-0.1,0.2-0.2l9-9c17.7,19.8,28.2,45.1,29.7,71.6h-12.8
	c-3.9,0-7,3.1-7,7C354.5,259.9,357.6,263,361.5,263z"/>
<path class="st0" d="M281.9,272c8.9-14.3,4.5-33-9.8-41.9c-2.8-1.8-5.9-3-9.1-3.8V183c0-3.9-3.1-7-7-7s-7,3.1-7,7v43.3
	c-16.4,3.8-26.6,20.2-22.8,36.6s20.2,26.6,36.6,22.8c3.2-0.8,6.3-2,9.2-3.8l17.8,17.8c2.7,2.7,7.2,2.7,9.9,0s2.7-7.2,0-9.9
	L281.9,272z M239.5,256c0-9.1,7.4-16.5,16.5-16.5c9.1,0,16.5,7.4,16.5,16.5c0,4.4-1.7,8.6-4.8,11.7l0,0l0,0
	c-6.4,6.5-16.9,6.5-23.3,0.1C241.2,264.6,239.5,260.4,239.5,256L239.5,256z"/>
<path class="st0" d="M226,55h60c3.9,0,7-3.1,7-7s-3.1-7-7-7h-60c-3.9,0-7,3.1-7,7S222.1,55,226,55z"/>
<path class="st0" d="M286,457h-60c-3.9,0-7,3.1-7,7s3.1,7,7,7h60c3.9,0,7-3.1,7-7S289.9,457,286,457z"/>
</svg>
