<?xml version="1.0" encoding="utf-8"?>
<!-- Generator: Adobe Illustrator 23.0.1, SVG Export Plug-In . SVG Version: 6.00 Build 0)  -->
<svg version="1.1" id="Layer_1" xmlns="http://www.w3.org/2000/svg" xmlns:xlink="http://www.w3.org/1999/xlink" x="0px" y="0px"
	 viewBox="0 0 512 512" style="enable-background:new 0 0 512 512;" xml:space="preserve">
<style type="text/css">
	.st0{fill:#FFFFFF;}
</style>
<path class="st0" d="M507.8,311.4L401,265.2v-35.7c-0.1-55.9-45.4-101.3-101.3-101.3h-87.3c-55.9,0.1-101.3,45.4-101.3,101.3v35.7
	L4.2,311.4c-3.5,1.5-5.2,5.7-3.6,9.2c0.5,1.2,1.4,2.3,2.5,3c57.8,39.3,126.1,60.3,196,60.2h113.8c69.9,0.1,138.2-20.9,196-60.2
	c3.2-2.2,4-6.5,1.9-9.7C510,312.8,509,311.9,507.8,311.4z M342.9,270c-5.9,12.2-20.5,17.4-32.8,11.6L277,265.5v-3.6h24.2
	c3.9,0,7-3.1,7-7s-3.1-7-7-7H277v-3.6l33.1-16.1c7.6-3.7,16.5-3.2,23.6,1.3c11.2,7,11.5,18.6,11.5,30.3
	C345.2,263.2,344.4,266.7,342.9,270z M263,270.6c0,3.9-3.1,7-7,7s-7-3.1-7-7v-31.5c0-3.9,3.1-7,7-7s7,3.1,7,7V270.6z M199.1,282.7
	c-13,4.2-26.9-2.9-31.1-15.8c-0.8-2.4-1.2-4.8-1.2-7.3v-9.5c0.2-13.6,11.4-24.5,25.1-24.3c3.5,0.1,6.9,0.8,10,2.3l33.1,16.1v3.6
	h-24.3c-3.9,0-7,3.1-7,7s3.1,7,7,7H235v3.6l-33.1,16.1C201,282,200,282.4,199.1,282.7L199.1,282.7z M125,246.8h27.9
	c-0.5,5.3-0.5,10.7,0,16H125L125,246.8z M359.3,259.6c0-4.2,0.2-8.6-0.1-12.8H387v16h-27.9C359.2,261.8,359.3,260.7,359.3,259.6
	L359.3,259.6z M212.3,142.2h87.3c48.2,0.1,87.3,39.1,87.3,87.3v3.3h-31.8c-9.4-18.8-32.2-26.6-51.1-17.3l-29.2,14.2
	c-5.2-10.4-17.8-14.6-28.1-9.5c-4.1,2-7.4,5.4-9.5,9.5L208,215.5c-18.9-9.2-41.7-1.5-51.1,17.3H125v-3.3
	C125.1,181.3,164.1,142.2,212.3,142.2L212.3,142.2z M312.9,369.8H199.1c-62.7,0.1-124.2-17.5-177.4-50.7l97.7-42.3h37.4
	c9.6,18.6,32.2,26.3,51.1,17.3l29.2-14.2c5.2,10.4,17.8,14.6,28.1,9.5c4.1-2,7.4-5.4,9.5-9.5l29.2,14.2c18.9,9,41.6,1.3,51.1-17.3
	h37.4l97.7,42.3C437.1,352.3,375.6,369.9,312.9,369.8L312.9,369.8z"/>
</svg>
