<?xml version="1.0" encoding="utf-8"?>
<!-- Generator: Adobe Illustrator 23.0.1, SVG Export Plug-In . SVG Version: 6.00 Build 0)  -->
<svg version="1.1" id="Layer_1" xmlns="http://www.w3.org/2000/svg" xmlns:xlink="http://www.w3.org/1999/xlink" x="0px" y="0px"
	 viewBox="0 0 512 512" style="enable-background:new 0 0 512 512;" xml:space="preserve">
<style type="text/css">
	.st0{fill:#FFFFFF;}
</style>
<title>TUXEDO</title>
<path class="st0" d="M504.2,345.2L448.5,85.6c-0.5-2.1-1.9-3.9-3.9-4.9l-84.5-39.5L321,2.1c-1.4-1.3-3.2-2.1-5.1-2.1H196.1
	c-1.9,0-3.7,0.7-5.1,2.1l-39.2,39.1L67.3,80.7c-1.9,1-3.3,2.8-3.9,4.9L7.8,345.2c-0.6,3,0.8,6.1,3.5,7.6l92,50.3V465
	c0,2.9,1.8,5.5,4.5,6.5l105.6,40c3.4,1.3,7.1-0.2,8.7-3.4l33.8-67.5l33.8,67.5c1.6,3.2,5.4,4.7,8.7,3.4l105.6-40
	c2.7-1,4.5-3.6,4.5-6.5v-61.8l92-50.3C503.4,351.3,504.8,348.2,504.2,345.2z M394.7,375.5c-10.3,0.2-32.4-0.1-50.7-0.4v-10.8h50.7
	V375.5z M348.2,49L320,142c-0.6,1.9-0.3,3.9,0.7,5.6l14.3,23.9l-65.7,83.2l46.9-215.6l0,0l3.9-18.1l13.1,13.1L348.2,49z M256,249.9
	L211.3,44.6h89.4L256,249.9z M192,142l-28.2-93l14.9-14.9L191.8,21l3.9,18.1l0,0l46.9,215.6L177,171.5l14.3-23.9
	C192.3,145.9,192.6,143.9,192,142z M303.7,30.6h-95.5L204.6,14h102.7L303.7,30.6z M117.3,364.3H168v10.8
	c-18.2,0.3-40.4,0.6-50.7,0.4L117.3,364.3z M22.6,343l48-224.2l32.7,138v130.4L22.6,343z M212.5,496.2l-95.2-36.1v-70.6
	c2.9,0.1,6.5,0.1,11.3,0.1c10,0,24.7-0.2,46.5-0.7c3.8-0.1,6.9-3.2,6.9-7v-24.7c0-3.9-3.1-7-7-7h-57.7V256c0-0.5-0.1-1.1-0.2-1.6
	L78.4,91l73.1-34.2l26.2,86.3l-15.2,25.3c-1.5,2.5-1.3,5.7,0.5,7.9l86,108.8v138.1L212.5,496.2z M394.7,460.2l-95.2,36.1L263,423.3
	V285.2l86-108.8c1.8-2.3,2-5.5,0.5-7.9l-15.2-25.3l26.2-86.3L433.6,91l-38.7,163.4c-0.1,0.5-0.2,1.1-0.2,1.6v94.3H337
	c-3.9,0-7,3.1-7,7V382c0,3.8,3,6.9,6.9,7c21.8,0.4,36.5,0.7,46.5,0.7c4.7,0,8.4-0.1,11.3-0.1L394.7,460.2L394.7,460.2z M408.7,387.2
	V256.8l32.7-138l48,224.2L408.7,387.2z"/>
<path class="st0" d="M297.9,312.3c-12,0-21.7,9.7-21.6,21.7c0,12,9.7,21.7,21.7,21.6c12,0,21.6-9.7,21.6-21.7
	C319.6,322,309.9,312.3,297.9,312.3z M297.9,341.7c-4.2,0-7.7-3.5-7.6-7.7c0-4.2,3.5-7.7,7.7-7.6c4.2,0,7.6,3.4,7.6,7.7
	C305.6,338.2,302.2,341.7,297.9,341.7C297.9,341.7,297.9,341.7,297.9,341.7z"/>
</svg>
