<?xml version="1.0" encoding="utf-8"?>
<!-- Generator: Adobe Illustrator 23.0.1, SVG Export Plug-In . SVG Version: 6.00 Build 0)  -->
<svg version="1.1" id="Layer_1" xmlns="http://www.w3.org/2000/svg" xmlns:xlink="http://www.w3.org/1999/xlink" x="0px" y="0px"
	 viewBox="0 0 512 512" style="enable-background:new 0 0 512 512;" xml:space="preserve">
<style type="text/css">
	.st0{fill:#FFFFFF;}
</style>
<path class="st0" d="M505,149c-24.1,0.1-46,13.9-56.3,35.6l-2.1,4.4h-92.9c-2.8-22.8-22.1-40-45.1-40h-21.4c-1.7,0-3.3,0.6-4.6,1.7
	l-22.7,19.8c-8.2,7.9-16.9,15.2-26,22.1c-18.2,14.3-38.1,26.2-59.3,35.5c-17.7,7.9-36.2,13.9-55.1,17.9l-18.5,4
	c-25.9,5.5-49.8,18-69.3,36L2.2,313.5c-1.4,1.3-2.2,3.2-2.2,5.1V332c0,17.1,13.9,31,31,31h450c17.1,0,31-13.9,31-31V156
	C512,152.1,508.9,149,505,149L505,149z M273.4,200l-74.2,45.9l-10.3-8.8c27-13.5,52-30.6,74.4-50.9L273.4,200z M41.3,296.4
	c17.6-16.3,39.2-27.6,62.7-32.6l18.5-4c17.9-3.8,35.4-9.3,52.3-16.4l19.1,16.4c2.3,2,5.6,2.2,8.2,0.6l85-52.5c3.3-2,4.3-6.3,2.3-9.6
	c-0.1-0.2-0.2-0.3-0.3-0.4l-15.2-21l15.9-13.9h18.7c17.4,0,31.4,14.1,31.4,31.4c0,0.4,0,0.9,0,1.3c-0.2,3.9,2.8,7.1,6.7,7.3
	c0.1,0,0.2,0,0.3,0h104c2.7,0,5.2-1.6,6.3-4l4-8.4c7-14.6,20.7-24.7,36.7-27.1v148.1h-56.1l31.1-39.3c2.4-3,1.9-7.4-1.2-9.8
	c-1.2-1-2.8-1.5-4.3-1.5h-161c-2.1,0-4.2,1-5.5,2.7l-37.9,48H24.8L41.3,296.4z M424.1,311.7H280.9l29-36.7H453L424.1,311.7z
	 M498,332c0,9.4-7.6,17-17,17H31c-9.4,0-17-7.6-17-17v-6.3h484V332z"/>
</svg>
