<?xml version="1.0" encoding="utf-8"?>
<!-- Generator: Adobe Illustrator 23.0.1, SVG Export Plug-In . SVG Version: 6.00 Build 0)  -->
<svg version="1.1" id="Layer_1" xmlns="http://www.w3.org/2000/svg" xmlns:xlink="http://www.w3.org/1999/xlink" x="0px" y="0px"
	 viewBox="0 0 512 512" style="enable-background:new 0 0 512 512;" xml:space="preserve">
<style type="text/css">
	.st0{fill:#FFFFFF;}
</style>
<path class="st0" d="M457.2,447.6L377.3,46V7c0-3.9-3.1-7-7-7H141.7c-3.9,0-7,3.1-7,7v39L61.2,415.4l-6.4,32.2
	c-0.5,2.7,0.6,5.5,2.9,7.1C61,457,140.8,512,258,512c7.3,0,14.5-0.2,21.5-0.6c3.5-0.2,7-0.4,10.4-0.7c99-8.5,161.8-53.9,164.7-56
	C456.6,452.9,457.7,450.2,457.2,447.6L457.2,447.6z M406.8,429l-51.9-259.9c-0.7-3.8-4.4-6.3-8.2-5.6c-3.8,0.7-6.3,4.4-5.6,8.2
	c0,0,0,0.1,0,0.1l52.5,262.9c-17.4,7.2-35.3,12.9-53.6,17.3L322,292.7c-0.4-3.8-3.9-6.6-7.7-6.2s-6.6,3.9-6.2,7.7L326.3,455
	c-20.9,4.1-42,6.3-63.3,6.6V275.8c0-3.9-3.1-7-7-7s-7,3.1-7,7v185.7c-21.2-0.6-42.4-3-63.2-7.2l18.2-160c0.4-3.8-2.3-7.3-6.2-7.7
	c-3.8-0.4-7.3,2.3-7.7,6.2l0,0l-18,158.5c-18.2-4.4-36.1-10.2-53.6-17.3l52.4-262.1c0.8-3.8-1.6-7.5-5.4-8.3
	c-3.8-0.8-7.5,1.6-8.3,5.4c0,0,0,0.1,0,0.1l-51.8,259.2c-10.1-4.5-19.9-9.6-29.5-15.1l71.6-359.6h217.1l71.6,359.8
	C426.7,419.2,416.9,424.4,406.8,429L406.8,429z M148.7,14h214.6v25.7H148.7V14z M69.4,445.7l3.6-17.9c11.1,6.2,22.5,11.7,34.2,16.7
	c0.4,0.2,0.7,0.4,1.1,0.5c21,8.8,42.6,15.8,64.8,21c1.1,1.1,2.5,1.8,4.1,2c0.3,0,0.5,0,0.8,0c0.8,0,1.6-0.1,2.3-0.4
	c24.8,5.3,50.1,8,75.4,8.2c0.1,0,0.2,0,0.3,0s0.1,0,0.2,0c0.6,0,1.2,0,1.8,0c25.3,0,50.6-2.6,75.4-7.9c0.2,0,0.4,0.1,0.6,0.1
	c0.3,0,0.5,0,0.8,0c1-0.1,1.9-0.4,2.8-1c35.6-7.8,69.8-20.9,101.5-38.8l1.2,6l2.3,11.8C387.2,480.1,323.2,498.1,258,498
	C191.6,497.7,126.5,479.7,69.4,445.7L69.4,445.7z"/>
</svg>
