<?xml version="1.0" encoding="utf-8"?>
<!-- Generator: Adobe Illustrator 25.2.0, SVG Export Plug-In . SVG Version: 6.00 Build 0)  -->
<svg version="1.1" id="Layer_1" xmlns="http://www.w3.org/2000/svg" xmlns:xlink="http://www.w3.org/1999/xlink" x="0px" y="0px"
	 viewBox="0 0 450 450" style="enable-background:new 0 0 450 450;" xml:space="preserve">
<style type="text/css">
	.st0{fill:#1A2E35;}
	.st1{opacity:0.2;fill:#FFFFFF;enable-background:new    ;}
	.st2{fill:#007CFF;}
	.st3{opacity:0.6;fill:#FFFFFF;enable-background:new    ;}
	.st4{opacity:0.2;enable-background:new    ;}
	.st5{fill:#FCC1BB;}
	.st6{opacity:0.1;fill:#FFFFFF;enable-background:new    ;}
	.st7{opacity:0.3;fill:#FFFFFF;enable-background:new    ;}
	.st8{fill:#CC7A63;}
	.st9{fill:#B84D3C;}
	.st10{fill:none;stroke:#1A2E35;stroke-width:0.708;stroke-linecap:round;stroke-linejoin:round;stroke-miterlimit:10;}
	.st11{opacity:0.5;fill:#FFFFFF;enable-background:new    ;}
	.st12{opacity:0.1;enable-background:new    ;}
	.st13{fill:#FD897B;}
	.st14{opacity:0.4;enable-background:new    ;}
	.st15{fill:#FD5652;}
	.st16{fill:none;stroke:#1A2E35;stroke-width:0.5572;stroke-linecap:round;stroke-linejoin:round;stroke-miterlimit:10;}
</style>
<g>
	<g id="_x3C_Group_x3E__66_">
		<g>
			<path class="st0" d="M192.8,76.7c-0.1-0.5-0.5-0.9-1-1l-27.8-3c-0.4-0.1-1.7,0.8-1.7,1.3l3.3,26.2c0.1,0.6,0.5,1,1,1l28.1,2.2
				c0.4,0.1,1.7-0.8,1.6-1.3L192.8,76.7z"/>
			<path class="st1" d="M164,72.7l27.8,3c0.5,0.1,0.9,0.5,1,1l3.6,25.4c0.1,0.5-0.3,0.9-0.8,0.8l-28.1-2.2c-0.6-0.1-1-0.5-1-1
				l-3.3-26.2C163.1,73,163.5,72.6,164,72.7z"/>
			<polygon class="st2" points="167.6,99.5 164.4,73.9 191.7,76.9 195.2,101.7 			"/>
			<polygon class="st3" points="167.6,99.5 164.4,73.9 191.7,76.9 195.2,101.7 			"/>
			<path class="st4" d="M172.2,78.7c0.4,1.8-0.5,3.4-2,3.7c-1.4,0.3-2.8-0.9-3.2-2.7c-0.4-1.8,0.5-3.4,2-3.7
				C170.4,75.8,171.9,77,172.2,78.7z"/>
			<g>
				<polygon class="st4" points="177.2,92.1 184.6,92.8 183.8,85.7 176.3,84.9 				"/>
				<polygon class="st4" points="184.7,93.8 177.3,93.1 178.1,98.8 185.4,99.4 				"/>
				<polygon class="st4" points="185.7,93.9 186.4,99.5 193.4,100.1 192.6,94.7 				"/>
				<polygon class="st4" points="185.5,92.9 192.4,93.6 191.3,86.5 184.6,85.8 				"/>
				<polygon class="st4" points="176.4,93 169,92.2 169.6,98.2 177,98.8 				"/>
				<polygon class="st4" points="176.3,92 175.4,84.8 168,84 168.9,91.2 				"/>
			</g>
			<g>
				<polygon class="st4" points="185.8,81.9 189.6,82.4 189.2,80.7 185.4,80.2 				"/>
				<polygon class="st4" points="178.7,79.4 174.4,78.9 174.7,80.6 178.9,81.1 				"/>
				<polygon class="st4" points="180.1,81.2 184.3,81.7 184,80 180,79.6 				"/>
			</g>
		</g>
		<path class="st5" d="M206.7,92.3c0,0-9.9-5.5-11.3-6.7c-1.4-1.1-14.6-1.3-14.3,0c0.3,1.3,5.2,9.1,6.3,9.9c1.2,0.7,9,0,9,0l9,3.6
			L206.7,92.3z"/>
		<g>
			<path class="st0" d="M256.7,91.4c8.4,4,4,38.5-15.7,46.4c-19.6,7.9-39.4-23.2-39.4-23.2l6.1-16c0,0,18,14.9,25,11.5
				C239.8,106.6,250.3,88.4,256.7,91.4z"/>
			<path class="st6" d="M256.7,91.4c8.4,4,4,38.5-15.7,46.4c-19.6,7.9-39.4-23.2-39.4-23.2l6.1-16c0,0,18,14.9,25,11.5
				C239.8,106.6,250.3,88.4,256.7,91.4z"/>
		</g>
		<polygon class="st5" points="203.9,395.8 193.1,396.9 192.6,390.7 191.1,373.7 201.9,372.5 203.5,391.3 		"/>
		<polygon class="st5" points="257.6,394.4 247.2,394.4 247.1,392 247.1,391.7 246.6,376.6 246.6,376.3 246.3,370.5 256.8,370.5 		
			"/>
		<polygon class="st4" points="201.9,372.5 203.5,391.3 192.6,390.7 191.1,373.7 		"/>
		<polygon class="st4" points="257.6,393.1 257.6,393.1 247.1,391.7 247.1,391.7 246.6,377.1 246.6,377.1 257,378 257.6,392.6 		"/>
		<path class="st2" d="M245.8,393.8h12.7c0.4,0,0.8,0.3,0.9,0.7l2.1,9.3c0.2,0.8-0.4,1.7-1.2,1.8c-0.1,0-0.2,0.1-0.4,0.1
			c-4.1-0.1-7.1-0.3-12.2-0.3c-3.2,0-12.8,0.3-17.1,0.3c-4.4,0-5-4.3-3.2-4.8c8.1-1.8,14.1-4.2,16.7-6.5
			C244.5,394,245.1,393.8,245.8,393.8z"/>
		<path class="st2" d="M192,393.4h12.7c0.4,0,0.8,0.3,0.9,0.7l2.1,9.3c0.2,0.8-0.4,1.7-1.2,1.8c-0.1,0-0.2,0.1-0.4,0.1
			c-4.1-0.1-7.1-0.3-12.2-0.3c-3.2,0-12.8,0.3-17.1,0.3c-4.4,0-5-4.3-3.2-4.8c8.1-1.8,14.1-4.2,16.7-6.5
			C190.7,393.7,191.3,393.4,192,393.4z"/>
		<path class="st0" d="M190.1,389.1h15.3c0,0-1.2-114,15.3-158.5c1.2,14.7,2.5,30,3.8,42.7c0.8,7.9,1.6,10.9,2.4,16.1
			c4.8,33.2,17,101.1,17,101.1H259c0,0-1.8-64.4-3.6-97.1c-2-35.4-2.8-109.5-2.9-116.2h-55.5C191.8,205,178.3,298.8,190.1,389.1z"/>
		<g>
			<path class="st5" d="M217.2,63.8c0.2,0.5,0.3,1,0.5,1.5c1,2.9,2.9,5.2,5.2,6.9c0.6,0.4,1.2,0.8,1.9,1.2c3.5,1.8,7.6,2.1,11.3,0.5
				c1.5-0.6,3-1.7,4.3-3c5.2-5.3,5.1-11.4,5.7-21.7c0.2-2.2-0.2-4.4-1-6.5c-3-7.2-11.3-10.6-18.5-7.6
				C216.4,39.1,215,54.5,217.2,63.8z"/>
			<path class="st4" d="M222.8,72.2c0.6,0.4,1.2,0.8,1.9,1.2c3.5,1.8,7.6,2.1,11.3,0.5c-0.7-2-1.9-3.5-1.9-3.5S228,69.4,222.8,72.2z
				"/>
			<path class="st5" d="M243.6,85.6c-5.1,4.6-17.6,2.9-17.6,2.9s-7.8-2.1-6.1-4.5c4.6-0.8,6.8-2.9,7.7-5.6c0.5-1.6,0.6-3.4,0.5-5.2
				c-0.1-1-0.2-2-0.4-2.9l15.4-11.4C241.1,66.2,238.6,80.1,243.6,85.6z"/>
			<path class="st0" d="M222.8,54.4l-2.2,0.8l1.1-4.5c0,0-3.3-4.9,0-9.3c0,0-8.3-3.7-2-12.9c0,0,2.3,5.4,8.6,2.7
				c3.4-1.4,13.9-1.6,14.4,2.7c0,0,7.6-0.1,8.4,12.9s-8.1,20.4-8.1,20.4s-9.1,2.2-13.6-1.5C224.9,62.1,222.8,54.4,222.8,54.4z"/>
			<path class="st5" d="M228.7,55.1c-0.6,2.3-1.9,3.9-3.5,4.6c-2.1,0.9-3.5-2.1-3.2-5.2c0.3-2.7,1.7-6.6,4-6.1
				C228.3,48.9,229.4,52.4,228.7,55.1z"/>
		</g>
		<path class="st4" d="M220.7,230.5c1.2,14.7,2.5,30,3.8,42.8c1.9-18.4,4.2-31.4,4.2-31.4s2.2-1.8,8.1-11.3c5.9-9.5,0-27.2,0-27.2
			C237,219.7,220.7,230.5,220.7,230.5z"/>
		<polygon class="st2" points="188.4,384.8 189.2,389.1 207.2,389.1 207.2,385.1 		"/>
		<polygon class="st2" points="242.1,386.4 243.8,390.4 259,390.4 260,386.4 		"/>
		<g>
			<path class="st0" d="M206.7,84.8c0,0,13.8-3.3,28.9-0.6s21,7.1,21,7.1l7.8,118.6c0,0-40.4,9.8-74.3,0
				C190.1,210,193.3,100.1,206.7,84.8z"/>
			<path class="st1" d="M264.5,210c0,0-40.4,9.8-74.3,0c0,0,0.1-1.3,0.2-3.7c0.3-8.8,1.3-32.3,3.5-56.5c0.1-1,0.2-2.1,0.3-3.2
				c2.5-27.4,6.6-54.8,12.8-61.9c0,0,13.8-3.3,28.9-0.6c15.1,2.7,21,7.1,21,7.1l3.6,54.6l0.3,4.2l3.7,55.8L264.5,210z"/>
			<path class="st4" d="M260.5,150.1c-7.4-2.1-26.4-5.3-66.8-0.3c0.1-1,0.2-2.1,0.3-3.2c9.5-1.5,43.1-6.4,66.3-0.7L260.5,150.1z"/>
			<path class="st4" d="M264.5,210c0,0-40.4,9.8-74.3,0c0,0,0.1-1.3,0.2-3.7c16.9,2.5,50,4.5,73.9-0.5L264.5,210z"/>
		</g>
		<path class="st2" d="M216.2,83.2c0,0,6-8.3,23.2-8.3c17.2-0.1,17,13.3,11.7,22.2C245.7,106.1,216.2,83.2,216.2,83.2z"/>
		<g>
			<path class="st5" d="M166.1,110l-1.7-9.6c0,0,4-6.1,3.1-7.4c-0.9-1.3-4.3-12.5-4.3-12.5s-8.5,8.6-7.9,10.9
				c0.6,2.3,2.9,6.5,2.9,6.5l0.3,19.2L166.1,110z"/>
			<polygon class="st2" points="167.5,110 165.7,102.9 153.9,112.9 158.4,122.9 			"/>
			<path class="st0" d="M206.7,84.8c-4.1,1.2-25.1,39.4-29.8,39.4c-3.7,0-10.4-19.7-10.4-19.7l-11.2,13.2c0,0,1.5,32.9,19.8,33.8
				c18.4,0.9,35.6-30.3,35.6-30.3s2.9-9,1.1-22.4C210.5,88.4,206.7,84.8,206.7,84.8z"/>
			<path class="st6" d="M206.7,84.8c-4.1,1.2-25.1,39.4-29.8,39.4c-3.7,0-10.4-19.7-10.4-19.7l-11.2,13.2c0,0,1.5,32.9,19.8,33.8
				c18.4,0.9,35.6-30.3,35.6-30.3s2.9-9,1.1-22.4C210.5,88.4,206.7,84.8,206.7,84.8z"/>
		</g>
		<g>
			<path class="st2" d="M183.7,40.1h-13.7c-2.1,0-3.7,1.7-3.7,3.7v10.7c0,2.1,1.7,3.7,3.7,3.7h5.1l1.8,4.4l1.8-4.4h5.1
				c2.1,0,3.7-1.7,3.7-3.7V43.9C187.5,41.8,185.8,40.1,183.7,40.1z"/>
			<path class="st3" d="M171.7,45.5c1.3-2.2,3.9-1.3,5.2,0.4c1.3-1.7,3.9-2.5,5.2-0.3c2.2,3.7-2.5,7-4.6,8.3
				c-0.3,0.2-0.5,0.3-0.6,0.4c-0.2-0.1-0.4-0.2-0.6-0.4C174,52.6,169.4,49.2,171.7,45.5z"/>
		</g>
		<g>
			<path class="st2" d="M154.7,64.5h-6.9c-1,0-1.9,0.8-1.9,1.9v5.4c0,1,0.8,1.9,1.9,1.9h2.5l0.9,2.2l0.9-2.2h2.5
				c1,0,1.9-0.8,1.9-1.9v-5.4C156.6,65.4,155.7,64.5,154.7,64.5z"/>
			<path class="st3" d="M148.7,67.2c0.7-1.1,2-0.6,2.6,0.2c0.7-0.8,2-1.2,2.6-0.2c1.1,1.9-1.2,3.5-2.3,4.1c-0.1,0.1-0.2,0.2-0.3,0.2
				c-0.1-0.1-0.2-0.1-0.3-0.2C149.8,70.7,147.5,69,148.7,67.2z"/>
		</g>
		<path class="st7" d="M245.8,393.8h12.7c0.4,0,0.8,0.3,0.9,0.7l2.1,9.3c0.2,0.8-0.4,1.7-1.2,1.8c-0.1,0-0.2,0.1-0.4,0.1
			c-4.1-0.1-7.1-0.3-12.2-0.3c-3.2,0-12.8,0.3-17.1,0.3c-4.4,0-5-4.3-3.2-4.8c8.1-1.8,14.1-4.2,16.7-6.5
			C244.5,394,245.1,393.8,245.8,393.8z"/>
		<path class="st7" d="M192,393.4h12.7c0.4,0,0.8,0.3,0.9,0.7l2.1,9.3c0.2,0.8-0.4,1.7-1.2,1.8c-0.1,0-0.2,0.1-0.4,0.1
			c-4.1-0.1-7.1-0.3-12.2-0.3c-3.2,0-12.8,0.3-17.1,0.3c-4.4,0-5-4.3-3.2-4.8c8.1-1.8,14.1-4.2,16.7-6.5
			C190.7,393.7,191.3,393.4,192,393.4z"/>
	</g>
	<g>
		<path class="st8" d="M350,304.6c-5.8,14.3-21.2,35.4-35.5,53.4c-1.2,1.5-2.5,3.1-3.7,4.6c-4.1,5.1-8,9.9-11.6,14
			c-1.8,2.1-3.6,4-5.2,5.8l0,0c-5.9,6.4-8.7,10.3-8.7,10.3l-5.7-3.4c0,0,5.5-8.6,12.8-20.3c1.5-2.5,3.2-5.1,4.9-7.8
			c4.3-6.9,8.9-14.5,13.4-21.8c0.8-1.4,1.7-2.8,2.5-4.2c8.3-13.7,15.6-26.2,18.3-31.7c0.2-0.4,0.4-0.8,0.5-1.1
			c1.4-3.4-2.5-16.3-6.9-28.5c-0.3-0.9-0.7-1.9-1-2.7c-4.2-11.4-8.4-21.4-8.4-21.4l11.7-19.8l4.3-7.3c0,0,2.3,6.4,5.4,15.5
			c2.1,6.2,4.5,13.7,6.9,21.4c0.3,0.8,0.5,1.5,0.7,2.4c3.5,11.7,6.5,23.4,7.6,31.4C352.7,296.4,351.8,300.1,350,304.6z"/>
		<path class="st4" d="M314.8,358c-7.5,9.5-14.8,18.1-20.2,24.4c-0.8-3.9-1.5-8.4-2.2-13.4c6.2-10,13.8-22.4,20.8-33.8
			C313.2,341.2,313.4,350.2,314.8,358z"/>
		<path class="st8" d="M311,406.5l-6.8,0.9c0,0-2.6-12.9-5.1-30.8c-0.7-4.9-1.3-10-1.9-15.4c-1.4-13.3-2.5-27.8-2.4-41.4
			c0,0-0.7-2.6-1.9-6.9c-1.8-7.3-4.6-19.5-6.6-32.9c0-0.1,0-0.2-0.1-0.3c-2.4-16.2-3.5-34.1-0.4-47.6l23.7,10.6l0.4,28.6l0.1,6.9
			l0.3,24.1l0.1,5.5l0.2,31.7l0.2,23.2L311,406.5z"/>
		<path class="st4" d="M309.5,242.7l0.4,28.6c-7.2,4.9-17.1,7.2-23.7,8.4c-2.4-16.2-3.5-34.1-0.4-47.6L309.5,242.7z"/>
		<path class="st4" d="M344.7,262.1c-6.1,6.8-16.1,8.6-20.6,9c-4.2-11.4-8.4-21.4-8.4-21.4l11.7-19.8c3.2,2.5,6.6,5.3,9.7,8.3
			c2.1,6.2,4.5,13.7,6.9,21.4C344.2,260.5,344.4,261.3,344.7,262.1z"/>
		<g>
			<path class="st2" d="M326.2,134.8c4.5,0.2,23.3,25.5,23.3,25.5l7-9.1c0,0,10.7,20.9,5.4,30.8c-5.3,9.9-33.4-17.2-33.4-17.2
				L326.2,134.8z"/>
			<path class="st4" d="M326.2,134.8l1.9,20.1l0.5,9.9c0,0,4.6,4.5,10.4,9.1c8.6,6.8,19.8,14,22.9,8.2c5.3-10-5.4-30.8-5.4-30.8
				l-7,9.1l-0.1-0.1C348.4,158.6,330.6,135,326.2,134.8z"/>
		</g>
		<path class="st4" d="M328.1,154.9l0.5,9.9c0,0,4.6,4.5,10.4,9.1c0.6-11.8-10.4-29-10.4-29L328.1,154.9z"/>
		<path class="st4" d="M349.5,160.2l-1,1.9l2.9,11.4c0,0-8.1-7.3-2.9-14.5L349.5,160.2z"/>
		<g>
			<path class="st2" d="M327,197.9l-37.9,2.9c0,0-0.5-22.6-3.5-34.4c-1-3.8-2.2-8.1-3.8-13.1c-0.7-2.1-1.4-4.3-2.2-6.7
				c-0.7-2.2-1.5-4.5-2.4-7c5.2-1.7,10.4-2.9,15.8-3.8c5.6-1,11.4-1.6,17.1-1.8c7.4-0.1,16,0.8,16,0.8s1.2,0.3,2,8.2
				C328.9,150.3,328.6,171,327,197.9z"/>
			<path class="st4" d="M327,197.9l-37.9,2.9c0,0,0-0.5-0.1-1.3c-0.2-5-0.9-23-3.5-33c-0.7-2.7-1.5-5.7-2.5-9
				c-0.4-1.3-0.8-2.7-1.2-4.1c-0.7-2.1-1.4-4.3-2.2-6.7c-0.7-2.2-1.5-4.5-2.4-7c2.1-0.7,4.1-1.2,6.2-1.8c3.2-0.8,6.4-1.5,9.6-2
				c5.6-1,11.4-1.6,17.1-1.8c4.8-0.1,10,0.3,13.1,0.6c1.7,0.2,2.8,0.3,2.8,0.3s1.2,0.3,2,8.2C328.9,150.3,328.6,171,327,197.9z"/>
		</g>
		<path class="st0" d="M280,385.6c0.7-0.5,6.6,8.3,6.6,8.3s-1.3,9.2,1.3,15.1c2.6,5.9-2.5,5.4-6.8-0.2c-4.3-5.6-7.6-9.9-10.6-13.9
			C267.6,391,272.9,390.9,280,385.6z"/>
		<g>
			<path class="st2" d="M288.7,400.6c-1.3-0.3-2.2-4.1-2.4-4.9c0-0.1,0-0.1,0-0.1l0,0l0,0c0-0.1,0-0.1,0.1-0.1l0,0l0,0
				c0-0.1,0.1-0.1,0.1-0.1l0,0l0,0l0,0l0,0l0,0c0.1,0,0.1-0.1,0.1-0.1c0.1-0.1,2.6-0.8,4-0.1c0.4,0.3,0.7,0.6,0.8,1.1
				c0.1,0.5,0,0.9-0.3,1.1c-0.5,0.3-1.3,0.1-2.3-0.4c0.6,0.7,1.1,1.4,1.2,2.1c0.1,0.4-0.1,0.6-0.2,0.9c-0.3,0.4-0.6,0.5-0.9,0.5
				C288.8,400.6,288.7,400.6,288.7,400.6z M288.8,400c0.1,0,0.2,0.1,0.5-0.3c0.1-0.1,0.2-0.3,0.1-0.5c-0.1-0.9-1.4-2.2-2.4-2.9
				C287.4,398,288.2,399.8,288.8,400z M287.2,395.7c1.4,0.9,3,1.6,3.4,1.3c0.1-0.1,0.1-0.4,0.1-0.5c-0.1-0.3-0.3-0.6-0.5-0.7
				c-0.4-0.2-0.8-0.3-1.3-0.3C288.3,395.5,287.7,395.6,287.2,395.7z"/>
		</g>
		<path class="st0" d="M301.8,403c0-0.9,10.6-0.2,10.6-0.2s6.5,6.6,12.9,8.1c6.3,1.5,2.8,5.3-4.3,5.3c-7.1,0-12.4,0-17.5,0
			C298.5,416.2,301.6,411.9,301.8,403z"/>
		<g>
			<path class="st2" d="M313.6,404.2c-0.1,0-0.1-0.1-0.1-0.1l0,0l0,0l-0.1-0.1l0,0l0,0c0-0.1,0-0.1,0-0.1l0,0l0,0l0,0l0,0
				c0-0.1,0-0.1,0-0.1c0.1-0.1,0.9-2.6,2.4-3.2c0.5-0.2,0.9-0.2,1.4,0.1c0.5,0.2,0.7,0.5,0.7,0.9c-0.1,0.6-0.8,1.1-1.7,1.5
				c0.9-0.1,1.8-0.1,2.4,0.3c0.3,0.2,0.5,0.4,0.6,0.7c0.2,0.6-0.1,1-0.3,1.1s-0.6,0.3-0.9,0.3C316.5,405.5,314.2,404.4,313.6,404.2z
				 M314.6,404c1.5,0.7,3.5,1.2,4,0.8c0.1-0.1,0.2-0.2,0.1-0.6c-0.1-0.2-0.2-0.3-0.3-0.4c-0.3-0.2-0.7-0.2-1.2-0.2
				C316.3,403.7,315.3,403.9,314.6,404z M316,401.2c-0.8,0.4-1.5,1.5-1.8,2.3c1.5-0.6,3.1-1.4,3.1-1.9c0-0.2-0.3-0.3-0.4-0.4
				c-0.2-0.1-0.3-0.1-0.5-0.1C316.4,401.1,316.2,401.1,316,401.2z"/>
		</g>
		<path class="st8" d="M307.2,142.4c-9.4-1.2-12.2-5.2-12.2-5.2c3.8-3.6,3.2-9,2.2-12.3c-0.5-1.9-1.1-3.1-1.1-3.1l11.3,2.1
			c-0.3,1.9-0.4,3.5-0.4,4.8c0,1.4,0.1,2.6,0.3,3.5c0.8,3.4,2.7,3.4,2.7,3.4C311.8,139.4,307.2,142.4,307.2,142.4z"/>
		<path class="st4" d="M306.8,128.7c0,1.4,0.1,2.6,0.3,3.5c-4.5-0.6-7.9-4.2-10-7.3c-0.5-1.9-1.1-3.1-1.1-3.1l11.3,2.1
			C307,125.8,306.8,127.4,306.8,128.7z"/>
		<g>
			<path class="st0" d="M320.6,102.6c0,0,4.7-1.3,3.7-4.6c-1-3.3-2.7-3.4-2.7-3.4s2.8-4,0.9-8.4c-1.9-4.4-7-3.2-7-3.2
				s0.4-4.8-4.1-6.1c-4.5-1.3-6.9,2.8-6.9,2.8s-2.8-4.4-7.5-3.7s-6.2,7-6.2,7s-4.1-1.9-6.7,2.5c-2.6,4.4,0,8.2,0,8.2
				s-2.8-1.7-4.2,2.9c-1.4,4.6,3.2,9.2,3.2,9.2s-2.7,0.1-1.7,3.7c1,3.6,5.4,4.1,5.4,4.1s-1.8,0.7,1.2,3.9c2.9,3.2,13.5,0,13.5,0
				L320.6,102.6z"/>
			<path class="st8" d="M308.8,93.9c9.8,1.4,12.1,7.1,11.4,17.2c-0.9,12.7-5,21.2-16.8,16.7C287.4,121.8,292.6,91.6,308.8,93.9z"/>
			<path class="st9" d="M314,109.7c0,0,1,2.7,2.3,4.4c0,0-1,1.2-2.7,0.7L314,109.7z"/>
			<g>
				<path class="st0" d="M308.1,108c-0.1,0.8-0.6,1.4-1.1,1.3c-0.5-0.1-0.9-0.8-0.8-1.5c0.1-0.8,0.6-1.4,1.1-1.3
					C307.8,106.5,308.2,107.2,308.1,108z"/>
				<path class="st0" d="M307.1,106.4l1.8-0.5C308.9,106,307.9,107.3,307.1,106.4z"/>
			</g>
			<g>
				<path class="st0" d="M318.1,109.1c-0.1,0.8-0.6,1.4-1.1,1.3c-0.5-0.1-0.9-0.8-0.8-1.5c0.1-0.8,0.6-1.4,1.1-1.3
					C317.8,107.5,318.2,108.2,318.1,109.1z"/>
				<path class="st0" d="M317.1,107.5l1.8-0.5C318.9,107,317.8,108.4,317.1,107.5z"/>
			</g>
			<path class="st10" d="M309,101.3c0,0-2.7-0.8-4.4,0.9"/>
			<path class="st10" d="M316.1,101.9c0,0,1.8-0.4,3.8,1.3"/>
			<path class="st0" d="M295.7,108.7c0,0,5.7-7.3,5.9-13.6c0,0,20.4-5.1,18.6,14.7c0,0,4.4-17.1-12.3-19.9s-20.2,21.7-12.5,30.3
				C295.4,120.1,292.2,113.4,295.7,108.7z"/>
			<path class="st8" d="M297,111.1c0.2-1.6-1.1-4.5-4-4.6c-3-0.1-5.4,5.9,1.9,8.5C296,115.3,296.7,114.4,297,111.1z"/>
			<path class="st10" d="M311.4,120c0,0-4.2,0.4-5.4-3.6"/>
			<path class="st2" d="M292.5,104.9c3.5-11.9,22.4-20.5,27.8-5.7c0,0-0.9-5.4-5.5-9.5c0,0-17.8-6.9-22.9,13.6L292.5,104.9z"/>
		</g>
		<g>
			<path class="st0" d="M333.1,151.5c-0.1,0.6,0.4,1.1,1,1.1h10.8c0.6,0,1.1-0.5,1.2-1.1l2.4-21.3c0.1-0.6-0.4-1.2-1-1.2h-10.8
				c-0.6,0-1.1,0.6-1.2,1.2L333.1,151.5z"/>
			<path class="st11" d="M336.7,130l-2.4,21.5c-0.1,0.6,0.3,1,0.8,1h9.1c0.6,0,1.8-0.4,1.8-0.9l2.4-21.6c0.1-0.6-1-1.1-1.6-1.1h-9.1
				C337.2,128.9,336.8,129.4,336.7,130z"/>
		</g>
		<path class="st3" d="M312.1,202.7c0,1,0.9,1.9,1.9,1.9c1,0,1.9-0.9,1.9-1.9s-0.9-1.9-1.9-1.9C313,200.8,312.1,201.7,312.1,202.7z"
			/>
		<path class="st8" d="M355.7,153.2l-5.6-9.6c0,0,0-5-0.5-6.2c-0.5-1.2-6-3.9-7.1-3.5c-1.1,0.4-1.5,10.3-0.5,11.6
			c1,1.3,4.4,2.8,4.4,2.8l-0.3,1.9l3.3,10L355.7,153.2z"/>
		<polygon class="st2" points="358,152.1 356.1,150.3 347.2,160.2 348.5,164.2 		"/>
		<path class="st4" d="M313,168c0,0-10.4,23.8-23.9,31.4c-0.2-5-0.9-23-3.5-33c-0.7-2.7-1.5-5.7-2.5-9l4.1-4.9c0,0,2.8,8.8,1.6,16.4
			l15.7-9.6L313,168z"/>
		<path class="st8" d="M303,162.6l12.8-10.1c0,0,2-5.4,2.7-6.4c0.8-0.9,12-5.1,13-5.2c0.9-0.1,0.1,9.2-1.4,10.8
			c-1.4,1.6-10.4,4.7-10.4,4.7l-13.4,12.7L303,162.6z"/>
		<g>
			<path class="st2" d="M277.4,139.6c-7.5,3.8-10.8,46.2,2.2,53.6c13,7.3,32.6-25.8,32.6-25.8l-7.6-8.1c0,0-15.9,13.3-17.8,12.1
				c-1.9-1.2,0.3-14.3,0.3-14.3s2.2-3.9-2.5-10.1C279.8,140.9,277.4,139.6,277.4,139.6z"/>
			<path class="st4" d="M277.4,139.6c-7.5,3.8-10.8,46.2,2.2,53.6c13,7.3,32.6-25.8,32.6-25.8l-7.6-8.1c0,0-15.9,13.3-17.8,12.1
				c-1.9-1.2,0.3-14.3,0.3-14.3s2.2-3.9-2.5-10.1C279.8,140.9,277.4,139.6,277.4,139.6z"/>
		</g>
		<polygon class="st2" points="312.3,170.4 314.5,169 306,156.5 302.9,158.2 		"/>
		<g>
			<path class="st2" d="M346.9,256.9c0,0.1,0.1,0.1,0.1,0.2c-2.1,0.3-3.8,4.1-5.7,5.4c-2.4,1.5-5.2,2.5-8,2.9
				c-5.3,0.8-10.8,0.2-16.1,1.2c-6.6,1.2-12.5,4.6-18.9,6.7c-4.5,1.5-11.9,3-16.2,0.1c-3.1-2.1-2.6-5.9-2.7-9.3
				c-0.3-10.7,0.1-21.3,1.5-31.9c1.3-9.4,3.6-19.5,7.5-29.1c0.3-0.7,0.6-1.4,0.9-2.2l37.9-2.9l0.3,1.8l2.4,13.6l4.5,11.4l11.2,28.2
				C345.9,254.2,346.5,255.6,346.9,256.9z"/>
			<path class="st3" d="M346.9,256.9c0,0.1,0.1,0.1,0.1,0.2c-2.1,0.3-3.8,4.1-5.7,5.4c-2.4,1.5-5.2,2.5-8,2.9
				c-5.3,0.8-10.8,0.2-16.1,1.2c-6.6,1.2-12.5,4.6-18.9,6.7c-4.5,1.5-11.9,3-16.2,0.1c-3.1-2.1-2.6-5.9-2.7-9.3
				c-0.3-10.7,0.1-21.3,1.5-31.9c1.3-9.4,3.6-19.5,7.5-29.1c0.3-0.7,0.6-1.4,0.9-2.2l37.9-2.9l0.3,1.8l2.4,13.6l4.5,11.4l11.2,28.2
				C345.9,254.2,346.5,255.6,346.9,256.9z"/>
		</g>
		<polygon points="289.2,200.8 287.6,204.7 327.9,202.7 327,197.9 		"/>
		<g>
			<polygon class="st2" points="300.6,199.8 300.1,205.1 298.6,205.1 298.9,199.8 			"/>
			<polygon class="st3" points="300.6,199.8 300.1,205.1 298.6,205.1 298.9,199.8 			"/>
		</g>
		<g>
			<polygon class="st2" points="321.8,198.3 322.4,203.7 323.7,203.7 323.3,198 			"/>
			<polygon class="st3" points="321.8,198.3 322.4,203.7 323.7,203.7 323.3,198 			"/>
		</g>
		<path class="st2" d="M310.5,199.3l0.5,4.4c0.1,0.5,0.5,0.8,1,0.8l5.9-0.5c0.5-0.1,0.9-0.5,0.8-1l-0.4-4.3c-0.1-0.5-0.5-0.8-1-0.8
			l-5.9,0.4C310.8,198.4,310.4,198.8,310.5,199.3z"/>
		<path class="st8" d="M323.4,134.6c-0.1,1.2-0.4,2.7-1.5,4.2c-0.6,0.8-1.4,1.5-2.5,2.3c-2.4,1.6-6.2,3-12.1,3.8
			c-3.7,0.5-6.9,0.5-9.7,0.1c-1.5-0.2-2.9-0.5-4.2-0.9c-4.8-1.4-7.9-4-9.8-6.2c2.1-0.5,4.2-1,6.3-1.4c0.6-0.1,1.1-0.2,1.7-0.3
			c0.6-0.1,1.1-0.2,1.7-0.3c5.6-1,11.4-1.6,17.1-1.8c2.1,0,4.2,0.1,6.2,0.1c0.9,0.1,1.8,0.1,2.6,0.2
			C320.8,134.4,322.2,134.5,323.4,134.6z"/>
		<path class="st0" d="M297.6,144.9c-1.5-0.2-2.9-0.5-4.2-0.9c-0.6-4-2.3-6.4-3.5-7.6c0.6-0.1,1.1-0.2,1.7-0.3
			C294.8,138.4,296.7,142.6,297.6,144.9z"/>
		<path class="st0" d="M321.9,138.8c-0.6,0.8-1.4,1.5-2.5,2.3c0.1-2.9-1.4-5.3-2.8-6.9c0.9,0.1,1.8,0.1,2.6,0.2
			C320.3,135.6,321.3,137.2,321.9,138.8z"/>
		<g>
			<path class="st2" d="M367.6,90.8h-13.7c-2.1,0-3.7,1.7-3.7,3.7v10.7c0,2.1,1.7,3.7,3.7,3.7h5.1l1.8,4.4l1.8-4.4h5.1
				c2.1,0,3.7-1.7,3.7-3.7V94.5C371.4,92.5,369.7,90.8,367.6,90.8z"/>
			<path class="st3" d="M355.6,96.2c1.3-2.2,3.9-1.3,5.2,0.4c1.3-1.7,3.9-2.5,5.2-0.3c2.2,3.7-2.5,7-4.6,8.3
				c-0.3,0.2-0.5,0.3-0.6,0.4c-0.2-0.1-0.4-0.2-0.6-0.4C357.9,103.3,353.3,99.8,355.6,96.2z"/>
		</g>
		<g>
			<path class="st2" d="M336.5,111.4h-6.9c-1,0-1.9,0.8-1.9,1.9v5.4c0,1,0.8,1.9,1.9,1.9h2.5l0.9,2.2l0.9-2.2h2.5
				c1,0,1.9-0.8,1.9-1.9v-5.3C338.4,112.3,337.5,111.4,336.5,111.4z"/>
			<path class="st3" d="M330.5,114.1c0.7-1.1,2-0.6,2.6,0.2c0.7-0.8,2-1.2,2.6-0.2c1.1,1.9-1.2,3.5-2.3,4.1
				c-0.1,0.1-0.2,0.2-0.3,0.2c-0.1-0.1-0.2-0.1-0.3-0.2C331.6,117.6,329.4,115.9,330.5,114.1z"/>
		</g>
	</g>
	<g id="_x3C_Group_x3E__65_">
		<g>
			<path class="st2" d="M178.9,331.4c-7.8,16.8-18.2,18.6-18.2,18.6l-12.4-14.5c0,0,8.9-5.4,10.9-11.8c2.1-6.5-1.8-48.8,9.2-57.6
				c0,0,1.3,3.4,3,8.6l0,0c3.4,10.3,8.4,27.7,9.2,41.6C181.2,322.3,180.7,327.6,178.9,331.4z"/>
			<path class="st12" d="M180.8,316.2c-10.8-19.3-11.9-33.2-9.2-41.6C174.9,284.9,180,302.4,180.8,316.2z"/>
		</g>
		<g>
			<path class="st0" d="M180.2,358.8c0,0-79.2-22.1-89.1,5.7c-10,27.8,62,49.9,101.7,51.3s56-26.5,44.3-53.1L180.2,358.8z"/>
			<path class="st4" d="M180.2,358.8c0,0-79.2-22.1-89.1,5.7c-10,27.8,62,49.9,101.7,51.3s56-26.5,44.3-53.1L180.2,358.8z"/>
		</g>
		<g>
			<path class="st2" d="M244.6,378.8L171,366.2c12.9-24.8,8.8-62.6-2.4-100.2c7.8-6.5,38.9-10.9,62.7-4c0,0,1.4,5.2,3.3,14.2
				c2.3,10.7,5.3,26.9,7.4,46C243.9,339.3,245.1,358.8,244.6,378.8z"/>
			<path class="st3" d="M244.6,378.8L171,366.2c10.9-21.1,9.7-51.4,2.2-83.1c6.2-11.9,14.3-13.5,14.3-13.5c8.1,11.4,24.8,0,24.8,0
				c15.5,9.3,24.7,28.9,27.7,36C242.9,326.2,245.3,352,244.6,378.8z"/>
			<path class="st12" d="M242,322.2c-5.5-4.5-10.5-10.5-13-18.3c-6-19,3.4-26.2,5.6-27.6C236.9,287,239.9,303.2,242,322.2z"/>
		</g>
		<path class="st2" d="M100.2,402.2c-0.6-0.5-1-1.1-1.2-1.8c-0.1-0.5,0.1-1,0.5-1.3c0.2-0.2,0.5-0.3,0.8-0.3
			c1.3,0.4,2.6,4.2,2.8,4.6c0.1,0.1,0,0.2-0.1,0.3c-0.1,0.1-0.2,0.1-0.3,0C101.8,403.4,101,402.8,100.2,402.2z M100.4,399.6
			c-0.1-0.1-0.2-0.2-0.3-0.2c-0.1-0.1-0.3,0-0.3,0.1c-0.3,0.2-0.4,0.6-0.4,0.9c0.6,1.2,1.6,2.2,2.8,2.7
			C101.9,401.8,101.3,400.6,100.4,399.6z"/>
		<path class="st2" d="M102.6,403.8l-0.1-0.1c-0.5-1.2-0.6-4.3,0.4-5c0.3-0.2,0.8-0.2,1.1,0.1c0.3,0.2,0.6,0.6,0.6,1
			c0.3,1.5-1.5,3.9-1.7,4c-0.1,0.1-0.2,0.1-0.3,0.1C102.7,403.9,102.6,403.9,102.6,403.8z M103.7,399.3l-0.1-0.1
			c-0.3-0.2-0.4-0.1-0.5-0.1c-0.6,0.4-0.7,2.6-0.4,3.9c0.5-0.7,1.4-2.2,1.2-3.2C104,399.7,103.9,399.5,103.7,399.3L103.7,399.3z"/>
		<path class="st2" d="M183.9,420.8c0.1,0.7-0.1,1.5-0.4,2.2c-0.3,0.4-0.8,0.6-1.2,0.6c-0.3,0-0.6-0.2-0.7-0.4
			c-0.7-1.2,1.2-4.9,1.4-5.3c0.1-0.1,0.2-0.2,0.2-0.1c0.1,0,0.2,0.1,0.2,0.2C183.6,418.8,183.8,419.8,183.9,420.8z M181.9,422.5
			c0,0.1,0.1,0.3,0.1,0.4c0.1,0.1,0.2,0.2,0.3,0.2c0.3,0.1,0.7-0.1,0.9-0.4c0.5-1.3,0.5-2.7-0.1-3.9
			C182.4,419.8,182,421.1,181.9,422.5z"/>
		<polygon class="st13" points="164.2,391.2 178.2,401.4 184.9,406.4 180.5,414 173.7,410.3 157,401.2 		"/>
		<path class="st0" d="M178.4,413.8l4.2-9.3c0.3-0.5,0.9-0.7,1.3-0.5l4.5,2.2c0,0,6.4,2.6,7.1,4.6c2.3,6-6.5,26.9-9.2,26.9
			c-1,0-1.6-1.5-1.8-2.5c-0.5-3.2-0.5-11.1-0.9-13.7c-0.5-3.1-3.6-5.4-5-6.4C178.3,414.8,178.2,414.3,178.4,413.8z"/>
		<path class="st2" d="M183.4,418l-0.1,0.1c-0.5,1.1-2.6,3.4-3.8,3.2c-0.4-0.1-0.7-0.4-0.7-0.8c-0.1-0.4,0-0.8,0.3-1.1
			c0.9-1.3,3.9-1.6,4-1.6c0.1,0,0.2,0.1,0.2,0.1C183.4,417.9,183.4,417.9,183.4,418z M179.3,420.2v0.1c0.1,0.4,0.2,0.4,0.3,0.4
			c0.7,0.2,2.3-1.3,3-2.5c-0.9,0.2-2.6,0.5-3.2,1.3C179.4,419.8,179.3,420,179.3,420.2L179.3,420.2z"/>
		<polygon class="st4" points="164.2,391.2 178.2,401.4 173.7,410.3 157,401.2 		"/>
		<g>
			<polygon class="st2" points="170.5,410.9 165.9,409.9 173.5,395.3 177.8,399.6 			"/>
			<polygon class="st3" points="170.5,410.9 165.9,409.9 173.5,395.3 177.8,399.6 			"/>
		</g>
		<polygon class="st13" points="135.1,408.8 118,411.7 109.8,413 107.4,404.5 114.9,402.3 133,396.7 		"/>
		<path class="st0" d="M109.1,403.2l3.7,9.6c0.2,0.5-0.1,1.1-0.6,1.3l-4.8,1.7c0,0-6.3,2.7-8.3,1.9c-5.9-2.5-14.7-23.4-12.8-25.5
			c0.7-0.7,2.2-0.1,3,0.5c2.6,1.9,8.3,7.4,10.5,8.9c2.5,1.8,6.4,1.2,8.1,0.9C108.4,402.4,108.9,402.7,109.1,403.2z"/>
		<polygon class="st4" points="135.1,408.8 118,411.7 114.9,402.3 133,396.7 		"/>
		<path class="st0" d="M117.8,400.5c0,0,71.3-42,95.4-40.9c24.1,1.1,26.2,25.1,16.3,38.4c-10,13.3-28.4,16.6-28.4,16.6
			s12.5-17.7,10.7-22.7c-1.8-5-8.7,11.8-8.7,11.8s-44.2,5.8-82.6,9L117.8,400.5z"/>
		<g>
			<polygon class="st2" points="116.7,399.4 120.6,396.7 125.7,412.3 119.6,412.3 			"/>
			<polygon class="st3" points="116.7,399.4 120.6,396.7 125.7,412.3 119.6,412.3 			"/>
		</g>
		<path class="st13" d="M198.4,272.1c10.4,0,17.1-10.9,17.1-10.9c-13.6-4.8-13.6-19.1-13.6-19.1l-5.2,5.1l-7.5,7.3
			c6.2,4.4,3.3,8.2,1.3,9.9c-0.7,0.6-1.3,1-1.3,1S188,272.1,198.4,272.1z"/>
		<path class="st4" d="M190.4,264.4c12.7,1.4,11.9-17.6,11.9-17.6c-2,0-3.9,0.1-5.7,0.4l-7.5,7.3C195.3,259,192.4,262.8,190.4,264.4
			z"/>
		<g>
			<g>
				<path class="st2" d="M216.8,237.8c1.5,1.5-4.8,5.6-15,2.1c-10.1-3.5-11.9-13.7-11.9-13.7S206.7,228,216.8,237.8z"/>
				<path class="st14" d="M216.8,237.8c1.5,1.5-4.8,5.6-15,2.1c-10.1-3.5-11.9-13.7-11.9-13.7S206.7,228,216.8,237.8z"/>
			</g>
			<path class="st0" d="M180.5,227.8c4.8,2,3.9,7.3-4.1,16.8c-4.9-4.2-7.6-13.9-5-17C174,224.6,176.3,226.1,180.5,227.8z"/>
			<path class="st13" d="M173.4,249.2C173.4,249.2,173.4,249.2,173.4,249.2c0.5,1.4,1,2.6,1.5,3.8c4.8,9.7,18.4,11.6,24.5,2
				c0-0.1,0.1-0.1,0.1-0.1c4-6.5,2.5-12.4,0.8-22.9c-0.3-2.2-1.2-4.3-2.5-6.1c-4.5-6.5-13.5-8.1-20-3.5
				C169.8,227.8,170.3,240.3,173.4,249.2z"/>
			<path class="st0" d="M185.5,238.3c0.2,0.8-0.1,1.6-0.7,1.8c-0.6,0.1-1.1-0.5-1.3-1.3c-0.2-0.8,0.1-1.6,0.6-1.8
				C184.8,236.8,185.3,237.4,185.5,238.3z"/>
			<path class="st0" d="M176,240.4c0.2,0.8-0.1,1.6-0.7,1.8c-0.6,0.1-1.1-0.5-1.3-1.3c-0.2-0.8,0.1-1.6,0.7-1.8
				C175.3,239,175.8,239.6,176,240.4z"/>
			<path class="st15" d="M179.2,240.1c-0.4,2.8-1.2,5.5-2.4,8.1c1.8,1,4.2-0.2,4.2-0.2L179.2,240.1z"/>
			<path class="st0" d="M187.5,234.6c0.1,0,0.2-0.1,0.3-0.2c0.2-0.2,0.2-0.5-0.1-0.7c-1.2-1.1-2.9-1.5-4.4-1.1
				c-0.3,0.1-0.4,0.3-0.4,0.6c0,0,0,0,0,0.1c0.1,0.3,0.4,0.4,0.6,0.4l0,0c1.2-0.3,2.6,0.1,3.5,0.9
				C187.2,234.6,187.4,234.7,187.5,234.6z"/>
			<path class="st0" d="M171,238.2c0.2-0.1,0.4-0.2,0.4-0.4c0.3-1.2,1.1-2.3,2.3-2.8c0.3-0.1,0.4-0.4,0.3-0.7
				c-0.1-0.3-0.4-0.4-0.6-0.3c-1.5,0.7-2.6,2-2.9,3.6c-0.1,0.3,0.1,0.5,0.4,0.6l0,0C170.8,238.2,170.9,238.2,171,238.2z"/>
			<path class="st0" d="M194.2,223.8c-4.4,2.7-2.7,7.8,6.7,16c4.2-5,5.3-14.9,2.2-17.6C200.1,219.6,198,221.4,194.2,223.8z"/>
			<path class="st13" d="M207,239.1c-0.2,2.6-1.3,5.1-3.4,6.9c-2.6,2.3-5.5,0.3-6-3c-0.5-2.9,0.3-7.7,3.6-8.8
				C204.6,233.2,207.2,235.8,207,239.1z"/>
			<path class="st16" d="M189.1,248.1c0,0-1.1,3.8-6.1,4.6"/>
			<path class="st0" d="M190.2,225.9c0,0-2.8,1-4.1,2.9c0,0-0.5-0.7,0-2.1c0,0-3,1.6-4.4,3.6c0,0-0.9-1.8-0.7-3.4c0,0-1.5,2.5-2,4.3
				c0,0-3.6-1.3-3.9-4.1c0,0-0.3,1.5,0,3.6c0,0-2.4-0.7-2.8-3.2c0,0-0.8,2-0.6,4.4c0,0-2.6-1.2-1.9-4.9c0.8-3.6,11-9.2,17-7.5
				C192.6,221.4,190.2,225.9,190.2,225.9z"/>
			<path class="st2" d="M169.4,228.7c0,0,0.1-10.5,4.4-14.5c4.3-4,19.5-5.2,27-1.3c7.5,3.9,4.8,18.1,4.8,18.1
				S190.1,223.2,169.4,228.7z"/>
			<path class="st0" d="M174.7,225.3c0,0,4.1-1.4,9.5-0.8c0,0,2.7-4.7-4-5C175.3,219.4,174.4,221.9,174.7,225.3z"/>
			<g>
				<path class="st2" d="M197.5,228.3l8.4,0.1c0,0,6.7,3.8,10.9,9.5C216.8,237.8,210.3,232.2,197.5,228.3z"/>
				<path class="st4" d="M197.5,228.3l8.4,0.1c0,0,6.7,3.8,10.9,9.5C216.8,237.8,210.3,232.2,197.5,228.3z"/>
			</g>
		</g>
		<path class="st4" d="M226.5,344.4L202,371.5c0,0-27.1-0.6-60,15.5c0,0-35.3-14.6-38.6-26.7c-3.3-12.1,74.2-3.6,74.2-3.6
			L226.5,344.4z"/>
		<path class="st13" d="M219.6,336.4l-39.3,12.9c0,0-14-3.1-16.6-3.1c-2.5,0-12.2,7.9-6.7,10.6s20.4,3.1,22.1,2.2
			c1.7-0.9,45.2-11.1,45.2-11.1L219.6,336.4z"/>
		<g>
			<path class="st2" d="M231.2,262c-8.9-1.7,6.6,52.5,2.7,60.5s-18.5,13-18.5,13l6.8,15c0,0,20.1-3.8,31-17.7
				C264.2,318.9,245.8,264.9,231.2,262z"/>
		</g>
		<g>
			<polygon class="st2" points="215.4,334.3 223.8,350.5 216.6,352.1 210.1,337.1 			"/>
			<polygon class="st1" points="215.4,334.3 223.8,350.5 216.6,352.1 210.1,337.1 			"/>
		</g>
		<g>
			<g>
				<path class="st0" d="M199.2,356.8v2.6c0,1.8-1.4,3.4-3.2,3.4h-95c-1.8,0-3.5-1.6-3.5-3.4v-2.6H199.2z"/>
				<path class="st1" d="M199.2,356.8v2.6c0,1.8-1.4,3.4-3.2,3.4h-95c-1.8,0-3.5-1.6-3.5-3.4v-2.6H199.2z"/>
				<path class="st1" d="M163.8,356.8v2.6c0,1.8-1.4,3.4-3.2,3.4H101c-1.8,0-3.5-1.6-3.5-3.4v-2.6H163.8z"/>
			</g>
			<g>
				<path class="st0" d="M160.5,360.3H97.7c-1.9,0-4-1.5-4.5-3.4l-14.4-45.2c-0.6-1.9,0.5-3.5,2.4-3.5H144c1.9,0,4,1.6,4.5,3.5
					l14.4,45.1C163.5,358.7,162.5,360.3,160.5,360.3z"/>
				<path class="st1" d="M160.5,360.3H97.7c-1.9,0-4-1.5-4.5-3.4l-14.4-45.2c-0.6-1.9,0.5-3.5,2.4-3.5H144c1.9,0,4,1.6,4.5,3.5
					l14.4,45.1C163.5,358.7,162.5,360.3,160.5,360.3z"/>
				<path class="st1" d="M158.2,360.3H97.7c-1.9,0-4-1.5-4.5-3.4l-14.4-45.2c-0.6-1.9,0.5-3.5,2.4-3.5h60.4c1.9,0,4,1.6,4.5,3.5
					l14.4,45.1C161.2,358.7,160.1,360.3,158.2,360.3z"/>
			</g>
			<path class="st1" d="M121.4,336.4c0.8,3-0.7,5.5-3.4,5.5s-5.4-2.4-6.1-5.5c-0.8-3,0.7-5.5,3.4-5.5
				C117.9,331,120.6,333.4,121.4,336.4z"/>
		</g>
		<g>
			<path class="st2" d="M115.9,281.7h-13.7c-2.1,0-3.7,1.7-3.7,3.7v10.7c0,2.1,1.7,3.7,3.7,3.7h5.1l1.8,4.4l1.8-4.4h5.1
				c2.1,0,3.7-1.7,3.7-3.7v-10.7C119.7,283.3,118,281.7,115.9,281.7z"/>
			<path class="st3" d="M103.9,287.1c1.3-2.2,3.9-1.3,5.2,0.4c1.3-1.7,3.9-2.5,5.2-0.3c2.2,3.7-2.5,7-4.6,8.3
				c-0.3,0.2-0.5,0.3-0.6,0.4c-0.2-0.1-0.4-0.2-0.6-0.4C106.2,294.1,101.6,290.7,103.9,287.1z"/>
		</g>
		<g>
			<path class="st2" d="M151.8,291.6h-6.9c-1,0-1.9,0.8-1.9,1.9v5.4c0,1,0.8,1.9,1.9,1.9h2.5l0.9,2.2l0.9-2.2h2.5
				c1,0,1.9-0.8,1.9-1.9v-5.4C153.6,292.4,152.8,291.6,151.8,291.6z"/>
			<path class="st3" d="M145.8,294.3c0.7-1.1,2-0.6,2.6,0.2c0.7-0.8,2-1.2,2.6-0.2c1.1,1.9-1.2,3.5-2.3,4.1
				c-0.1,0.1-0.2,0.2-0.3,0.2c-0.1-0.1-0.2-0.1-0.3-0.2C146.9,297.9,144.6,296.1,145.8,294.3z"/>
		</g>
		<g>
			<path class="st2" d="M135.2,257.1H126c-1.4,0-2.5,1.1-2.5,2.5v7.2c0,1.4,1.1,2.5,2.5,2.5h3.4l1.2,2.9l1.2-2.9h3.4
				c1.4,0,2.5-1.1,2.5-2.5v-7.2C137.7,258.2,136.6,257.1,135.2,257.1z"/>
			<path class="st3" d="M127.1,260.7c0.9-1.4,2.6-0.9,3.5,0.3c0.9-1.1,2.6-1.7,3.5-0.2c1.5,2.5-1.7,4.7-3.2,5.6
				c-0.2,0.1-0.3,0.2-0.4,0.3c-0.1-0.1-0.3-0.2-0.4-0.3C128.7,265.4,125.6,263.1,127.1,260.7z"/>
		</g>
		<path class="st1" d="M178.4,413.8l4.2-9.3c0.3-0.5,0.9-0.7,1.3-0.5l4.5,2.2c0,0,6.4,2.6,7.1,4.6c2.3,6-6.5,26.9-9.2,26.9
			c-1,0-1.6-1.5-1.8-2.5c-0.5-3.2-0.5-11.1-0.9-13.7c-0.5-3.1-3.6-5.4-5-6.4C178.3,414.8,178.2,414.3,178.4,413.8z"/>
		<path class="st1" d="M109.1,403.2l3.7,9.6c0.2,0.5-0.1,1.1-0.6,1.3l-4.8,1.7c0,0-6.3,2.7-8.3,1.9c-5.9-2.5-14.7-23.4-12.8-25.5
			c0.7-0.7,2.2-0.1,3,0.5c2.6,1.9,8.3,7.4,10.5,8.9c2.5,1.8,6.4,1.2,8.1,0.9C108.4,402.4,108.9,402.7,109.1,403.2z"/>
	</g>
</g>
</svg>
