<?xml version="1.0" encoding="utf-8"?>
<!-- Generator: Adobe Illustrator 25.2.0, SVG Export Plug-In . SVG Version: 6.00 Build 0)  -->
<svg version="1.1" id="Layer_1" xmlns="http://www.w3.org/2000/svg" xmlns:xlink="http://www.w3.org/1999/xlink" x="0px" y="0px"
	 viewBox="0 0 450 450" style="enable-background:new 0 0 450 450;" xml:space="preserve">
<style type="text/css">
	.st0{opacity:0.1;fill:#F0F0F0;}
	.st1{fill:#F0F0F0;}
	.st2{fill:#007CFF;}
	.st3{opacity:0.7;}
	.st4{fill:#FFFFFF;}
	.st5{opacity:0.4;}
	.st6{opacity:0.3;fill:#FFFFFF;enable-background:new    ;}
	.st7{opacity:0.7;fill:#FFFFFF;enable-background:new    ;}
	.st8{opacity:0.8;fill:#FFFFFF;enable-background:new    ;}
	.st9{fill:#E4897B;}
	.st10{opacity:0.3;enable-background:new    ;}
	.st11{fill:#1A2E35;}
	.st12{opacity:0.2;enable-background:new    ;}
	.st13{fill:#DE5753;}
	.st14{opacity:0.5;fill:#FFFFFF;enable-background:new    ;}
	.st15{opacity:0.2;fill:#FFFFFF;enable-background:new    ;}
	.st16{fill:#EBB376;}
	.st17{opacity:0.4;fill:#007CFF;enable-background:new    ;}
	.st18{fill:#D58745;}
	.st19{fill:#EEC1BB;}
	.st20{fill:#D4827D;}
	.st21{fill:#9F5B53;}
	.st22{fill:#892B29;}
	.st23{opacity:0.6;fill:#FFFFFF;enable-background:new    ;}
</style>
<g>
	<polygon class="st0" points="381.2,160.5 262.9,120.6 262.8,120.5 200.3,56.5 150.3,102.2 149.5,101.4 200.4,54.9 263.5,119.6 
		380.7,159.2 428.8,93 429.7,93.7 	"/>
	<g>
		<path class="st1" d="M13.6,258.7c0,3.2-2.6,5.8-5.8,5.8c-3.2,0-5.8-2.6-5.8-5.8s2.6-5.8,5.8-5.8C11.1,252.9,13.6,255.5,13.6,258.7
			z"/>
		<path class="st0" d="M206.2,55.7c0,3.2-2.6,5.8-5.8,5.8c-3.2,0-5.8-2.6-5.8-5.8s2.6-5.8,5.8-5.8C203.6,49.8,206.2,52.5,206.2,55.7
			z"/>
		<path class="st0" d="M435.1,93.4c0,3.2-2.6,5.8-5.8,5.8s-5.8-2.6-5.8-5.8s2.6-5.8,5.8-5.8S435.1,90.1,435.1,93.4z"/>
		<path class="st0" d="M435.6,401.7c0,3.2-2.6,5.8-5.8,5.8s-5.8-2.6-5.8-5.8s2.6-5.8,5.8-5.8C433,395.9,435.6,398.5,435.6,401.7z"/>
		<path class="st0" d="M269.1,120.1c0,3.2-2.6,5.8-5.8,5.8s-5.8-2.6-5.8-5.8c0-3.2,2.6-5.8,5.8-5.8
			C266.4,114.3,269.1,116.9,269.1,120.1z"/>
	</g>
	<polygon class="st0" points="161.1,401.9 160.7,401.8 14.1,374.1 14.3,373.1 160.4,400.6 262.7,119.9 263.7,120.3 	"/>
	
		<rect x="45.2" y="135.1" transform="matrix(0.6629 -0.7487 0.7487 0.6629 -110.7068 91.0398)" class="st0" width="1.1" height="66.8"/>
	<polygon class="st0" points="429.5,402.2 357,357.3 358.6,356.8 434.8,283.6 380.4,160.1 381.4,159.6 436.1,283.8 435.8,284.1 
		359.5,357.5 430.1,401.3 	"/>
	<polygon class="st0" points="14.7,373.9 13.7,373.3 57.5,305.6 7.1,258.8 7.4,258.4 70.7,189.9 71,190.2 359.2,356.9 358.6,357.8 
		70.9,191.3 8.6,258.7 58.9,305.5 	"/>
	<g>
		<g>
			<g>
				<path class="st2" d="M215,326.5c2.9,0.3,5.8,0.4,8.7,0.3c24.5-0.4,47-10.9,62.9-27.8c13.2-14,21.9-32.5,23.6-53.2
					c0.1-0.5,0.1-1.1,0.1-1.6c0.7-11.1-0.7-21.8-3.8-31.8l0,0c-9.5-30.6-35.3-54.5-68.1-60.6c-2.9-0.5-5.9-0.9-9-1.2
					c-7.3-0.6-14.5-0.3-21.5,0.8c-20.6,3.3-39,13.9-52.3,29.1c-12,13.7-19.8,31.3-21.5,50.8c-0.9,10.5,0.2,20.6,2.7,30.3
					C146.4,296.4,176.9,323.3,215,326.5z"/>
			</g>
			<g class="st3">
				<path class="st4" d="M215,326.5c2.9,0.3,5.8,0.4,8.7,0.3c24.5-0.4,47-10.9,62.9-27.8c13.2-14,21.9-32.5,23.6-53.2
					c0.1-0.5,0.1-1.1,0.1-1.6c0.7-11.1-0.7-21.8-3.8-31.8l0,0c-9.5-30.6-35.3-54.5-68.1-60.6c-2.9-0.5-5.9-0.9-9-1.2
					c-7.3-0.6-14.5-0.3-21.5,0.8c-20.6,3.3-39,13.9-52.3,29.1c-12,13.7-19.8,31.3-21.5,50.8c-0.9,10.5,0.2,20.6,2.7,30.3
					C146.4,296.4,176.9,323.3,215,326.5z"/>
			</g>
			<g>
				<path class="st2" d="M156.2,260c-0.3,1.7-2.4,2.2-4,2.4c-2.5,0.3-5.1,0.6-7.6,0.9c-1.2-3.2-4.9-3.2-7.5-2
					c9.4,34.9,39.9,61.9,78,65c2.9,0.3,5.8,0.4,8.7,0.3c0.1-0.1,0.1-0.2,0.2-0.2c1.3-2.3-0.6-4.3-1.6-6.3c-0.2-0.4-2.4-5.9-1.7-5.9
					c-2.3,0.1-4.7-0.3-6.9-0.9c-0.2-0.1-0.4-0.1-0.5-0.3c-0.2-0.4,0.3-0.7,0.7-0.8c1-0.3,2.1-0.3,3.2-0.6c1-0.3,2-0.9,2.4-1.9
					s0.1-2.1,0.3-3.2c0.3-1.3,1.3-2.3,2.5-2.8c1.1-0.6,2.4-0.7,3.6-1c-2.7-1.4-0.7-4.5-2.8-6.5c-0.7-0.7-1.7-1.4-1.2-2.3
					c0.4-0.8,1.8-0.8,2-1.7c0.1-0.6-0.5-1.1-1.1-1.2c-0.6-0.2-1.3-0.1-1.8-0.4c-0.8-0.4-1-1.6-0.5-2.3c0.5-0.6,1.3-0.8,2-1.2
					c0.7-0.4,1.3-1.2,0.9-1.9c-0.1-0.2-0.3-0.3-0.4-0.4c-1.1-0.7-2.6-0.1-3.7,0.6c-1.1,0.7-2.2,1.7-3.6,1.7
					c-0.3-0.5-0.1-1.2,0.4-1.5c0.2-0.1,0.4-0.2,0.5-0.3c0.3-0.3,0.1-0.8-0.2-1.2c-1-1.8-1.2-4.1-0.6-6.1c2.7,0.1,5.4,0.1,8.1,0.2
					c0.1-0.6,0.2-1,0.8-1.1c-1.8-2.2-3.8-4.1-5.4-6.5c-0.2-0.3-0.4-0.6-0.7-0.7c-0.3-0.1-0.7,0-1-0.1c-1.2-0.2-1.3-1.8-1.2-2.9
					c-0.2-0.4-0.7-0.2-0.9,0.1c-0.2,0.3-0.3,0.8-0.5,1c-0.4,0.4-1.1,0.4-1.7,0.2c-1.9-0.7-2.9-3.2-2.1-5c0.1-0.2,0.2-0.4,0.5-0.6
					c0.5-0.3,1,0.1,1.6,0.2c2.1,0.4,1.8-1.9,1.2-3c-0.7-1.4-2.7-2.4-4.1-2.8c-1.7-0.4-13.1-2.6-11.2-6.3c0.2-0.4,0.5-0.6,0.9-0.7
					c1.1-0.5,2.3-0.4,3.5-0.7c1.1-0.3,2.2-1.5,1.8-2.6c-0.2-0.4-0.6-0.7-0.8-1.1c-0.6-1.1,0.4-2.6-0.1-3.9c-0.2-0.6-0.7-1-1-1.5
					c-0.3-0.5-0.4-1.3,0.2-1.7c0.6-0.4,1.4,0.2,2-0.1c0.7-0.3,0.6-1.3,0-1.8c-0.6-0.4-1.4-0.3-2,0.2c-0.3,0.2-0.6,0.5-1,0.5
					c-0.7,0.1-1.1-0.6-1.5-1.1c-0.5-0.9-1.1-1.8-1.6-2.7c-0.6,0-1.1,0.6-1.3,1.1s-0.3,1.2-0.5,1.8c-1.1,2.7-5.3,2.4-4.8,6.1
					c1.1-0.2,2.2,1.1,1.8,2.2c-0.4,1.3-2.4,2-2.1,3.4c0.1,0.5,0.5,0.9,0.6,1.3c0.2,1.3-1.8,1.8-2.7,2.1c-2.9,1-3.1-0.9-5.6-1
					c-1.1-0.1-2.2,0.7-3.3,0.8c-1,0.1-2.1-0.3-3.2-0.3c-2.9,0.2-1.4,4.1-1.2,5.8c-1.6-1-3.6,0.2-4.9,1.6c-1.9,2.2-1.7,1.8-4.2,1.9
					c-0.7,0-1.3,0.4-1.7,1c-0.5,1.1,0.5,2.2,0.6,3.4c0,0.6-0.2,1.1-0.2,1.7c0.2,1.4,1.9,2.1,2.9,3.1c0.9,0.9,1.3,2.3,1.1,3.5
					c-0.7,0.1-1.5,0-2.2-0.2c-0.4-0.8-0.9-1.7-1.3-2.5c-0.4-0.7-0.8-1.5-1.5-2c-0.4-0.3-0.8-0.5-1.1-0.8c-0.6-0.8-0.1-1.8,0-2.7
					c0.3-2.2-0.8-6.1-1.3-8.3c-0.6-2.4-2.2-3.3-2.7-5.5c-0.1-0.4-0.6-0.5-1-0.3c-0.4,0.2-0.5,0.6-0.6,1c-0.2,0.9-0.2,1.9,0.3,2.7
					c-0.5-1.1-3.3,1.8-3.5,2.4c-0.3,0.9,0.3,2.2,0.3,3.2c-0.1,2.3-0.6,3.7-3.1,1.9c-0.9-0.7-2.1-1.4-3.1-0.9
					c0.2,0.6-0.2,1.3-0.8,1.7c-0.6,0.3-1.3,0.3-2,0.2c-0.5-0.1-0.9-0.2-1.2-0.6c-0.2-0.2-0.3-0.4-0.4-0.6c-0.6-0.5-1.4,0.4-1.8,1.1"
					/>
				<path class="st2" d="M262.9,190.6c0.5,0.8-0.1,1.8-0.6,2.5c-0.6,0.7-1.2,1.6-1,2.4c1,0.1,2.1,0.2,3.2,0.3c0.2,0,0.4,0.1,0.5,0.2
					c0.1,0.2,0.1,0.4,0.1,0.6c-0.1,0.7-0.2,1.3-0.3,2c-0.7,0.5-1.3-1.1-2.1-0.9c-0.4,0.1-0.6,0.5-0.7,0.8c-1.7,2.7-4.7,0.7-6.3-0.7
					c-1.9-1.6-4.5-1.7-7-1.8c-0.9,0-1.9,0-2.5,0.7c-0.6,0.6-0.6,1.6-0.9,2.4c-0.5,1.4-1.9,2.3-2.6,3.6c-2.7,4.6,2.1,8,6.2,6.8
					c2.1-0.6,1.8-1,3.9-0.4c0.9,0.3,2,0.1,2.5,1c0.6,1.1-0.3,2.5-1.4,2.4c-1.2,0-2.4,0.2-3.5-0.4c0.4,1.4-0.1,3.1-0.2,4.6
					c-1.4-0.3-2.7,1.4-2.1,2.7c0.7,0,1.6,0.3,1.6,0.9c0,0.2-0.1,0.4-0.3,0.6c-0.5,0.7-1.1,1.3-1.5,2c-0.6,1.1-0.6,4.5-2.2,4.9
					c-0.3,0.1-0.6,0.1-0.9,0.2c-0.6,0.2-0.9,0.9-0.8,1.5c0.2,0.6,0.7,1.1,1.3,1.2c0.4,0.1,0.8,0.1,1.2,0.3c2.1,0.7,0.3,2.8,0.8,3.8
					c0.3,0.5,3.7,2.7,4.1,2.8c-1.2,0.8-2.3,2.2-2.3,3.7c-0.1,1.7,1.2,2.5,2.8,3.1c1.7,0.5,3.8,0.7,5,1.2c0.7,0.3,1.4,0.5,2,0.1
					c0.7-0.6,0.5-1.9,1.3-2.2c0.3-0.1,0.6-0.1,0.8-0.2c1.7-0.2,2.9-1.9,2.6-3.5c0.4-0.5,1.1-0.5,1.8-0.4c0.6,0,1.4-0.2,1.5-0.8
					c0.1-0.7-0.8-1.1-1.5-1.1c-0.7-0.1-1.4,0-2.2,0.2c-0.5,0.1-1.1,0.3-1.6,0.1c-0.4-0.2-0.6-0.5-0.8-0.9c-0.5-0.8-1-1.8-0.9-2.8
					c0.1-1,0.9-2,1.9-2c0.3,0,0.5,0.1,0.8,0.1c0.7-0.1,1-0.9,0.9-1.6c-0.1-0.7-0.3-1.4-0.1-2c0.2-0.7,1.1-1.1,1.6-0.6
					c0.4-0.9,0.6-2.2-0.2-2.6c-0.3-0.2-0.6-0.1-0.9-0.2c-1.9-0.2-4.5-2.7-2.3-4.2c1.4-0.9,3.6,1,4.8-0.8c0.6-0.9,0.2-2.1,0.8-3
					c0.4-0.3,0.8,0.3,0.8,0.7c0.3,1.3-0.3,2.8-1.3,3.7c1.1,0.6,2.7-0.1,3.5,0.9c0.7,1-0.4,2.7,0.6,3.5c0.3,0.2,0.6,0.3,1,0.3
					c1.7,0.3,4.9-0.1,5,2.4c0,0.3-0.1,0.6,0.1,0.9c0.3,0.9,1.4,0.9,2.3,0.8c0.5-0.9-0.2-1.9-0.5-2.8c-0.4-0.9-0.4-2.3,0.6-2.5
					c0.7-0.2,1.5,0.4,2.1,0c0.3-0.2,0.4-0.6,0.7-0.7c0.7-0.4,1.3,0.7,2.1,0.9c1,0.3,1.8-1,1.8-2.1s-0.3-2.3,0.5-3.2
					c0.2-0.3,0.5-0.5,0.8-0.7c0.8-0.7,0.9-1.9,1-2.9c0.2-1.7,6.9,2.7,7.3,2.8c3.2,0.5,5.2-2.6,7.4-4.4c1.1-0.9,2.5-1.6,3.8-2.2
					c-9.2-29.5-33.8-52.6-63.9-59.8c-1.3-0.3-2.7-0.7-4.1-0.8c0.4,2.1,1.7,5.3,0.3,7.2c-1.8,2.5-5.4,0.3-6.8,3.2
					c-0.1,0.7,1.2,0.6,1.8,1.1c0.3,0.3,0.4,0.7,0.6,1.1c0.2,0.4,0.5,0.8,0.9,0.6c0.5,0.7-0.3,1.6-0.9,2.1c-0.7,0.7-1.4,1.4-1.7,2.3
					c-0.6,1.9,0.7,3.9,1.6,5.7c0.7,1.5,1,3.2,1.4,4.8c0-0.8,1.1-1.1,1.8-0.7c0.7,0.4,1.1,1,1.7,1.6c0.9,0.9,2.2,0.4,3.2,1.1
					c1.3,1,2.1,2.7,3.7,2.9c1.9,0.3,3.3-1.7,4.1-3.5c2.1,1.1,3.4,3.8,5.7,4c0.9,0.1,1.8-0.3,2.6-0.6c1.8-0.7,3.5-1.3,5.2-2.1
					c0.7-0.3,1.5-0.6,2.2-0.3c0.9,0.3,1.3,1.2,1.7,2.1c0.4,0.9,0.7,1.8,1.1,2.7c0.2,0.4,0.3,0.8,0.2,1.2c-0.1,0.4-0.5,0.7-0.8,0.9
					c-2,1.3-4.4,1.8-6.7,1.4c0.2,3.2,0.8,6.3,1.9,9.3c-1.8-0.5-3.8,0.2-5.4-0.6"/>
				<path class="st2" d="M242.7,262.3c-0.7,0.8-1.7,1.4-2.6,1.3c-0.6,0-1.2-0.3-1.9-0.4c-0.6-0.1-1.3,0.1-1.7,0.6
					c-0.5,0.7,0,1.6,0.4,2.3c0.4,0.6,0.7,1.2,1.4,1.3c0.5,0.2,1,0,1.4,0.1c0.9,0.2,1.6,1,2.2,1.8c0.6,0.7,1.7,1.4,2.5,0.9
					c0.6-0.3,0.8-1,1.3-1.3c1.3-0.8,2.9,1,4.1,0.3c1.4-0.8,0.9-3.1,0.3-4.3c-0.6-1.3-1.8-2.3-2.8-3.3
					C244.4,258.8,244.7,259.8,242.7,262.3z"/>
				<path class="st2" d="M286.7,298.9c13.9-13.8,22-33.8,23.6-53.1c0.1-0.5,0.1-1.1,0.1-1.6c-2.7-2.7-8-4.5-9.4,0.5
					c-0.6-0.1-0.7-0.4-1.1-0.7c-0.7-0.5-1.6,0.2-2,0.9c-1.2,2.4-1.4,5.4-4.7,4.8c-4-0.8-1.3-2.5-2.6-4.7c-0.2-0.3-0.5-0.5-0.8-0.8
					c-0.9-1-0.8-2.5-0.6-3.8c0.8,0.4,1.8-0.1,2.1-0.9c0.1-0.3,0.1-0.7,0.3-0.9c0.5-0.5,1.4-0.1,1.6,0.6c0.2,0.7,0.1,1.4,0.2,2.1
					c0.2,0.7,0.9,1.3,1.5,1c0.3-0.2,0.4-0.4,0.5-0.7c0.4-1.2,0.1-2.5-0.7-3.5c0.7-0.2,1.1-0.8,1.1-1.5s-0.5-1.3-1.2-1.4
					c-1-0.2-2.3,0.4-2.7-0.6c0.2,0.8-0.2,1.7-0.8,2.1c-2.5,1.9-8.3,0.2-7.8,5.6c0.1,0.9,0.4,1.7,0.4,2.6c0,0.9-0.5,1.9-1.3,2
					c1.6,1.2,1,4.1,2.6,5.2c0.8,0.5,1.9,0.4,2.6-0.3c0.1-0.1,0.2-0.3,0.4-0.3c0.3-0.1,0.6,0.2,0.9,0.3c0.5,0.1,1-0.5,1.6-0.5
					c0.8-0.1,1.2,0.9,1.3,1.7c0.2,0.8,0.4,1.7,1.1,1.9c0.3,0.1,0.5,0.1,0.8,0.1c0.5,0.2,0.8,0.7,0.8,1.2c0.1,0.5-0.2,1-0.4,1.6
					c-0.3,0.3-0.9,0.1-1.2-0.2c-0.3-0.3-0.5-0.8-0.8-1.1c-0.2-0.2-4.8,0.2-4.7-0.2c-0.7,1.6-1,5.1-3.4,4.2c-0.8-0.3-1.7-0.9-2.6-0.6
					c0.4-1.1,0.8-2.2,1.2-3.4c-0.4-0.3-0.9,0.1-1,0.6c-0.2,0.5-0.2,1-0.6,1.2c-0.3,0.2-0.6,0.2-0.9,0.2c-1.1,0-2.1-0.1-3.2-0.1
					c-1.1,0-2.5,0.1-3.2,0.9c-0.8,1-0.4,2.6,0.5,3.6c0.2,0.3,0.5,0.5,0.4,0.8c0,0.3-0.3,0.5-0.5,0.7c-1.1,1-1.8,2.5-1.6,4
					c0.3,1.5,1.6,2.8,3.1,2.7c0.6-0.1,1.3-0.3,1.7,0.2c0.2,0.3,0.2,0.7,0.5,0.9c0.4,0.2,0.7-0.3,1-0.6c0.5-0.6,1.4-0.7,2.1-0.4
					c0.4,0.2,1.4,3.5,1.1,3.9c-0.6,1.1-3.7,0.7-4.9,0.7c-0.5,0-1,0.1-1.2,0.4c-0.5,0.5-0.1,1.4,0.4,1.9c0.5,0.5,1.2,0.9,1.4,1.6
					c0.2,0.4,0.2,0.8,0.1,1.2c-0.1,0.8-0.1,1.8-0.8,2.3c-0.3,0.3-0.7,0.4-1,0.6c-0.7,0.6-0.7,1.7-0.5,2.5c0.3,0.9,0.7,1.7,0.9,2.5
					c0.4,1.9-0.7,3.9,0.1,5.7c0.4,0.8,1.5,1.6,2.2,0.9c0.6-0.5,0.6-1.8,1.4-1.8c0.8-0.1,1.7,1.8,2.3,2.2c0.5,0.3,1.5-0.2,2.4,0.5
					C285.7,297.1,285.9,298.3,286.7,298.9z"/>
				<path class="st2" d="M168.8,181.2c0.8-1,1.3-2.1,2.7-2.4c2-0.4,2.7,0.8,1.9,2.7c-0.1,0.2-0.2,0.4-0.1,0.5c0.2,0.6,1,0.3,1.5-0.1
					c1.1-0.8,2.6-0.7,3.8-0.2c0.3,0.1,0.8-5.3,0.6-6c-1-2.2-5.6-1.2-4.7-3.6c1.7-0.1,3.5,0.2,5.2,0.3c0.1-0.8,0.2-1.7,0.3-2.5
					c-0.1,0.6,3.2,0.5,3.5,0.3c1.4-0.7,1-3.3,3.6-2.9c3.2,0.5,3.4,6.9-0.3,5.8c-0.9,1.9-1.2,4.1-1.3,6.2c-0.7,0-1.3,0-2,0
					c-0.3,0.5-0.4,1.1-0.3,1.6c1.6,1.1,3.9,1.1,5.5,0.1c1,0.8,2.5,0.1,3.6-0.7c1.5,2.4,5.8,2.1,6.9-0.6c1.1-2.6-1.7-6-4.5-5.4
					c-0.1-1.3-0.5-2.6-1.3-3.7c3.5,0.1,6.9-2.2,8-5.5c0.6-1.7,0.7-3.7,2.1-4.7c0.6-0.5,1.4-0.7,2.1-1.1c1.4-1,1.9-2.9,2.1-4.6
					c0.2-1.1,0.3-2.3,0.3-3.5c-20.6,3.3-39,13.9-52.3,29.1c-0.1,0.6-0.1,1.2,0.2,1.8c0.5,1,1.7,1.4,2.7,1.7c4.2,1.1,6.9,0.9,9.9-2.4
					C168.6,181.4,168.7,181.3,168.8,181.2z"/>
			</g>
			<g class="st5">
				<path class="st4" d="M156.2,260c-0.3,1.7-2.4,2.2-4,2.4c-2.5,0.3-5.1,0.6-7.6,0.9c-1.2-3.2-4.9-3.2-7.5-2
					c9.4,34.9,39.9,61.9,78,65c2.9,0.3,5.8,0.4,8.7,0.3c0.1-0.1,0.1-0.2,0.2-0.2c1.3-2.3-0.6-4.3-1.6-6.3c-0.2-0.4-2.4-5.9-1.7-5.9
					c-2.3,0.1-4.7-0.3-6.9-0.9c-0.2-0.1-0.4-0.1-0.5-0.3c-0.2-0.4,0.3-0.7,0.7-0.8c1-0.3,2.1-0.3,3.2-0.6c1-0.3,2-0.9,2.4-1.9
					s0.1-2.1,0.3-3.2c0.3-1.3,1.3-2.3,2.5-2.8c1.1-0.6,2.4-0.7,3.6-1c-2.7-1.4-0.7-4.5-2.8-6.5c-0.7-0.7-1.7-1.4-1.2-2.3
					c0.4-0.8,1.8-0.8,2-1.7c0.1-0.6-0.5-1.1-1.1-1.2c-0.6-0.2-1.3-0.1-1.8-0.4c-0.8-0.4-1-1.6-0.5-2.3c0.5-0.6,1.3-0.8,2-1.2
					c0.7-0.4,1.3-1.2,0.9-1.9c-0.1-0.2-0.3-0.3-0.4-0.4c-1.1-0.7-2.6-0.1-3.7,0.6c-1.1,0.7-2.2,1.7-3.6,1.7
					c-0.3-0.5-0.1-1.2,0.4-1.5c0.2-0.1,0.4-0.2,0.5-0.3c0.3-0.3,0.1-0.8-0.2-1.2c-1-1.8-1.2-4.1-0.6-6.1c2.7,0.1,5.4,0.1,8.1,0.2
					c0.1-0.6,0.2-1,0.8-1.1c-1.8-2.2-3.8-4.1-5.4-6.5c-0.2-0.3-0.4-0.6-0.7-0.7c-0.3-0.1-0.7,0-1-0.1c-1.2-0.2-1.3-1.8-1.2-2.9
					c-0.2-0.4-0.7-0.2-0.9,0.1c-0.2,0.3-0.3,0.8-0.5,1c-0.4,0.4-1.1,0.4-1.7,0.2c-1.9-0.7-2.9-3.2-2.1-5c0.1-0.2,0.2-0.4,0.5-0.6
					c0.5-0.3,1,0.1,1.6,0.2c2.1,0.4,1.8-1.9,1.2-3c-0.7-1.4-2.7-2.4-4.1-2.8c-1.7-0.4-13.1-2.6-11.2-6.3c0.2-0.4,0.5-0.6,0.9-0.7
					c1.1-0.5,2.3-0.4,3.5-0.7c1.1-0.3,2.2-1.5,1.8-2.6c-0.2-0.4-0.6-0.7-0.8-1.1c-0.6-1.1,0.4-2.6-0.1-3.9c-0.2-0.6-0.7-1-1-1.5
					c-0.3-0.5-0.4-1.3,0.2-1.7c0.6-0.4,1.4,0.2,2-0.1c0.7-0.3,0.6-1.3,0-1.8c-0.6-0.4-1.4-0.3-2,0.2c-0.3,0.2-0.6,0.5-1,0.5
					c-0.7,0.1-1.1-0.6-1.5-1.1c-0.5-0.9-1.1-1.8-1.6-2.7c-0.6,0-1.1,0.6-1.3,1.1s-0.3,1.2-0.5,1.8c-1.1,2.7-5.3,2.4-4.8,6.1
					c1.1-0.2,2.2,1.1,1.8,2.2c-0.4,1.3-2.4,2-2.1,3.4c0.1,0.5,0.5,0.9,0.6,1.3c0.2,1.3-1.8,1.8-2.7,2.1c-2.9,1-3.1-0.9-5.6-1
					c-1.1-0.1-2.2,0.7-3.3,0.8c-1,0.1-2.1-0.3-3.2-0.3c-2.9,0.2-1.4,4.1-1.2,5.8c-1.6-1-3.6,0.2-4.9,1.6c-1.9,2.2-1.7,1.8-4.2,1.9
					c-0.7,0-1.3,0.4-1.7,1c-0.5,1.1,0.5,2.2,0.6,3.4c0,0.6-0.2,1.1-0.2,1.7c0.2,1.4,1.9,2.1,2.9,3.1c0.9,0.9,1.3,2.3,1.1,3.5
					c-0.7,0.1-1.5,0-2.2-0.2c-0.4-0.8-0.9-1.7-1.3-2.5c-0.4-0.7-0.8-1.5-1.5-2c-0.4-0.3-0.8-0.5-1.1-0.8c-0.6-0.8-0.1-1.8,0-2.7
					c0.3-2.2-0.8-6.1-1.3-8.3c-0.6-2.4-2.2-3.3-2.7-5.5c-0.1-0.4-0.6-0.5-1-0.3c-0.4,0.2-0.5,0.6-0.6,1c-0.2,0.9-0.2,1.9,0.3,2.7
					c-0.5-1.1-3.3,1.8-3.5,2.4c-0.3,0.9,0.3,2.2,0.3,3.2c-0.1,2.3-0.6,3.7-3.1,1.9c-0.9-0.7-2.1-1.4-3.1-0.9
					c0.2,0.6-0.2,1.3-0.8,1.7c-0.6,0.3-1.3,0.3-2,0.2c-0.5-0.1-0.9-0.2-1.2-0.6c-0.2-0.2-0.3-0.4-0.4-0.6c-0.6-0.5-1.4,0.4-1.8,1.1"
					/>
				<path class="st4" d="M262.9,190.6c0.5,0.8-0.1,1.8-0.6,2.5c-0.6,0.7-1.2,1.6-1,2.4c1,0.1,2.1,0.2,3.2,0.3c0.2,0,0.4,0.1,0.5,0.2
					c0.1,0.2,0.1,0.4,0.1,0.6c-0.1,0.7-0.2,1.3-0.3,2c-0.7,0.5-1.3-1.1-2.1-0.9c-0.4,0.1-0.6,0.5-0.7,0.8c-1.7,2.7-4.7,0.7-6.3-0.7
					c-1.9-1.6-4.5-1.7-7-1.8c-0.9,0-1.9,0-2.5,0.7c-0.6,0.6-0.6,1.6-0.9,2.4c-0.5,1.4-1.9,2.3-2.6,3.6c-2.7,4.6,2.1,8,6.2,6.8
					c2.1-0.6,1.8-1,3.9-0.4c0.9,0.3,2,0.1,2.5,1c0.6,1.1-0.3,2.5-1.4,2.4c-1.2,0-2.4,0.2-3.5-0.4c0.4,1.4-0.1,3.1-0.2,4.6
					c-1.4-0.3-2.7,1.4-2.1,2.7c0.7,0,1.6,0.3,1.6,0.9c0,0.2-0.1,0.4-0.3,0.6c-0.5,0.7-1.1,1.3-1.5,2c-0.6,1.1-0.6,4.5-2.2,4.9
					c-0.3,0.1-0.6,0.1-0.9,0.2c-0.6,0.2-0.9,0.9-0.8,1.5c0.2,0.6,0.7,1.1,1.3,1.2c0.4,0.1,0.8,0.1,1.2,0.3c2.1,0.7,0.3,2.8,0.8,3.8
					c0.3,0.5,3.7,2.7,4.1,2.8c-1.2,0.8-2.3,2.2-2.3,3.7c-0.1,1.7,1.2,2.5,2.8,3.1c1.7,0.5,3.8,0.7,5,1.2c0.7,0.3,1.4,0.5,2,0.1
					c0.7-0.6,0.5-1.9,1.3-2.2c0.3-0.1,0.6-0.1,0.8-0.2c1.7-0.2,2.9-1.9,2.6-3.5c0.4-0.5,1.1-0.5,1.8-0.4c0.6,0,1.4-0.2,1.5-0.8
					c0.1-0.7-0.8-1.1-1.5-1.1c-0.7-0.1-1.4,0-2.2,0.2c-0.5,0.1-1.1,0.3-1.6,0.1c-0.4-0.2-0.6-0.5-0.8-0.9c-0.5-0.8-1-1.8-0.9-2.8
					c0.1-1,0.9-2,1.9-2c0.3,0,0.5,0.1,0.8,0.1c0.7-0.1,1-0.9,0.9-1.6c-0.1-0.7-0.3-1.4-0.1-2c0.2-0.7,1.1-1.1,1.6-0.6
					c0.4-0.9,0.6-2.2-0.2-2.6c-0.3-0.2-0.6-0.1-0.9-0.2c-1.9-0.2-4.5-2.7-2.3-4.2c1.4-0.9,3.6,1,4.8-0.8c0.6-0.9,0.2-2.1,0.8-3
					c0.4-0.3,0.8,0.3,0.8,0.7c0.3,1.3-0.3,2.8-1.3,3.7c1.1,0.6,2.7-0.1,3.5,0.9c0.7,1-0.4,2.7,0.6,3.5c0.3,0.2,0.6,0.3,1,0.3
					c1.7,0.3,4.9-0.1,5,2.4c0,0.3-0.1,0.6,0.1,0.9c0.3,0.9,1.4,0.9,2.3,0.8c0.5-0.9-0.2-1.9-0.5-2.8c-0.4-0.9-0.4-2.3,0.6-2.5
					c0.7-0.2,1.5,0.4,2.1,0c0.3-0.2,0.4-0.6,0.7-0.7c0.7-0.4,1.3,0.7,2.1,0.9c1,0.3,1.8-1,1.8-2.1s-0.3-2.3,0.5-3.2
					c0.2-0.3,0.5-0.5,0.8-0.7c0.8-0.7,0.9-1.9,1-2.9c0.2-1.7,6.9,2.7,7.3,2.8c3.2,0.5,5.2-2.6,7.4-4.4c1.1-0.9,2.5-1.6,3.8-2.2
					c-9.2-29.5-33.8-52.6-63.9-59.8c-1.3-0.3-2.7-0.7-4.1-0.8c0.4,2.1,1.7,5.3,0.3,7.2c-1.8,2.5-5.4,0.3-6.8,3.2
					c-0.1,0.7,1.2,0.6,1.8,1.1c0.3,0.3,0.4,0.7,0.6,1.1c0.2,0.4,0.5,0.8,0.9,0.6c0.5,0.7-0.3,1.6-0.9,2.1c-0.7,0.7-1.4,1.4-1.7,2.3
					c-0.6,1.9,0.7,3.9,1.6,5.7c0.7,1.5,1,3.2,1.4,4.8c0-0.8,1.1-1.1,1.8-0.7c0.7,0.4,1.1,1,1.7,1.6c0.9,0.9,2.2,0.4,3.2,1.1
					c1.3,1,2.1,2.7,3.7,2.9c1.9,0.3,3.3-1.7,4.1-3.5c2.1,1.1,3.4,3.8,5.7,4c0.9,0.1,1.8-0.3,2.6-0.6c1.8-0.7,3.5-1.3,5.2-2.1
					c0.7-0.3,1.5-0.6,2.2-0.3c0.9,0.3,1.3,1.2,1.7,2.1c0.4,0.9,0.7,1.8,1.1,2.7c0.2,0.4,0.3,0.8,0.2,1.2c-0.1,0.4-0.5,0.7-0.8,0.9
					c-2,1.3-4.4,1.8-6.7,1.4c0.2,3.2,0.8,6.3,1.9,9.3c-1.8-0.5-3.8,0.2-5.4-0.6"/>
				<path class="st4" d="M242.7,262.3c-0.7,0.8-1.7,1.4-2.6,1.3c-0.6,0-1.2-0.3-1.9-0.4c-0.6-0.1-1.3,0.1-1.7,0.6
					c-0.5,0.7,0,1.6,0.4,2.3c0.4,0.6,0.7,1.2,1.4,1.3c0.5,0.2,1,0,1.4,0.1c0.9,0.2,1.6,1,2.2,1.8c0.6,0.7,1.7,1.4,2.5,0.9
					c0.6-0.3,0.8-1,1.3-1.3c1.3-0.8,2.9,1,4.1,0.3c1.4-0.8,0.9-3.1,0.3-4.3c-0.6-1.3-1.8-2.3-2.8-3.3
					C244.4,258.8,244.7,259.8,242.7,262.3z"/>
				<path class="st4" d="M286.7,298.9c13.9-13.8,22-33.8,23.6-53.1c0.1-0.5,0.1-1.1,0.1-1.6c-2.7-2.7-8-4.5-9.4,0.5
					c-0.6-0.1-0.7-0.4-1.1-0.7c-0.7-0.5-1.6,0.2-2,0.9c-1.2,2.4-1.4,5.4-4.7,4.8c-4-0.8-1.3-2.5-2.6-4.7c-0.2-0.3-0.5-0.5-0.8-0.8
					c-0.9-1-0.8-2.5-0.6-3.8c0.8,0.4,1.8-0.1,2.1-0.9c0.1-0.3,0.1-0.7,0.3-0.9c0.5-0.5,1.4-0.1,1.6,0.6c0.2,0.7,0.1,1.4,0.2,2.1
					c0.2,0.7,0.9,1.3,1.5,1c0.3-0.2,0.4-0.4,0.5-0.7c0.4-1.2,0.1-2.5-0.7-3.5c0.7-0.2,1.1-0.8,1.1-1.5s-0.5-1.3-1.2-1.4
					c-1-0.2-2.3,0.4-2.7-0.6c0.2,0.8-0.2,1.7-0.8,2.1c-2.5,1.9-8.3,0.2-7.8,5.6c0.1,0.9,0.4,1.7,0.4,2.6c0,0.9-0.5,1.9-1.3,2
					c1.6,1.2,1,4.1,2.6,5.2c0.8,0.5,1.9,0.4,2.6-0.3c0.1-0.1,0.2-0.3,0.4-0.3c0.3-0.1,0.6,0.2,0.9,0.3c0.5,0.1,1-0.5,1.6-0.5
					c0.8-0.1,1.2,0.9,1.3,1.7c0.2,0.8,0.4,1.7,1.1,1.9c0.3,0.1,0.5,0.1,0.8,0.1c0.5,0.2,0.8,0.7,0.8,1.2c0.1,0.5-0.2,1-0.4,1.6
					c-0.3,0.3-0.9,0.1-1.2-0.2c-0.3-0.3-0.5-0.8-0.8-1.1c-0.2-0.2-4.8,0.2-4.7-0.2c-0.7,1.6-1,5.1-3.4,4.2c-0.8-0.3-1.7-0.9-2.6-0.6
					c0.4-1.1,0.8-2.2,1.2-3.4c-0.4-0.3-0.9,0.1-1,0.6c-0.2,0.5-0.2,1-0.6,1.2c-0.3,0.2-0.6,0.2-0.9,0.2c-1.1,0-2.1-0.1-3.2-0.1
					c-1.1,0-2.5,0.1-3.2,0.9c-0.8,1-0.4,2.6,0.5,3.6c0.2,0.3,0.5,0.5,0.4,0.8c0,0.3-0.3,0.5-0.5,0.7c-1.1,1-1.8,2.5-1.6,4
					c0.3,1.5,1.6,2.8,3.1,2.7c0.6-0.1,1.3-0.3,1.7,0.2c0.2,0.3,0.2,0.7,0.5,0.9c0.4,0.2,0.7-0.3,1-0.6c0.5-0.6,1.4-0.7,2.1-0.4
					c0.4,0.2,1.4,3.5,1.1,3.9c-0.6,1.1-3.7,0.7-4.9,0.7c-0.5,0-1,0.1-1.2,0.4c-0.5,0.5-0.1,1.4,0.4,1.9c0.5,0.5,1.2,0.9,1.4,1.6
					c0.2,0.4,0.2,0.8,0.1,1.2c-0.1,0.8-0.1,1.8-0.8,2.3c-0.3,0.3-0.7,0.4-1,0.6c-0.7,0.6-0.7,1.7-0.5,2.5c0.3,0.9,0.7,1.7,0.9,2.5
					c0.4,1.9-0.7,3.9,0.1,5.7c0.4,0.8,1.5,1.6,2.2,0.9c0.6-0.5,0.6-1.8,1.4-1.8c0.8-0.1,1.7,1.8,2.3,2.2c0.5,0.3,1.5-0.2,2.4,0.5
					C285.7,297.1,285.9,298.3,286.7,298.9z"/>
				<path class="st4" d="M168.8,181.2c0.8-1,1.3-2.1,2.7-2.4c2-0.4,2.7,0.8,1.9,2.7c-0.1,0.2-0.2,0.4-0.1,0.5c0.2,0.6,1,0.3,1.5-0.1
					c1.1-0.8,2.6-0.7,3.8-0.2c0.3,0.1,0.8-5.3,0.6-6c-1-2.2-5.6-1.2-4.7-3.6c1.7-0.1,3.5,0.2,5.2,0.3c0.1-0.8,0.2-1.7,0.3-2.5
					c-0.1,0.6,3.2,0.5,3.5,0.3c1.4-0.7,1-3.3,3.6-2.9c3.2,0.5,3.4,6.9-0.3,5.8c-0.9,1.9-1.2,4.1-1.3,6.2c-0.7,0-1.3,0-2,0
					c-0.3,0.5-0.4,1.1-0.3,1.6c1.6,1.1,3.9,1.1,5.5,0.1c1,0.8,2.5,0.1,3.6-0.7c1.5,2.4,5.8,2.1,6.9-0.6c1.1-2.6-1.7-6-4.5-5.4
					c-0.1-1.3-0.5-2.6-1.3-3.7c3.5,0.1,6.9-2.2,8-5.5c0.6-1.7,0.7-3.7,2.1-4.7c0.6-0.5,1.4-0.7,2.1-1.1c1.4-1,1.9-2.9,2.1-4.6
					c0.2-1.1,0.3-2.3,0.3-3.5c-20.6,3.3-39,13.9-52.3,29.1c-0.1,0.6-0.1,1.2,0.2,1.8c0.5,1,1.7,1.4,2.7,1.7c4.2,1.1,6.9,0.9,9.9-2.4
					C168.6,181.4,168.7,181.3,168.8,181.2z"/>
			</g>
		</g>
	</g>
	<g>
		<g>
			<path class="st2" d="M7.8,146.3c0,4.8,2.6,9,6.5,11.2c1.9,1.1,4.1,1.7,6.5,1.7c3,0,5.8-1,8-2.7c3-2.4,5-6.1,5-10.2
				c0-7.1-5.8-12.9-12.9-12.9S7.8,139.2,7.8,146.3z"/>
			<ellipse class="st6" cx="20.7" cy="146.3" rx="12.2" ry="12.2"/>
			<path class="st2" d="M13.5,146.1c0.2,1.6,1.5,1.8,1.5,1.8s-0.3,0.8,0.1,1.8c0.4,1,2.4,1,2.4,1s0.2,0.5,0.9,0.6
				c0.1,0.1,0.1,0.1,0.1,0.2c0.1,0.1,0.2,0.3,0.3,0.4c0.3,2,0.2,4-0.8,5.1l0,0c-0.8,0.1-1.7,0.2-2.5,0.4c-0.4,0.1-0.8,0.1-1.2,0.2
				c1.9,1.1,4.1,1.7,6.5,1.7c3,0,5.8-1,8-2.7c-0.4,0-0.8,0-1.2,0c-0.7,0-1.4,0-2.3,0v-0.1c-1.4-0.2-2.1-0.9-2.3-1.7
				c-0.2-0.4-0.2-0.9-0.2-1.3c0.4-0.1,0.7-0.2,1.1-0.4c1-0.5,1.8-1.3,2.2-2.4c0.1-0.2,0.1-0.3,0.2-0.5c0.3-1.1,0.4-2.5,0.3-3.8
				c0.4-0.2,0.8-0.6,0.9-1.2c0.3-1.3-0.9-1.6-0.9-1.6s1.3-0.2,1.3-1.8s-1.3-1.6-1.3-1.6s0.5-0.7-0.5-2c-0.9-1.2-2.2-0.5-2.2-0.5
				s-1-1.5-2.5-1.1s-2,1.3-2,1.3s0-0.9-1.8-0.4s-1.6,2.6-1.6,2.6s-1.2-0.6-1.8,0.7c-0.6,1.3,0.7,3.6,0.7,3.6S13.3,144.6,13.5,146.1z
				"/>
			<path class="st7" d="M7.8,146.3c0,4.8,2.6,9,6.5,11.2c1.9,1.1,4.1,1.7,6.5,1.7c3,0,5.8-1,8-2.7c3-2.4,5-6.1,5-10.2
				c0-7.1-5.8-12.9-12.9-12.9S7.8,139.2,7.8,146.3z"/>
		</g>
		<g>
			<circle class="st2" cx="14.2" cy="373.6" r="11.5"/>
			<path class="st6" d="M25,373.6c0,2.5-0.8,4.8-2.3,6.6c-2,2.5-5.1,4.2-8.6,4.2c-2.3,0-4.3-0.7-6.1-1.9c-2.8-2-4.7-5.2-4.7-9
				c0-6,4.9-10.9,10.9-10.9S25,367.6,25,373.6z"/>
			<path class="st2" d="M22.7,380.2c-2,2.5-5.1,4.2-8.6,4.2c-2.3,0-4.3-0.7-6.1-1.9c0.4-0.8,0.6-1.3,0.6-1.3c1.3-0.4,2.7-0.8,4.1-1
				c0.4-0.3,0.8-0.6,1.4-0.7c0.3-0.9,0.1-1.8-0.1-2.5c-0.4-0.3-0.8-0.7-1.1-1.1c-0.2-0.2-0.4-0.4-0.6-0.6c-0.3-0.2-2.6-1.2-2.7-5
				c0-0.2,0-0.3,0-0.5c-0.7-0.1-1.4,0.2-0.9,1.6c0.9,2.5-0.1,3.8-0.1,3.8c0.1-0.8-0.1-1.7-0.1-1.7c0,2.6-1.4,2.7-1.4,2.7
				s0.9-0.9-0.4-3.8c-1.3-2.9-0.9-6.8,1.6-7c1.3-0.1,2.2,0.6,2.8,1.1c1.4-1.2,3.6-1.5,4.9-0.6c0,0,2.2-0.6,2.9,0.1
				c0.2,0.1,0.1,0.4-0.3,0.8c0.6,0.4,1,1,1.2,1.9c0.4,1.6-0.1,2.7-0.6,3.5c0.3,2.8-0.2,5-2.4,5.2c0,0.1,0,0.2,0,0.2
				c0,0.1,0,0.2,0,0.3c0,0.6,0.1,0.9,0.2,1.2c0.3,0.1,0.7,0.2,0.9,0.3c2,0,4.3,0.2,4.3,0.2l0,0C22.4,379.9,22.6,380,22.7,380.2z"/>
			<circle class="st7" cx="14.2" cy="373.6" r="11.5"/>
		</g>
		<g>
			<ellipse class="st2" cx="435.4" cy="283.7" rx="12.7" ry="12.7"/>
			<path class="st6" d="M447.3,283.7c0,2.4-0.7,4.7-2,6.6c-2.1,3.2-5.8,5.3-10,5.3c-2.7,0-5.3-0.9-7.3-2.5c-2.8-2.2-4.7-5.6-4.7-9.5
				c0-6.6,5.4-12,12-12C442,271.7,447.3,277.1,447.3,283.7z"/>
			<path class="st2" d="M445.4,290.4c-2.1,3.2-5.8,5.3-10,5.3c-2.7,0-5.3-0.9-7.3-2.5c-0.2-0.7,0-1.4,0.1-2c0.2-1.4,1.8-2.6,1.8-3.7
				c-0.1-1-1.7-2.3-0.6-2.9c1.1-0.6,1.3-2.8,0.5-4.1c-0.7-0.8-1.3-2.2,0.1-3.9c0.8-1.1,2-1.6,3.3-1.8c0.8-0.5,2-0.7,3.5-0.5
				c1.5,0.2,2.6,0.6,3.5,1.2c0.9,0.6,1.4,1.4,1.8,2.3c0,0,1.3,2.5,0.4,5.2c-0.6,1.7,2.1,1.6,2.1,3.2c0.1,1.6-1.2,1.7-1,2.7
				C443.6,289.3,444.5,289.7,445.4,290.4z"/>
			<ellipse class="st7" cx="435.4" cy="283.7" rx="12.7" ry="12.7"/>
		</g>
	</g>
	<g>
		
			<rect x="279.4" y="178.1" transform="matrix(0.9175 -0.3978 0.3978 0.9175 -43.6351 146.9035)" class="st2" width="105.6" height="1.1"/>
		
			<rect x="170.1" y="95.9" transform="matrix(0.8503 -0.5263 0.5263 0.8503 -45.6404 110.0409)" class="st2" width="1.1" height="78.7"/>
		
			<rect x="54.8" y="290.9" transform="matrix(0.9787 -0.2051 0.2051 0.9787 -57.4505 28.6931)" class="st2" width="109.8" height="1.1"/>
		
			<rect x="279.4" y="178.1" transform="matrix(0.9175 -0.3978 0.3978 0.9175 -43.6351 146.9035)" class="st8" width="105.6" height="1.1"/>
		
			<rect x="326.5" y="253.9" transform="matrix(0.8474 -0.5309 0.5309 0.8474 -115.8043 221.2751)" class="st2" width="1.1" height="116.5"/>
		
			<rect x="326.5" y="253.9" transform="matrix(0.8474 -0.5309 0.5309 0.8474 -115.8043 221.2751)" class="st8" width="1.1" height="116.5"/>
		
			<rect x="170.1" y="95.9" transform="matrix(0.8503 -0.5263 0.5263 0.8503 -45.6404 110.0409)" class="st8" width="1.1" height="78.7"/>
		
			<rect x="54.8" y="290.9" transform="matrix(0.9787 -0.2051 0.2051 0.9787 -57.4505 28.6931)" class="st8" width="109.8" height="1.1"/>
		<path class="st2" d="M160.6,401.8L55.3,302.9l14.9-112.5l0.1-0.1l79.3-89l0.2-0.1l143.7-19.9l87.7,76l-0.1,0.3l-22.7,204.2
			l-0.4,0.1L160.6,401.8z M56.5,302.5l104.4,98.2L357.6,361l22.5-203.2l-86.9-75.3l-143,19.8l-78.9,88.6L56.5,302.5z"/>
		<path class="st8" d="M160.6,401.8L55.3,302.9l14.9-112.5l0.1-0.1l79.3-89l0.2-0.1l143.7-19.9l87.7,76l-0.1,0.3l-22.7,204.2
			l-0.4,0.1L160.6,401.8z M56.5,302.5l104.4,98.2L357.6,361l22.5-203.2l-86.9-75.3l-143,19.8l-78.9,88.6L56.5,302.5z"/>
		<g>
			<polygon class="st2" points="192.9,168.7 191.3,178.2 189.7,168.7 			"/>
			<path class="st2" d="M196.1,168.7c0,2.6-2.1,4.7-4.7,4.7s-4.7-2.1-4.7-4.7s2.1-4.7,4.7-4.7S196.1,166.1,196.1,168.7z"/>
			<path class="st6" d="M191.8,165.4c0.5,0.7,0.1,1.9-0.9,2.7c-1,0.8-2.3,0.9-2.8,0.2c-0.5-0.7-0.1-1.9,0.9-2.7
				C190,164.8,191.2,164.7,191.8,165.4z"/>
		</g>
		<g>
			<polygon class="st2" points="285.4,199.6 283.8,209.1 282.2,199.6 			"/>
			<circle class="st2" cx="283.8" cy="199.6" r="4.7"/>
			<path class="st6" d="M284.2,196.3c0.5,0.7,0.1,1.9-0.9,2.7c-1,0.8-2.3,0.9-2.8,0.2c-0.6-0.7-0.1-1.9,0.9-2.7
				C282.5,195.7,283.7,195.6,284.2,196.3z"/>
		</g>
		<g>
			<polygon class="st2" points="165.1,279.7 163.4,289.2 161.8,279.7 			"/>
			<circle class="st2" cx="163.4" cy="279.7" r="4.7"/>
			<path class="st6" d="M163.9,276.3c0.5,0.7,0.1,1.9-0.9,2.7c-1,0.8-2.3,0.9-2.8,0.2c-0.5-0.7-0.1-1.9,0.9-2.7
				C162.1,275.7,163.3,275.7,163.9,276.3z"/>
		</g>
		<g>
			<polygon class="st2" points="297.8,262.8 296.2,272.3 294.6,262.8 			"/>
			<path class="st2" d="M300.9,262.8c0,2.6-2.1,4.7-4.7,4.7s-4.7-2.1-4.7-4.7s2.1-4.7,4.7-4.7C298.8,258.1,300.9,260.1,300.9,262.8z
				"/>
			<path class="st6" d="M296.6,259.4c0.5,0.7,0.1,1.9-0.9,2.7c-1,0.8-2.3,0.9-2.8,0.2c-0.5-0.7-0.1-1.9,0.9-2.7
				C294.8,258.8,296.1,258.7,296.6,259.4z"/>
		</g>
	</g>
	<g>
		<path class="st2" d="M417.1,159.9c0,8.1-2.7,15.7-7.2,21.7c-1.6,2.2-3.5,4.1-5.5,5.8c-1.8,1.6-3.8,3-6,4.1
			c-5.2,2.8-11.1,4.5-17.5,4.5c-5.3,0-10.4-1.1-15-3.3c-0.4-0.2-0.8-0.4-1.2-0.6l0,0c-2.5-1.2-5-2.8-7.1-4.7c-3.3-2.7-6-6-8.1-9.7
			c-3.1-5.3-4.8-11.4-4.8-18c0-20,16.2-36.2,36.2-36.2C400.9,123.6,417.1,139.8,417.1,159.9z"/>
		
			<ellipse transform="matrix(0.7071 -0.7071 0.7071 0.7071 -1.4549 316.1914)" class="st7" cx="380.9" cy="159.9" rx="35.1" ry="35.1"/>
		<g>
			<path class="st9" d="M357.6,176.3l3.4-14.1c0,0,2.2-1.7,2.3-2.9c0.2-1.2-1.3-8.6-2.3-9.1c-0.9-0.5-6.5,1.5-6.7,3.1
				c-0.3,1.6,1.9,7.8,2.3,8.3l-5.6,16.4L357.6,176.3z"/>
			<path class="st2" d="M360.3,168.2l-2,18.5c-3.2-2.6-5.8-5.8-7.9-9.4c1.2-4.5,2.5-8.4,3.1-10.2c0.2-0.6,0.3-1,0.3-1l1.2,0.2
				l4.8,0.6l0.6,0.1L360.3,168.2z"/>
			<path class="st2" d="M369.6,180.1l-3.2,11.7c-0.4-0.2-0.8-0.4-1.2-0.6l0,0c-2.5-1.2-4.8-2.7-6.9-4.6c0.3-0.6,6.7-15.2,9.1-15
				L369.6,180.1z"/>
			<path class="st10" d="M360.3,168.2l-2,18.5c-3.2-2.6-5.8-5.8-7.9-9.4c1.2-4.5,2.5-8.4,3.1-10.2c0.2-0.6,0.3-1,0.3-1l1.2,0.2
				l4.8,0.6l0.6,0.1L360.3,168.2z"/>
			<path class="st10" d="M369.6,180.1l-3.2,11.7c-0.4-0.2-0.8-0.4-1.2-0.6l0,0c-2.5-1.2-4.8-2.7-6.9-4.6c0.3-0.6,6.7-15.2,9.1-15
				L369.6,180.1z"/>
			<polygon class="st2" points="361.8,165.8 360.7,168.2 353,167 353.2,165.5 			"/>
			<path class="st11" d="M402.3,147.7c-0.9,3.5,4,12.9,2,30.2c-2,17.3-21,16.2-29.5,10.5c-8.5-5.7-7-37.1-4.1-43.2
				C373.7,139.1,402.3,147.7,402.3,147.7z"/>
			<g>
				<path class="st2" d="M407.3,175.7c-0.2,0.5-0.4,1-0.5,1.5c-0.2,0.5-0.4,1-0.5,1.4c-0.3,0.9-0.6,1.9-0.9,2.8
					c-0.6,1.8-1.1,3.5-1.7,5.1c-1.8,1.6-3.7,2.9-5.8,4c-5,2.8-10.8,4.4-17,4.4c-5.2,0-10.1-1.1-14.5-3.2c-0.4-0.2-0.8-0.4-1.2-0.6
					c0-0.4,0-0.7,0-1c0-0.4,0-0.7,0-1c0-1,0.1-1.9,0.1-2.8c0.1-0.6,0.1-1.1,0.1-1.7c0-0.3,0.1-0.5,0.1-0.8c0.1-1,0.1-1.9,0.2-2.6
					c0-0.3,0.1-0.5,0.1-0.8c0.1-0.8,0.1-1.4,0.2-2.1c0.4-4,0.9-5.6,1.3-6.3c0.1-0.2,0.2-0.2,0.2-0.3c0.1-0.1,0.2-0.2,0.2-0.2
					s0.5-0.1,1.4-0.1c2.3-0.2,7.2-0.6,11.6-0.5c0.1,0,0.2,0,0.3,0c0.6,0,1.2,0.1,1.8,0.1c2.3,0.1,4.6,0.3,6.8,0.6
					c0.8,0.1,1.7,0.2,2.5,0.4c0.9,0.2,1.8,0.3,2.7,0.4c0.1,0.1,0.3,0.1,0.4,0.1c3.3,0.6,6.6,1.3,9.9,2.3
					C405.5,175.2,406.5,175.4,407.3,175.7L407.3,175.7z"/>
				<path class="st10" d="M407.3,175.7C407.3,175.7,407.3,175.7,407.3,175.7c-0.2,0.5-0.4,1-0.5,1.5c-0.2,0.5-0.4,1-0.5,1.4
					c-0.3,0.9-0.6,1.9-0.9,2.8c-0.6,1.8-1.1,3.5-1.7,5.1c-1.8,1.6-3.7,2.9-5.8,4c-5,2.8-10.8,4.4-17,4.4c-5.2,0-10.1-1.1-14.5-3.2
					c-0.4-0.2-0.8-0.4-1.2-0.6l0,0c0-0.4,0-0.7,0.1-1c0-0.4,0-0.7,0-1c0-1,0.1-1.9,0.1-2.8c0.1-0.6,0.1-1.1,0.1-1.7
					c0-0.3,0.1-0.5,0.1-0.8c0.1-1,0.1-1.9,0.2-2.6c0-0.3,0.1-0.5,0.1-0.8c0.1-0.8,0.1-1.4,0.2-2.1c0.4-4,0.9-5.6,1.3-6.3
					c0.1-0.2,0.2-0.2,0.2-0.3c0.1-0.1,0.2-0.2,0.2-0.2s0.5-0.1,1.4-0.1c2.3-0.2,7.2-0.6,11.6-0.5c0.1,0,0.2,0,0.3,0
					c0.6,0,1.2,0.1,1.8,0.1c2.3,0.1,4.6,0.3,6.8,0.6c0.8,0.1,1.7,0.2,2.5,0.4c0.9,0.2,1.8,0.3,2.7,0.4c0.1,0.1,0.3,0.1,0.4,0.1
					c3.3,0.6,6.6,1.3,9.9,2.3C405.5,175.2,406.5,175.4,407.3,175.7z"/>
			</g>
			<path class="st4" d="M387,170.2c7.8,0.6,8.7,2.9,7.9,4.2s-11.3,11.5-14.5,18.4C380.4,192.8,369,168.8,387,170.2z"/>
			<path class="st9" d="M383,178c7.7-1,10-4.2,10-4.2c-4.9-4.6-0.8-12.6-0.8-12.6l-9.3,1.7c0.3,1.6,0.4,2.8,0.4,3.9
				c0.1,5.6-2.5,5.6-2.5,5.6C379.2,175.5,383,178,383,178z"/>
			<path class="st12" d="M382.9,162.9c0.3,1.6,0.4,2.8,0.4,3.9c6.3,0,8.9-5.6,8.9-5.6L382.9,162.9z"/>
			<g>
				<g>
					<path class="st9" d="M388,137c-8-0.5-10.9,3.7-11.9,12c-1.3,10.3,0.6,17.8,10.8,16.1C400.7,162.9,401.3,137.8,388,137z"/>
					<path class="st13" d="M381.3,148.8c0,0-1.2,2-2.5,3.2c0,0,0.6,1.1,2.1,1L381.3,148.8z"/>
					<g>
						<path class="st11" d="M386.3,148.5c-0.1,0.7,0.3,1.2,0.7,1.2c0.4,0.1,0.8-0.5,0.9-1.1c0.1-0.7-0.3-1.2-0.7-1.2
							C386.7,147.3,386.3,147.8,386.3,148.5z"/>
						<path class="st11" d="M387.4,147.4l-1.4-0.7C386,146.7,386.6,148,387.4,147.4z"/>
					</g>
					<g>
						<path class="st11" d="M378.1,147.7c-0.1,0.7,0.3,1.2,0.7,1.2c0.4,0.1,0.8-0.5,0.9-1.1c0.1-0.7-0.3-1.2-0.7-1.2
							C378.6,146.5,378.1,147,378.1,147.7z"/>
						<path class="st11" d="M379.2,146.6l-1.4-0.7C377.8,145.9,378.4,147.2,379.2,146.6z"/>
					</g>
					<path class="st11" d="M390.1,144.7c-0.1,0-0.2-0.1-0.3-0.2c-1-1.4-3.1-1.2-3.1-1.2c-0.2,0-0.4-0.2-0.4-0.4
						c0-0.2,0.2-0.4,0.4-0.4c0.1,0,2.5-0.2,3.7,1.6c0.1,0.2,0.1,0.4-0.1,0.5C390.3,144.7,390.2,144.7,390.1,144.7z"/>
					<path class="st11" d="M377.6,143.1c-0.1,0-0.3-0.1-0.3-0.2c-0.1-0.2-0.1-0.4,0.2-0.5c2-1.2,3.5-0.5,3.6-0.5
						c0.2,0.1,0.3,0.3,0.2,0.5c-0.1,0.2-0.3,0.3-0.5,0.2c-0.1,0-1.2-0.5-2.9,0.5C377.7,143.1,377.7,143.1,377.6,143.1z"/>
					<g>
						<path class="st11" d="M381.9,156.3c0.4,1,0.8,2.8,0.8,2.8c0.2,0,0.4,0,0.5,0c2.3-0.1,3.4-0.9,3.9-1.8c0.3-0.5,0.3-1,0.3-1.4
							c0-0.5-0.1-0.8-0.1-0.8c-1.2,0.8-3.4,1.1-4.6,1.2C382.2,156.3,381.9,156.3,381.9,156.3z"/>
						<path class="st4" d="M382.7,156.3l0.3,0.8c2.2-0.1,3.8-0.5,4.4-1.2c0-0.5-0.1-0.8-0.1-0.8C386,155.9,383.8,156.2,382.7,156.3z
							"/>
						<path class="st13" d="M383.2,159.1c2.3-0.1,3.4-0.9,3.9-1.8c-0.8,0.1-1.8,0.3-2.6,0.6C383.8,158.3,383.4,158.7,383.2,159.1z"
							/>
					</g>
					<path class="st11" d="M396.1,151.1c0,0-3.4-6.8-2.5-11.9c0,0-15.6-7.4-17.2,8.7c0,0-0.8-14.4,13-14
						c13.8,0.4,12.7,20.6,5.2,26.3C394.5,160.2,398.1,155.4,396.1,151.1z"/>
					<path class="st9" d="M394.7,152.7c0.1-1.3,1.6-3.4,4-3c2.5,0.4,3.4,5.6-2.9,6.5C394.8,156.3,394.4,155.4,394.7,152.7z"/>
				</g>
				<path class="st11" d="M391.3,138.4c0,0-1.3,9.9,4.7,18.9c4.5,6.8-0.7,12.8-0.7,12.8s8-5.1,8.3-12.8c0,0,6.6-18.4-7.1-23.4
					c0,0-0.1-4.1-9-3.4c-9,0.8-16.2,8.5-17.5,18.3c-1.3,9.8,3.7,20.8,3.7,20.8S368.3,134.9,391.3,138.4z"/>
				<path class="st11" d="M391.9,138.6c-0.6,2.2-0.8,4.7-0.7,7.1c0.2,2.4,0.5,4.8,1.1,7.2c0.6,2.4,1.5,4.7,2.7,6.8
					c1.2,2.1,2.6,4.1,4.6,5.7c-2-1.5-3.5-3.5-4.8-5.6s-2.3-4.4-2.9-6.8c-0.7-2.4-1.2-4.8-1.4-7.3c-0.2-2.5-0.2-5,0.5-7.5
					L391.9,138.6z"/>
			</g>
			<g>
				<path class="st2" d="M409.1,180.9c-1.6,2.1-3.4,4-5.3,5.7c-1.8,1.6-3.7,2.9-5.8,4c0.1-0.5,0.3-0.9,0.4-1.4
					c1.4-3.9,3.8-7.5,5.8-9.9c1.7-2,2.9-3.4,3.2-3.6l0.1-0.1C408.2,176.4,408.7,178.3,409.1,180.9z"/>
				<path class="st10" d="M409.1,180.9c-1.6,2.1-3.4,4-5.3,5.7c-1.8,1.6-3.7,2.9-5.8,4c0.1-0.5,0.3-0.9,0.4-1.4
					c1.4-3.9,3.8-7.5,5.8-9.9c1.7-2,2.9-3.4,3.2-3.6l0.1-0.1C408.2,176.4,408.7,178.3,409.1,180.9z"/>
			</g>
		</g>
	</g>
	<g>
		<circle class="st2" cx="292.2" cy="84.1" r="19.8"/>
		<path class="st6" d="M310.9,84.1c0,4.9-1.9,9.4-5,12.7c-3.4,3.7-8.3,6-13.7,6c-5.8,0-11-2.6-14.4-6.8c-2.7-3.2-4.3-7.3-4.3-11.9
			c0-10.3,8.3-18.6,18.6-18.6C302.5,65.5,310.9,73.9,310.9,84.1z"/>
		<path class="st2" d="M305.9,96.8c-3.4,3.7-8.3,6-13.7,6c-5.8,0-11-2.6-14.4-6.8c0.1-0.1,0.2-0.1,0.3-0.1c0.3-0.3,0.5-0.7,0.9-0.9
			c0-0.1,0-0.1,0-0.2l0.3-0.1c0.5-0.3,1.2-0.5,2-0.5c0.2,0,0.4,0,0.6,0.1l1.1-0.2c0,0,0,0.1,0,0.3c1.4,0.1,3.7,0.3,6.3,0.4
			c0.6-0.5,0.9-1,1.1-1.7c0.2-0.7,0.3-1.4,0.2-2.1c-0.9-0.1-1.8-0.3-2.6-0.7c-1.4-0.7-2.6-2-3.2-3.7c-0.1-0.2-0.2-0.5-0.2-0.7
			c-0.5-2-0.6-4.6-0.1-7l0,0c-0.1,0-0.2,0-0.2,0c-0.1,0-0.2-0.1-0.2-0.2v-0.1c0-0.1,0.2-0.2,0.3-0.2h0.1c-0.2-1.6,0.1-3.2,0.3-4.2
			c-0.7-1.1-0.7-3.4-0.1-4.2c0.7-1,0.2-0.5,2-0.6s0.7-1.8,1.9-1.8c1.1,0,0.9,0.7,2.3,1.2c1.4,0.5,0.9-1.1,2.5-1.2
			c1.6-0.2,1.9,1.1,3,1.4s1.4,0,2.2,0s0.9,2.5,1.3,2.9s1-0.2,1.7,1c0.1,0.2,0.2,0.4,0.2,0.6c0,1.7-2.1,4.8-2.1,4.8
			c-0.1,0.7-0.2,1.5-0.4,2.3c0.6,0.6,0.8,1.6,0.4,2.5c-0.4,0.8-1,1.5-1.8,1.9c-0.4,0.8-0.8,1.6-1.2,2.1c-0.5,2.8-0.8,6.2,0.2,8.3
			C300.5,95.8,303.7,96.2,305.9,96.8z"/>
		<circle class="st14" cx="292.2" cy="84.1" r="19.8"/>
	</g>
	<g>
		<ellipse class="st2" cx="160.8" cy="399.5" rx="19.8" ry="19.8"/>
		<path class="st15" d="M179.4,399.5c0,5.3-2.2,10.1-5.8,13.5c-3.3,3.2-7.9,5.1-12.8,5.1c-3.9,0-7.6-1.2-10.6-3.3
			c-4.9-3.4-8.1-9-8.1-15.4c0-10.3,8.3-18.6,18.6-18.6C171.1,380.9,179.4,389.2,179.4,399.5z"/>
		<path class="st2" d="M173.5,413.1c-3.3,3.2-7.9,5.1-12.8,5.1c-3.9,0-7.6-1.2-10.6-3.3c1.3-0.2,2.8-0.4,4.2-0.5
			c1.1-2.4,0.8-6.3,0.3-9.6c-0.4-0.6-0.9-1.4-1.3-2.4c-0.9-0.5-1.6-1.3-2.1-2.2c-0.5-1-0.3-2.2,0.4-2.8c-0.4-1.7-0.6-3.2-0.6-4.5
			l-0.1,0.1c0,0-1.5-5.8,4.1-7.9c5.6-2.1,11.3,1.7,11.3,1.7s1.2-2.3,2.6-1.7c1.2,0.5,0.6,2.1,0.4,2.6c0.2-0.3,0.5-0.8,1.3-1.1
			c1-0.5,2.4,0.8-0.7,3.9c-0.3,0.3-0.7,0.6-1.1,0.8c0.2,1.2,0.3,2.7,0.1,4.2c0.6,2.8,0.5,5.8-0.1,8.1c-0.1,0.3-0.2,0.5-0.3,0.8
			c-0.7,1.9-2.1,3.4-3.7,4.2c-0.9,0.5-2,0.8-3,0.8c-0.1,0.9,0,1.7,0.3,2.5c0.3,0.7,0.7,1.4,1.3,1.9c2.9-0.2,5.5-0.4,7.2-0.5
			c0-0.3-0.1-0.4-0.1-0.4l1.3,0.3C172.6,413,173.1,413,173.5,413.1z"/>
		<ellipse class="st14" cx="160.8" cy="399.5" rx="19.8" ry="19.8"/>
	</g>
	<g>
		<ellipse class="st2" cx="70.8" cy="190.6" rx="19.8" ry="19.8"/>
		<path class="st15" d="M89.4,190.6c0,4.8-1.8,9.1-4.8,12.4c-3.4,3.8-8.4,6.2-13.9,6.2c-4.1,0-7.9-1.3-11-3.6
			c-4.7-3.4-7.7-8.9-7.7-15.1c0-10.3,8.3-18.6,18.6-18.6S89.4,180.3,89.4,190.6z"/>
		<path class="st2" d="M84.6,203.1c-3.4,3.8-8.4,6.2-13.9,6.2c-4.1,0-7.9-1.3-11-3.6l7.4-2.3c0.2,0.2,0.3,0.3,0.4,0.5
			c0.3-0.1,0.6-0.1,0.9-0.2c0.6-0.1,1.2-0.2,1.8-0.3c0.4-0.7,0.7-1.5,0.7-2.3c-0.6,0.1-1,0.1-1,0.1c0.2-0.7-0.9-2.3-0.9-2.3l-0.4,2
			c0,0-0.7-0.1-1.2-0.4c-0.5-0.3-1.1-2.5-1.1-2.5s-1.3,2.1-1.6,2.6c-0.3,0.5-1,0-1,0s-0.5-1.9,0.1-3.8c0.6-1.9-1.3-1.9-1.3-1.9
			s0,0.8-0.5,2.1c-0.5,1.3-0.5,2-0.5,2.7c0,0.8,0.1,1.3-0.5,1.3c-0.6,0-0.6-0.5-0.6-1.3c0.1-0.8-0.8-1.7-0.3-2.3
			c0.5-0.7,0.1-2.5,0.1-2.5c-0.3,1.3-1.8,1.2-2,2.2c-0.3,0.9,0.7,2.2,0.3,2.7s-1.2,0-1.2,0s0.6-1,0.2-1.6c-0.4-0.6-1.1-0.9-0.8-2.1
			c0.3-1.2,0.9-1.2,0.7-2.5c-0.2-1.3-0.8-1.2,0-1.8c0.8-0.5,1.9-2.8,1.9-3.9s-0.4-3.4,1.3-4.2c1.8-0.8,2.2-1.4,1.9-3.7
			c-0.3-2.2,1.3-2,3.5-1.6c0,0,1-1.7,2-1.3c1,0.3,1.8,0.1,2-0.4c0.2-0.6,2.9-0.5,3.4,0c0.4,0.5,1.9,0.9,2.8,0.5
			c0.9-0.4,3.3,1.1,3.2,2.1c-0.1,1-0.1,1.6,1.2,2.1c1.3,0.6,1.5,0.9,2.1,3.1s-0.4,3.1,0.7,4c1.1,0.8,1,4.3,1,5.3c0.1,1,0,2.2,0,2.2
			s0,0-0.3,0.1s-0.6-1.1-0.5-2.1c0.1-0.9-1.9-2.1-2.1-2.2c0.1,0.1,0.4,0.8,0.6,1.4c0.3,0.6,0.3,2.3,0.3,3.3c-0.1,1,1.2,1.7,1.2,1.7
			l-1.3,0.7c0,0-1-2.3-0.7-3.4c0.4-1.2-0.7-2.2-0.7-2.2v2.2c0,0-0.4,0.8-0.9,1.9c-0.6,1,0.4,1.3,0.6,1.9c0.2,0.6-1.2,0.6-1.2,0.6
			l-0.3-1.3l-0.5,1.3c-0.5,0.4-1.5,0.6-2.7,0.8c0.1,1,0.3,1.7,0.5,2.1c0.5,0,0.9-0.1,1.3-0.1c0.9,0,1.8,0,2.6,0.1l0,0
			C82.1,202.9,83.6,203,84.6,203.1z"/>
		<ellipse class="st14" cx="70.8" cy="190.6" rx="19.8" ry="19.8"/>
	</g>
	<g>
		<circle class="st2" cx="148.5" cy="100.2" r="33.2"/>
		<path class="st7" d="M180.6,100.2c0,7.3-2.5,14.1-6.7,19.6c-1.1,1.5-2.4,2.9-3.8,4.1c-1.3,1.2-2.6,2.2-4.1,3.2
			c-0.1,0.1-0.1,0.1-0.2,0.1c-1.1,0.7-2.3,1.4-3.6,2c-4.1,2-8.8,3.1-13.7,3.1c-9.8,0-18.5-4.4-24.4-11.3l0,0
			c-4.8-5.6-7.7-12.8-7.7-20.8c0-17.7,14.4-32.1,32.1-32.1C166.2,68.1,180.6,82.5,180.6,100.2z"/>
		<g id="_x3C_Group_x3E__4_">
			<path class="st16" d="M156,100.2c0.7-1.6,1.2-0.9,3.3,0.7c2,1.6,2.4,3,2.4,4.7s-0.3,5-0.3,5l5.3,6l-2.4,3.6l-6.2-7
				c0,0-3.1-2.3-3.6-4.9C154,105.7,156,100.2,156,100.2z"/>
			<g>
				<path class="st11" d="M155.3,98.4l4.3,7.8c0.2,0.4,0.2,0.8-0.1,1.1l-3.4,3.9c-0.4,0.5-1.2,0.4-1.6-0.2l-3.9-6.4L155.3,98.4z"/>
				<polygon class="st17" points="155.1,99.2 158.9,106.5 155.3,110.7 151.3,104.4 				"/>
			</g>
			<path class="st2" d="M166,127c0.1,0.2,0.1,0.3,0.1,0.5c-0.1-0.1-0.2-0.2-0.3-0.4c-1.1,0.7-2.3,1.4-3.6,2c0.3-2.2,0.6-4.2,0.9-5.8
				c0.3-1.5,0.5-2.8,0.7-3.7c0.2-0.9,0.3-1.4,0.3-1.5l0,0c0.4,0.1,0.8,0.2,1.1,0.4c1.7,0.8,3.3,2.7,4.9,5.3
				C168.8,125,167.5,126.1,166,127z"/>
			<g>
				<path class="st2" d="M166.1,127.5c-0.1-0.1-0.2-0.2-0.3-0.4c-1.1,0.7-2.3,1.4-3.6,2c-4.1,2-8.8,3.1-13.7,3.1
					c-9.8,0-18.5-4.4-24.4-11.3c0.6-0.2,1.1-0.3,1.7-0.4c0.1,0,0.1,0,0.2-0.1c0.1,0,0.2-0.1,0.4-0.1c1.4-0.3,2.9-0.5,4.5-0.7
					c0,0,0,0,0.1,0c0.7-0.1,1.3-0.2,2-0.3c0.9-0.1,1.8-0.2,2.6-0.3c0.1,0,0.2,0,0.2,0c2-0.2,4-0.4,5.9-0.6c0.6-0.1,1.3-0.1,1.9-0.1
					l0,0c0.8-0.1,1.6-0.1,2.4-0.2c0.8-0.1,1.6-0.1,2.3-0.1c0.3,0,0.6,0,0.9-0.1c0.9-0.1,1.9-0.1,2.7-0.1c2.8-0.1,5.4-0.1,7.3-0.1
					c0.5,0,0.9,0,1.3,0c0.7,0,1.4,0.1,1.9,0.1c1.1,0,1.7,0.1,1.7,0.1c0.2,0.5,0.3,1,0.4,1.5l0,0c0.6,2.2,1.1,4.7,1.6,7.3
					C166,127.2,166.1,127.4,166.1,127.5z"/>
				<path class="st12" d="M166.1,127.5c-0.1-0.1-0.2-0.2-0.3-0.4c-1.1,0.7-2.3,1.4-3.6,2c-4.1,2-8.8,3.1-13.7,3.1
					c-9.8,0-18.5-4.4-24.4-11.3c-0.3,0.1-0.5,0.1-0.8,0.2c0.3-0.1,0.5-0.1,0.8-0.2c0.6-0.1,1.1-0.3,1.7-0.4c0.1,0,0.1,0,0.2-0.1
					c0.1,0,0.2-0.1,0.4-0.1c1.4-0.3,2.9-0.5,4.5-0.7c0,0,0,0,0.1,0c0.7-0.1,1.3-0.2,2-0.3c0.9-0.1,1.8-0.2,2.6-0.3
					c0.1,0,0.2,0,0.2,0c2-0.2,4-0.4,5.9-0.6c0.6-0.1,1.2-0.1,1.9-0.2c0.8-0.1,1.6-0.1,2.4-0.2c0.8-0.1,1.6-0.1,2.3-0.1
					c0.3,0,0.6,0,0.9-0.1c0.9-0.1,1.9-0.1,2.7-0.1c2.8-0.1,5.4-0.1,7.4-0.1c0.5,0,0.9,0,1.3,0c0.7,0,1.3,0.1,1.9,0.1
					c1.1,0.1,1.7,0.1,1.7,0.1l0,0c0.2,0.5,0.3,1,0.4,1.5l0,0c0.6,2.2,1.1,4.7,1.6,7.3C166,127.2,166.1,127.4,166.1,127.5z"/>
			</g>
			<path class="st16" d="M135.4,119.1c3.5,3.2,12.2,2,12.2,2s5.4-1.5,4.2-3.2c-3.2-0.5-4.7-2-5.3-3.9c-0.4-1.1-0.4-2.3-0.3-3.6
				c0.1-0.7,0.2-1.3,0.3-2l-10.7-7.9C137.1,105.7,138.8,115.3,135.4,119.1z"/>
			<path class="st12" d="M138.1,105.5c0.4,6.4,5.7,8.2,8.3,8.5c-0.4-1.1-0.4-2.3-0.3-3.6L138.1,105.5z"/>
			<g>
				<path class="st11" d="M156.6,85.3c0,0,1.5,10-3.8,13.8c-5.3,3.8-5.3-14.7-5.3-14.7L156.6,85.3z"/>
				<path class="st16" d="M137.4,107c2.6,3.7,6.8,4.7,10.4,3.5c2.3-0.7,4.5-2.4,5.7-4.7c0.2-0.3,0.3-0.6,0.5-1
					c2.6-6.1,3.4-16.8-3-20.8c-4.6-2.9-10.7-1.5-13.5,3.1c-0.8,1.3-1.3,2.8-1.4,4.3C135.3,98.6,134.5,102.8,137.4,107z"/>
				<path class="st11" d="M146.5,95.3c-0.2,0.6,0.1,1.1,0.5,1.1c0.4,0.1,0.8-0.4,0.9-0.9c0.1-0.6-0.2-1.1-0.5-1.1
					C146.9,94.3,146.6,94.8,146.5,95.3z"/>
				<path class="st11" d="M152.9,96.4c-0.2,0.6,0.2,1.1,0.5,1.1c0.4,0.1,0.8-0.4,0.9-0.9s-0.2-1.1-0.5-1.1
					C153.5,95.4,153,95.9,152.9,96.4z"/>
				<path class="st18" d="M150.8,96.4c0.4,1.9,1,3.7,1.9,5.4c-0.9,0.4-2,0.5-2.8,0.1L150.8,96.4z"/>
				<path class="st11" d="M144.8,92.8c0.1,0.1,0.3,0,0.4-0.1c0.6-0.6,1.5-0.9,2.4-0.8c0.2,0.1,0.4-0.1,0.4-0.3s-0.1-0.4-0.3-0.4l0,0
					c-1.1-0.2-2.2,0.2-3,0.9c-0.2,0.1-0.2,0.4-0.1,0.5l0,0C144.7,92.8,144.8,92.8,144.8,92.8z"/>
				<path class="st11" d="M156.2,94.7c0.1,0.1,0.1,0.1,0.2,0.1c0.2-0.1,0.3-0.3,0.3-0.4l0,0c-0.3-1.1-1.1-1.9-2.1-2.3
					c-0.2-0.1-0.4,0.1-0.4,0.2l0,0c-0.1,0.2,0.1,0.4,0.2,0.4l0,0c0.8,0.3,1.4,1,1.7,1.9C155.9,94.6,156,94.7,156.2,94.7z"/>
				<path class="st11" d="M142.8,83.6v3.2c-1.1,0.4-1.9,1.5-1.6,2.8c0.7,2.7-1.3,6.7-3.5,8.1c0,0,0.1-1.1-0.9-1
					c-1,0.2-1.4,6.2,0.1,9.2c0,0-2.5-2.9-3.4-9.4c-0.8-6-0.4-10.8,1.1-12.9L142.8,83.6L142.8,83.6z"/>
				<path class="st16" d="M132,96.8c0.5,1.7,1.7,3.2,3.3,4c2.1,1.1,3.7-0.6,3.5-2.9c-0.2-2-1.4-5.1-3.7-5.3
					C132.7,92.5,131.4,94.7,132,96.8z"/>
				<path class="st11" d="M142.8,86.8c0,0,2.1,2.1,4.1,0.6c0,0,2.3,1.9,4.1,0.6c0,0,1,1.7,2.7,1.9s1.7-1.5,1.7-1.5s2.6,1.5,3.6,0.8
					c1-0.7-0.5-3.5-0.5-3.5s1.2-0.7,0.5-2.9c-0.8-2.3-4.5-1.8-4.5-1.8s0.2-2.1-2.4-4.3c-2.5-2.2-4.1,0.5-4.1,0.5s-2.5-3.4-5.5-2.9
					s-2.7,2.5-2.7,2.5s-3.5-2.2-5.1,0c-1.6,2.2,0,3.3,0,3.3s-3.5,1.2-3.4,3.6c0.2,2.4,2,2.1,2,2.1s-1,1.1,1.3,2.1
					c2.3,1,4.5-1.4,4.5-1.4s-0.9,1.3,0.8,2.3C141.2,89.6,142.8,86.8,142.8,86.8z"/>
				<g>
					<path class="st11" d="M149.7,103.9c-0.8,0.7-2,2.2-2,2.2c-0.2-0.1-0.3-0.2-0.5-0.3c-2-1.2-2.6-2.4-2.6-3.4c0-0.6,0.2-1,0.4-1.4
						c0.2-0.4,0.5-0.7,0.5-0.7c0.7,1.3,2.5,2.5,3.5,3.2C149.5,103.8,149.7,103.9,149.7,103.9z"/>
					<path class="st4" d="M149.1,103.5l-0.6,0.6c-1.9-1.1-3.1-2.2-3.4-3.1c0.2-0.4,0.5-0.7,0.5-0.7
						C146.3,101.6,148.1,102.9,149.1,103.5z"/>
					<path class="st13" d="M147.3,105.8c-2-1.2-2.6-2.4-2.6-3.4c0.7,0.4,1.4,1,2,1.8C147.1,104.7,147.3,105.3,147.3,105.8z"/>
				</g>
			</g>
			<path class="st2" d="M147.5,121.1c0,0-12.5-8.5-16.4-9c-4-0.5-3.3,4.5-3.3,4.5s-3.1,0-1.9,3.8c1.2,3.8,18.1,5.8,24.4,4
				c6.3-1.9,10-5.4,9-8.7c-1-3.3-3.9-0.5-3.9-0.5s-1.7-3.1-4.1-2.4C148.8,113.6,147.5,121.1,147.5,121.1z"/>
			<path class="st2" d="M174,119.7c-1.1,1.5-2.4,2.9-3.8,4.1c-1.3,1.2-2.6,2.2-4.1,3.2c0.1,0.2,0.1,0.3,0.1,0.5
				c-0.1-0.1-0.2-0.2-0.3-0.4c-0.8-1.1-1.8-2.4-2.7-3.9c-1.1-1.8-2.2-3.7-2.6-5.2l0,0c-0.2-0.5-0.3-0.9-0.3-1.3l-1-1.4l0.4-0.4
				l2.7-3.2l0.6-0.7l1.2,1.6c0,0,1.5-0.5,6.4,3.6C171.7,117.2,172.9,118.5,174,119.7z"/>
		</g>
	</g>
	<g>
		<circle class="st2" cx="56.9" cy="304.2" r="31.4"/>
		<path class="st7" d="M87.2,304.2c0,7.2-2.5,13.9-6.8,19.1c-1.3,1.6-2.7,3-4.3,4.3c-0.5,0.4-1,0.8-1.6,1.2c-1.4,1.1-3.1,2-4.7,2.8
			c-3.9,1.9-8.3,2.9-12.9,2.9c-5.5,0-10.8-1.5-15.2-4.1c-1.1-0.7-2.2-1.4-3.3-2.2l0,0c-0.1-0.1-0.1-0.1-0.2-0.2
			c-1.2-0.9-2.4-2-3.4-3.2c-5.1-5.4-8.1-12.7-8.1-20.6c0-16.7,13.6-30.3,30.3-30.3C73.6,274,87.2,287.6,87.2,304.2z"/>
		<g>
			<path class="st11" d="M76.1,327.6c-0.5,0.4-1,0.8-1.6,1.2c-1.4,1.1-3.1,2-4.7,2.8c-3.9,1.9-8.3,2.9-12.9,2.9
				c-5.5,0-10.8-1.5-15.2-4.1c-1.1-0.7-2.2-1.4-3.3-2.2l0,0c-0.1-0.1-0.1-0.1-0.2-0.2c0-0.1,0.1-0.2,0.1-0.2l0,0
				c0.3-1,0.5-2,0.7-3.1c0.3-1.4,0.6-2.9,0.9-4.5c0.7-4,1-8.4,0.9-12.8c-0.5-16,2.4-21.9,9-25c0.3-0.2,0.6-0.3,0.9-0.4
				c1.6-0.7,3.1-0.8,4.6-0.6l0,0c5.6,0.8,10.5,6,10.5,6s1.1,1.5,2.6,4.3c2.6,5.1,6.6,14.6,7.5,27.6l0,0
				C76,322,76.2,324.8,76.1,327.6z"/>
			<path class="st2" d="M75.8,319.4L75.8,319.4c-1.2-0.9-2.3-1.5-3.2-1.7c0,0-6.4-0.6-12-0.6c-0.6,0-1.2,0.1-1.8,0.1
				c-2.8,0.2-5.7,0.5-8.5,0.9c-0.8,0.1-1.7,0.3-2.5,0.4c-2.7,0.5-5.4,1-8.1,1.8c-1.3,0.4-2.5,0.7-3.8,1.1c-0.5,0.6-0.9,1.8-1.3,3.5
				c1,1.1,2.2,2.2,3.4,3.2c0.1,0.1,0.1,0.1,0.2,0.2l0,0c1,0.8,2.1,1.6,3.3,2.2c4.5,2.6,9.7,4.1,15.2,4.1c4.6,0,9-1,12.9-2.9
				c1.7-0.8,3.2-1.7,4.7-2.8c0.5-0.4,1.1-0.8,1.6-1.2c1.6-1.3,3-2.7,4.3-4.3C78.9,321.9,77.3,320.4,75.8,319.4z"/>
			<path class="st15" d="M75.8,319.4L75.8,319.4c-1.2-0.9-2.3-1.5-3.2-1.7c0,0-6.4-0.6-12-0.6c-0.6,0-1.2,0.1-1.8,0.1
				c-2.8,0.2-5.7,0.5-8.5,0.9c-0.8,0.1-1.7,0.3-2.5,0.4c-2.7,0.5-5.4,1-8.1,1.8c-1.3,0.4-2.5,0.7-3.8,1.1c-0.5,0.6-0.9,1.8-1.3,3.5
				c1,1.1,2.2,2.2,3.4,3.2c0.1,0.1,0.1,0.1,0.2,0.2l0,0c1,0.8,2.1,1.6,3.3,2.2c4.5,2.6,9.7,4.1,15.2,4.1c4.6,0,9-1,12.9-2.9
				c1.7-0.8,3.2-1.7,4.7-2.8c0.5-0.4,1.1-0.8,1.6-1.2c1.6-1.3,3-2.7,4.3-4.3C78.9,321.9,77.3,320.4,75.8,319.4z"/>
			<path class="st19" d="M58.4,323.5c-7-0.9-9.2-3.9-9.2-3.9c2.9-2.7,2.3-6.7,1.6-9.2c-0.4-1.4-0.9-2.3-0.9-2.3l8.5,1.6
				c-0.2,1.4-0.3,2.6-0.3,3.6c0,1.1,0.1,2,0.3,2.6c0.6,2.5,2,2.6,2,2.6C61.9,321.2,58.4,323.5,58.4,323.5z"/>
			<path class="st12" d="M58.1,313.2c0,1.1,0.1,2,0.3,2.6c-3.4-0.5-5.9-3.2-7.5-5.5c-0.4-1.4-0.9-2.3-0.9-2.3l8.5,1.6
				C58.2,311,58.1,312.2,58.1,313.2z"/>
			<g>
				<path class="st19" d="M56.7,286.2c7.3,0.3,9.6,4.3,9.8,11.9c0.3,9.5-2,16.1-11.2,13.8C43,308.7,44.5,285.8,56.7,286.2z"/>
				<path class="st20" d="M61.9,297.5c0,0,0.9,2,2,3.2c0,0-0.7,1-2,0.8L61.9,297.5z"/>
				<path class="st11" d="M54.3,293.1c-0.1,0-0.2-0.1-0.3-0.1c-0.2-0.2-0.2-0.4-0.1-0.5c1.3-1.5,3.5-1.1,3.6-1.1
					c0.2,0.1,0.4,0.2,0.3,0.5c-0.1,0.2-0.2,0.4-0.5,0.3c0,0-1.9-0.3-2.9,0.9C54.5,293,54.4,293.1,54.3,293.1z"/>
				<path class="st11" d="M65.8,292.6c-0.1,0-0.2,0-0.2-0.1c-1.4-1-2.5-0.7-2.6-0.7c-0.2,0.1-0.4-0.1-0.5-0.3
					c-0.1-0.2,0.1-0.4,0.3-0.5c0.1,0,1.5-0.5,3.3,0.8c0.2,0.1,0.2,0.4,0.1,0.5C66,292.6,65.9,292.6,65.8,292.6z"/>
				<g>
					<path class="st11" d="M60.7,304.3c-0.5,0.9-0.9,2.5-0.9,2.5c-0.2,0-0.3-0.1-0.5-0.1c-2.1-0.3-3.1-1.1-3.4-2
						c-0.2-0.5-0.2-0.9-0.2-1.3c0.1-0.4,0.2-0.7,0.2-0.7c1,0.8,3,1.2,4.1,1.4C60.4,304.2,60.7,304.3,60.7,304.3z"/>
					<path class="st4" d="M60,304.1l-0.3,0.7c-2-0.3-3.4-0.8-3.9-1.4c0.1-0.4,0.2-0.7,0.2-0.7C57,303.6,58.9,304,60,304.1z"/>
					<path class="st13" d="M59.3,306.7c-2.1-0.3-3.1-1.1-3.4-2c0.7,0.1,1.6,0.4,2.3,0.8C58.8,305.9,59.1,306.3,59.3,306.7z"/>
				</g>
				<path class="st11" d="M48.3,298.3c0,0,3.7-5.9,3.3-10.6c0,0,14.8-5.4,15,9.4c0,0,1.9-13.1-10.7-13.9
					c-12.6-0.8-13.3,17.7-6.9,23.5C48.9,306.8,46,302,48.3,298.3z"/>
				<path class="st19" d="M49.4,299.9c0-1.2-1.1-3.3-3.4-3.1c-2.3,0.2-3.6,4.8,2.1,6.2C48.9,303.1,49.4,302.4,49.4,299.9z"/>
				<path class="st11" d="M52.6,281.3c4-1.1,14.6-1.2,17.1,9.7l-1.4,0.7c0,0-3.5-1.9-8-2.4c0,0-0.9-1.6-2.1-2.9c0,0,0.2,1.8,0,2.8
					c0,0-6.9,1-10,3.8c-4.9,4.4-5.2,7.2-5.2,7.2S39.7,284.9,52.6,281.3z"/>
				<path class="st11" d="M70.8,290.9c-0.1,0-0.2-0.1-0.3-0.2c-1.2-3.8-3.4-6.4-6.4-7.9c-5.5-2.7-11.9-0.5-12-0.5
					c-0.2,0.1-0.3,0-0.4-0.2c-0.1-0.2,0-0.3,0.2-0.4c0.1,0,6.7-2.3,12.4,0.5c3.1,1.6,5.4,4.3,6.7,8.2
					C71,290.7,70.9,290.9,70.8,290.9C70.8,290.9,70.8,290.9,70.8,290.9z"/>
				<path class="st11" d="M55.3,296.7c0,0,1.7-1.4,2.5,0.5C57.9,297.2,56.6,296.6,55.3,296.7z"/>
				<path class="st11" d="M63.5,297.8c0,0,0.9-2,2.2-0.6C65.8,297.2,64.3,297.3,63.5,297.8z"/>
			</g>
		</g>
	</g>
	<g>
		<ellipse class="st2" cx="359.3" cy="358.1" rx="38.9" ry="38.9"/>
		<path class="st7" d="M397.1,358.1c0,6.1-1.4,11.9-4,17c-0.5,1-1.1,2-1.7,3c-0.5,0.7-0.9,1.5-1.5,2.2c-2.2,3.1-4.9,5.7-7.9,8
			c-0.7,0.5-1.4,1-2.1,1.5c-2.9,1.9-6.1,3.4-9.5,4.5c-3.5,1.1-7.2,1.7-11.1,1.7c-5.5,0-10.9-1.2-15.6-3.4c-0.6-0.3-1.2-0.6-1.8-0.9
			l0,0c-3.4-1.8-6.5-4-9.2-6.7c-2.6-2.6-4.9-5.6-6.7-8.8c-0.5-0.9-1-1.9-1.4-2.9l0,0c-2-4.6-3.2-9.7-3.2-15.1
			c0-20.8,16.9-37.8,37.8-37.8C380.2,320.3,397.1,337.3,397.1,358.1z"/>
		<g id="_x3C_Group_x3E__2_">
			<path class="st21" d="M340.5,356.6c-0.5,0.9-2.3,2.8-2.3,2.8l-3.3,15.4l-2.1,10c-2.6-2.6-4.9-5.6-6.7-8.8
				c0.3-0.8,0.5-1.7,0.8-2.5c2.3-7.1,5-15.4,5.1-16.2c0.4-1.4-0.9-8.6-0.6-9.9c0.3-1.3,6.8-2.8,8.2-2.8
				C341.1,344.6,340.9,355.7,340.5,356.6z"/>
			<path class="st2" d="M345.6,373.6L345.6,373.6l-1.3,14.1l-0.5,4.8c-0.6-0.3-1.2-0.6-1.8-0.9l0,0c-3.4-1.8-6.5-4-9.2-6.7
				c-2.6-2.6-4.9-5.6-6.7-8.8c-0.5-0.9-1-1.9-1.4-2.9l2.2,0.4l8,1.3l1.7,0.3l-2,9.7C334.6,384.9,341.9,374.7,345.6,373.6z"/>
			<path class="st10" d="M345.6,373.6L345.6,373.6l-1.3,14.1l-0.5,4.8c-0.6-0.3-1.2-0.6-1.8-0.9l0,0c-3.4-1.8-6.5-4-9.2-6.7
				c-2.6-2.6-4.9-5.6-6.7-8.8c-0.5-0.9-1-1.9-1.4-2.9l2.2,0.4l8,1.3l1.7,0.3l-2,9.7C334.6,384.9,341.9,374.7,345.6,373.6z"/>
			<g>
				<path class="st2" d="M393.1,375.1c-0.5,1-1.1,2-1.7,3c-0.5,0.7-0.9,1.5-1.5,2.2c-2.2,3.1-4.9,5.7-7.9,8c-0.7,0.5-1.4,1-2.1,1.5
					c-2.9,1.9-6.1,3.4-9.5,4.5c-3.5,1.1-7.2,1.7-11.1,1.7c-5.5,0-10.9-1.2-15.6-3.4c-0.6-0.3-1.2-0.6-1.8-0.9l0,0
					c1.5-10.9,3.5-17.3,3.7-18c0-0.1,0-0.1,0-0.1c3.9-1.1,7.9-1.9,12-2.4c0.1,0,0.1,0,0.2,0l0,0c5.8-0.5,11.6-0.6,17.5-0.4h0.1
					c4,0.1,8.1,0.5,12.1,1.2C387.8,372.2,390.5,373.3,393.1,375.1z"/>
				<path class="st10" d="M393.1,375.1c-0.5,1-1.1,2-1.7,3c-0.5,0.7-0.9,1.5-1.5,2.2c-2.2,3.1-4.9,5.7-7.9,8c-0.7,0.5-1.4,1-2.1,1.5
					c-2.9,1.9-6.1,3.4-9.5,4.5c-3.5,1.1-7.2,1.7-11.1,1.7c-5.5,0-10.9-1.2-15.6-3.4c-0.6-0.3-1.2-0.6-1.8-0.9l0,0
					c1.5-10.9,3.5-17.3,3.7-18c0-0.1,0-0.1,0-0.1c3.9-1.1,7.9-1.9,12-2.4c0.1,0,0.1,0,0.2,0l0,0c5.8-0.5,11.6-0.6,17.5-0.4h0.1
					c4,0.1,8.1,0.5,12.1,1.2C387.8,372.2,390.5,373.3,393.1,375.1z"/>
				<path class="st8" d="M382,388.3c-0.7,0.5-1.4,1-2.1,1.5c-2.9,1.9-6.1,3.4-9.5,4.5c-3.5,1.1-7.2,1.7-11.1,1.7
					c-5.5,0-10.9-1.2-15.6-3.4c-0.6-0.3-1.2-0.6-1.8-0.9l0,0c0.1-0.3,0.1-0.6,0.2-0.9c0.6-1,1.3-2,2.2-3c3.9-5,9.4-10,12.1-12.4
					c0.8,0.9,2.1,1.8,4.2,2.2c3.6,0.7,7.7-1,11-3c1.5,1.5,3.8,3.9,5.9,6.5c1.6,2,3.1,4.1,4,6C381.7,387.4,381.9,387.9,382,388.3z"/>
			</g>
			<path class="st21" d="M375.3,370.8c0,0-4.4,5.4-12.9,5.8c-7.3,0.3-4.9-5.4-4.9-5.4c2.7-0.7,4.2-2,4.9-3.5c0.9-2,0.7-4.4,0.1-6.8
				c-0.1-0.2-0.1-0.3-0.2-0.5L373,351C372.1,356.7,371.2,367.1,375.3,370.8z"/>
			<path class="st12" d="M371.3,359.3c-0.6,3.7-5,7.3-8.8,8.4c0.9-2,0.7-4.4,0.1-6.8l8.8-6.8C371.7,355.8,371.7,357.6,371.3,359.3z"
				/>
			<g>
				<path class="st11" d="M364.4,338.5c2.5,2.8,0.3,6.1-8.1,9.8c-1.9-4.4-0.5-11.6,2.2-12.8C361.1,334.3,362.2,336.1,364.4,338.5z"
					/>
				<path class="st21" d="M376.1,347.6c-2.2,7.4-3.2,11.9-7.9,14.8c-7.1,4.5-15.6-1.2-15.6-9.1c0-7.1,3.7-18.1,11.7-19.3
					c5.7-0.9,11.2,3,12.1,8.7C376.8,344.4,376.6,346,376.1,347.6z"/>
				<path class="st11" d="M364.4,347c-0.2,0.6-0.6,1-1,0.9c-0.4-0.1-0.6-0.7-0.5-1.3c0.2-0.6,0.6-1,1-0.9
					C364.3,345.8,364.5,346.4,364.4,347z"/>
				<path class="st11" d="M357.5,345.4c-0.2,0.6-0.6,1-1,0.9c-0.4-0.1-0.6-0.7-0.5-1.3s0.6-1,1-0.9
					C357.4,344.2,357.6,344.7,357.5,345.4z"/>
				<path class="st22" d="M359.6,346.2c-1.2,1.7-2.6,3.2-4.2,4.6c0.9,1.3,2.8,1.2,2.8,1.2L359.6,346.2z"/>
				<path class="st11" d="M366.8,345.3c0.1,0.1,0.2,0.1,0.3,0c0.2-0.1,0.3-0.3,0.2-0.5c-0.5-1.1-1.4-1.9-2.6-2.2
					c-0.2-0.1-0.4,0.1-0.4,0.3l0,0c0,0.2,0.1,0.4,0.3,0.4l0,0c0.9,0.2,1.7,0.9,2,1.8C366.6,345.2,366.7,345.3,366.8,345.3z"/>
				<path class="st11" d="M354.8,342.3c0.2,0.1,0.3,0,0.4-0.1c0.6-0.7,1.4-1.2,2.4-1.1c0.2,0,0.4-0.1,0.4-0.3c0-0.2-0.1-0.4-0.3-0.4
					c-1.2-0.1-2.3,0.5-3.1,1.4c-0.1,0.2-0.1,0.4,0.1,0.5l0,0C354.7,342.3,354.8,342.3,354.8,342.3z"/>
				<path class="st11" d="M374.7,340.2c-3.8,0.4-4.2,4.2-0.7,12.7c4.3-1.9,8.3-8.1,7.1-10.9C380,339.4,378,339.9,374.7,340.2z"/>
				<path class="st21" d="M378.3,354.5c-0.9,1.7-2.5,2.9-4.4,3.5c-2.5,0.7-3.7-1.6-3-3.9c0.6-2.1,2.7-5,5.2-4.7
					C378.5,349.8,379.4,352.4,378.3,354.5z"/>
				<path class="st11" d="M367.4,337.1c0,0-0.8,7.8,6.3,10.1c7.1,2.3,9.8-1.8,9.8-1.8s-1.1-0.1-1.8-0.3c0,0,3.1-3.1,1.8-7.1
					c-1.2-4-7.5-9.6-13.3-9.1c0,0-4.6-3.3-10.3-1.6c-5.7,1.7-6.5,8.2-6.5,8.2s0.8-3.9,3.4-4.4c0,0-4.9,7.2-1.1,10.4
					C355.6,341.6,358,333.9,367.4,337.1z"/>
				<g>
					<path class="st11" d="M356.9,354.8c0.6,0.9,1.4,2.6,1.4,2.6c0.2-0.1,0.4-0.1,0.5-0.2c2.3-0.7,3.2-1.7,3.4-2.7
						c0.2-0.5,0.1-1.1,0-1.4c-0.1-0.5-0.3-0.8-0.3-0.8c-1,1.1-3.2,1.9-4.3,2.2C357.2,354.7,356.9,354.8,356.9,354.8z"/>
					<path class="st4" d="M357.7,354.6l0.5,0.8c2.2-0.6,3.6-1.3,4.1-2.2c-0.1-0.5-0.3-0.8-0.3-0.8
						C361,353.4,358.9,354.2,357.7,354.6z"/>
					<path class="st13" d="M358.9,357.3c2.3-0.7,3.2-1.7,3.4-2.7c-0.8,0.3-1.7,0.6-2.4,1.2C359.3,356.3,359.1,356.8,358.9,357.3z"/>
				</g>
			</g>
		</g>
	</g>
	<g>
		<path class="st2" d="M246.4,175.4l-19.1-0.9c-1-0.1-1.9-0.9-1.8-2l0.9-19.1c0.1-1,0.9-1.9,2-1.8l19.1,0.9c1,0.1,1.9,0.9,1.8,2
			l-0.9,19.1C248.3,174.6,247.4,175.4,246.4,175.4z"/>
		<path class="st23" d="M243.9,159.2c-1.5-2.7-4.6-1.9-6.3,0.1c-1.5-2.1-4.6-3.3-6.3-0.7c-2.9,4.3,2.5,8.6,5.1,10.4
			c0.3,0.2,0.5,0.4,0.7,0.5c0.2-0.1,0.5-0.3,0.8-0.4C240.6,167.7,246.4,163.8,243.9,159.2z"/>
		<path class="st2" d="M239.4,173.3c0,0-3.3,6.7-10.1,8.5c0,0,3.8-2,3.9-9.2L239.4,173.3z"/>
	</g>
</g>
</svg>
