<?xml version="1.0" encoding="utf-8"?>
<!-- Generator: Adobe Illustrator 25.2.0, SVG Export Plug-In . SVG Version: 6.00 Build 0)  -->
<svg version="1.1" id="Layer_1" xmlns="http://www.w3.org/2000/svg" xmlns:xlink="http://www.w3.org/1999/xlink" x="0px" y="0px"
	 viewBox="0 0 500 379" style="enable-background:new 0 0 500 379;" xml:space="preserve">
<style type="text/css">
	.st0{fill:#1A2E35;}
	.st1{fill:#007CFF;}
	.st2{opacity:0.4;enable-background:new    ;}
	.st3{fill:#FFFFFF;}
	.st4{opacity:0.2;fill:#FFFFFF;}
	.st5{opacity:0.4;fill:#FFFFFF;enable-background:new    ;}
	.st6{opacity:0.2;enable-background:new    ;}
	.st7{opacity:0.5;fill:#FFFFFF;enable-background:new    ;}
	.st8{opacity:0.6;fill:#FFFFFF;enable-background:new    ;}
	.st9{opacity:0.1;enable-background:new    ;}
	.st10{fill:#FCB373;}
	.st11{fill:#B84D3C;}
	.st12{fill:none;stroke:#1A2E35;stroke-width:0.5;stroke-linecap:round;stroke-linejoin:round;stroke-miterlimit:10;}
	.st13{opacity:0.3;enable-background:new    ;}
</style>
<g>
	<g id="BACKGROUND">
	</g>
	<g id="DESIGNED_BY_FREEPIK_1_">
	</g>
	<g>
		<g>
			<path class="st0" d="M71.5,272.1H35.9c0-1.9,1.3-3.5,3.1-4l12.3-3.3v-68.6h4.8v68.6l12.3,3.3C70.3,268.6,71.5,270.2,71.5,272.1z"
				/>
			<g>
				<polygon class="st1" points="90.7,218.2 16.8,218.2 22.7,156.4 84.7,156.4 				"/>
			</g>
			<g class="st2">
				<polygon class="st3" points="90.7,218.2 16.8,218.2 22.7,156.4 84.7,156.4 				"/>
			</g>
			<path class="st4" d="M71.5,272.1H35.9c0-1.9,1.3-3.5,3.1-4l12.3-3.3V239l4.8-2.2v27.9l12.3,3.3C70.3,268.6,71.5,270.2,71.5,272.1
				z"/>
		</g>
		<g>
			<g>
				<polygon class="st0" points="92.1,369.2 87.1,369.2 84.7,354.7 92.1,354.7 				"/>
				<polygon class="st0" points="15.4,369.2 20.3,369.2 22.7,354.7 15.4,354.7 				"/>
			</g>
			<rect x="12.1" y="274.2" class="st1" width="83.1" height="84.2"/>
			<path class="st1" d="M13.7,272.1h80c2,0,3.6,1.6,3.6,3.6l0,0c0,2-1.6,3.6-3.6,3.6h-80c-2,0-3.6-1.6-3.6-3.6l0,0
				C10.2,273.7,11.8,272.1,13.7,272.1z"/>
			<path class="st5" d="M13.7,272.1h80c2,0,3.6,1.6,3.6,3.6l0,0c0,2-1.6,3.6-3.6,3.6h-80c-2,0-3.6-1.6-3.6-3.6l0,0
				C10.2,273.7,11.8,272.1,13.7,272.1z"/>
			<rect x="17.3" y="284.7" class="st5" width="72.9" height="19"/>
			<circle class="st6" cx="53.7" cy="294" r="2.5"/>
			<rect x="17.3" y="308.6" class="st5" width="72.9" height="19"/>
			<circle class="st6" cx="53.7" cy="318" r="2.5"/>
			<rect x="17.3" y="332.5" class="st5" width="72.9" height="19"/>
			<circle class="st6" cx="53.7" cy="341.9" r="2.5"/>
		</g>
	</g>
	<g>
		<g>
			<path class="st1" d="M133.5,193.4v135.9h333.4V193.4c0-7.2-5.9-13.1-13.1-13.1H146.6C139.3,180.3,133.5,186.1,133.5,193.4z"/>
			<path class="st5" d="M133.5,193.4v135.9h333.4V193.4c0-7.2-5.9-13.1-13.1-13.1H146.6C139.3,180.3,133.5,186.1,133.5,193.4z"/>
		</g>
		<g>
			
				<rect x="141.7" y="320.2" transform="matrix(-1 -1.224647e-16 1.224647e-16 -1 600.2697 684.8591)" class="st1" width="316.9" height="44.5"/>
			
				<rect x="141.7" y="320.2" transform="matrix(-1 -1.224647e-16 1.224647e-16 -1 600.2697 684.8591)" class="st5" width="316.9" height="44.5"/>
		</g>
		<g>
			<path class="st1" d="M444.9,257.2v105c0,3.8,3.1,6.9,6.9,6.9h37.3c3.8,0,6.9-3.1,6.9-6.9v-105c0-3.8-3.1-6.9-6.9-6.9h-37.3
				C448,250.3,444.9,253.4,444.9,257.2z"/>
			<path class="st1" d="M104.2,257.2v105c0,3.8,3.1,6.9,6.9,6.9h37.3c3.8,0,6.9-3.1,6.9-6.9v-105c0-3.8-3.1-6.9-6.9-6.9h-37.3
				C107.3,250.3,104.2,253.4,104.2,257.2z"/>
			<path class="st7" d="M444.9,257.2v105c0,3.8,3.1,6.9,6.9,6.9h37.3c3.8,0,6.9-3.1,6.9-6.9v-105c0-3.8-3.1-6.9-6.9-6.9h-37.3
				C448,250.3,444.9,253.4,444.9,257.2z"/>
			<path class="st7" d="M104.2,257.2v105c0,3.8,3.1,6.9,6.9,6.9h37.3c3.8,0,6.9-3.1,6.9-6.9v-105c0-3.8-3.1-6.9-6.9-6.9h-37.3
				C107.3,250.3,104.2,253.4,104.2,257.2z"/>
		</g>
		<g>
			<path class="st1" d="M144.7,295v27.1c0,4,3.2,7.2,7.2,7.2h296.5c4,0,7.2-3.2,7.2-7.2V295c0-4-3.2-7.2-7.2-7.2H151.9
				c-1,0-2,0.2-2.9,0.6C146.5,289.5,144.7,292.1,144.7,295z"/>
			<path class="st8" d="M144.7,295v27.1c0,4,3.2,7.2,7.2,7.2h296.5c4,0,7.2-3.2,7.2-7.2V295c0-4-3.2-7.2-7.2-7.2H151.9
				c-1,0-2,0.2-2.9,0.6C146.5,289.5,144.7,292.1,144.7,295z"/>
		</g>
	</g>
	<g>
		<path class="st6" d="M149,288.4l0.1,0.7c0,0-0.3,8.5,1.9,12.3c0.5,0.8,2.1,0.9,4.3,0.7c8.8-0.9,27.5-7.8,27.5-7.8
			s34.2,18.2,164.2,0c0,0,26.3,29.1,29.5,28.2c2.6-0.8,23.5-25.9,30.7-34.6l-233.1-7l-18.7-1.7l-7.3,0.9L149,288.4z"/>
	</g>
	<g>
		<path class="st3" d="M331.3,275c3.2,4.6,63.1,22.5,70.8,18.9c7.5-3.6,35.7-58.9,32.6-65.7l-0.2-0.3c-5.1-6.1-63.6-25.7-65.8-25.8
			c-1.4,0-15.3,24-25.8,44.5C335.6,260.6,330,273.1,331.3,275z"/>
		<path class="st9" d="M331.3,275c3.2,4.6,63.1,22.5,70.8,18.9c7.5-3.6,35.7-58.9,32.6-65.7l-0.2-0.3c0,0-17.6,11-26.6,21.6
			c-9,10.6-12.2,22.9-12.2,22.9l-29.9,0.5c0,0-12.5-18.1-23-26.3C335.6,260.6,330,273.1,331.3,275z"/>
	</g>
	<g>
		<path class="st3" d="M158,291.2c3.4,1.8,46.6-17.9,50.7-22.3c4.1-4.5-0.7-10.8-0.7-10.8s-6.3-14.4-12.5-28.4
			c-5-11.3-10-22.4-11.7-25.6c-3.7-7.1-49.2,6.7-57.3,7.9c-0.9,0.1-1.4,1-1.6,2.5C123.3,227.2,144.4,284.1,158,291.2z"/>
		<path class="st9" d="M158,291.2c3.4,1.8,46.6-17.9,50.7-22.3c4.1-4.5-0.7-10.8-0.7-10.8s-6.3-14.4-12.5-28.4
			c-22.2-4-48.8-7-48.8,1.3c0,14.2,16.1,51,16.1,51c-1.9,4.3-6,2.8-6,2.8s-6.6-24.5-12.9-41.8c-6.2-17.3-17.4-31-17.4-31l-1.6,2.5
			C123.3,227.2,144.4,284.1,158,291.2z"/>
	</g>
	<g id="_x3C_Group_x3E__2_">
		<path class="st10" d="M219.2,195.3c0,0-6.3,3.7-8.8,6.3c-2.4,2.6-5.3,15.2-6.5,18.5c-1.1,3.3,8.5,8.7,10.4,8.7s4.4-16.3,4.4-18.6
			c0.1-2.4-1.7-4.7-1.7-4.7l7.3-5.3L219.2,195.3z"/>
		<g>
			<path class="st1" d="M200.3,166.3c0,0,52.5-9.5,54.7,6.5c2.3,16-33.5,33.4-33.5,33.4l-9.3-7.4c0,0,21-15.1,20.2-18.5
				c-0.8-3.4-33,6.6-33,6.6L200.3,166.3z"/>
			<path class="st6" d="M214.2,197.4c-1.2,0.8-1.9,1.4-1.9,1.4l0.1,0.1l9.2,7.3c0,0,35.7-17.4,33.5-33.4c-0.9-6.3-9.6-8.6-19.8-9.2
				c-15.7-0.8-34.9,2.7-34.9,2.7l-0.8,20.5c0,0,20.3-6.3,29-7.2c2.3-0.2,3.8-0.1,3.9,0.6C233.2,183.1,219.3,193.6,214.2,197.4z"/>
			<path class="st6" d="M199.6,186.9c0,0,20.3-6.3,29-7.2c3.4-6.2,5.5-11.9,6.7-16c-15.7-0.8-34.9,2.7-34.9,2.7L199.6,186.9z"/>
		</g>
		<g>
			<polygon class="st10" points="407.9,284.3 405.4,274.9 383.5,279.8 385.9,289.2 			"/>
			<path class="st0" d="M404,273.9l2.9,11.4c0.1,0.4,0.5,0.6,0.9,0.6l8.8-0.3c0.8,0,1.4-0.7,1.4-1.5c0-0.1,0-0.2,0-0.3
				c-1-3.7-1.9-6.3-3.1-10.9c-0.7-2.9-2.7-11.5-3.7-15.5c-1-3.9-5-3.5-5-1.7c0.3,7.6-0.5,13.6-2,16.5
				C403.9,272.7,403.9,273.3,404,273.9z"/>
			<path class="st1" d="M405.2,272.9c0,0.1-0.1,0.2-0.1,0.2c-0.1,0-0.2,0-0.2-0.1c-0.3-0.3-2.9-2.8-2.7-4c0.1-0.3,0.3-0.5,0.5-0.5
				c0.4-0.2,0.9-0.1,1.3,0.2c0.5,0.4,0.8,1,0.9,1.7C405.1,271.2,405.2,272.1,405.2,272.9z M404.7,272.4c0.1-1.2-0.3-2.4-1-3.3
				c-0.3-0.2-0.6-0.2-0.9-0.1c-0.2,0.1-0.2,0.2-0.2,0.2c0,0.1,0,0.2,0,0.3C403.1,270.6,403.8,271.6,404.7,272.4z"/>
			<path class="st1" d="M405.2,273c0,0.1-0.1,0.1-0.2,0.2c-0.1,0-2.9,0.5-4.1-0.4c-0.3-0.2-0.5-0.5-0.5-0.9
				c-0.1-0.3,0.1-0.7,0.4-0.9c0.9-0.4,3.5,0.9,4.3,1.7l0,0.1C405.2,272.9,405.2,273,405.2,273z M401.2,272.4c1,0.4,2.1,0.6,3.2,0.4
				c-1-0.8-2.8-1.6-3.4-1.3c-0.1,0-0.2,0.1-0.1,0.4l0,0.1C400.9,272.2,401,272.3,401.2,272.4z"/>
			<polygon class="st6" points="385.9,289.2 383.5,279.8 394.8,277.3 397.3,286.7 			"/>
			<polygon class="st10" points="383.5,310.5 389.4,302.8 372,288.5 366.1,296.2 			"/>
			<path class="st0" d="M389.3,301l-7.1,9.4c-0.2,0.3-0.2,0.8,0,1.1l5.7,6.8c0.5,0.6,1.4,0.7,2,0.2c0.1-0.1,0.2-0.1,0.2-0.2
				c2.3-3.1,3.8-5.4,6.7-9.2c1.8-2.3,7.4-9.2,9.9-12.5c2.5-3.2-0.4-6.1-1.7-5c-5.8,5-11,8.1-14.2,8.7
				C390.2,300.2,389.7,300.6,389.3,301z"/>
			<path class="st1" d="M390.8,301.3c-0.1,0.1-0.2,0.1-0.3,0c-0.1,0-0.1-0.1-0.1-0.2c0-0.4,0.4-4.1,1.5-4.6c0.2-0.1,0.5-0.1,0.7,0.1
				c0.4,0.2,0.7,0.7,0.7,1.1c0,0.7-0.3,1.3-0.7,1.8C392.1,300.2,391.4,300.8,390.8,301.3z M390.9,300.6c1-0.7,1.7-1.7,2-2.8
				c0-0.3-0.2-0.6-0.5-0.7c-0.2-0.1-0.3-0.1-0.3,0c-0.1,0-0.2,0.1-0.2,0.2C391.3,298.2,391,299.4,390.9,300.6z"/>
			<path class="st1" d="M390.8,301.4c-0.1,0-0.2,0-0.2,0c-0.1-0.1-2.2-2-2.2-3.4c0-0.4,0.1-0.7,0.4-1c0.2-0.3,0.6-0.4,0.9-0.2
				c0.9,0.5,1.5,3.3,1.3,4.4l-0.1,0.1C390.8,301.3,390.8,301.4,390.8,301.4z M388.7,297.9c0.3,1.1,0.9,2,1.7,2.8
				c0-1.3-0.5-3.2-1.1-3.5c-0.1,0-0.2-0.1-0.4,0.1l-0.1,0.1C388.8,297.5,388.7,297.7,388.7,297.9z"/>
			<polygon class="st6" points="366.1,296.3 372,288.5 381,295.9 375.1,303.6 			"/>
			<path class="st0" d="M164.5,248.2l6,25.1c2,35.3,116.6,21.9,155.8,19.9c2.1-0.1,5-0.2,8.4-0.4c16.3-0.7,44.6-1.8,53.4-2.1
				c1.7-0.1,2.7-0.1,2.7-0.1l-0.4-15.8c-3.6,0.1-8,0-13.1-0.1c-1.7-0.1-3.6-0.1-5.4-0.2c-17-0.8-40-2.6-63.9-4.7
				c-0.7-0.1-1.3-0.1-2-0.2c-57.9-5.3-120.9-12.6-120.9-12.6L164.5,248.2z"/>
			<g>
				<polygon class="st1" points="391.4,271.4 396.6,291.6 390.6,293.2 384.7,272.3 				"/>
				<polygon class="st8" points="391.4,271.4 396.6,291.6 390.6,293.2 384.7,272.3 				"/>
			</g>
			<path class="st6" d="M305.9,269.5c8.1,6,19.9,15.9,28.7,23.3c16.3-0.7,44.6-1.8,53.4-2.1l-16.3-16.3c-17-0.8-40-2.6-63.9-4.7
				C307.3,269.6,306.6,269.6,305.9,269.5z"/>
			<path class="st0" d="M170.5,273.3c23.9,34.5,81.1-7.9,81.1-7.9c0.6-0.3,1.3-0.6,2-0.8c0,0,0,0,0,0c8-3.2,19.3-6.1,25.5-7.8
				c0.9-0.2,1.6-0.5,2.2-0.7c3.3-1,5.8-1.5,7.5-1.1c1.6,0.4,3.8,1.2,6.4,2.3c22.2,9.9,75.9,45.6,75.9,45.6l9.5-12.7
				c0,0-11.2-10.3-26.7-22.6c-22.6-17.8-54.2-39.7-73.1-39.7c-31.9,0-73.5,19.2-73.5,19.2l-23-12.5L170.5,273.3z"/>
			<g>
				<polygon class="st1" points="383.5,289.5 370.8,306.2 365.8,302.4 378.7,284.9 				"/>
				<polygon class="st8" points="383.5,289.5 370.8,306.2 365.8,302.4 378.7,284.9 				"/>
			</g>
			<path class="st6" d="M218.8,262.1l34.8,2.5c0,0,0,0,0,0c8-3.2,19.3-6.1,25.5-7.8C246.7,256.6,218.8,262.1,218.8,262.1z"/>
		</g>
		<path class="st1" d="M172.5,284.1l39-40c-5.9-2.3-9.7-6.2-12-11.1c-3.4-7-3.7-15.8-2.7-23.8c0.5-3.8,1.2-7.4,2.1-10.5
			c4-14.4,1.7-29.6,1.7-29.6c-25.9-5.4-54.9,7.9-56.7,19.7C136.4,239,172.5,284.1,172.5,284.1z"/>
		<path class="st10" d="M212.7,180.2l5-8.6c0,0,0.7-4.4,1.5-6.5c0.9-2.1,12.8-5,16.3-3.1c3.5,1.9,4.4,2,4.4,2s-4.8,8.4-7.3,9.6
			c-2.5,1.2-6.3,1.1-6.3,1.1l-7.1,10.1L212.7,180.2z"/>
		<path class="st10" d="M170.5,181.9c3.3,3,9.4,3.3,12.8,3.2c1.4,0,2.4-0.2,2.4-0.2c-0.4-2.5,6.8-6,6.8-6l-6.5-12l-0.3-0.5
			c-0.2,0.2-0.5,0.4-0.7,0.6l0,0c-0.9,0.8-1.8,1.4-2.7,1.8c-4.1,2.2-7.6,1.4-7.6,1.4S162.9,174.8,170.5,181.9z"/>
		<path class="st6" d="M183.2,185c1.4,0,2.4-0.2,2.4-0.2c-0.4-2.5,6.8-6,6.8-6l-6.5-12l-1,0.1l0,0l-2.1,0.3c0,0-0.3,0.6-0.6,1.6
			C181.1,172.1,179.1,179.8,183.2,185z"/>
		<g>
			<path class="st0" d="M221,165c0,0-7.9,10.9-16.6,9.6c-8.7-1.3,8.8-19,8.8-19L221,165z"/>
			<path class="st10" d="M182.3,167.7c-1,5.9,2,10.8,6.6,13.1c2.9,1.5,6.5,1.9,9.9,1c0.5-0.1,0.9-0.3,1.4-0.5
				c8.2-3.3,19.1-12.7,16.7-22.6c-1.6-7.1-8.7-11.5-15.8-9.8c-2,0.5-3.9,1.4-5.5,2.7C188.1,157.7,183.4,160.9,182.3,167.7z"/>
			<path class="st11" d="M205,170.2c-1.4,2.1-2.5,4.5-3.3,6.9c-1.3-0.4-2.3-1.4-2.8-2.6L205,170.2z"/>
			<path class="st0" d="M202.6,161.1c0.1,0.2,0.2,0.3,0.4,0.3c1.2,0,2.3,0.6,3,1.5c0.1,0.2,0.4,0.3,0.6,0.2c0.2-0.1,0.3-0.4,0.2-0.6
				c0,0,0,0,0,0c-0.8-1.2-2.2-1.9-3.7-1.9c-0.3,0-0.5,0.2-0.5,0.4c0,0,0,0,0,0C202.5,161,202.5,161.1,202.6,161.1z"/>
			<path class="st0" d="M211.7,173.5c0,0.1,0.1,0.2,0.1,0.2c0.2,0.1,0.5,0,0.6-0.2c0,0,0,0,0,0c0.7-1.3,0.8-2.8,0.2-4.2
				c-0.1-0.2-0.4-0.3-0.6-0.2l0,0c-0.2,0.1-0.3,0.4-0.2,0.6l0,0c0.5,1.1,0.4,2.3-0.2,3.3C211.6,173.3,211.6,173.4,211.7,173.5z"/>
			<path class="st0" d="M209.4,150.4l-3,3c-1.4-0.6-3.2-0.3-4.1,1.2c-1.9,3.3-7.5,5.1-10.9,4.3c0,0,1.2-1,0.1-1.8
				c-1.1-0.8-7.2,4.5-8.6,8.8c0,0,0.3-5.2,5.6-12.1c4.9-6.4,9.8-10.6,13.2-11.3L209.4,150.4z"/>
			<path class="st12" d="M203,166.8c0,0-2.7,0.3-3.4-1.8"/>
			<path class="st12" d="M208,171.7c0,0-0.6,2.2,1.4,2.7"/>
			<path class="st0" d="M191.7,172.1c0.4,0.2,0.8,0.6,1.1,0.9c0.6,0.8,1.9,2.3,1.4,3.4c-0.4,1-2.4-1.3-2.7-1.6c-0.4-0.5-1-1.2-1-1.8
				C190.5,171.8,191.1,171.8,191.7,172.1z"/>
			<path class="st0" d="M204.9,151.5c0,0-0.1,8.6,4.7,11.5c0,0-1.9-2.6-1.5-5.5c0,0,2.6,9.5,5.9,10.5c3.3,1,2.4,4.5,5.8,4.5
				c3.4,0,4.9-6.6,4.9-6.6s1.7,1.1,2.4-2.6c0.7-3.7-0.5-4.6-1.5-6.5c-1-1.8,3.1-3.6,2.1-7.4c-1-3.9-8.1-12.6-13.6-7.6
				c0,0-1.7-5.8-8.4-4.5c-3.3,0.7-2.9,3.1-2.9,3.1s-1.7-3.3-7.9-0.9c-6.2,2.3-7.7,10-7.7,10s-1.6-1-2.7,3.6s0.8,7.4,0.8,7.4
				S195.2,148.8,204.9,151.5z"/>
			<path class="st10" d="M186.7,152.8c-1.1,2.1-1.4,4.6-0.7,6.9c0.9,3.1,4.1,2.9,6.1,0.6c1.8-2.1,3.5-6.2,1.4-8.5
				C191.4,149.4,188.1,150.2,186.7,152.8z"/>
			<path class="st12" d="M224.7,156.2c0,0,3.8,3.2,5.5,0.4"/>
			<path class="st12" d="M223.7,164c0,0,2.7,4.4-0.9,8.1"/>
			<path class="st12" d="M203.2,141.5c0,0-1-3.1,0.8-5.6"/>
			<path class="st12" d="M203,140.4c0,0-7.4-5.5-13.8,1.8"/>
		</g>
		<path class="st6" d="M214.2,197.4c-1.2,0.8-1.9,1.4-1.9,1.4l0.1,0.1C213,198.4,213.6,197.9,214.2,197.4z"/>
		<path class="st6" d="M149.1,208.5c0,0,22.1,34.8,47,25.9c1.2-0.4,2.3-0.8,3.3-1.3c-3.4-7-3.7-15.8-2.7-23.8
			c-3,3.3-7.1,6.6-11.1,6.2C178,214.7,149.1,208.5,149.1,208.5z"/>
		<g>
			<path class="st1" d="M143.8,188.9c4.6-8.1,41.3,21.3,45.3,19.1c4-2.2,25-33.6,25-33.6l10.6,5.3c0,0-18,37.9-25.1,44.9
				c-9.2,9-44.7-6.2-49.9-12.5C144.7,205.7,140.7,194.3,143.8,188.9z"/>
			<path class="st9" d="M143.8,188.9c4.6-8.1,41.3,21.3,45.3,19.1c4-2.2,25-33.6,25-33.6l10.6,5.3c0,0-18,37.9-25.1,44.9
				c-9.2,9-44.7-6.2-49.9-12.5C144.7,205.7,140.7,194.3,143.8,188.9z"/>
		</g>
		<g>
			<path class="st1" d="M210.6,236l28.6,5.4c0,0-9.4,12.3-11.9,21.3c0,0-14.1,5.9-18.4,17.2l-26.9-9.9c0,0,3.6-10.4,19.3-16.5
				C201.3,253.5,202.9,240.4,210.6,236z"/>
			<path class="st13" d="M210.6,236l28.6,5.4c0,0-9.4,12.3-11.9,21.3c0,0-14.1,5.9-18.4,17.2l-26.9-9.9c0,0,3.6-10.4,19.3-16.5
				C201.3,253.5,202.9,240.4,210.6,236z"/>
			<path class="st3" d="M235.7,237.2l0.3,2.2l1.3-0.4l-0.5,2.5c0,0-8,8-10.3,20.2c0,0-13,7.4-17.7,16.6l-27.4-10.1l0.5-0.8l-1.5-0.3
				l22-15l5.2-16L235.7,237.2z"/>
			<path class="st6" d="M235.7,237.2l0.3,2.2l1.3-0.4l-0.5,2.5c0,0-8,8-10.3,20.2c0,0-13,7.4-17.7,16.6l-27.4-10.1l0.5-0.8l-1.5-0.3
				l22-15l5.2-16L235.7,237.2z"/>
			<path class="st3" d="M226.4,261.7c0,0-8.6,2.4-17.1,16L179.6,266c0,0,6.7-12,19.6-14.5c0,0,1.4-12.1,7.9-18l2.5,0.3l26,3.4
				C235.7,237.2,226.3,254.3,226.4,261.7z"/>
			<path class="st9" d="M226.4,261.7l-27.2-10.2c0,0,1.4-12.1,7.9-18l2.5,0.3c-1.2,3.1-2,7.4-0.2,11.1
				C212.9,251.9,226.4,261.7,226.4,261.7z"/>
		</g>
	</g>
</g>
</svg>
